<?xml version="1.0" encoding="UTF-8"?>
<svg width="76px" height="76px" viewBox="0 0 76 76" version="1.1" xmlns="http://www.w3.org/2000/svg" xmlns:xlink="http://www.w3.org/1999/xlink">
    <!-- Generator: Sketch 58 (84663) - https://sketch.com -->
    <title>step-03</title>
    <desc>Created with Sketch.</desc>
    <g id="Page-1" stroke="none" stroke-width="1" fill="none" fill-rule="evenodd">
        <g id="step-03" transform="translate(2.000000, 2.000000)">
            <circle id="Oval" stroke="#0675CE" stroke-width="4" stroke-linecap="round" stroke-linejoin="round" transform="translate(36.000000, 36.000000) scale(1, -1) translate(-36.000000, -36.000000) " cx="36" cy="36" r="36"></circle>
            <path d="M33.125,33.2519531 L35.7265625,33.2519531 C37.0390691,33.2402343 38.0790977,32.900394 38.8466797,32.2324219 C39.6142617,31.5644498 39.9980469,30.5976626 39.9980469,29.3320312 C39.9980469,28.1132752 39.6787141,27.1669956 39.0400391,26.4931641 C38.401364,25.8193326 37.4257878,25.4824219 36.1132812,25.4824219 C34.964838,25.4824219 34.0214881,25.8134733 33.2832031,26.4755859 C32.5449182,27.1376986 32.1757812,28.0019478 32.1757812,29.0683594 L27.9042969,29.0683594 C27.9042969,27.7558528 28.2529262,26.5605523 28.9501953,25.4824219 C29.6474644,24.4042915 30.6201109,23.5634796 31.8681641,22.9599609 C33.1162172,22.3564423 34.5136641,22.0546875 36.0605469,22.0546875 C38.6152471,22.0546875 40.622063,22.6962826 42.0810547,23.9794922 C43.5400464,25.2627017 44.2695312,27.0468636 44.2695312,29.3320312 C44.2695312,30.4804745 43.903324,31.5615184 43.1708984,32.5751953 C42.4384729,33.5888723 41.4921933,34.353513 40.3320312,34.8691406 C41.7382883,35.3496118 42.8076135,36.1054636 43.5400391,37.1367188 C44.2724646,38.1679739 44.6386719,39.3984304 44.6386719,40.828125 C44.6386719,43.1250115 43.8505938,44.9531182 42.2744141,46.3125 C40.6982343,47.6718818 38.626966,48.3515625 36.0605469,48.3515625 C33.5995971,48.3515625 31.5839922,47.6953191 30.0136719,46.3828125 C28.4433515,45.0703059 27.6582031,43.3242296 27.6582031,41.1445312 L31.9296875,41.1445312 C31.9296875,42.2695369 32.3076134,43.1835902 33.0634766,43.8867188 C33.8193397,44.5898473 34.8359311,44.9414062 36.1132812,44.9414062 C37.4375066,44.9414062 38.4804649,44.5898473 39.2421875,43.8867188 C40.0039101,43.1835902 40.3847656,42.1640692 40.3847656,40.828125 C40.3847656,39.480462 39.9863321,38.443363 39.1894531,37.7167969 C38.3925741,36.9902307 37.2089922,36.6269531 35.6386719,36.6269531 L33.125,36.6269531 L33.125,33.2519531 Z" id="3" fill="#292E33" fill-rule="nonzero"></path>
        </g>
    </g>
</svg>