<?xml version="1.0" encoding="UTF-8"?>
<svg width="76px" height="76px" viewBox="0 0 76 76" version="1.1" xmlns="http://www.w3.org/2000/svg" xmlns:xlink="http://www.w3.org/1999/xlink">
    <!-- Generator: Sketch 58 (84663) - https://sketch.com -->
    <title>step-02</title>
    <desc>Created with Sketch.</desc>
    <g id="Page-1" stroke="none" stroke-width="1" fill="none" fill-rule="evenodd">
        <g id="step-02" transform="translate(2.000000, 2.000000)">
            <circle id="Oval" stroke="#B8C3CC" stroke-width="2" stroke-linecap="round" stroke-linejoin="round" transform="translate(36.000000, 36.000000) scale(1, -1) translate(-36.000000, -36.000000) " cx="36" cy="36" r="36"></circle>
            <path d="M36,72 C55.882251,72 72,55.882251 72,36 C72,16.117749 55.882251,0 36,0 C16.117749,0 0,16.117749 0,36 C0,55.882251 16.117749,72 36,72 Z" id="Oval" stroke="#0675CE" stroke-width="4" stroke-linecap="round" stroke-linejoin="round" stroke-dasharray="150.7200012207031,226.0800018310547" transform="translate(36.000000, 36.000000) scale(1, -1) translate(-36.000000, -36.000000) "></path>
            <path d="M45.3945312,48 L28.1855469,48 L28.1855469,45.0644531 L36.7109375,35.765625 C37.9414124,34.3945244 38.8173802,33.249028 39.3388672,32.3291016 C39.8603542,31.4091751 40.1210938,30.4863328 40.1210938,29.5605469 C40.1210938,28.3417908 39.7783237,27.3574256 39.0927734,26.6074219 C38.4072231,25.8574181 37.4843808,25.4824219 36.3242188,25.4824219 C34.9413993,25.4824219 33.8691444,25.9042927 33.1074219,26.7480469 C32.3456993,27.5918011 31.9648438,28.7460864 31.9648438,30.2109375 L27.6933594,30.2109375 C27.6933594,28.652336 28.047848,27.2490297 28.7568359,26.0009766 C29.4658239,24.7529234 30.4794856,23.7832066 31.7978516,23.0917969 C33.1162175,22.4003872 34.6367101,22.0546875 36.359375,22.0546875 C38.8437624,22.0546875 40.8037038,22.6787047 42.2392578,23.9267578 C43.6748119,25.1748109 44.3925781,26.9003796 44.3925781,29.1035156 C44.3925781,30.3808658 44.0322302,31.7197196 43.3115234,33.1201172 C42.5908167,34.5205148 41.4101645,36.1113192 39.7695312,37.8925781 L33.5117188,44.5898438 L45.3945312,44.5898438 L45.3945312,48 Z" id="2" fill="#292E33" fill-rule="nonzero"></path>
        </g>
    </g>
</svg>