<?xml version="1.0" encoding="UTF-8"?>
<svg width="178px" height="68px" viewBox="0 0 178 68" version="1.1" xmlns="http://www.w3.org/2000/svg" xmlns:xlink="http://www.w3.org/1999/xlink">
    <!-- Generator: Sketch 58 (84663) - https://sketch.com -->
    <title>timeline-2018</title>
    <desc>Created with Sketch.</desc>
    <defs>
        <linearGradient x1="100%" y1="50%" x2="0%" y2="50%" id="linearGradient-1">
            <stop stop-color="#25C1CB" offset="0%"></stop>
            <stop stop-color="#0675CE" offset="100%"></stop>
        </linearGradient>
    </defs>
    <g id="Page-1" stroke="none" stroke-width="1" fill="none" fill-rule="evenodd">
        <g id="timeline-2018">
            <path d="M4,0 L173.696872,0 C175.906011,-1.61026889e-14 177.696872,1.790861 177.696872,4 C177.696872,4.58883195 177.56687,5.17040199 177.316147,5.70318815 L149.080853,65.7031881 C148.421102,67.1051579 147.011026,68 145.461578,68 L4,68 C1.790861,68 2.705415e-16,66.209139 0,64 L0,4 C-2.705415e-16,1.790861 1.790861,4.05812251e-16 4,0 Z" id="Rectangle" fill="url(#linearGradient-1)"></path>
            <path d="M38.875,44 L25.4902344,44 L25.4902344,41.7167969 L32.1210938,34.484375 C33.0781298,33.4179634 33.7594381,32.5270218 34.1650391,31.8115234 C34.57064,31.0960251 34.7734375,30.3782588 34.7734375,29.6582031 C34.7734375,28.7102817 34.5068386,27.9446644 33.9736328,27.3613281 C33.440427,26.7779919 32.7226608,26.4863281 31.8203125,26.4863281 C30.7447863,26.4863281 29.9108103,26.8144498 29.3183594,27.4707031 C28.7259085,28.1269564 28.4296875,29.0247339 28.4296875,30.1640625 L25.1074219,30.1640625 C25.1074219,28.9518169 25.3831353,27.8603564 25.9345703,26.8896484 C26.4860054,25.9189405 27.2744089,25.1647162 28.2998047,24.6269531 C29.3252004,24.08919 30.5078058,23.8203125 31.8476562,23.8203125 C33.7799576,23.8203125 35.3043564,24.3056592 36.4208984,25.2763672 C37.5374405,26.2470752 38.0957031,27.5891841 38.0957031,29.3027344 C38.0957031,30.2962289 37.8154325,31.3375597 37.2548828,32.4267578 C36.6943331,33.515956 35.776048,34.7532483 34.5,36.1386719 L29.6328125,41.3476562 L38.875,41.3476562 L38.875,44 Z M54.3789062,35.6191406 C54.3789062,38.4811341 53.8434298,40.6389901 52.7724609,42.0927734 C51.701492,43.5465567 50.0722766,44.2734375 47.8847656,44.2734375 C45.7337132,44.2734375 44.1136122,43.5647857 43.0244141,42.1474609 C41.9352159,40.7301361 41.3769533,38.6315243 41.3496094,35.8515625 L41.3496094,32.40625 C41.3496094,29.5442565 41.8850858,27.3977936 42.9560547,25.9667969 C44.0270236,24.5358001 45.6607963,23.8203125 47.8574219,23.8203125 C50.0358182,23.8203125 51.6604764,24.5175712 52.7314453,25.9121094 C53.8024142,27.3066476 54.3515624,29.3938663 54.3789062,32.1738281 L54.3789062,35.6191406 Z M51.0566406,31.9003906 C51.0566406,30.0318917 50.8014348,28.6624392 50.2910156,27.7919922 C49.7805964,26.9215451 48.9694066,26.4863281 47.8574219,26.4863281 C46.772781,26.4863281 45.975263,26.8987589 45.4648438,27.7236328 C44.9544245,28.5485067 44.685547,29.8359288 44.6582031,31.5859375 L44.6582031,36.0976562 C44.6582031,37.9570405 44.9179662,39.3424434 45.4375,40.2539062 C45.9570338,41.1653691 46.7727809,41.6210938 47.8847656,41.6210938 C48.9511772,41.6210938 49.7395808,41.1995485 50.25,40.3564453 C50.7604192,39.5133421 51.0292967,38.1940194 51.0566406,36.3984375 L51.0566406,31.9003906 Z M66.3144531,44 L63.0058594,44 L63.0058594,28.0175781 L58.125,29.6855469 L58.125,26.8828125 L65.890625,24.0253906 L66.3144531,24.0253906 L66.3144531,44 Z M79.6855469,23.8203125 C81.5540458,23.8203125 83.0351508,24.3170523 84.1289062,25.3105469 C85.2226617,26.3040414 85.7695312,27.648429 85.7695312,29.34375 C85.7695312,30.3190153 85.5188827,31.1871707 85.0175781,31.9482422 C84.5162735,32.7093137 83.8326866,33.3085916 82.9667969,33.7460938 C84.0058646,34.2291691 84.8056613,34.8899698 85.3662109,35.7285156 C85.9267606,36.5670615 86.2070312,37.5149687 86.2070312,38.5722656 C86.2070312,40.3222744 85.6145893,41.7099558 84.4296875,42.7353516 C83.2447857,43.7607473 81.6679786,44.2734375 79.6992188,44.2734375 C77.7213443,44.2734375 76.1377013,43.7584687 74.9482422,42.7285156 C73.7587831,41.6985626 73.1640625,40.3131597 73.1640625,38.5722656 C73.1640625,37.505854 73.4466118,36.5488324 74.0117188,35.7011719 C74.5768257,34.8535114 75.3697866,34.2018252 76.390625,33.7460938 C75.5338499,33.3085916 74.8570988,32.7093137 74.3603516,31.9482422 C73.8636043,31.1871707 73.6152344,30.3190153 73.6152344,29.34375 C73.6152344,27.648429 74.1621039,26.3040414 75.2558594,25.3105469 C76.3496148,24.3170523 77.8261626,23.8203125 79.6855469,23.8203125 Z M79.671875,35.1132812 C78.7057243,35.1132812 77.9332711,35.4140595 77.3544922,36.015625 C76.7757133,36.6171905 76.4863281,37.4147086 76.4863281,38.4082031 C76.4863281,39.3834684 76.771156,40.1627575 77.3408203,40.7460938 C77.9104846,41.32943 78.6966096,41.6210938 79.6992188,41.6210938 C80.7018279,41.6210938 81.4833956,41.3385445 82.0439453,40.7734375 C82.604495,40.2083305 82.8847656,39.4199269 82.8847656,38.4082031 C82.8847656,37.4238232 82.5908233,36.6285838 82.0029297,36.0224609 C81.4150361,35.4163381 80.6380257,35.1132812 79.671875,35.1132812 Z M79.6855469,26.4863281 C78.8378864,26.4863281 78.1679712,26.752927 77.6757812,27.2861328 C77.1835913,27.8193386 76.9375,28.5462194 76.9375,29.4667969 C76.9375,30.3782598 77.1858699,31.1028619 77.6826172,31.640625 C78.1793645,32.1783881 78.8515583,32.4472656 79.6992188,32.4472656 C80.5468792,32.4472656 81.219073,32.1783881 81.7158203,31.640625 C82.2125676,31.1028619 82.4609375,30.3782598 82.4609375,29.4667969 C82.4609375,28.6009071 82.210289,27.8876981 81.7089844,27.3271484 C81.2076798,26.7665988 80.5332074,26.4863281 79.6855469,26.4863281 Z" id="2018" fill="#FFFFFF" fill-rule="nonzero"></path>
        </g>
    </g>
</svg>