<?xml version="1.0" encoding="UTF-8"?>
<svg width="178px" height="68px" viewBox="0 0 178 68" version="1.1" xmlns="http://www.w3.org/2000/svg" xmlns:xlink="http://www.w3.org/1999/xlink">
    <!-- Generator: Sketch 58 (84663) - https://sketch.com -->
    <title>timeline-2015</title>
    <desc>Created with Sketch.</desc>
    <defs>
        <linearGradient x1="100%" y1="50%" x2="0%" y2="50%" id="linearGradient-1">
            <stop stop-color="#25C1CB" offset="0%"></stop>
            <stop stop-color="#0675CE" offset="100%"></stop>
        </linearGradient>
    </defs>
    <g id="Page-1" stroke="none" stroke-width="1" fill="none" fill-rule="evenodd">
        <g id="timeline-2015">
            <path d="M4,0 L173.696872,0 C175.906011,-1.61026889e-14 177.696872,1.790861 177.696872,4 C177.696872,4.58883195 177.56687,5.17040199 177.316147,5.70318815 L149.080853,65.7031881 C148.421102,67.1051579 147.011026,68 145.461578,68 L4,68 C1.790861,68 2.705415e-16,66.209139 0,64 L0,4 C-2.705415e-16,1.790861 1.790861,4.05812251e-16 4,0 Z" id="Rectangle" fill="url(#linearGradient-1)"></path>
            <path d="M38.875,44 L25.4902344,44 L25.4902344,41.7167969 L32.1210938,34.484375 C33.0781298,33.4179634 33.7594381,32.5270218 34.1650391,31.8115234 C34.57064,31.0960251 34.7734375,30.3782588 34.7734375,29.6582031 C34.7734375,28.7102817 34.5068386,27.9446644 33.9736328,27.3613281 C33.440427,26.7779919 32.7226608,26.4863281 31.8203125,26.4863281 C30.7447863,26.4863281 29.9108103,26.8144498 29.3183594,27.4707031 C28.7259085,28.1269564 28.4296875,29.0247339 28.4296875,30.1640625 L25.1074219,30.1640625 C25.1074219,28.9518169 25.3831353,27.8603564 25.9345703,26.8896484 C26.4860054,25.9189405 27.2744089,25.1647162 28.2998047,24.6269531 C29.3252004,24.08919 30.5078058,23.8203125 31.8476562,23.8203125 C33.7799576,23.8203125 35.3043564,24.3056592 36.4208984,25.2763672 C37.5374405,26.2470752 38.0957031,27.5891841 38.0957031,29.3027344 C38.0957031,30.2962289 37.8154325,31.3375597 37.2548828,32.4267578 C36.6943331,33.515956 35.776048,34.7532483 34.5,36.1386719 L29.6328125,41.3476562 L38.875,41.3476562 L38.875,44 Z M54.3789062,35.6191406 C54.3789062,38.4811341 53.8434298,40.6389901 52.7724609,42.0927734 C51.701492,43.5465567 50.0722766,44.2734375 47.8847656,44.2734375 C45.7337132,44.2734375 44.1136122,43.5647857 43.0244141,42.1474609 C41.9352159,40.7301361 41.3769533,38.6315243 41.3496094,35.8515625 L41.3496094,32.40625 C41.3496094,29.5442565 41.8850858,27.3977936 42.9560547,25.9667969 C44.0270236,24.5358001 45.6607963,23.8203125 47.8574219,23.8203125 C50.0358182,23.8203125 51.6604764,24.5175712 52.7314453,25.9121094 C53.8024142,27.3066476 54.3515624,29.3938663 54.3789062,32.1738281 L54.3789062,35.6191406 Z M51.0566406,31.9003906 C51.0566406,30.0318917 50.8014348,28.6624392 50.2910156,27.7919922 C49.7805964,26.9215451 48.9694066,26.4863281 47.8574219,26.4863281 C46.772781,26.4863281 45.975263,26.8987589 45.4648438,27.7236328 C44.9544245,28.5485067 44.685547,29.8359288 44.6582031,31.5859375 L44.6582031,36.0976562 C44.6582031,37.9570405 44.9179662,39.3424434 45.4375,40.2539062 C45.9570338,41.1653691 46.7727809,41.6210938 47.8847656,41.6210938 C48.9511772,41.6210938 49.7395808,41.1995485 50.25,40.3564453 C50.7604192,39.5133421 51.0292967,38.1940194 51.0566406,36.3984375 L51.0566406,31.9003906 Z M66.3144531,44 L63.0058594,44 L63.0058594,28.0175781 L58.125,29.6855469 L58.125,26.8828125 L65.890625,24.0253906 L66.3144531,24.0253906 L66.3144531,44 Z M74.1210938,34.1289062 L75.2011719,24.09375 L85.8925781,24.09375 L85.8925781,26.9648438 L77.9628906,26.9648438 L77.4160156,31.7226562 C78.3365931,31.1940078 79.3756453,30.9296875 80.5332031,30.9296875 C82.4290459,30.9296875 83.903315,31.5358012 84.9560547,32.7480469 C86.0087943,33.9602925 86.5351562,35.5917866 86.5351562,37.6425781 C86.5351562,39.6660257 85.9518288,41.2770122 84.7851562,42.4755859 C83.6184837,43.6741596 82.0188904,44.2734375 79.9863281,44.2734375 C78.1634023,44.2734375 76.6526753,43.7561901 75.4541016,42.7216797 C74.2555279,41.6871693 73.6061203,40.3222741 73.5058594,38.6269531 L76.71875,38.6269531 C76.8463548,39.5931038 77.1927055,40.3336563 77.7578125,40.8486328 C78.3229195,41.3636093 79.0611934,41.6210938 79.9726562,41.6210938 C80.9934947,41.6210938 81.7887341,41.2565141 82.3583984,40.5273438 C82.9280627,39.7981734 83.2128906,38.8046938 83.2128906,37.546875 C83.2128906,36.3346294 82.8984406,35.3753291 82.2695312,34.6689453 C81.6406219,33.9625616 80.7747451,33.609375 79.671875,33.609375 C79.0703095,33.609375 78.5598979,33.6891268 78.140625,33.8486328 C77.7213521,34.0081388 77.2656275,34.3203102 76.7734375,34.7851562 L74.1210938,34.1289062 Z" id="2015" fill="#FFFFFF" fill-rule="nonzero"></path>
        </g>
    </g>
</svg>