<svg xmlns="http://www.w3.org/2000/svg" width="329" height="330" fill="none" viewBox="0 0 329 330">
    <path fill="#25C1CB" fill-rule="evenodd" d="M243.823 33.325c-28.809-19.493-58.571-39.63-91.75-31.457C119.952 9.782 95.393 33.206 78.5 61.77c-30.978 8.18-58.785 31.17-71.119 60.515-10.723 25.512.446 51.898 11.554 78.136 3.197 7.552 6.389 15.092 9.052 22.596 1.218 3.432 2.404 6.881 3.587 10.327 8.803 25.619 17.53 51.021 39.127 67.341 27.457 20.75 61.946 34.047 95.617 26.871 34.801-7.417 62.217-33.531 80.085-64.318 5.211-8.98 9.898-18.568 13.57-28.459 9.834-4.192 19.006-9.872 27.211-17.578 27.66-25.975 47.132-62.959 40.52-100.323-5.808-32.824-35.376-51.917-63.711-70.214-2.649-1.71-5.286-3.413-7.892-5.12-4.078-2.67-8.168-5.438-12.278-8.218z" clip-rule="evenodd"/>
    <g fill="#50E8F2" opacity=".36">
        <circle cx="2.966" cy="187.764" r="2.966"/>
        <circle cx="2.966" cy="195.853" r="2.966"/>
        <circle cx="2.966" cy="204.482" r="2.966"/>
        <circle cx="2.966" cy="212.571" r="2.966"/>
        <circle cx="2.966" cy="221.2" r="2.966"/>
        <circle cx="33.166" cy="187.764" r="2.966"/>
        <circle cx="33.166" cy="195.853" r="2.966"/>
        <circle cx="33.166" cy="204.482" r="2.966"/>
        <circle cx="33.166" cy="212.571" r="2.966"/>
        <circle cx="33.166" cy="221.2" r="2.966"/>
        <circle cx="10.516" cy="187.764" r="2.966"/>
        <circle cx="10.516" cy="195.853" r="2.966"/>
        <circle cx="10.516" cy="204.482" r="2.966"/>
        <circle cx="10.516" cy="212.571" r="2.966"/>
        <circle cx="10.516" cy="221.2" r="2.966"/>
        <circle cx="40.716" cy="187.764" r="2.966"/>
        <circle cx="40.716" cy="195.853" r="2.966"/>
        <circle cx="40.716" cy="204.482" r="2.966"/>
        <circle cx="40.716" cy="212.571" r="2.966"/>
        <circle cx="40.716" cy="221.2" r="2.966"/>
        <circle cx="18.066" cy="187.764" r="2.966"/>
        <circle cx="18.066" cy="195.853" r="2.966"/>
        <circle cx="18.066" cy="204.482" r="2.966"/>
        <circle cx="18.066" cy="212.571" r="2.966"/>
        <circle cx="18.066" cy="221.2" r="2.966"/>
        <circle cx="25.616" cy="187.764" r="2.966"/>
        <circle cx="25.616" cy="195.853" r="2.966"/>
        <circle cx="25.616" cy="204.482" r="2.966"/>
        <circle cx="25.616" cy="212.571" r="2.966"/>
        <circle cx="25.616" cy="221.2" r="2.966"/>
    </g>
    <g fill="#50E8F2" opacity=".36">
        <circle cx="48.359" cy="187.764" r="2.966"/>
        <circle cx="48.359" cy="195.853" r="2.966"/>
        <circle cx="48.359" cy="204.482" r="2.966"/>
        <circle cx="48.359" cy="212.571" r="2.966"/>
        <circle cx="48.359" cy="221.2" r="2.966"/>
        <circle cx="78.559" cy="187.764" r="2.966"/>
        <circle cx="78.559" cy="195.853" r="2.966"/>
        <circle cx="78.559" cy="204.482" r="2.966"/>
        <circle cx="78.559" cy="212.571" r="2.966"/>
        <circle cx="78.559" cy="221.2" r="2.966"/>
        <circle cx="55.908" cy="187.764" r="2.966"/>
        <circle cx="55.908" cy="195.853" r="2.966"/>
        <circle cx="55.908" cy="204.482" r="2.966"/>
        <circle cx="55.908" cy="212.571" r="2.966"/>
        <circle cx="55.908" cy="221.2" r="2.966"/>
        <circle cx="86.109" cy="187.764" r="2.966"/>
        <circle cx="86.109" cy="195.853" r="2.966"/>
        <circle cx="86.109" cy="204.482" r="2.966"/>
        <circle cx="86.109" cy="212.571" r="2.966"/>
        <circle cx="86.109" cy="221.2" r="2.966"/>
        <circle cx="63.459" cy="187.764" r="2.966"/>
        <circle cx="63.459" cy="195.853" r="2.966"/>
        <circle cx="63.459" cy="204.482" r="2.966"/>
        <circle cx="63.459" cy="212.571" r="2.966"/>
        <circle cx="63.459" cy="221.2" r="2.966"/>
        <circle cx="71.009" cy="187.764" r="2.966"/>
        <circle cx="71.009" cy="195.853" r="2.966"/>
        <circle cx="71.009" cy="204.482" r="2.966"/>
        <circle cx="71.009" cy="212.571" r="2.966"/>
        <circle cx="71.009" cy="221.2" r="2.966"/>
    </g>
    <g fill="#50E8F2" opacity=".36">
        <circle cx="2.966" cy="229.778" r="2.966"/>
        <circle cx="2.966" cy="237.867" r="2.966"/>
        <circle cx="2.966" cy="246.496" r="2.966"/>
        <circle cx="2.966" cy="254.585" r="2.966"/>
        <circle cx="2.966" cy="263.213" r="2.966"/>
        <circle cx="33.166" cy="229.778" r="2.966"/>
        <circle cx="33.166" cy="237.867" r="2.966"/>
        <circle cx="33.166" cy="246.496" r="2.966"/>
        <circle cx="33.166" cy="254.585" r="2.966"/>
        <circle cx="33.166" cy="263.213" r="2.966"/>
        <circle cx="10.516" cy="229.778" r="2.966"/>
        <circle cx="10.516" cy="237.867" r="2.966"/>
        <circle cx="10.516" cy="246.496" r="2.966"/>
        <circle cx="10.516" cy="254.585" r="2.966"/>
        <circle cx="10.516" cy="263.213" r="2.966"/>
        <circle cx="40.716" cy="229.778" r="2.966"/>
        <circle cx="40.716" cy="237.867" r="2.966"/>
        <circle cx="40.716" cy="246.496" r="2.966"/>
        <circle cx="40.716" cy="254.585" r="2.966"/>
        <circle cx="40.716" cy="263.213" r="2.966"/>
        <circle cx="18.066" cy="229.778" r="2.966"/>
        <circle cx="18.066" cy="237.867" r="2.966"/>
        <circle cx="18.066" cy="246.496" r="2.966"/>
        <circle cx="18.066" cy="254.585" r="2.966"/>
        <circle cx="18.066" cy="263.213" r="2.966"/>
        <circle cx="25.616" cy="229.778" r="2.966"/>
        <circle cx="25.616" cy="237.867" r="2.966"/>
        <circle cx="25.616" cy="246.496" r="2.966"/>
        <circle cx="25.616" cy="254.585" r="2.966"/>
        <circle cx="25.616" cy="263.213" r="2.966"/>
    </g>
    <g fill="#50E8F2" opacity=".36">
        <circle cx="48.359" cy="229.778" r="2.966"/>
        <circle cx="48.359" cy="237.867" r="2.966"/>
        <circle cx="48.359" cy="246.496" r="2.966"/>
        <circle cx="48.359" cy="254.585" r="2.966"/>
        <circle cx="48.359" cy="263.213" r="2.966"/>
        <circle cx="78.559" cy="229.778" r="2.966"/>
        <circle cx="78.559" cy="237.867" r="2.966"/>
        <circle cx="78.559" cy="246.496" r="2.966"/>
        <circle cx="78.559" cy="254.585" r="2.966"/>
        <circle cx="78.559" cy="263.213" r="2.966"/>
        <circle cx="55.908" cy="229.778" r="2.966"/>
        <circle cx="55.908" cy="237.867" r="2.966"/>
        <circle cx="55.908" cy="246.496" r="2.966"/>
        <circle cx="55.908" cy="254.585" r="2.966"/>
        <circle cx="55.908" cy="263.213" r="2.966"/>
        <circle cx="86.109" cy="229.778" r="2.966"/>
        <circle cx="86.109" cy="237.867" r="2.966"/>
        <circle cx="86.109" cy="246.496" r="2.966"/>
        <circle cx="86.109" cy="254.585" r="2.966"/>
        <circle cx="86.109" cy="263.213" r="2.966"/>
        <circle cx="63.459" cy="229.778" r="2.966"/>
        <circle cx="63.459" cy="237.867" r="2.966"/>
        <circle cx="63.459" cy="246.496" r="2.966"/>
        <circle cx="63.459" cy="254.585" r="2.966"/>
        <circle cx="63.459" cy="263.213" r="2.966"/>
        <circle cx="71.009" cy="229.778" r="2.966"/>
        <circle cx="71.009" cy="237.867" r="2.966"/>
        <circle cx="71.009" cy="246.496" r="2.966"/>
        <circle cx="71.009" cy="254.585" r="2.966"/>
        <circle cx="71.009" cy="263.213" r="2.966"/>
    </g>
</svg>
