<svg xmlns="http://www.w3.org/2000/svg" width="449" height="345" fill="none" viewBox="0 0 449 345">
    <path fill="#D5F2FB" fill-rule="evenodd" d="M274.016 5.01c31.552-.547 57.331 22.021 83.173 40.123 26.332 18.446 57.07 35.09 67.569 65.47 10.567 30.578-.501 63.808-12.511 93.85-11.337 28.359-30.216 51.883-53.604 71.533-25.025 21.024-52.04 42.011-84.627 44.6-33.969 2.699-69.393-7.854-95.001-30.327-24.53-21.527-29.235-56.046-38.923-87.204-9.54-30.684-27.31-62.079-16.949-92.495 10.324-30.309 43.53-44.219 69.772-62.578 25.696-17.976 49.741-42.428 81.101-42.972z" clip-rule="evenodd" opacity=".5"/>
    <path fill="#F15A24" d="M284.317 75.405l-24.89 28.224 10.382 17.901 12.277-21.64 2.231-24.485z"/>
    <path fill="#FC7575" d="M259.493 308.486c.929.976-6.367 19.045-6.367 19.045l10.177 2.929 5.056-21.203-8.866-.771z"/>
    <path fill="#47545C" d="M283.573 151.103l-5.79 8.936s-7.797 73.103-9.693 81.333c-1.896 8.23-12.194 77.706-12.194 77.706l10.669 3.943s20.354-57.526 19.332-65.096c-1.022-7.57 23.235-78.589 23.235-78.589l-24.239-28.354-1.32.121z"/>
    <path fill="url(#prefix__paint0_linear)" d="M288.109 155.492s13.718 81.835 14.787 100.108c1.069 18.273-8.895 68.983-8.895 68.983l17.594.66s15.205-51.509 11.664-66.453c-3.541-14.944 1.608-80.18 1.608-80.18l-6.069-24.55-30.689 1.432z"/>
    <path fill="#095270" d="M308.5 323.114s-.353 6.565-.586 11.029c-.232 4.463 1.776 8.109-4.461 8.769-6.236.66-12.723-1.209-13.197-4.082-.474-2.874 5.967-9.495 6.125-12.378.158-2.883 1.979-3.999 2.964-3.032.986.968 9.155-.306 9.155-.306z"/>
    <path fill="#ACFCDD" d="M307.543 341.024c-1.115 1.023-2.649 1.126-4.34 1.126-3.588 0-11.413-.484-12.947-3.358-.019.415.054.829.215 1.212.16.383.405.725.714 1.002 4.192 4.333 15.624 3.664 16.358.018z"/>
    <path fill="#9DBAC6" d="M297.236 330.116c-.121 2.79 4.136 5.282 5.688 2.79 0 0 2.184-6.128 2.388-7.988.112-1.116.93-3.013-1.859-3.571-2.788-.558-4.925.437-4.981 1.432-.65 2.4-1.064 4.857-1.236 7.337z"/>
    <path fill="#095270" d="M303.639 331.846s.177-8.128 1.497-8.37c1.112-.19 2.236-.299 3.364-.325 0 0-1.097 8.165-2.714 9.476-1.617 1.311-2.147-.781-2.147-.781z"/>
    <path fill="#ACFCDD" d="M296.557 325.643c0 .053.012.105.037.152.024.047.059.088.103.118 3.569 2.604 8.811.372 9.024.279.043-.015.083-.039.116-.071.033-.031.058-.069.075-.112.017-.042.024-.088.022-.133-.003-.046-.015-.09-.036-.131-.051-.082-.13-.143-.222-.171-.093-.027-.193-.019-.28.023-.046 0-5.028 2.138-8.225-.196-.08-.055-.177-.08-.273-.072-.097.009-.188.051-.257.119-.045.056-.074.124-.084.195zM296.167 328.888c0 .052.012.103.034.15.023.047.056.088.096.12 2.203 1.702 8.467.242 8.727.177.045-.009.087-.027.124-.052.038-.026.07-.059.094-.097.024-.038.041-.081.048-.126.007-.045.005-.09-.005-.134-.03-.089-.093-.163-.177-.207-.083-.043-.18-.052-.27-.026-1.71.409-6.505 1.181-8.057 0-.074-.06-.166-.093-.261-.093s-.187.033-.26.093c-.05.055-.082.123-.093.195zM295.795 331.223c0 .045.009.089.027.131.017.042.043.079.076.11 1.728 1.702 8.364.605 9.145.475.046-.005.09-.019.13-.041.041-.022.076-.053.104-.09.028-.036.048-.078.059-.123.011-.045.012-.091.004-.137-.026-.091-.086-.168-.167-.216-.081-.049-.177-.064-.27-.044-1.933.335-7.221.93-8.457-.27-.074-.063-.168-.097-.265-.097s-.191.034-.265.097c-.063.052-.105.125-.121.205z"/>
    <path fill="#9DBAC6" d="M252.085 329.037c-2.537 1.563-4.647-.93-4.647-.93 2.519-3.812 3.922-7.253 4.517-8.081.595-.827 1.599-2.157 3.913-.93 2.314 1.228 4.275 3.943 3.374 4.51-2.257 1.975-4.648 3.79-7.157 5.431z"/>
    <path fill="#095270" d="M268.062 336.486l-10.382.121c-4.275.056-11.097.595-13.234.614-2.138.018-9.945-4.38-9.452-5.859.492-1.478 7.519-1.19 11.153-2.883 3.634-1.692 8.429-6.704 10.074-6.621 1.376.075 8.421 1.451 9.657 2.539 1.236 1.088 3.243 11.113 2.184 12.089z"/>
    <path fill="#ACFCDD" d="M236.825 330.46c1.654.4 4.489 3.339 8.755 4.324 3.308.772 16.822-.799 22.677-1.534.177 1.646.167 2.948-.186 3.264l-10.381.121c-4.276.056-11.097.595-13.235.614-2.138.018-9.945-4.38-9.452-5.859.13-.456.818-.735 1.822-.93zM250.254 330.6c.046-.055.069-.125.065-.196-.464-2.483-3.885-2.576-4.024-2.576-.063.002-.124.023-.174.062-.05.038-.087.092-.105.152-.011.025-.016.053-.013.081.002.027.012.054.028.076.016.023.038.041.063.053.025.011.053.016.08.013 0 0 3.281.084 3.718 2.307.008.027.021.052.04.073.019.021.042.037.068.048.026.011.054.015.082.014.028-.002.055-.01.079-.024.037-.02.069-.049.093-.083zM251.899 328.796c.024-.025.042-.054.053-.086.011-.033.015-.067.012-.1-.241-1.591-3.773-2.409-3.931-2.437-.061-.009-.123.003-.177.033-.054.03-.096.078-.12.135-.014.022-.023.047-.025.074-.002.026.002.053.012.077.01.025.025.046.045.064.02.017.044.029.07.036.929.223 3.504 1.041 3.718 2.176.005.026.017.051.033.072.017.021.038.038.063.049.024.012.05.018.077.018.027 0 .053-.007.078-.018.039-.021.071-.054.092-.093zM253.126 327.531c.043-.046.066-.106.065-.168 0-1.469-3.578-2.603-3.987-2.724-.06-.015-.124-.008-.18.019-.055.027-.1.073-.126.129-.017.022-.028.047-.033.074-.005.026-.004.054.003.08.008.026.021.05.039.07.018.02.04.036.065.046 1.041.316 3.718 1.376 3.764 2.418.001.027.009.054.023.077.013.024.032.044.054.06.023.015.048.025.075.029.027.003.055.001.08-.008.062-.017.117-.053.158-.102z"/>
    <path fill="#3A758D" d="M304.969 335.11s1.366 4.278.408 5.049c-.957.772-12.732.112-12.63-1.701.102-1.814 2.946-5.292 4.015-5.524 1.069-.233 8.207 2.176 8.207 2.176z"/>
    <path fill="#F57408" d="M294.16 71.211c-3.891.749-7.539 2.438-10.627 4.921-3.088 2.484-5.521 5.685-7.088 9.326-.683 1.512-1.071 3.14-1.143 4.799 0 5.923 2.9 26.903 2.9 37.485 0 10.583-3.476 48.701-3.476 48.701 11.571 1.013 23.228.304 34.592-2.101 10.437-2.139 16.172 2.557 16.172 2.557s-5.149-46.357-8.3-66.956c-3.151-20.598.744-34.584-1.859-37.672-1.84-2.194-11.664-3.031-21.171-1.06z"/>
    <path fill="#B85706" d="M320.889 137.414c-.576-4.65-1.152-9.216-1.719-13.522h-1.859s-12.64 9.569-18.151 9.569c-3.885 0-14.657-4.175-20.958-5.217 0 2.325-.186 5.747-.428 9.718 5.846 2.837 18.904 8.537 28.728 7.989 5.4-.307 10.391-4.148 14.387-8.537z" opacity=".39"/>
    <path fill="#FC7575" d="M288.816 25.933s-7.436 7.049-9.36 12.256c-1.951 5.357-4.73 13.95-4.73 13.95l2.435.325s1.106 5.124.502 8.37c-.604 3.245 4.898 1.86 7.872 2.287 2.974.428 10.074-1.302 14.405-10.276 4.332-8.974 12.166-24.95-11.124-26.912z"/>
    <path fill="#FC7575" d="M301.465 72.114c-1.339 5.402-13.356 9.708-14.518 6.853-1.979-4.882-.706-9.3-.427-12.954.083-.976.148-1.916.214-2.79-.005-.03-.005-.062 0-.093.065-.976.13-1.86.185-2.464.809-1.293 6.209-10.006 7.315-11.773 0-.075.083-.14.111-.186.028-.047 0 0 0 0 .019-.023.035-.048.047-.075l1.124-1.804.326-.52.176.827.075.335.362 1.665.632 2.883.855 3.942.056.233 3.467 15.92z"/>
    <path fill="#210075" d="M281.78 19.19c-.363.428-6.85 9.3.548 14.043 7.398 4.742 10.409-.27 11.962 3.254 1.552 3.525-3.476 8.24-2.287 11.439l2.603.874s.845-1.525 1.923-1.386c1.079.14-.158 8.37 1.58 8.593 1.738.223 6.432-6.287 8.672-9.3 2.24-3.013 7.677-13.53 1.989-17.176-5.688-3.645-8.783-1.86-8.281-4.556.502-2.697-2.723-.214-2.723-.214-.313-.7-.451-1.465-.403-2.23.049-.764.283-1.505.681-2.16 1.376-2.176-6.041-3.98-8.662.372-2.621 4.353-3.68-6.156-7.602-1.553z"/>
    <path fill="#FC7575" d="M294.773 44.15s-1.134 5.31.149 5.487c1.282.176 4.647-2.483 4.805-5.747.158-3.264-3.662-3.385-4.954.26z"/>
    <path fill="#FD5E5A" d="M295.777 43.694s-1.041 2.037-.261 3.125c.781 1.088 3.086-.93 2.38-2.846-.707-1.915-1.683-1.469-2.119-.279z"/>
    <path fill="#210075" d="M282.049 40.365l-.455 1.265s2.314 0 3.318 1.423 1.171 1.562 1.171 1.562-.13-2.994-4.034-4.25zM283.732 44.661c-.037.295-.183.564-.408.757-.225.193-.514.294-.81.285-.14-.03-.272-.089-.388-.172-.116-.084-.213-.19-.286-.314-.072-.123-.118-.26-.135-.402-.017-.142-.004-.286.038-.423.034-.295.179-.566.405-.76.225-.192.515-.293.812-.282.139.033.269.093.384.177.114.084.21.19.283.313.072.123.118.26.136.4.018.141.008.285-.031.421zM279.577 56.295c.766.117 1.549.027 2.268-.26.334-.143.63-.363.864-.642.212-.275.364-.592.446-.93.032-.1.101-.184.192-.235.091-.052.199-.068.301-.044.049.014.095.038.135.07.039.032.072.072.096.117.023.046.037.095.041.146.003.051-.004.103-.021.15.004.02.004.038 0 .057-.184.414-.45.787-.781 1.097-.332.297-.73.511-1.162.623-.792.162-1.613.11-2.379-.149zM276.389 28.443c-.034.577.105 1.15.4 1.646 1.069 2.028 3.782 2.65 5.576 3.125-1.615.076-3.23-.17-4.749-.725-.875-.298-1.647-.838-2.228-1.557-.581-.72-.946-1.589-1.053-2.507l2.054.018z"/>
    <path fill="#FD5E5A" d="M292.7 62.916c-1.983 1.157-4.034 2.19-6.143 3.097.232-2.957.362-5.347.362-5.347s1.255 1.488 7.436-12.154v.083c.018 1.246-.261 13.317-1.655 14.321z"/>
    <path fill="#210075" d="M277.839 58.592c-.426 1.053-.777 2.134-1.05 3.236-.223 1.19 2.528 2.92 5.372 2.502 2.844-.419 6.924-1.693 8.02-2.492 1.097-.8 4.173-13.15 4.173-13.15l-2.351-.79s-2.732 7.932-3.931 8.806c-1.199.874-10.233 1.888-10.233 1.888z"/>
    <path fill="#FD5E5A" d="M282.003 47.377c-.363.846.464 1.953 1.859 2.455 1.394.502 2.788.223 3.141-.633.353-.855-.465-1.952-1.859-2.454-1.394-.503-2.779-.224-3.141.632z"/>
    <path fill="#374A4F" d="M263.814 136.205l31.414-4.51-73.32 1.701-3.393 4.659 45.299-1.85z"/>
    <path fill="#FD5E5A" d="M318.473 77.61s35.456 45.39 34.183 54.085c-1.273 8.695-12.296 6.147-16.32 2.12-4.024-4.027-20.977-35.198-20.977-35.198l3.114-21.008z"/>
    <path fill="#381A3F" d="M221.908 133.396l73.32-1.701v4.24l-21.822 2.12h-54.891l3.393-4.659z"/>
    <path fill="#6F4D77" d="M273.406 138.055l-5.939-45.27-55.467.959 5.725 45 55.681-.689z"/>
    <path fill="#653870" d="M267.495 92.786l5.911 45.269-55.681.689-.483-3.72c5.846.493 32.241 2.241 34.611-6.798 2.072-7.932-8.355-26.829-13.17-34.9l28.812-.54z"/>
    <path fill="#381A3F" d="M267.467 92.786l5.939 45.269-55.681.689 53.199-3.562-3.457-42.396z"/>
    <path fill="#FC7575" d="M247.355 138.381c3.057 2.443 6.75 3.96 10.641 4.371 6.125.474 10.568-2.065 12.324-2.065 1.757 0 7.073-.325 9.768.474 2.696.8 11.999-4.473 11.999-4.473s4.089-5.579 2.937-5.896c-1.153-.316-6.506 6.51-7.863 6.51-1.357 0 5.084-5.979 3.718-6.565-1.367-.586-4.647 6.165-8.03 6.565-3.383.4-5.038-.279-3.718-1.59 1.32-1.311 4.926-2.948 3.653-3.422-1.274-.475-34.509 5.17-35.429 6.091z"/>
    <path fill="#FC7575" d="M288.239 118.973s4.024-1.86 6.989-1.86 7.631 1.86 16.107 1.86c8.476 0 37.604.391 39.276 4.938 1.673 4.548 5.382 10.592-2.258 13.215-7.64 2.622-44.611-10.946-48.459-11.792 0 0-2.333 3.394-4.647 3.394s-4.238-.102-4.238-.102-4.08.577-4.768-.112c-.688-.688-2.965-.632-2.965-.632s-4.647 4.771-6.506 4.771 2.603-7.263 4.136-8.798c1.534-1.534 7.333-4.882 7.333-4.882z"/>
    <path fill="#F9B406" d="M306.66 85.607c2.212 5.198 15.93 29.804 16.032 29.758l20.391-10.295c-3.531-8.425-8.95-15.688-14.935-22.904-3.439-4.12-7.91-9.839-13.941-10.369-8.263-.679-10.307 7.31-7.547 13.81z"/>
    <path fill="#FFDA88" d="M308.946 72.867c-3.485 2.436-3.624 7.44-2.416 11.047.808 2.39.502 1.33 16.144 31.442-3.607-5.292-8.895-14.703-11.943-20.375-3.374-6.426-6.506-11.28-5.335-16.897.182-1.074.593-2.096 1.206-2.997.612-.9 1.412-1.657 2.344-2.22z"/>
    <path stroke="#0675CE" stroke-dasharray="10 10" d="M244.084 89.909C256.617 50.838 226.538 29.999 212 30m100.764 38.029c10.36 7.293 28.575-17.191 90.236 21.88m-84.22 52.614c25.065 0 25.065 68.765 61.661 86.477"/>
    <rect width="246" height="34" y="204" fill="#EB5757" rx="17"/>
    <path fill="#fff" d="M18.258 227H16v-8.703l-2.695.836v-1.836l4.71-1.688h.243V227zm11.36-4.703c0 1.573-.326 2.776-.977 3.609-.651.834-1.604 1.25-2.86 1.25-1.24 0-2.187-.409-2.843-1.226-.657-.818-.993-1.99-1.008-3.516v-2.094c0-1.588.328-2.794.984-3.617.662-.823 1.612-1.234 2.852-1.234 1.24 0 2.187.409 2.843 1.226.657.813.993 1.982 1.008 3.508v2.094zM27.358 220c0-.943-.13-1.628-.39-2.055-.256-.432-.657-.648-1.203-.648-.532 0-.925.206-1.18.617-.25.406-.383 1.044-.398 1.914v2.766c0 .927.125 1.617.375 2.07.255.448.661.672 1.218.672.552 0 .95-.216 1.196-.648.244-.433.372-1.094.382-1.985V220zm11.446 2.297c0 1.573-.326 2.776-.977 3.609-.65.834-1.604 1.25-2.86 1.25-1.239 0-2.187-.409-2.843-1.226-.656-.818-.992-1.99-1.008-3.516v-2.094c0-1.588.328-2.794.985-3.617.661-.823 1.612-1.234 2.851-1.234 1.24 0 2.188.409 2.844 1.226.656.813.992 1.982 1.008 3.508v2.094zM36.547 220c0-.943-.13-1.628-.39-2.055-.256-.432-.657-.648-1.204-.648-.531 0-.924.206-1.18.617-.25.406-.382 1.044-.398 1.914v2.766c0 .927.125 1.617.375 2.07.255.448.661.672 1.219.672.552 0 .95-.216 1.195-.648.245-.433.372-1.094.383-1.985V220zm3.758-2.188c0-.697.226-1.263.68-1.695.453-.437 1.046-.656 1.78-.656.745 0 1.344.216 1.797.648.454.427.68 1.008.68 1.743v.562c0 .703-.226 1.268-.68 1.695-.453.427-1.046.641-1.78.641-.74 0-1.34-.214-1.798-.641-.453-.432-.68-1.013-.68-1.742v-.555zm1.5.602c0 .313.088.565.265.758.183.187.42.281.711.281.292 0 .524-.096.696-.289.171-.193.257-.45.257-.773v-.579c0-.312-.086-.565-.257-.757-.172-.193-.41-.289-.711-.289-.287 0-.519.096-.696.289-.177.187-.265.45-.265.789v.57zm3.937 5.797c0-.703.23-1.268.688-1.695.458-.433 1.052-.649 1.78-.649.74 0 1.337.214 1.79.641.458.422.688 1.005.688 1.75v.562c0 .698-.224 1.263-.672 1.696-.448.427-1.045.64-1.79.64-.75 0-1.351-.216-1.804-.648-.453-.432-.68-1.005-.68-1.719v-.578zm1.5.609c0 .287.094.532.281.735.188.203.422.304.704.304.635 0 .953-.351.953-1.054v-.594c0-.313-.089-.563-.266-.75-.177-.193-.411-.289-.703-.289s-.526.096-.703.289c-.177.187-.266.445-.266.773v.586zm-4.015 1.328l-1.102-.593 5.555-8.891 1.101.594-5.554 8.89zm13.617.852v-6.797h-1.258v-1.656h1.258v-.719c0-.948.27-1.682.812-2.203.547-.526 1.31-.789 2.29-.789.312 0 .695.052 1.148.156l-.024 1.75c-.187-.047-.416-.07-.687-.07-.85 0-1.274.398-1.274 1.195v.68h1.68v1.656h-1.68V227h-2.265zm4.765-4.305c0-.838.162-1.586.485-2.242.323-.656.786-1.164 1.39-1.523.61-.36 1.315-.539 2.118-.539 1.14 0 2.07.349 2.789 1.047.724.697 1.127 1.645 1.21 2.843l.016.578c0 1.297-.362 2.339-1.086 3.125-.724.782-1.695 1.172-2.914 1.172s-2.193-.39-2.922-1.172c-.724-.781-1.086-1.843-1.086-3.187v-.102zm2.258.164c0 .802.151 1.417.453 1.844.302.422.735.633 1.297.633.547 0 .974-.208 1.281-.625.308-.422.461-1.094.461-2.016 0-.786-.153-1.396-.46-1.828-.308-.432-.74-.648-1.297-.648-.553 0-.98.216-1.282.648-.302.427-.453 1.091-.453 1.992zm10.656 2.477c.417 0 .756-.115 1.016-.344.26-.229.396-.534.406-.914h2.118c-.006.573-.162 1.099-.47 1.578-.306.474-.728.844-1.265 1.11-.531.26-1.12.39-1.766.39-1.208 0-2.161-.383-2.859-1.148-.698-.771-1.047-1.834-1.047-3.188v-.148c0-1.302.347-2.341 1.04-3.117.692-.776 1.642-1.164 2.85-1.164 1.058 0 1.904.302 2.54.906.64.599.966 1.398.977 2.398h-2.118c-.01-.437-.145-.791-.406-1.062-.26-.276-.604-.414-1.031-.414-.526 0-.925.192-1.195.578-.266.38-.399 1-.399 1.859v.235c0 .869.133 1.494.398 1.875.266.38.67.57 1.211.57zm9.891.805c-.557.677-1.328 1.015-2.312 1.015-.907 0-1.6-.26-2.079-.781-.474-.521-.716-1.284-.726-2.289v-5.539h2.258v5.461c0 .88.4 1.32 1.203 1.32.765 0 1.291-.266 1.578-.797v-5.984h2.266V227h-2.125l-.063-.859zm8.469-1.477c0-.276-.138-.492-.414-.648-.271-.162-.709-.305-1.313-.43-2.01-.422-3.015-1.276-3.015-2.563 0-.75.31-1.375.93-1.875.624-.505 1.44-.757 2.445-.757 1.072 0 1.93.252 2.57.757.646.506.969 1.162.969 1.969h-2.258c0-.323-.104-.588-.313-.797-.208-.213-.533-.32-.976-.32-.38 0-.675.086-.883.258-.208.172-.313.39-.313.656 0 .25.118.453.352.609.24.151.64.284 1.203.399.563.109 1.037.234 1.422.375 1.193.437 1.79 1.195 1.79 2.273 0 .771-.332 1.396-.993 1.875-.662.474-1.516.711-2.563.711-.708 0-1.338-.125-1.89-.375-.547-.255-.977-.601-1.29-1.039-.312-.443-.468-.919-.468-1.43h2.14c.022.402.17.709.446.922.276.214.646.321 1.11.321.432 0 .757-.081.976-.243.224-.166.336-.382.336-.648zm7.547 2.492c-1.24 0-2.25-.38-3.032-1.14-.776-.761-1.164-1.774-1.164-3.039v-.219c0-.849.164-1.607.493-2.274.328-.672.791-1.187 1.39-1.546.604-.365 1.292-.547 2.063-.547 1.156 0 2.065.364 2.726 1.093.667.73 1 1.763 1 3.102v.922h-5.383c.073.552.292.995.657 1.328.37.333.836.5 1.398.5.87 0 1.55-.315 2.039-.945l1.11 1.242c-.339.479-.797.854-1.375 1.125-.579.265-1.219.398-1.922.398zm-.258-6.937c-.448 0-.813.151-1.094.453-.276.302-.453.734-.531 1.297h3.141v-.18c-.011-.5-.146-.885-.407-1.156-.26-.276-.63-.414-1.109-.414zm4.672 2.492c0-1.318.294-2.367.883-3.149.593-.781 1.403-1.171 2.429-1.171.823 0 1.503.307 2.039.921V215h2.266v12h-2.039l-.11-.898c-.562.703-1.286 1.054-2.171 1.054-.995 0-1.795-.39-2.399-1.172-.599-.786-.898-1.877-.898-3.273zm2.258.164c0 .792.138 1.398.414 1.82.276.422.677.633 1.203.633.698 0 1.19-.294 1.476-.883v-3.336c-.281-.588-.768-.882-1.461-.882-1.088 0-1.632.882-1.632 2.648zm10.742-.18c0-.838.161-1.586.484-2.242.323-.656.787-1.164 1.391-1.523.609-.36 1.315-.539 2.117-.539 1.141 0 2.07.349 2.789 1.047.724.697 1.128 1.645 1.211 2.843l.016.578c0 1.297-.362 2.339-1.086 3.125-.724.782-1.696 1.172-2.914 1.172-1.219 0-2.193-.39-2.922-1.172-.724-.781-1.086-1.843-1.086-3.187v-.102zm2.258.164c0 .802.151 1.417.453 1.844.302.422.734.633 1.297.633.546 0 .974-.208 1.281-.625.307-.422.461-1.094.461-2.016 0-.786-.154-1.396-.461-1.828-.307-.432-.74-.648-1.297-.648-.552 0-.979.216-1.281.648-.302.427-.453 1.091-.453 1.992zm9.218-4.312l.071.976c.604-.755 1.414-1.132 2.429-1.132.896 0 1.563.263 2 .789.438.526.662 1.312.672 2.359V227h-2.258v-5.406c0-.479-.104-.826-.312-1.039-.208-.219-.555-.328-1.039-.328-.636 0-1.112.27-1.43.812V227h-2.258v-8.453h2.125zm13.266 0v8.914c0 .932-.247 1.656-.742 2.172-.495.521-1.209.781-2.141.781-.391 0-.763-.044-1.117-.133v-1.789c.271.047.508.07.711.07.682 0 1.023-.361 1.023-1.085v-8.93h2.266zm-2.445-2.188c0-.338.112-.617.336-.836.229-.218.539-.328.929-.328.391 0 .698.11.922.328.229.219.344.498.344.836 0 .344-.117.625-.352.844-.229.219-.534.328-.914.328s-.687-.109-.922-.328c-.229-.219-.343-.5-.343-.844zm3.859 6.336c0-.838.161-1.586.484-2.242.323-.656.787-1.164 1.391-1.523.609-.36 1.315-.539 2.117-.539 1.141 0 2.07.349 2.789 1.047.724.697 1.128 1.645 1.211 2.843l.016.578c0 1.297-.362 2.339-1.086 3.125-.724.782-1.695 1.172-2.914 1.172s-2.193-.39-2.922-1.172c-.724-.781-1.086-1.843-1.086-3.187v-.102zm2.258.164c0 .802.151 1.417.453 1.844.302.422.734.633 1.297.633.547 0 .974-.208 1.281-.625.307-.422.461-1.094.461-2.016 0-.786-.154-1.396-.461-1.828-.307-.432-.74-.648-1.297-.648-.552 0-.979.216-1.281.648-.302.427-.453 1.091-.453 1.992zm14.758-.007c0 1.354-.289 2.411-.868 3.171-.578.756-1.385 1.133-2.421 1.133-.917 0-1.649-.351-2.196-1.054l-.101.898h-2.032v-12h2.258v4.305c.521-.61 1.206-.914 2.055-.914 1.031 0 1.838.38 2.422 1.14.588.755.883 1.821.883 3.196v.125zm-2.258-.164c0-.855-.136-1.477-.406-1.868-.271-.396-.675-.593-1.211-.593-.719 0-1.214.294-1.485.882v3.336c.276.594.776.891 1.5.891.729 0 1.209-.359 1.438-1.078.109-.344.164-.867.164-1.57zM168.781 227h-2.265v-8.453h2.265V227zm-2.398-10.641c0-.338.112-.617.336-.836.229-.218.539-.328.929-.328.386 0 .693.11.922.328.229.219.344.498.344.836 0 .344-.117.625-.352.844-.229.219-.533.328-.914.328-.38 0-.687-.109-.921-.328-.23-.219-.344-.5-.344-.844zm6.344 2.188l.07.976c.604-.755 1.414-1.132 2.43-1.132.895 0 1.562.263 2 .789.437.526.661 1.312.671 2.359V227h-2.257v-5.406c0-.479-.105-.826-.313-1.039-.208-.219-.555-.328-1.039-.328-.635 0-1.112.27-1.43.812V227h-2.257v-8.453h2.125zm9.593-2.078v2.078h1.446v1.656h-1.446v4.219c0 .312.06.536.18.672.12.135.349.203.688.203.25 0 .471-.018.664-.055v1.711c-.443.136-.899.203-1.368.203-1.583 0-2.39-.799-2.422-2.398v-4.555h-1.234v-1.656h1.234v-2.078h2.258zm6.594 10.687c-1.24 0-2.25-.38-3.031-1.14-.776-.761-1.164-1.774-1.164-3.039v-.219c0-.849.164-1.607.492-2.274.328-.672.792-1.187 1.391-1.546.604-.365 1.291-.547 2.062-.547 1.156 0 2.065.364 2.727 1.093.666.73 1 1.763 1 3.102v.922h-5.383c.073.552.291.995.656 1.328.37.333.836.5 1.398.5.87 0 1.55-.315 2.04-.945l1.109 1.242c-.339.479-.797.854-1.375 1.125-.578.265-1.219.398-1.922.398zm-.258-6.937c-.448 0-.812.151-1.094.453-.276.302-.453.734-.531 1.297h3.141v-.18c-.011-.5-.146-.885-.406-1.156-.261-.276-.631-.414-1.11-.414zm9.774.445c-.308-.042-.578-.062-.813-.062-.854 0-1.414.289-1.679.867V227h-2.258v-8.453h2.132l.063 1.008c.453-.776 1.081-1.164 1.883-1.164.25 0 .484.033.703.101l-.031 2.172zm4.398 3.578l1.57-5.695h2.36L203.906 227h-2.156l-2.852-8.453h2.36l1.57 5.695zm7.313 2.758h-2.266v-8.453h2.266V227zm-2.399-10.641c0-.338.112-.617.336-.836.229-.218.539-.328.93-.328.385 0 .693.11.922.328.229.219.343.498.343.836 0 .344-.117.625-.351.844-.229.219-.534.328-.914.328s-.688-.109-.922-.328c-.229-.219-.344-.5-.344-.844zm8.156 10.797c-1.239 0-2.25-.38-3.031-1.14-.776-.761-1.164-1.774-1.164-3.039v-.219c0-.849.164-1.607.492-2.274.328-.672.792-1.187 1.391-1.546.604-.365 1.292-.547 2.062-.547 1.157 0 2.066.364 2.727 1.093.667.73 1 1.763 1 3.102v.922h-5.383c.073.552.292.995.656 1.328.37.333.836.5 1.399.5.87 0 1.549-.315 2.039-.945l1.109 1.242c-.338.479-.797.854-1.375 1.125-.578.265-1.218.398-1.922.398zm-.257-6.937c-.448 0-.813.151-1.094.453-.276.302-.453.734-.531 1.297h3.14v-.18c-.01-.5-.146-.885-.406-1.156-.26-.276-.63-.414-1.109-.414zm12.375 3.711l1.109-5.383h2.18L229.148 227h-1.89l-1.602-5.32-1.601 5.32h-1.883l-2.156-8.453h2.179l1.102 5.375 1.547-5.375h1.633l1.539 5.383z"/>
    <rect width="248" height="34" y="158" fill="#EB5757" rx="17"/>
    <path fill="#fff" d="M42.453 176.719h1.29v1.82h-1.29V181h-2.258v-2.461h-4.664l-.101-1.422 4.742-7.492h2.281v7.094zm-4.773 0h2.515v-4.016l-.148.258-2.367 3.758zm14.937-.422c0 1.573-.325 2.776-.976 3.609-.651.834-1.605 1.25-2.86 1.25-1.24 0-2.187-.409-2.843-1.226-.657-.818-.993-1.99-1.008-3.516v-2.094c0-1.588.328-2.794.984-3.617.661-.823 1.612-1.234 2.852-1.234 1.24 0 2.187.409 2.843 1.226.657.813.993 1.982 1.008 3.508v2.094zM50.36 174c0-.943-.13-1.628-.39-2.055-.255-.432-.657-.648-1.203-.648-.532 0-.925.206-1.18.617-.25.406-.383 1.044-.398 1.914v2.766c0 .927.124 1.617.374 2.07.256.448.662.672 1.22.672.551 0 .95-.216 1.195-.648.244-.433.372-1.094.382-1.985V174zm8.438.633h2.82v2.039h-2.82v3.187h-2.149v-3.187H53.82v-2.039h2.828v-3.055h2.149v3.055zm10.367-1.164c.599-.719 1.352-1.078 2.258-1.078 1.833 0 2.763 1.065 2.789 3.195V181h-2.258v-5.352c0-.484-.104-.841-.312-1.07-.209-.234-.555-.351-1.04-.351-.66 0-1.14.255-1.437.765V181h-2.258v-12h2.258v4.469zm6.398 3.226c0-.838.162-1.586.485-2.242.323-.656.786-1.164 1.39-1.523.61-.36 1.316-.539 2.118-.539 1.14 0 2.07.349 2.789 1.047.724.697 1.127 1.645 1.21 2.843l.016.578c0 1.297-.362 2.339-1.086 3.125-.724.782-1.695 1.172-2.914 1.172-1.218 0-2.192-.39-2.922-1.172-.724-.781-1.085-1.843-1.085-3.187v-.102zm2.258.164c0 .802.151 1.417.453 1.844.303.422.735.633 1.297.633.547 0 .974-.208 1.282-.625.307-.422.46-1.094.46-2.016 0-.786-.153-1.396-.46-1.828-.308-.432-.74-.648-1.297-.648-.552 0-.98.216-1.282.648-.302.427-.453 1.091-.453 1.992zm12.203 3.282c-.557.677-1.328 1.015-2.312 1.015-.906 0-1.599-.26-2.078-.781-.474-.521-.716-1.284-.727-2.289v-5.539h2.258v5.461c0 .88.401 1.32 1.203 1.32.766 0 1.292-.266 1.578-.797v-5.984h2.266V181h-2.125l-.063-.859zm8.641-5.477c-.307-.042-.578-.062-.812-.062-.855 0-1.415.289-1.68.867V181h-2.258v-8.453h2.133l.062 1.008c.454-.776 1.081-1.164 1.883-1.164.25 0 .485.033.703.101l-.03 2.172zm5.672 4c0-.276-.138-.492-.414-.648-.271-.162-.708-.305-1.313-.43-2.01-.422-3.015-1.276-3.015-2.563 0-.75.31-1.375.929-1.875.625-.505 1.441-.757 2.446-.757 1.073 0 1.929.252 2.57.757.646.506.969 1.162.969 1.969h-2.258c0-.323-.104-.588-.312-.797-.209-.213-.534-.32-.977-.32-.38 0-.675.086-.883.258-.208.172-.312.39-.312.656 0 .25.117.453.351.609.24.151.641.284 1.203.399.563.109 1.037.234 1.422.375 1.193.437 1.789 1.195 1.789 2.273 0 .771-.33 1.396-.992 1.875-.661.474-1.516.711-2.562.711-.709 0-1.339-.125-1.891-.375-.547-.255-.977-.601-1.29-1.039-.312-.443-.468-.919-.468-1.43h2.141c.021.402.169.709.445.922.276.214.646.321 1.109.321.433 0 .758-.081.977-.243.224-.166.336-.382.336-.648zm7.289-1.969c0-.838.161-1.586.484-2.242.323-.656.787-1.164 1.391-1.523.609-.36 1.315-.539 2.117-.539 1.141 0 2.071.349 2.789 1.047.724.697 1.128 1.645 1.211 2.843l.016.578c0 1.297-.362 2.339-1.086 3.125-.724.782-1.695 1.172-2.914 1.172s-2.193-.39-2.922-1.172c-.724-.781-1.086-1.843-1.086-3.187v-.102zm2.258.164c0 .802.151 1.417.453 1.844.302.422.734.633 1.297.633.547 0 .974-.208 1.281-.625.307-.422.461-1.094.461-2.016 0-.786-.154-1.396-.461-1.828-.307-.432-.74-.648-1.297-.648-.552 0-.979.216-1.281.648-.302.427-.453 1.091-.453 1.992zm7.758 4.141v-6.797h-1.258v-1.656h1.258v-.719c0-.948.27-1.682.812-2.203.547-.526 1.31-.789 2.289-.789.313 0 .696.052 1.149.156l-.024 1.75c-.187-.047-.416-.07-.687-.07-.849 0-1.274.398-1.274 1.195v.68h1.68v1.656h-1.68V181h-2.265zm11.484 0h-2.266v-12h2.266v12zm4.25 0h-2.266v-8.453h2.266V181zm-2.398-10.641c0-.338.112-.617.335-.836.23-.218.54-.328.93-.328.386 0 .693.11.922.328.229.219.344.498.344.836 0 .344-.117.625-.352.844-.229.219-.534.328-.914.328s-.687-.109-.922-.328c-.229-.219-.343-.5-.343-.844zm7.429 7.883l1.571-5.695h2.359L143.484 181h-2.156l-2.851-8.453h2.359l1.57 5.695zm8.711 2.914c-1.239 0-2.25-.38-3.031-1.14-.776-.761-1.164-1.774-1.164-3.039v-.219c0-.849.164-1.607.492-2.274.328-.672.792-1.187 1.391-1.546.604-.365 1.291-.547 2.062-.547 1.156 0 2.065.364 2.727 1.093.666.73 1 1.763 1 3.102v.922h-5.383c.073.552.292.995.656 1.328.37.333.836.5 1.399.5.869 0 1.549-.315 2.039-.945l1.109 1.242c-.338.479-.797.854-1.375 1.125-.578.265-1.219.398-1.922.398zm-.258-6.937c-.448 0-.812.151-1.093.453-.276.302-.454.734-.532 1.297h3.141v-.18c-.01-.5-.146-.885-.406-1.156-.261-.276-.63-.414-1.11-.414zm12.524 5.117c.416 0 .755-.115 1.015-.344.261-.229.396-.534.407-.914h2.117c-.005.573-.162 1.099-.469 1.578-.307.474-.729.844-1.265 1.11-.532.26-1.12.39-1.766.39-1.208 0-2.162-.383-2.86-1.148-.697-.771-1.046-1.834-1.046-3.188v-.148c0-1.302.346-2.341 1.039-3.117.692-.776 1.643-1.164 2.851-1.164 1.058 0 1.904.302 2.539.906.641.599.966 1.398.977 2.398h-2.117c-.011-.437-.146-.791-.407-1.062-.26-.276-.604-.414-1.031-.414-.526 0-.924.192-1.195.578-.266.38-.399 1-.399 1.859v.235c0 .869.133 1.494.399 1.875.266.38.669.57 1.211.57zm7.211 1.664h-2.266v-12h2.266v12zm6.765 0c-.104-.203-.179-.456-.226-.758-.547.61-1.258.914-2.133.914-.828 0-1.516-.239-2.062-.718-.542-.48-.813-1.084-.813-1.813 0-.896.331-1.583.992-2.063.667-.479 1.628-.721 2.883-.726h1.039v-.484c0-.391-.101-.704-.305-.938-.198-.234-.513-.352-.945-.352-.38 0-.68.092-.898.274-.214.182-.321.432-.321.75h-2.258c0-.49.152-.943.454-1.359.302-.417.729-.743 1.281-.977.552-.24 1.172-.359 1.859-.359 1.042 0 1.867.263 2.477.789.614.521.922 1.255.922 2.203v3.664c.005.802.117 1.409.336 1.82V181h-2.282zm-1.867-1.57c.334 0 .641-.073.922-.219.281-.151.49-.352.625-.602v-1.453h-.844c-1.13 0-1.731.391-1.804 1.172l-.008.133c0 .281.099.513.297.695.198.183.468.274.812.274zm10.125-.766c0-.276-.138-.492-.414-.648-.271-.162-.708-.305-1.312-.43-2.011-.422-3.016-1.276-3.016-2.563 0-.75.31-1.375.93-1.875.625-.505 1.44-.757 2.445-.757 1.073 0 1.93.252 2.57.757.646.506.969 1.162.969 1.969h-2.258c0-.323-.104-.588-.312-.797-.209-.213-.534-.32-.977-.32-.38 0-.674.086-.883.258-.208.172-.312.39-.312.656 0 .25.117.453.351.609.24.151.641.284 1.204.399.562.109 1.036.234 1.421.375 1.193.437 1.789 1.195 1.789 2.273 0 .771-.33 1.396-.992 1.875-.661.474-1.515.711-2.562.711-.709 0-1.339-.125-1.891-.375-.547-.255-.976-.601-1.289-1.039-.312-.443-.469-.919-.469-1.43h2.141c.021.402.169.709.445.922.276.214.646.321 1.11.321.432 0 .757-.081.976-.243.224-.166.336-.382.336-.648zm8.235 0c0-.276-.138-.492-.414-.648-.271-.162-.709-.305-1.313-.43-2.01-.422-3.016-1.276-3.016-2.563 0-.75.31-1.375.93-1.875.625-.505 1.44-.757 2.445-.757 1.073 0 1.93.252 2.571.757.646.506.968 1.162.968 1.969h-2.257c0-.323-.105-.588-.313-.797-.208-.213-.534-.32-.976-.32-.381 0-.675.086-.883.258-.209.172-.313.39-.313.656 0 .25.117.453.352.609.239.151.64.284 1.203.399.562.109 1.036.234 1.422.375 1.193.437 1.789 1.195 1.789 2.273 0 .771-.331 1.396-.992 1.875-.662.474-1.516.711-2.563.711-.708 0-1.338-.125-1.89-.375-.547-.255-.977-.601-1.29-1.039-.312-.443-.468-.919-.468-1.43h2.14c.021.402.17.709.446.922.276.214.646.321 1.109.321.432 0 .758-.081.977-.243.224-.166.336-.382.336-.648zm7.546 2.492c-1.239 0-2.25-.38-3.031-1.14-.776-.761-1.164-1.774-1.164-3.039v-.219c0-.849.164-1.607.492-2.274.328-.672.792-1.187 1.391-1.546.604-.365 1.292-.547 2.062-.547 1.157 0 2.066.364 2.727 1.093.667.73 1 1.763 1 3.102v.922h-5.383c.073.552.292.995.656 1.328.37.333.836.5 1.399.5.87 0 1.549-.315 2.039-.945l1.109 1.242c-.338.479-.797.854-1.375 1.125-.578.265-1.218.398-1.922.398zm-.257-6.937c-.448 0-.813.151-1.094.453-.276.302-.453.734-.531 1.297h3.14v-.18c-.01-.5-.146-.885-.406-1.156-.26-.276-.63-.414-1.109-.414zm9.601 4.445c0-.276-.138-.492-.414-.648-.271-.162-.708-.305-1.312-.43-2.011-.422-3.016-1.276-3.016-2.563 0-.75.31-1.375.93-1.875.625-.505 1.44-.757 2.445-.757 1.073 0 1.93.252 2.57.757.646.506.969 1.162.969 1.969h-2.258c0-.323-.104-.588-.312-.797-.209-.213-.534-.32-.977-.32-.38 0-.674.086-.883.258-.208.172-.312.39-.312.656 0 .25.117.453.351.609.24.151.641.284 1.204.399.562.109 1.036.234 1.421.375 1.193.437 1.79 1.195 1.79 2.273 0 .771-.331 1.396-.993 1.875-.661.474-1.515.711-2.562.711-.709 0-1.339-.125-1.891-.375-.547-.255-.976-.601-1.289-1.039-.312-.443-.469-.919-.469-1.43h2.141c.021.402.169.709.445.922.276.214.646.321 1.11.321.432 0 .758-.081.976-.243.224-.166.336-.382.336-.648z"/>
    <rect width="250" height="34" y="250" fill="#EB5757" rx="17"/>
    <path fill="#fff" d="M25.258 272H23v-8.703l-2.695.836v-1.836l4.71-1.688h.243V272zm11.5 0H28.96v-1.547l3.68-3.922c.505-.552.877-1.034 1.117-1.445.245-.412.367-.802.367-1.172 0-.505-.128-.901-.383-1.187-.255-.292-.62-.438-1.094-.438-.51 0-.914.177-1.21.531-.292.349-.438.81-.438 1.383h-2.266c0-.693.164-1.325.493-1.898.333-.573.802-1.021 1.406-1.344.604-.328 1.289-.492 2.055-.492 1.171 0 2.08.281 2.726.843.651.563.977 1.357.977 2.383 0 .563-.146 1.136-.438 1.719-.292.583-.792 1.263-1.5 2.039l-2.586 2.727h4.89V272zm12.82-3.07l1.11-5.383h2.18L50.71 272h-1.89l-1.602-5.32-1.602 5.32h-1.883l-2.156-8.453h2.18l1.101 5.375 1.547-5.375h1.633l1.54 5.383zm8.305 3.226c-1.24 0-2.25-.38-3.031-1.14-.776-.761-1.164-1.774-1.164-3.039v-.219c0-.849.164-1.607.492-2.274.328-.672.791-1.187 1.39-1.546.605-.365 1.292-.547 2.063-.547 1.156 0 2.065.364 2.726 1.093.667.73 1 1.763 1 3.102v.922h-5.382c.073.552.291.995.656 1.328.37.333.836.5 1.398.5.87 0 1.55-.315 2.04-.945l1.109 1.242c-.339.479-.797.854-1.375 1.125-.578.265-1.22.398-1.922.398zm-.258-6.937c-.448 0-.813.151-1.094.453-.276.302-.453.734-.531 1.297h3.14v-.18c-.01-.5-.145-.885-.406-1.156-.26-.276-.63-.414-1.109-.414zm8.914 6.937c-1.24 0-2.25-.38-3.031-1.14-.776-.761-1.164-1.774-1.164-3.039v-.219c0-.849.164-1.607.492-2.274.328-.672.792-1.187 1.39-1.546.605-.365 1.292-.547 2.063-.547 1.156 0 2.065.364 2.727 1.093.666.73 1 1.763 1 3.102v.922h-5.383c.073.552.291.995.656 1.328.37.333.836.5 1.398.5.87 0 1.55-.315 2.04-.945l1.109 1.242c-.339.479-.797.854-1.375 1.125-.578.265-1.219.398-1.922.398zm-.258-6.937c-.448 0-.812.151-1.094.453-.275.302-.453.734-.53 1.297h3.14v-.18c-.01-.5-.146-.885-.406-1.156-.26-.276-.63-.414-1.11-.414zm8.094 3.39l-.813.813V272h-2.257v-12h2.257v6.648l.438-.562 2.164-2.539h2.711l-3.055 3.523 3.32 4.93h-2.593l-2.172-3.391zm17.07-.757c0 1.302-.297 2.346-.89 3.132-.589.782-1.386 1.172-2.39 1.172-.855 0-1.545-.297-2.071-.89v3.984h-2.258v-11.703h2.094l.078.828c.547-.656 1.26-.984 2.14-.984 1.042 0 1.852.385 2.43 1.156.578.771.867 1.833.867 3.187v.118zm-2.257-.164c0-.787-.141-1.394-.422-1.821-.276-.427-.68-.64-1.211-.64-.709 0-1.196.27-1.461.812v3.461c.276.557.768.836 1.476.836 1.078 0 1.618-.883 1.618-2.648zm8.414-2.024c-.308-.042-.579-.062-.813-.062-.854 0-1.414.289-1.68.867V272h-2.257v-8.453h2.132l.063 1.008c.453-.776 1.08-1.164 1.883-1.164.25 0 .484.033.703.101l-.031 2.172zm4.828 6.492c-1.24 0-2.25-.38-3.032-1.14-.776-.761-1.164-1.774-1.164-3.039v-.219c0-.849.164-1.607.493-2.274.328-.672.791-1.187 1.39-1.546.604-.365 1.292-.547 2.063-.547 1.156 0 2.065.364 2.726 1.093.667.73 1 1.763 1 3.102v.922h-5.383c.073.552.292.995.657 1.328.369.333.836.5 1.398.5.87 0 1.55-.315 2.039-.945l1.11 1.242c-.339.479-.797.854-1.375 1.125-.579.265-1.219.398-1.922.398zm-.258-6.937c-.448 0-.813.151-1.094.453-.276.302-.453.734-.531 1.297h3.141v-.18c-.011-.5-.146-.885-.407-1.156-.26-.276-.63-.414-1.109-.414zm12.633 2.633c0 1.302-.297 2.346-.891 3.132-.588.782-1.385 1.172-2.391 1.172-.854 0-1.544-.297-2.07-.89v3.984h-2.258v-11.703h2.094l.078.828c.547-.656 1.261-.984 2.141-.984 1.041 0 1.851.385 2.43 1.156.578.771.867 1.833.867 3.187v.118zm-2.258-.164c0-.787-.141-1.394-.422-1.821-.276-.427-.68-.64-1.211-.64-.708 0-1.195.27-1.461.812v3.461c.276.557.768.836 1.477.836 1.078 0 1.617-.883 1.617-2.648zm8.562 4.312c-.104-.203-.179-.456-.226-.758-.547.61-1.258.914-2.133.914-.828 0-1.516-.239-2.062-.718-.542-.48-.813-1.084-.813-1.813 0-.896.331-1.583.992-2.063.667-.479 1.628-.721 2.883-.726h1.039v-.484c0-.391-.101-.704-.305-.938-.198-.234-.513-.352-.945-.352-.38 0-.68.092-.898.274-.214.182-.321.432-.321.75h-2.258c0-.49.152-.943.454-1.359.302-.417.729-.743 1.281-.977.552-.24 1.172-.359 1.859-.359 1.042 0 1.867.263 2.477.789.614.521.922 1.255.922 2.203v3.664c.005.802.117 1.409.336 1.82V272h-2.282zm-1.867-1.57c.334 0 .641-.073.922-.219.281-.151.49-.352.625-.602v-1.453h-.844c-1.13 0-1.731.391-1.804 1.172l-.008.133c0 .281.099.513.297.695.198.183.468.274.812.274zm10.297-4.766c-.307-.042-.578-.062-.812-.062-.855 0-1.415.289-1.68.867V272h-2.258v-8.453h2.133l.062 1.008c.454-.776 1.081-1.164 1.883-1.164.25 0 .485.033.703.101l-.031 2.172zm5.758 6.336c-.104-.203-.18-.456-.227-.758-.547.61-1.258.914-2.132.914-.829 0-1.516-.239-2.063-.718-.542-.48-.813-1.084-.813-1.813 0-.896.331-1.583.993-2.063.666-.479 1.627-.721 2.883-.726h1.039v-.484c0-.391-.102-.704-.305-.938-.198-.234-.513-.352-.945-.352-.381 0-.68.092-.899.274-.213.182-.32.432-.32.75h-2.258c0-.49.151-.943.453-1.359.302-.417.729-.743 1.281-.977.552-.24 1.172-.359 1.86-.359 1.041 0 1.867.263 2.476.789.615.521.922 1.255.922 2.203v3.664c.005.802.117 1.409.336 1.82V272h-2.281zm-1.867-1.57c.333 0 .64-.073.922-.219.281-.151.489-.352.625-.602v-1.453h-.844c-1.13 0-1.732.391-1.805 1.172l-.008.133c0 .281.099.513.297.695.198.183.469.274.813.274zm8.25-8.961v2.078h1.445v1.656h-1.445v4.219c0 .312.06.536.179.672.12.135.349.203.688.203.25 0 .471-.018.664-.055v1.711c-.443.136-.899.203-1.367.203-1.584 0-2.391-.799-2.422-2.398v-4.555h-1.234v-1.656h1.234v-2.078h2.258zM146.766 272H144.5v-8.453h2.266V272zm-2.399-10.641c0-.338.112-.617.336-.836.229-.218.539-.328.93-.328.385 0 .693.11.922.328.229.219.343.498.343.836 0 .344-.117.625-.351.844-.229.219-.534.328-.914.328s-.688-.109-.922-.328c-.229-.219-.344-.5-.344-.844zm3.914 6.336c0-.838.162-1.586.485-2.242.323-.656.786-1.164 1.39-1.523.61-.36 1.315-.539 2.117-.539 1.141 0 2.071.349 2.789 1.047.724.697 1.128 1.645 1.211 2.843l.016.578c0 1.297-.362 2.339-1.086 3.125-.724.782-1.695 1.172-2.914 1.172s-2.193-.39-2.922-1.172c-.724-.781-1.086-1.843-1.086-3.187v-.102zm2.258.164c0 .802.151 1.417.453 1.844.302.422.735.633 1.297.633.547 0 .974-.208 1.281-.625.308-.422.461-1.094.461-2.016 0-.786-.153-1.396-.461-1.828-.307-.432-.739-.648-1.297-.648-.552 0-.979.216-1.281.648-.302.427-.453 1.091-.453 1.992zm9.219-4.312l.07.976c.604-.755 1.414-1.132 2.43-1.132.896 0 1.562.263 2 .789.437.526.661 1.312.672 2.359V272h-2.258v-5.406c0-.479-.104-.826-.313-1.039-.208-.219-.554-.328-1.039-.328-.635 0-1.112.27-1.429.812V272h-2.258v-8.453h2.125zm18.484 4.305c0 1.302-.297 2.346-.89 3.132-.589.782-1.386 1.172-2.391 1.172-.854 0-1.544-.297-2.07-.89v3.984h-2.258v-11.703h2.094l.078.828c.547-.656 1.26-.984 2.14-.984 1.042 0 1.852.385 2.43 1.156.578.771.867 1.833.867 3.187v.118zm-2.258-.164c0-.787-.14-1.394-.422-1.821-.276-.427-.679-.64-1.21-.64-.709 0-1.196.27-1.461.812v3.461c.276.557.768.836 1.476.836 1.078 0 1.617-.883 1.617-2.648zm8.414-2.024c-.307-.042-.578-.062-.812-.062-.854 0-1.414.289-1.68.867V272h-2.258v-8.453h2.133l.063 1.008c.453-.776 1.08-1.164 1.883-1.164.25 0 .484.033.703.101l-.032 2.172zm.461 2.031c0-.838.162-1.586.485-2.242.323-.656.786-1.164 1.39-1.523.61-.36 1.315-.539 2.118-.539 1.14 0 2.07.349 2.789 1.047.724.697 1.127 1.645 1.211 2.843l.015.578c0 1.297-.362 2.339-1.086 3.125-.724.782-1.695 1.172-2.914 1.172s-2.193-.39-2.922-1.172c-.724-.781-1.086-1.843-1.086-3.187v-.102zm2.258.164c0 .802.151 1.417.453 1.844.302.422.735.633 1.297.633.547 0 .974-.208 1.281-.625.308-.422.461-1.094.461-2.016 0-.786-.153-1.396-.461-1.828-.307-.432-.739-.648-1.296-.648-.553 0-.98.216-1.282.648-.302.427-.453 1.091-.453 1.992zm6.813-.148c0-1.297.307-2.341.922-3.133.619-.792 1.453-1.187 2.5-1.187.927 0 1.648.317 2.164.953l.093-.797h2.047v8.172c0 .739-.169 1.383-.508 1.929-.333.547-.804.964-1.414 1.25-.609.287-1.323.43-2.14.43-.62 0-1.224-.125-1.813-.375-.588-.245-1.034-.562-1.336-.953l1-1.375c.563.63 1.245.945 2.047.945.599 0 1.065-.161 1.399-.484.333-.318.5-.771.5-1.359v-.454c-.521.589-1.206.883-2.055.883-1.016 0-1.839-.396-2.469-1.187-.625-.797-.937-1.852-.937-3.164v-.094zm2.258.164c0 .766.153 1.367.46 1.805.308.432.73.648 1.266.648.688 0 1.18-.258 1.477-.773V266c-.302-.516-.789-.773-1.461-.773-.542 0-.969.221-1.282.664-.307.442-.46 1.104-.46 1.984zm11.96-2.211c-.307-.042-.578-.062-.812-.062-.854 0-1.414.289-1.68.867V272h-2.258v-8.453h2.133l.063 1.008c.453-.776 1.08-1.164 1.883-1.164.25 0 .484.033.703.101l-.032 2.172zm5.758 6.336c-.104-.203-.179-.456-.226-.758-.547.61-1.258.914-2.133.914-.828 0-1.516-.239-2.063-.718-.541-.48-.812-1.084-.812-1.813 0-.896.331-1.583.992-2.063.667-.479 1.628-.721 2.883-.726h1.039v-.484c0-.391-.102-.704-.305-.938-.198-.234-.513-.352-.945-.352-.38 0-.68.092-.898.274-.214.182-.321.432-.321.75h-2.258c0-.49.151-.943.453-1.359.303-.417.73-.743 1.282-.977.552-.24 1.172-.359 1.859-.359 1.042 0 1.867.263 2.477.789.614.521.922 1.255.922 2.203v3.664c.005.802.117 1.409.336 1.82V272h-2.282zm-1.867-1.57c.333 0 .641-.073.922-.219.281-.151.49-.352.625-.602v-1.453h-.844c-1.13 0-1.732.391-1.804 1.172l-.008.133c0 .281.099.513.297.695.197.183.468.274.812.274zm7.664-6.883l.07.945c.599-.734 1.409-1.101 2.43-1.101 1.089 0 1.836.429 2.242 1.289.594-.86 1.44-1.289 2.539-1.289.917 0 1.599.268 2.047.804.448.532.672 1.334.672 2.407V272h-2.265v-5.391c0-.479-.094-.828-.282-1.047-.187-.223-.518-.335-.992-.335-.677 0-1.146.322-1.406.968l.008 5.805h-2.258v-5.383c0-.489-.097-.844-.289-1.062-.193-.219-.521-.328-.985-.328-.64 0-1.104.265-1.39.796V272h-2.258v-8.453h2.117z"/>
    <circle cx="391.5" cy="238.5" r="23.5" fill="#D5F2FB"/>
    <circle cx="425.5" cy="101.5" r="23.5" fill="#D5F2FB"/>
    <circle cx="193.5" cy="23.5" r="23.5" fill="#D5F2FB"/>
    <path fill="#333" d="M189.908 17.862c-2.713 0-4.911 2.2-4.911 4.911 0 2.712 2.198 4.911 4.911 4.911 2.712 0 4.91-2.199 4.91-4.91 0-2.713-2.198-4.912-4.91-4.912zm3.634 3.07h-1.77c-.169-.848-.433-1.534-.703-2.063 1.081.323 1.969 1.073 2.473 2.063zm-2.407 1.841c0 .366-.027.701-.065 1.023h-2.325c-.038-.322-.065-.657-.065-1.023 0-.365.027-.7.064-1.023h2.327c.037.322.064.658.064 1.023zm-1.346-4.08c.04-.001.078-.012.119-.012.041 0 .079.01.12.012.307.471.68 1.217.907 2.239h-2.054c.227-1.026.602-1.77.908-2.24zm-1.042.176c-.269.528-.534 1.214-.703 2.063h-1.771c.504-.99 1.392-1.74 2.474-2.063zm-2.932 3.904c0-.355.06-.694.146-1.023h1.958c-.034.324-.058.661-.058 1.023 0 .362.025.699.06 1.023h-1.96c-.086-.329-.146-.668-.146-1.023zm.458 1.842h1.773c.171.85.435 1.541.7 2.062-1.081-.323-1.969-1.073-2.473-2.062zm3.754 2.239c-.041 0-.079.012-.119.012-.041 0-.079-.011-.119-.012-.294-.452-.676-1.199-.907-2.24h2.052c-.231 1.04-.613 1.787-.907 2.24zm1.043-.177c.265-.521.529-1.212.7-2.062h1.772c-.504.99-1.391 1.739-2.472 2.062zm.825-2.88c.034-.325.059-.662.059-1.024s-.024-.699-.058-1.023h1.959c.085.33.145.668.145 1.023 0 .355-.06.694-.145 1.023h-1.96zM194 30.14h-8.185v.818H194v-.819zM199.698 24.244l-.424 1.58.791.213.424-1.581-.791-.212zM198.85 27.405l-1.482 5.533.79.212 1.483-5.534-.791-.211z"/>
    <path fill="#333" d="M204.245 13.598l-9.487-2.542c-.142-.038-.284-.056-.425-.056-.722 0-1.384.482-1.58 1.214l-.855 3.193h-8.538c-.452 0-.818.367-.818.819v16.369c0 .452.366.818.818.818h9.453l5.712 1.53c.142.039.285.057.425.057.723 0 1.384-.482 1.58-1.214l4.872-18.183c.234-.873-.284-1.77-1.157-2.005zM183.36 32.595v-16.37h12.277c.451 0 .818.368.818.819v14.732c0 .452-.367.819-.818.819H183.36zm21.252-17.204l-4.872 18.184c-.096.357-.421.607-.79.607-.071 0-.143-.01-.213-.029l-2.854-.764c.786-.12 1.391-.793 1.391-1.613v-6.488l.419.112.424-1.581-.791-.212-.052.196v-6.504l.835.223.968 3.165.678.181-.065-2.922c.445.12.9.241 1.198.32l.526.929.452.12-.078-1.291.713-1.08-.452-.121-.919.54-1.198-.32 1.517-2.499-.677-.182-2.421 2.257-1.276-.342c-.276-.515-.813-.87-1.438-.87h-2.892l.799-2.981c.096-.358.42-.607.789-.607.071 0 .143.009.213.028l9.487 2.542c.211.056.388.192.497.381.109.19.138.41.082.621z"/>
    <path fill="#333" d="M199.485 22.08l-.209.792.777.205.21-.79-.778-.207zM201.038 22.493l-.209.791.778.206.209-.791-.778-.206zM197.932 21.669l-.21.791.778.206.209-.791-.777-.206z"/>
    <g fill="#000" clip-path="url(#prefix__clip0)">
        <path d="M433.068 81.09c-1.888-1.873-4.399-2.904-7.07-2.904-2.67 0-5.181 1.031-7.07 2.904-1.888 1.874-2.928 4.364-2.928 7.013 0 .16.131.29.293.29.162 0 .293-.13.293-.29 0-2.494.979-4.838 2.757-6.602 1.778-1.763 4.141-2.734 6.655-2.734 2.515 0 4.878.971 6.656 2.734 1.778 1.764 2.757 4.108 2.757 6.602 0 2.494-.979 4.838-2.757 6.601-1.778 1.764-4.141 2.735-6.656 2.735-2.28 0-4.481-.82-6.195-2.307-1.699-1.475-2.808-3.5-3.123-5.704-.023-.16-.171-.27-.331-.247-.161.022-.272.17-.249.328.335 2.342 1.513 4.494 3.317 6.06 1.821 1.58 4.159 2.45 6.581 2.45 2.671 0 5.182-1.03 7.07-2.904 1.889-1.873 2.929-4.363 2.929-7.012 0-2.649-1.04-5.14-2.929-7.012z"/>
        <path d="M423.553 84.3c.043-.024.157-.07.281.01l2.005 1.288c.136.087.317.048.405-.086.088-.135.05-.315-.086-.402l-2.006-1.287c-.265-.17-.602-.183-.88-.034-.277.15-.449.438-.449.75v7.555c0 .314.172.601.449.75.129.07.271.105.412.105.163 0 .326-.046.468-.138l5.885-3.777c.246-.158.393-.426.393-.717 0-.29-.147-.559-.393-.717l-2.622-1.683c-.136-.087-.317-.049-.405.086-.088.135-.049.315.087.402l2.622 1.683c.08.051.126.135.126.229 0 .095-.046.178-.126.23l-5.885 3.777c-.124.08-.238.034-.282.01-.043-.023-.143-.093-.143-.24V84.54c0-.147.1-.217.144-.24z"/>
    </g>
    <g fill="#000" clip-path="url(#prefix__clip1)">
        <path d="M400.404 224.641h-3.278c-.026-1.58-.246-3.107-.628-4.46h2.15c.176 0 .319-.142.319-.317 0-.175-.143-.316-.319-.316h-2.346c-.341-1.02-.779-1.921-1.3-2.644-.102-.143-.302-.176-.445-.074-.143.102-.177.299-.074.442.452.627.838 1.401 1.147 2.276h-3.311v-2.925c0-.175-.143-.316-.319-.316-.176 0-.319.141-.319.316v2.925h-3.311c.309-.875.695-1.649 1.147-2.276.103-.143.069-.34-.074-.442-.143-.102-.343-.069-.445.074-.521.723-.959 1.624-1.3 2.644h-2.346c-.176 0-.319.141-.319.316 0 .175.143.317.319.317h2.15c-.382 1.353-.602 2.88-.628 4.46h-3.278c-.177 0-.319.142-.319.317 0 .174.142.316.319.316h3.278c.026 1.58.246 3.107.628 4.46h-2.15c-.176 0-.319.142-.319.317 0 .175.143.316.319.316h2.346c.341 1.02.779 1.922 1.3 2.645.062.086.161.132.26.132.064 0 .129-.019.185-.059.144-.101.177-.299.075-.441-.452-.628-.838-1.401-1.148-2.277h3.311v2.925c0 .175.143.317.319.317.176 0 .319-.142.319-.317v-2.925h3.311c-.309.876-.696 1.649-1.148 2.277-.102.142-.069.34.075.441.056.04.121.059.185.059.1 0 .198-.046.26-.132.521-.723.959-1.625 1.3-2.645h2.346c.176 0 .319-.141.319-.316 0-.175-.143-.317-.319-.317h-2.15c.382-1.353.602-2.88.628-4.46h3.278c.177 0 .319-.142.319-.317 0-.174-.142-.316-.319-.316zm-4.568-4.46c.396 1.337.625 2.868.652 4.46h-4.169v-4.46h3.517zm-7.672 0h3.517v4.46h-4.169c.027-1.592.256-3.123.652-4.46zm0 9.553c-.396-1.337-.625-2.868-.652-4.46h4.169v4.46h-3.517zm7.672 0h-3.517v-4.46h4.169c-.027 1.593-.256 3.123-.652 4.46z"/>
        <path d="M399.071 217.945c-1.889-1.873-4.4-2.904-7.071-2.904-2.671 0-5.182 1.031-7.071 2.904-1.889 1.873-2.929 4.364-2.929 7.013 0 1.952.57 3.835 1.65 5.457l-1.223 3.635c-.038.114-.008.239.078.324.085.085.211.114.326.077l3.666-1.212c1.635 1.07 3.534 1.636 5.503 1.636 2.671 0 5.182-1.032 7.071-2.905 1.889-1.873 2.929-4.364 2.929-7.012 0-2.649-1.04-5.14-2.929-7.013zM392 234.242c-1.893 0-3.717-.558-5.275-1.614-.054-.036-.116-.055-.18-.055-.034 0-.068.005-.101.016l-3.209 1.061 1.07-3.183c.031-.094.017-.197-.04-.278-1.064-1.545-1.627-3.354-1.627-5.231 0-5.12 4.2-9.284 9.362-9.284s9.362 4.164 9.362 9.284c0 5.119-4.2 9.284-9.362 9.284z"/>
    </g>
    <defs>
        <clipPath id="prefix__clip0">
            <path fill="#fff" d="M416 78.186h20V98.02h-20V78.186z"/>
        </clipPath>
        <clipPath id="prefix__clip1">
            <path fill="#fff" d="M382 215.041h20v19.834h-20v-19.834z"/>
        </clipPath>
        <linearGradient id="prefix__paint0_linear" x1="300.418" x2="319.744" y1="153.631" y2="370.636" gradientUnits="userSpaceOnUse">
            <stop stop-color="#116363"/>
            <stop offset="1" stop-color="#2C9D9E"/>
        </linearGradient>
    </defs>
</svg>
