<svg xmlns="http://www.w3.org/2000/svg" width="50" height="38" fill="none" viewBox="0 0 50 38">
    <g clip-path="url(#prefix__clip0)">
        <path fill="#012169" d="M-12.55 0h75.2v37.6h-75.2V0z"/>
        <path fill="#fff" d="M-12.55 0v4.2l66.792 33.4h8.408v-4.2L-4.14 0h-8.409zm75.2 0v4.2L-4.14 37.6h-8.409v-4.2L54.242 0h8.408z"/>
        <path fill="#fff" d="M18.786 0v37.6h12.528V0H18.786zM-12.55 12.536v12.528h75.2V12.536h-75.2z"/>
        <path fill="#C8102E" d="M-12.55 15.04v7.52h75.2v-7.52h-75.2zM21.29 0v37.6h7.52V0h-7.52zm-33.84 37.6l25.064-12.536h5.611L-6.947 37.6h-5.603zm0-37.6l25.064 12.536H6.911l-19.46-9.73V0zm44.533 12.536L57.047 0h5.603L37.586 12.536h-5.603zM62.65 37.6L37.586 25.064h5.603l19.461 9.73V37.6z"/>
    </g>
    <defs>
        <clipPath id="prefix__clip0">
            <path fill="#fff" d="M0 0h50v37.5H0V0z"/>
        </clipPath>
    </defs>
</svg>
