<svg width="20" height="20" viewBox="0 0 20 20" fill="none">
    <path d="M18.4043 9.68085H15.1264C15.1004 8.08774 14.8803 6.54826 14.4978 5.18323H16.6475C16.8238 5.18323 16.9667 5.04038 16.9667 4.86409C16.9667 4.68779 16.8238 4.54494 16.6475 4.54494H14.3023C13.9611 3.51664 13.5229 2.60787 13.0022 1.87872C12.8997 1.73528 12.7004 1.702 12.557 1.80447C12.4135 1.90689 12.3803 2.10626 12.4827 2.24966C12.9346 2.88234 13.3205 3.66238 13.6302 4.54494H10.3192V1.59574C10.3192 1.41945 10.1763 1.2766 10 1.2766C9.82372 1.2766 9.68087 1.41945 9.68087 1.59574V4.54494H6.3698C6.67946 3.66238 7.06542 2.88234 7.51725 2.24966C7.61967 2.10626 7.58644 1.90689 7.44299 1.80447C7.2995 1.70204 7.10023 1.73532 6.9978 1.87872C6.47708 2.60787 6.03887 3.51668 5.69768 4.54494H3.35248C3.17619 4.54494 3.03333 4.68779 3.03333 4.86409C3.03333 5.04038 3.17619 5.18323 3.35248 5.18323H5.50219C5.11972 6.54826 4.89967 8.08774 4.87363 9.68085H1.59576C1.41946 9.68085 1.27661 9.8237 1.27661 10C1.27661 10.1763 1.41946 10.3191 1.59576 10.3191H4.87367C4.89967 11.9123 5.11972 13.4517 5.50223 14.8168H3.35248C3.17619 14.8168 3.03333 14.9596 3.03333 15.1359C3.03333 15.3122 3.17619 15.4551 3.35248 15.4551H5.69768C6.03891 16.4835 6.47725 17.3925 6.9981 18.1217C7.0604 18.2089 7.15853 18.2554 7.2581 18.2554C7.32227 18.2554 7.38708 18.2361 7.44333 18.196C7.58674 18.0935 7.61997 17.8942 7.51755 17.7507C7.06559 17.118 6.67955 16.3378 6.3698 15.4551H9.68087V18.4043C9.68087 18.5806 9.82372 18.7234 10 18.7234C10.1763 18.7234 10.3192 18.5806 10.3192 18.4043V15.4551H13.6302C13.3205 16.3378 12.9344 17.118 12.4825 17.7507C12.3801 17.8941 12.4133 18.0934 12.5567 18.1959C12.6129 18.236 12.6777 18.2554 12.7419 18.2554C12.8415 18.2554 12.9396 18.2089 13.0019 18.1217C13.5228 17.3924 13.9611 16.4835 14.3024 15.455H16.6475C16.8238 15.455 16.9667 15.3122 16.9667 15.1359C16.9667 14.9596 16.8238 14.8167 16.6475 14.8167H14.4978C14.8803 13.4517 15.1004 11.9122 15.1264 10.3191H18.4043C18.5806 10.3191 18.7234 10.1763 18.7234 9.99996C18.7234 9.82366 18.5806 9.68085 18.4043 9.68085ZM13.8358 5.18323C14.2321 6.53145 14.4611 8.07506 14.4879 9.68085H10.3192V5.18323H13.8358ZM6.16427 5.18323H9.68087V9.68085H5.5121C5.53899 8.07502 5.76797 6.53145 6.16427 5.18323ZM6.16427 14.8168C5.76797 13.4686 5.53895 11.9249 5.5121 10.3191H9.68087V14.8168H6.16427ZM13.8358 14.8168H10.3192V10.3191H14.4879C14.461 11.925 14.2321 13.4686 13.8358 14.8168Z" fill="black"/>
    <path d="M17.0711 2.92894C15.1823 1.04017 12.6711 0 10 0C7.32889 0 4.8177 1.04017 2.92894 2.92894C1.04017 4.8177 0 7.32889 0 10C0 11.969 0.56983 13.8681 1.64953 15.5028L0.427489 19.1687C0.389277 19.2834 0.419106 19.4099 0.504596 19.4954C0.590085 19.5808 0.716468 19.6106 0.831234 19.5725L4.49719 18.3505C6.132 19.4302 8.03102 20 10 20C12.6711 20 15.1823 18.9598 17.0711 17.0711C18.9598 15.1823 20 12.6711 20 10C20 7.32889 18.9598 4.8177 17.0711 2.92894ZM10 19.3617C8.10677 19.3617 6.28277 18.7991 4.72506 17.7347C4.67136 17.698 4.60851 17.679 4.54502 17.679C4.51111 17.679 4.47702 17.6844 4.44408 17.6954L1.23489 18.7651L2.30468 15.556C2.33621 15.4613 2.32166 15.3573 2.2654 15.2749C1.20094 13.7173 0.638298 11.8933 0.638298 10C0.638298 4.83796 4.83791 0.638298 10 0.638298C15.1621 0.638298 19.3617 4.83796 19.3617 10C19.3617 15.1621 15.1621 19.3617 10 19.3617Z" fill="black"/>
</svg>
