<?xml version="1.0" encoding="UTF-8"?>
<svg width="48px" height="48px" viewBox="0 0 48 48" version="1.1" xmlns="http://www.w3.org/2000/svg" xmlns:xlink="http://www.w3.org/1999/xlink">
    <!-- Generator: Sketch 57.1 (83088) - https://sketch.com -->
    <title>avatar-default</title>
    <desc>Created with Sketch.</desc>
    <g id="StyleGuide" stroke="none" stroke-width="1" fill="none" fill-rule="evenodd">
        <path d="M6.98591549,7.09859155 C11.7183335,2.36617352 17.3896383,0 24,0 C30.6103617,0 36.2628873,2.34739437 40.9577465,7.04225352 C45.6526056,11.7371127 48,17.3896383 48,24 C48,30.6103617 45.6526056,36.2628873 40.9577465,40.9577465 C36.2628873,45.6526056 30.6103617,48 24,48 C17.3896383,48 11.7371127,45.6526056 7.04225352,40.9577465 C2.34739437,36.2628873 0,30.6103617 0,24 C0,17.3896383 2.32861521,11.7558918 6.98591549,7.09859155 Z M9.57746479,33.5774648 C11.399922,38.3986228 17.9154625,41.8960872 24.0000006,41.8960872 C30.0845375,41.8960872 36.5010356,39.0887891 38.4225364,33.5774648 C38.3474175,31.4741679 33.5101908,26.1408451 24.0000006,26.1408451 C14.4898104,26.1408451 9.65258254,31.3990501 9.57746479,33.5774648 Z M29.6249994,10.3749999 C28.0416582,8.79165872 26.1666771,8 24,8 C21.8333223,8 19.9583411,8.79165872 18.3749999,10.3749999 C16.7916587,11.9583411 16,13.8333223 16,16 C16,18.1666771 16.7916587,20.0416582 18.3749999,21.6249994 C19.9583411,23.2083406 21.8333223,24 24,24 C26.1666771,24 28.0416582,23.2083406 29.6249994,21.6249994 C31.2083406,20.0416582 32,18.1666771 32,16 C32,13.8333223 31.2083406,11.9583411 29.6249994,10.3749999 Z" id="avatar-default" fill="#95A1AC"></path>
    </g>
</svg>