<svg xmlns="http://www.w3.org/2000/svg" xmlns:xlink="http://www.w3.org/1999/xlink" viewBox="0 0 200 200"><defs><style>.cls-1{isolation:isolate;}.cls-113,.cls-2,.cls-45{fill:#fff;}.cls-2{opacity:0;}.cls-3{fill:#f9fbfe;}.cls-3,.cls-55{opacity:0.02;}.cls-4{fill:#f3f8fd;}.cls-4,.cls-56{opacity:0.05;}.cls-5{fill:#eef4fc;}.cls-5,.cls-57{opacity:0.07;}.cls-6{fill:#e8f0fb;}.cls-58,.cls-6{opacity:0.1;}.cls-7{fill:#e2ecfb;}.cls-59,.cls-7{opacity:0.12;}.cls-8{fill:#dce9fa;}.cls-60,.cls-8{opacity:0.15;}.cls-9{fill:#d6e5f9;}.cls-61,.cls-9{opacity:0.17;}.cls-10{fill:#d0e1f8;}.cls-10,.cls-62{opacity:0.2;}.cls-11{fill:#cbdef7;}.cls-11,.cls-63{opacity:0.22;}.cls-12{fill:#c5daf6;}.cls-12,.cls-64{opacity:0.24;}.cls-13{fill:#bfd6f5;}.cls-13,.cls-65{opacity:0.27;}.cls-14{fill:#b9d3f4;}.cls-14,.cls-66{opacity:0.29;}.cls-15{fill:#b3cff4;}.cls-15,.cls-67{opacity:0.32;}.cls-16{fill:#adcbf3;}.cls-16,.cls-68{opacity:0.34;}.cls-17{fill:#a8c7f2;}.cls-17,.cls-69{opacity:0.37;}.cls-18{fill:#a2c4f1;}.cls-18,.cls-70{opacity:0.39;}.cls-19{fill:#9cc0f0;}.cls-19,.cls-71{opacity:0.41;}.cls-20{fill:#96bcef;}.cls-20,.cls-72{opacity:0.44;}.cls-21{fill:#90b9ee;}.cls-21,.cls-73{opacity:0.46;}.cls-22{fill:#8ab5ed;}.cls-22,.cls-74{opacity:0.49;}.cls-23{fill:#85b1ed;}.cls-23,.cls-75{opacity:0.51;}.cls-24{fill:#7fadec;}.cls-24,.cls-76{opacity:0.54;}.cls-25{fill:#79aaeb;}.cls-25,.cls-77{opacity:0.56;}.cls-26{fill:#73a6ea;}.cls-26,.cls-78{opacity:0.59;}.cls-27{fill:#6da2e9;}.cls-27,.cls-79{opacity:0.61;}.cls-28{fill:#679fe8;}.cls-28,.cls-80{opacity:0.63;}.cls-29{fill:#629be7;}.cls-29,.cls-81{opacity:0.66;}.cls-30{fill:#5c97e6;}.cls-30,.cls-82{opacity:0.68;}.cls-31{fill:#5693e6;}.cls-31,.cls-83{opacity:0.71;}.cls-32{fill:#5090e5;}.cls-32,.cls-84{opacity:0.73;}.cls-33{fill:#4a8ce4;}.cls-33,.cls-85{opacity:0.76;}.cls-34{fill:#4488e3;}.cls-34,.cls-86{opacity:0.78;}.cls-35{fill:#3f85e2;}.cls-35,.cls-87{opacity:0.8;}.cls-36{fill:#3981e1;}.cls-36,.cls-88{opacity:0.83;}.cls-37{fill:#337de0;}.cls-37,.cls-89{opacity:0.85;}.cls-38{fill:#2d7adf;}.cls-38,.cls-90{opacity:0.88;}.cls-39{fill:#2776df;}.cls-39,.cls-91{opacity:0.9;}.cls-40{fill:#2172de;}.cls-40,.cls-92{opacity:0.93;}.cls-41{fill:#1c6edd;}.cls-41,.cls-93{opacity:0.95;}.cls-42{fill:#166bdc;}.cls-42,.cls-94{opacity:0.98;}.cls-43{fill:#1067db;}.cls-44{fill:#f3f8fe;}.cls-46{fill:url(#linear-gradient);}.cls-47{fill:url(#linear-gradient-2);}.cls-48{fill:#becaf7;}.cls-49{fill:#b97d50;}.cls-50{fill:#f7a66a;}.cls-51{fill:#e9edfc;}.cls-52{fill:#05105d;}.cls-105,.cls-53{fill:#231f20;}.cls-104,.cls-113,.cls-53{opacity:0.3;}.cls-54{fill:url(#linear-gradient-3);}.cls-55{fill:#fbfbfb;}.cls-56{fill:#f6f6f8;}.cls-57{fill:#f2f2f4;}.cls-118,.cls-58{fill:#ededf0;}.cls-119,.cls-59{fill:#e9e9ed;}.cls-60{fill:#e4e4e9;}.cls-61{fill:#e0e0e6;}.cls-123,.cls-62{fill:#dbdbe2;}.cls-63{fill:#d7d7de;}.cls-64{fill:#d2d2db;}.cls-65{fill:#ceced7;}.cls-128,.cls-66{fill:#c9c9d3;}.cls-67{fill:#c5c5d0;}.cls-68{fill:#c1c1cc;}.cls-69{fill:#bcbcc8;}.cls-70{fill:#b8b8c5;}.cls-71{fill:#b3b3c1;}.cls-72{fill:#afafbe;}.cls-73{fill:#aaaaba;}.cls-74{fill:#a6a6b6;}.cls-75{fill:#a1a1b3;}.cls-76{fill:#9d9daf;}.cls-77{fill:#9898ab;}.cls-78{fill:#9494a8;}.cls-79{fill:#8f8fa4;}.cls-80{fill:#8b8ba1;}.cls-81{fill:#86869d;}.cls-82{fill:#828299;}.cls-149,.cls-83{fill:#7e7e96;}.cls-84{fill:#797992;}.cls-85{fill:#75758e;}.cls-86{fill:#70708b;}.cls-154,.cls-87{fill:#6c6c87;}.cls-88{fill:#676783;}.cls-89{fill:#636380;}.cls-158,.cls-90{fill:#5e5e7c;}.cls-159,.cls-91{fill:#5a5a79;}.cls-92{fill:#555575;}.cls-93{fill:#515171;}.cls-94{fill:#4c4c6e;}.cls-95{fill:#48486a;}.cls-96{fill:url(#linear-gradient-4);}.cls-97{fill:url(#linear-gradient-5);}.cls-98{fill:url(#linear-gradient-6);}.cls-99{fill:#f9b888;}.cls-100{fill:#f5f7f9;}.cls-101{fill:url(#linear-gradient-7);}.cls-102{fill:#4085e2;}.cls-103{fill:url(#linear-gradient-8);}.cls-106{fill:#d3dbf9;}.cls-107{fill:#edf0f8;}.cls-108{opacity:0.59;mix-blend-mode:multiply;fill:url(#radial-gradient);}.cls-109{fill:#1ca2f9;}.cls-110{fill:url(#linear-gradient-9);}.cls-111{fill:url(#linear-gradient-10);}.cls-112{fill:url(#linear-gradient-11);}.cls-114{fill:#fbfbfc;opacity:0.02;}.cls-115{fill:#f8f8f9;opacity:0.04;}.cls-116{fill:#f4f4f6;opacity:0.06;}.cls-117{fill:#f1f1f3;opacity:0.08;}.cls-118{opacity:0.1;}.cls-119{opacity:0.12;}.cls-120{fill:#e6e6eb;opacity:0.14;}.cls-121{fill:#e2e2e8;opacity:0.16;}.cls-122{fill:#dfdfe5;opacity:0.18;}.cls-123{opacity:0.2;}.cls-124{fill:#d8d8df;opacity:0.22;}.cls-125{fill:#d4d4dc;opacity:0.24;}.cls-126{fill:#d0d0d9;opacity:0.25;}.cls-127{fill:#cdcdd6;opacity:0.27;}.cls-128{opacity:0.29;}.cls-129{fill:#c6c6d0;opacity:0.31;}.cls-130{fill:#c2c2cd;opacity:0.33;}.cls-131{fill:#bebeca;opacity:0.35;}.cls-132{fill:#bbbbc7;opacity:0.37;}.cls-133{fill:#b7b7c5;opacity:0.39;}.cls-134{fill:#b4b4c2;opacity:0.41;}.cls-135{fill:#b0b0bf;opacity:0.43;}.cls-136{fill:#acacbc;opacity:0.45;}.cls-137{fill:#a9a9b9;opacity:0.47;}.cls-138{fill:#a5a5b6;opacity:0.49;}.cls-139{fill:#a2a2b3;opacity:0.51;}.cls-140{fill:#9e9eb0;opacity:0.53;}.cls-141{fill:#9b9bad;opacity:0.55;}.cls-142{fill:#9797aa;opacity:0.57;}.cls-143{fill:#9393a7;opacity:0.59;}.cls-144{fill:#9090a4;opacity:0.61;}.cls-145{fill:#8c8ca2;opacity:0.63;}.cls-146{fill:#89899f;opacity:0.65;}.cls-147{fill:#85859c;opacity:0.67;}.cls-148{fill:#818199;opacity:0.69;}.cls-149{opacity:0.71;}.cls-150{fill:#7a7a93;opacity:0.73;}.cls-151{fill:#777790;opacity:0.75;}.cls-152{fill:#73738d;opacity:0.76;}.cls-153{fill:#6f6f8a;opacity:0.78;}.cls-154{opacity:0.8;}.cls-155{fill:#686884;opacity:0.82;}.cls-156{fill:#656581;opacity:0.84;}.cls-157{fill:#61617e;opacity:0.86;}.cls-158{opacity:0.88;}.cls-159{opacity:0.9;}.cls-160{fill:#565676;opacity:0.92;}.cls-161{fill:#535373;opacity:0.94;}.cls-162{fill:#4f4f70;opacity:0.96;}.cls-163{fill:#4c4c6d;opacity:0.98;}.cls-164{fill:url(#linear-gradient-12);}.cls-165{fill:url(#linear-gradient-13);}.cls-166{fill:#92a6f1;}.cls-167{fill:url(#linear-gradient-14);}.cls-168{fill:#2a78df;}.cls-169{fill:url(#linear-gradient-15);}.cls-170{fill:#a8d9fb;}.cls-171{fill:none;}</style><linearGradient id="linear-gradient" x1="106.95" y1="54.29" x2="195.8" y2="54.29" gradientUnits="userSpaceOnUse"><stop offset="0" stop-color="#92a6f1"/><stop offset="1" stop-color="#dce5fb"/></linearGradient><linearGradient id="linear-gradient-2" x1="-2653.96" y1="60.34" x2="-2581.49" y2="60.34" gradientTransform="matrix(-1, 0, 0, 1, -2581.49, 0)" gradientUnits="userSpaceOnUse"><stop offset="0" stop-color="#1ca2f9"/><stop offset="1" stop-color="#1067db"/></linearGradient><linearGradient id="linear-gradient-3" x1="154.72" y1="98.78" x2="9.37" y2="122.39" xlink:href="#linear-gradient"/><linearGradient id="linear-gradient-4" x1="-2654.94" y1="88.69" x2="-2627.98" y2="88.69" gradientTransform="matrix(-1, 0, 0, 1, -2548.12, 0)" xlink:href="#linear-gradient"/><linearGradient id="linear-gradient-5" x1="-2654.19" y1="90.63" x2="-2629.79" y2="87.39" gradientTransform="matrix(-1, 0, 0, 1, -2548.12, 0)" gradientUnits="userSpaceOnUse"><stop offset="0.02" stop-color="#1ca2f9"/><stop offset="0.33" stop-color="#1993f1"/><stop offset="0.93" stop-color="#116cde"/><stop offset="1" stop-color="#1067db"/></linearGradient><linearGradient id="linear-gradient-6" x1="-2672.73" y1="105.15" x2="-2628.72" y2="105.15" gradientTransform="matrix(-1, 0, 0, 1, -2548.12, 0)" xlink:href="#linear-gradient"/><linearGradient id="linear-gradient-7" x1="112.6" y1="120.28" x2="143.49" y2="120.28" gradientUnits="userSpaceOnUse"><stop offset="0" stop-color="#1067db"/><stop offset="0.17" stop-color="#0f5dcc"/><stop offset="0.49" stop-color="#0b42a5"/><stop offset="0.94" stop-color="#061666"/><stop offset="1" stop-color="#05105d"/></linearGradient><linearGradient id="linear-gradient-8" x1="138.64" y1="97.98" x2="116.95" y2="109.36" gradientUnits="userSpaceOnUse"><stop offset="0" stop-color="#05105d"/><stop offset="0.15" stop-color="#072278"/><stop offset="0.41" stop-color="#0b40a2"/><stop offset="0.65" stop-color="#0e55c1"/><stop offset="0.86" stop-color="#0f62d4"/><stop offset="1" stop-color="#1067db"/></linearGradient><radialGradient id="radial-gradient" cx="-2628.39" cy="7977" r="5.62" gradientTransform="matrix(-1, 0, 0, 0.55, -2548.12, -4228.54)" gradientUnits="userSpaceOnUse"><stop offset="0.53" stop-color="#1067db"/><stop offset="0.58" stop-color="#3b82e1"/><stop offset="0.64" stop-color="#6ea3e9"/><stop offset="0.7" stop-color="#9bbff0"/><stop offset="0.76" stop-color="#bfd6f5"/><stop offset="0.82" stop-color="#dbe8fa"/><stop offset="0.88" stop-color="#eff5fd"/><stop offset="0.94" stop-color="#fbfcfe"/><stop offset="1" stop-color="#fff"/></radialGradient><linearGradient id="linear-gradient-9" x1="-2632.03" y1="116.31" x2="-2624.75" y2="116.31" xlink:href="#linear-gradient-5"/><linearGradient id="linear-gradient-10" x1="-2631.72" y1="111.78" x2="-2625.07" y2="111.78" xlink:href="#linear-gradient-5"/><linearGradient id="linear-gradient-11" x1="-2631.43" y1="112.27" x2="-2625.36" y2="112.27" gradientTransform="matrix(-1, 0, 0, 1, -2548.12, 0)" gradientUnits="userSpaceOnUse"><stop offset="0" stop-color="#edbd6a"/><stop offset="1" stop-color="#f7a66a"/></linearGradient><linearGradient id="linear-gradient-12" x1="-2282.5" y1="124.93" x2="-2247.72" y2="124.93" gradientTransform="matrix(-1, 0, 0, 1, -2201.99, 0)" xlink:href="#linear-gradient"/><linearGradient id="linear-gradient-13" x1="-2278.61" y1="124.17" x2="-2250.57" y2="124.17" gradientTransform="matrix(-1, 0, 0, 1, -2201.99, 0)" xlink:href="#linear-gradient-5"/><linearGradient id="linear-gradient-14" x1="-2271.71" y1="108.99" x2="-2265" y2="108.99" gradientTransform="matrix(-1, 0, 0, 1, -2201.99, 0)" gradientUnits="userSpaceOnUse"><stop offset="0" stop-color="#05105d"/><stop offset="0.06" stop-color="#061666"/><stop offset="0.5" stop-color="#0b42a5"/><stop offset="0.81" stop-color="#0f5dcc"/><stop offset="0.98" stop-color="#1067db"/></linearGradient><linearGradient id="linear-gradient-15" x1="63.32" y1="104.59" x2="69.42" y2="104.59" gradientTransform="matrix(1, 0, 0, 1, 0, 0)" xlink:href="#linear-gradient-14"/></defs><title>talent-image-02</title><g class="cls-1"><g id="Layer_2" data-name="Layer 2"><g id="Graphics"><g id="bot"><path class="cls-2" d="M147.29,15.53a6.5,6.5,0,0,1,5.92,0L198.77,41.8c1.64.94,1.64,2.49,0,3.43L153.86,71.16a6.55,6.55,0,0,1-5.94,0L103,45.23c-1.63-.94-1.64-2.5,0-3.46Z"/><path class="cls-3" d="M147.31,15.7a6.44,6.44,0,0,1,5.89,0l45.28,26.14c1.62.94,1.62,2.47,0,3.41L153.84,71a6.55,6.55,0,0,1-5.91,0L103.29,45.22c-1.62-.94-1.63-2.49,0-3.44Z"/><path class="cls-4" d="M147.33,15.87a6.39,6.39,0,0,1,5.85,0l45,26c1.61.93,1.61,2.46,0,3.39L153.82,70.82a6.52,6.52,0,0,1-5.87,0L103.59,45.21c-1.62-.93-1.63-2.47,0-3.42Z"/><path class="cls-5" d="M147.35,16a6.36,6.36,0,0,1,5.82,0l44.72,25.82c1.61.93,1.61,2.44,0,3.37L153.8,70.65a6.44,6.44,0,0,1-5.83,0L103.88,45.2c-1.6-.93-1.61-2.46,0-3.4Z"/><path class="cls-6" d="M147.37,16.21a6.34,6.34,0,0,1,5.78,0L197.6,41.84c1.59.92,1.59,2.42,0,3.35L153.79,70.48a6.44,6.44,0,0,1-5.8,0L104.18,45.19c-1.6-.93-1.61-2.45,0-3.38Z"/><path class="cls-7" d="M147.4,16.38a6.28,6.28,0,0,1,5.74,0l44.17,25.5c1.58.91,1.58,2.41,0,3.32L153.77,70.31a6.42,6.42,0,0,1-5.76,0L104.47,45.17c-1.59-.91-1.59-2.42,0-3.35Z"/><path class="cls-8" d="M147.42,16.55a6.23,6.23,0,0,1,5.7,0L197,41.86c1.58.91,1.58,2.39,0,3.3l-43.26,25a6.35,6.35,0,0,1-5.73,0l-43.26-25c-1.57-.91-1.58-2.41,0-3.33Z"/><path class="cls-9" d="M147.44,16.72a6.23,6.23,0,0,1,5.67,0l43.61,25.18c1.56.9,1.56,2.38,0,3.28L153.73,70A6.33,6.33,0,0,1,148,70l-43-24.82c-1.57-.9-1.58-2.39,0-3.32Z"/><path class="cls-10" d="M147.46,16.89a6.2,6.2,0,0,1,5.64,0l43.32,25c1.56.89,1.56,2.36,0,3.26L153.71,69.8a6.25,6.25,0,0,1-5.65,0L105.35,45.14c-1.55-.9-1.56-2.38,0-3.3Z"/><path class="cls-11" d="M147.48,17.06a6.15,6.15,0,0,1,5.6,0l43,24.86c1.54.89,1.54,2.35,0,3.24l-42.44,24.5a6.23,6.23,0,0,1-5.61,0l-42.44-24.5c-1.54-.89-1.55-2.37,0-3.28Z"/><path class="cls-12" d="M147.51,17.23a6.12,6.12,0,0,1,5.56,0l42.77,24.69c1.53.89,1.53,2.34,0,3.23L153.68,69.46a6.23,6.23,0,0,1-5.58,0L105.94,45.12c-1.54-.89-1.54-2.35,0-3.26Z"/><path class="cls-13" d="M147.53,17.4a6.07,6.07,0,0,1,5.52,0L195.54,41.9c1.53.88,1.53,2.32,0,3.2L153.66,69.29a6.14,6.14,0,0,1-5.54,0L106.23,45.1c-1.52-.88-1.53-2.33,0-3.23Z"/><path class="cls-14" d="M147.55,17.57a6,6,0,0,1,5.49,0l42.21,24.37c1.51.88,1.51,2.31,0,3.18l-41.61,24a6.14,6.14,0,0,1-5.51,0l-41.6-24c-1.52-.87-1.53-2.32,0-3.21Z"/><path class="cls-15" d="M147.57,17.74a6,6,0,0,1,5.46,0L195,41.92c1.51.87,1.51,2.29,0,3.16L153.62,68.94a6.06,6.06,0,0,1-5.47,0L106.82,45.08c-1.51-.87-1.51-2.3,0-3.19Z"/><path class="cls-16" d="M147.59,17.92a5.92,5.92,0,0,1,5.42,0l41.65,24c1.5.86,1.5,2.28,0,3.14L153.6,68.77a6,6,0,0,1-5.43,0l-41.06-23.7c-1.49-.86-1.5-2.29,0-3.17Z"/><path class="cls-17" d="M147.62,18.09a5.87,5.87,0,0,1,5.38,0l41.37,23.88c1.48.86,1.48,2.26,0,3.12L153.59,68.6a6,6,0,0,1-5.4,0L107.41,45.06c-1.49-.86-1.5-2.28,0-3.15Z"/><path class="cls-18" d="M147.64,18.26a5.85,5.85,0,0,1,5.34,0L194.07,42c1.48.85,1.48,2.24,0,3.1l-40.5,23.38a6,6,0,0,1-5.36,0L107.7,45.05c-1.47-.86-1.48-2.26,0-3.13Z"/><path class="cls-19" d="M147.66,18.43a5.82,5.82,0,0,1,5.31,0L193.78,42c1.46.85,1.46,2.23,0,3.07L153.55,68.26a5.89,5.89,0,0,1-5.33,0L108,45c-1.46-.84-1.47-2.24,0-3.1Z"/><path class="cls-20" d="M147.68,18.6a5.76,5.76,0,0,1,5.27,0L193.49,42c1.45.84,1.45,2.21,0,3.05l-40,23.07a5.87,5.87,0,0,1-5.29,0L108.29,45c-1.46-.84-1.46-2.22,0-3.08Z"/><path class="cls-21" d="M147.71,18.77a5.74,5.74,0,0,1,5.23,0L193.19,42c1.45.83,1.45,2.2,0,3L153.51,67.92a5.85,5.85,0,0,1-5.25,0L108.58,45c-1.44-.83-1.45-2.21,0-3.06Z"/><path class="cls-22" d="M147.73,18.94a5.71,5.71,0,0,1,5.2,0L192.9,42c1.43.83,1.43,2.18,0,3L153.49,67.75a5.76,5.76,0,0,1-5.21,0L108.88,45c-1.44-.83-1.45-2.2,0-3Z"/><path class="cls-23" d="M147.75,19.11a5.66,5.66,0,0,1,5.16,0L192.6,42c1.43.82,1.43,2.17,0,3L153.48,67.58a5.76,5.76,0,0,1-5.18,0L109.17,45c-1.43-.82-1.43-2.18,0-3Z"/><path class="cls-24" d="M147.77,19.28a5.66,5.66,0,0,1,5.13,0L192.31,42c1.41.81,1.41,2.15,0,3L153.46,67.41a5.74,5.74,0,0,1-5.14,0L109.46,45c-1.41-.82-1.42-2.17,0-3Z"/><path class="cls-25" d="M147.79,19.45a5.57,5.57,0,0,1,5.09,0L192,42c1.4.81,1.4,2.13,0,2.94L153.44,67.24a5.68,5.68,0,0,1-5.11,0L109.76,45c-1.41-.81-1.41-2.15,0-3Z"/><path class="cls-26" d="M147.82,19.62a5.55,5.55,0,0,1,5.05,0L191.72,42c1.4.8,1.4,2.12,0,2.92l-38.3,22.12a5.66,5.66,0,0,1-5.07,0L110.05,45c-1.39-.8-1.4-2.13,0-3Z"/><path class="cls-27" d="M147.84,19.79a5.53,5.53,0,0,1,5,0L191.43,42c1.38.79,1.38,2.1,0,2.9l-38,22a5.63,5.63,0,0,1-5,0l-38-22c-1.38-.8-1.39-2.12,0-2.93Z"/><path class="cls-28" d="M147.86,20a5.47,5.47,0,0,1,5,0L191.14,42c1.37.8,1.37,2.1,0,2.89L153.38,66.72a5.49,5.49,0,0,1-5,0L110.64,44.93c-1.38-.79-1.38-2.1,0-2.91Z"/><path class="cls-29" d="M147.88,20.13a5.43,5.43,0,0,1,5,0l38,21.94c1.37.79,1.37,2.08,0,2.87L153.37,66.55a5.49,5.49,0,0,1-5,0L110.93,44.92c-1.36-.79-1.37-2.09,0-2.89Z"/><path class="cls-30" d="M147.9,20.3a5.38,5.38,0,0,1,4.91,0l37.74,21.78c1.35.79,1.35,2.06,0,2.85l-37.2,21.47a5.46,5.46,0,0,1-4.92,0l-37.2-21.47c-1.36-.79-1.37-2.08,0-2.87Z"/><path class="cls-31" d="M147.93,20.47a5.33,5.33,0,0,1,4.87,0l37.45,21.62c1.35.78,1.35,2,0,2.82L153.33,66.21a5.4,5.4,0,0,1-4.89,0L111.52,44.89a1.51,1.51,0,0,1,0-2.84Z"/><path class="cls-32" d="M148,20.64a5.31,5.31,0,0,1,4.83,0L190,42.08c1.33.77,1.33,2,0,2.8L153.31,66a5.38,5.38,0,0,1-4.85,0L111.81,44.88c-1.33-.77-1.34-2,0-2.82Z"/><path class="cls-33" d="M148,20.82a5.25,5.25,0,0,1,4.8,0l36.9,21.3c1.32.77,1.32,2,0,2.78l-36.38,21a5.3,5.3,0,0,1-4.81,0l-36.37-21a1.48,1.48,0,0,1,0-2.8Z"/><path class="cls-34" d="M148,21a5.19,5.19,0,0,1,4.76,0L189.37,42.1c1.32.76,1.32,2,0,2.76L153.27,65.7a5.27,5.27,0,0,1-4.77,0L112.4,44.86a1.48,1.48,0,0,1,0-2.78Z"/><path class="cls-35" d="M148,21.16a5.19,5.19,0,0,1,4.73,0l36.34,21a1.45,1.45,0,0,1,0,2.74L153.26,65.53a5.27,5.27,0,0,1-4.74,0L112.69,44.85a1.47,1.47,0,0,1,0-2.77Z"/><path class="cls-36" d="M148,21.33a5.14,5.14,0,0,1,4.69,0l36.06,20.82a1.44,1.44,0,0,1,0,2.72L153.24,65.36a5.21,5.21,0,0,1-4.71,0L113,44.84a1.46,1.46,0,0,1,0-2.75Z"/><path class="cls-37" d="M148.06,21.5a5.09,5.09,0,0,1,4.65,0l35.78,20.66a1.42,1.42,0,0,1,0,2.69L153.22,65.19a5.19,5.19,0,0,1-4.67,0L113.28,44.82a1.44,1.44,0,0,1,0-2.72Z"/><path class="cls-38" d="M148.08,21.67a5.08,5.08,0,0,1,4.62,0l35.5,20.5a1.41,1.41,0,0,1,0,2.67L153.2,65a5.17,5.17,0,0,1-4.63,0l-35-20.21a1.43,1.43,0,0,1,0-2.7Z"/><path class="cls-39" d="M148.1,21.84a5,5,0,0,1,4.58,0L187.9,42.15c1.27.73,1.27,1.92,0,2.65l-34.72,20a5.08,5.08,0,0,1-4.59,0l-34.72-20a1.42,1.42,0,0,1,0-2.68Z"/><path class="cls-40" d="M148.12,22a5,5,0,0,1,4.55,0l34.94,20.18a1.39,1.39,0,0,1,0,2.63L153.17,64.68a5.08,5.08,0,0,1-4.56,0L114.16,44.79a1.41,1.41,0,0,1,0-2.66Z"/><path class="cls-41" d="M148.15,22.18a4.93,4.93,0,0,1,4.5,0l34.67,20a1.38,1.38,0,0,1,0,2.61L153.15,64.51a5.06,5.06,0,0,1-4.52,0L114.46,44.78a1.4,1.4,0,0,1,0-2.64Z"/><path class="cls-42" d="M148.17,22.35a4.87,4.87,0,0,1,4.47,0L187,42.18c1.24.71,1.24,1.87,0,2.59L153.13,64.33a4.94,4.94,0,0,1-4.49,0L114.75,44.77a1.39,1.39,0,0,1,0-2.62Z"/><path class="cls-43" d="M148.19,22.52a4.86,4.86,0,0,1,4.44,0l34.1,19.69a1.35,1.35,0,0,1,0,2.56L153.11,64.16a4.91,4.91,0,0,1-4.45,0L115,44.75a1.37,1.37,0,0,1,0-2.59Z"/><path class="cls-44" d="M148.12,16.54a5.89,5.89,0,0,1,5.36,0l41.22,23.8c1.48.85,1.48,2.25,0,3.1L154.07,66.87a6,6,0,0,1-5.38,0L108.06,43.41c-1.48-.85-1.49-2.26,0-3.13Z"/><path class="cls-43" d="M194.7,40.31l-41.22-23.8a5.89,5.89,0,0,0-5.36,0l-4.69,2.78,46.5,26.85,4.77-2.76C196.18,42.56,196.18,41.16,194.7,40.31Z"/><path class="cls-45" d="M153.44,20.91a.66.66,0,0,0,0-1.25,2.44,2.44,0,0,0-2.17,0,.66.66,0,0,0,0,1.25A2.44,2.44,0,0,0,153.44,20.91Z"/><path class="cls-45" d="M156.9,23.11a.66.66,0,0,0,0-1.25,2.44,2.44,0,0,0-2.17,0,.66.66,0,0,0,0,1.25A2.44,2.44,0,0,0,156.9,23.11Z"/><path class="cls-45" d="M160.36,25.19a.66.66,0,0,0,0-1.24,2.44,2.44,0,0,0-2.17,0,.66.66,0,0,0,0,1.24A2.37,2.37,0,0,0,160.36,25.19Z"/><path class="cls-46" d="M194.7,41.86,154.07,65.32a6,6,0,0,1-5.38,0L108.06,41.86a2.5,2.5,0,0,1-.87-.79c-.5.79-.22,1.72.87,2.34l40.63,23.46a6,6,0,0,0,5.38,0L194.7,43.41c1.09-.62,1.37-1.54.86-2.33A2.53,2.53,0,0,1,194.7,41.86Z"/><path class="cls-43" d="M135.11,32.14l1.08-1.63,9.51,2.39-1.16,1.75L138.28,33l3.89,5.18L141,40Z"/><path class="cls-43" d="M154.83,37l2.25,1.5L143.18,45,141,43.52Z"/><path class="cls-43" d="M163.66,48.75l-1.08,1.63L153.07,48l1.17-1.76,6.29,1.57-3.92-5.14,1.16-1.75Z"/><path class="cls-47" d="M3.48,57.17a7.75,7.75,0,0,0-3.48,6L.1,97.14A2.72,2.72,0,0,0,2,99.7l1.89.64c.58.14-1.11-1.42-.36-1.85L68.08,61.2a7.63,7.63,0,0,0,3.43-6l-.43-33c0-.75,1.38-.88,1.38-.88l-1.61-.62a5.3,5.3,0,0,0-4.56.35Z"/><path class="cls-44" d="M6.3,58.78a7.72,7.72,0,0,0-3.48,6V98.09c0,2.21,1.56,3.11,3.48,2L70.89,62.81a7.64,7.64,0,0,0,3.44-6l-.43-33c0-2.22-1.62-3.12-3.54-2Z"/><polygon class="cls-48" points="38.57 50.25 38.58 53.33 66.96 36.74 66.96 33.59 38.57 50.25"/><polygon class="cls-48" points="38.57 57.69 38.58 60.76 66.96 44.18 66.96 41.03 38.57 57.69"/><polygon class="cls-48" points="38.57 65.12 38.58 68.2 66.96 51.61 66.96 48.46 38.57 65.12"/><polygon class="cls-48" points="38.57 72.78 38.58 75.85 50.81 68.77 50.81 65.62 38.57 72.78"/><path class="cls-49" d="M18.47,71.33,11.7,76.57l0,4L18,77.25l1.16.78L9.42,86.21l-1.16-.78L8.2,68.77l9.43-4.93,1.15.78L11.68,70v3.47l5.62-2.94Z"/><path class="cls-49" d="M20.36,79.1,20.3,62.44l4-2.11,1.16.78A91.23,91.23,0,0,1,30,69.19l.07,0a61.65,61.65,0,0,1-.32-6.79l0-4.87,3.17-1.66,1.15.78L30.53,75.17l-1.15-.78-3.29-4.72a34.45,34.45,0,0,1-2.67-4.5l-.07.06c.1,2.15.16,4.48.17,7.2l-2,7.46Z"/><path class="cls-50" d="M18.48,74.42l-5.62,2.94v4L19.15,78v3.09L9.42,86.21,9.36,69.55l9.42-4.93v3.09l-6,3.12,0,3.46,5.62-2.94Z"/><path class="cls-50" d="M21.52,79.89l-.07-16.67,4-2.11,3.19,4.45A27,27,0,0,1,31.19,70l.07,0a64.55,64.55,0,0,1-.32-6.8l0-4.87,3.17-1.66.06,16.67-3.62,1.89-3.28-4.72A34.49,34.49,0,0,1,24.57,66l-.06.06c.09,2.16.15,4.48.16,7.2l0,5Z"/><path class="cls-51" d="M159.59,171.13,135.94,185.2l-31.89-17.88L78.71,181.49a2.61,2.61,0,0,1-2.63-.05L48.27,164.37a2.6,2.6,0,0,1,0-4.45L123.81,117l32.5,22.1-25,12.69,28.25,16.4A1.7,1.7,0,0,1,159.59,171.13Z"/><path class="cls-43" d="M114.74,148.28v4.27a3,3,0,0,1-1.48,2.57l-.58.42a8.33,8.33,0,0,1-8.15.12L97,151.57a1.29,1.29,0,0,1,0-2.25h0c1.44-.83,3.14-2.07,4.69-1.87a15.8,15.8,0,0,0,2.17.22l3.5.48Z"/><path class="cls-44" d="M97,150.59l7.55,4.09a8.33,8.33,0,0,0,8.15-.12l.58-.42a3,3,0,0,0,1.47-2.57v1a3,3,0,0,1-1.47,2.57l-.58.42a8.33,8.33,0,0,1-8.15.12L97,151.57a1.29,1.29,0,0,1-.57-1.63A1.28,1.28,0,0,0,97,150.59Z"/><path class="cls-52" d="M111,153.59a4.42,4.42,0,0,0,4.41-4.15l1.35-22.11,12.12,7.25A4.42,4.42,0,1,0,133.4,127L120,119a7.93,7.93,0,0,0-12,6.3l-1.44,23.62a4.42,4.42,0,0,0,4.14,4.68Z"/><path class="cls-43" d="M101.2,158.49v4.28a3,3,0,0,1-1.48,2.57l-.58.42a8.31,8.31,0,0,1-8.14.12l-7.55-4.09a1.29,1.29,0,0,1,0-2.25h0c1.43-.83,3.14-2.07,4.69-1.87a15.8,15.8,0,0,0,2.17.22l3.5.48Z"/><path class="cls-44" d="M83.45,160.81,91,164.9a8.31,8.31,0,0,0,8.14-.12l.58-.42a3,3,0,0,0,1.48-2.57v1a3,3,0,0,1-1.48,2.57l-.58.42a8.31,8.31,0,0,1-8.14.12l-7.55-4.09a1.28,1.28,0,0,1-.57-1.63A1.24,1.24,0,0,0,83.45,160.81Z"/><path class="cls-53" d="M120.55,138.26A5,5,0,0,1,120,138l-8-4.8.6-7.72,8.32,4.23Z"/><path class="cls-52" d="M97.46,163.81a4.41,4.41,0,0,0,4.4-4.15l1.35-22.11,12.13,7.25a4.42,4.42,0,1,0,4.53-7.59l-13.4-8a7.94,7.94,0,0,0-12,6.3L93,159.12a4.43,4.43,0,0,0,4.14,4.68Z"/><path class="cls-52" d="M85.2,185h.18a1.51,1.51,0,0,0,1.32-1.67l-5.52-51.53c-.1-.83-1.34-1.42-2.17-1.32s-1.92.84-1.83,1.67l6.53,51.53A1.51,1.51,0,0,0,85.2,185Z"/><path class="cls-52" d="M155.86,144.53H156a1.49,1.49,0,0,0,1.32-1.67l-5.52-51.53c-.09-.82-1.35-1.42-2.17-1.32s-1.92.85-1.82,1.67l6.52,51.53A1.5,1.5,0,0,0,155.86,144.53Z"/><path class="cls-52" d="M36,156.73a1.5,1.5,0,0,0,1.5-1.33l5.07-39.12c.1-.82-1-1.57-1.82-1.67s-2.08.5-2.18,1.32L34.5,155.05a1.5,1.5,0,0,0,1.32,1.67Z"/><path class="cls-53" d="M79,130.46c.83-.1,2.07.49,2.17,1.32l1.48,13.83-3.51,2-2-15.52C77.09,131.3,78.18,130.55,79,130.46Z"/><path class="cls-53" d="M153.33,105.31l-3.51,2-2-15.59a1.42,1.42,0,0,1,.78-1.26l3.3,1.72Z"/><path class="cls-53" d="M38.56,115.93c.1-.82,1.35-1.42,2.18-1.32s1.92.85,1.82,1.67l-2,15.1-3.44-2Z"/><path class="cls-54" d="M117,72.06a4.8,4.8,0,0,0-4.35,0L29.48,117.92v2.48a2.25,2.25,0,0,0,1.13,1.95l40,22.94a4.81,4.81,0,0,0,4.34,0L157,97.88A2.15,2.15,0,0,0,158.11,96l0-2.42Z"/><path class="cls-44" d="M117,69.3a4.8,4.8,0,0,0-4.35,0L30.37,116.76a1.33,1.33,0,0,0,0,2.51l40.28,23.26a4.81,4.81,0,0,0,4.34,0l82.24-47.46a1.33,1.33,0,0,0,0-2.51Z"/><path class="cls-2" d="M108.35,93.16l17,9.7a.55.55,0,0,1,0,1L98.9,119.06a2.2,2.2,0,0,1-2.18,0l-17-9.7a.55.55,0,0,1,0-1l26.41-15.24A2.18,2.18,0,0,1,108.35,93.16Z"/><path class="cls-55" d="M108.33,93.18l16.91,9.66a.56.56,0,0,1,0,1L98.92,119a2.18,2.18,0,0,1-2.18,0l-16.91-9.66a.55.55,0,0,1,0-1l26.33-15.2A2.16,2.16,0,0,1,108.33,93.18Z"/><path class="cls-56" d="M108.32,93.19l16.86,9.64a.55.55,0,0,1,0,1L98.93,118.94a2.21,2.21,0,0,1-2.17,0L79.9,109.3a.55.55,0,0,1,0-1L106.15,93.2A2.18,2.18,0,0,1,108.32,93.19Z"/><path class="cls-57" d="M108.3,93.21l16.81,9.61a.54.54,0,0,1,0,.94L98.94,118.87a2.16,2.16,0,0,1-2.16,0L80,109.27a.55.55,0,0,1,0-1l26.17-15.11A2.19,2.19,0,0,1,108.3,93.21Z"/><path class="cls-58" d="M108.28,93.22,125,102.8a.55.55,0,0,1,0,1L99,118.81a2.16,2.16,0,0,1-2.16,0L80,109.23a.54.54,0,0,1,0-.94l26.09-15.06A2.15,2.15,0,0,1,108.28,93.22Z"/><path class="cls-59" d="M108.26,93.24,125,102.79a.54.54,0,0,1,0,.94l-26,15a2.17,2.17,0,0,1-2.15,0l-16.7-9.55a.54.54,0,0,1,0-.94l26-15A2.17,2.17,0,0,1,108.26,93.24Z"/><path class="cls-60" d="M108.24,93.26l16.66,9.52a.54.54,0,0,1,0,.93L99,118.68a2.13,2.13,0,0,1-2.14,0l-16.65-9.52a.54.54,0,0,1,0-.94l25.93-15A2.15,2.15,0,0,1,108.24,93.26Z"/><path class="cls-61" d="M108.23,93.27l16.6,9.49a.54.54,0,0,1,0,.94L99,118.62a2.13,2.13,0,0,1-2.13,0l-16.6-9.49a.53.53,0,0,1,0-.93l25.85-14.92A2.13,2.13,0,0,1,108.23,93.27Z"/><path class="cls-62" d="M108.21,93.29l16.55,9.46a.54.54,0,0,1,0,.93L99,118.56a2.11,2.11,0,0,1-2.12,0L80.31,109.1a.54.54,0,0,1,0-.93l25.77-14.88A2.13,2.13,0,0,1,108.21,93.29Z"/><path class="cls-63" d="M108.19,93.3l16.5,9.43a.54.54,0,0,1,0,.93L99,118.49a2.14,2.14,0,0,1-2.12,0l-16.5-9.43a.54.54,0,0,1,0-.93l25.69-14.83A2.14,2.14,0,0,1,108.19,93.3Z"/><path class="cls-64" d="M108.17,93.32l16.45,9.4a.54.54,0,0,1,0,.93L99,118.43a2.12,2.12,0,0,1-2.11,0L80.45,109a.53.53,0,0,1,0-.92l25.61-14.79A2.12,2.12,0,0,1,108.17,93.32Z"/><path class="cls-65" d="M108.16,93.33l16.39,9.38a.53.53,0,0,1,0,.92L99,118.37a2.12,2.12,0,0,1-2.11,0L80.52,109a.53.53,0,0,1,0-.92l25.53-14.74A2.12,2.12,0,0,1,108.16,93.33Z"/><path class="cls-66" d="M108.14,93.35l16.34,9.34a.53.53,0,0,1,0,.92L99,118.3a2.1,2.1,0,0,1-2.1,0L80.59,109a.53.53,0,0,1,0-.92L106,93.35A2.13,2.13,0,0,1,108.14,93.35Z"/><path class="cls-67" d="M108.12,93.37l16.29,9.31a.53.53,0,0,1,0,.92L99.05,118.24a2.1,2.1,0,0,1-2.1,0l-16.29-9.32a.53.53,0,0,1,0-.91L106,93.37A2.08,2.08,0,0,1,108.12,93.37Z"/><path class="cls-68" d="M108.1,93.38l16.24,9.29a.52.52,0,0,1,0,.91l-25.29,14.6a2.11,2.11,0,0,1-2.09,0L80.73,108.9a.53.53,0,0,1,0-.92L106,93.39A2.06,2.06,0,0,1,108.1,93.38Z"/><path class="cls-69" d="M108.09,93.4l16.18,9.25a.52.52,0,0,1,0,.91L99.07,118.12a2.09,2.09,0,0,1-2.08,0L80.8,108.87a.53.53,0,0,1,0-.92L106,93.4A2.11,2.11,0,0,1,108.09,93.4Z"/><path class="cls-70" d="M108.07,93.41l16.14,9.23a.53.53,0,0,1,0,.91l-25.13,14.5a2.09,2.09,0,0,1-2.07,0l-16.14-9.23a.53.53,0,0,1,0-.91L106,93.42A2.11,2.11,0,0,1,108.07,93.41Z"/><path class="cls-71" d="M108.05,93.43l16.09,9.19a.53.53,0,0,1,0,.91L99.09,118A2.07,2.07,0,0,1,97,118L80.94,108.8a.53.53,0,0,1,0-.91l25-14.46A2.07,2.07,0,0,1,108.05,93.43Z"/><path class="cls-72" d="M108,93.44l16,9.17a.52.52,0,0,1,0,.9l-25,14.42a2.07,2.07,0,0,1-2.06,0l-16-9.17a.52.52,0,0,1,0-.9l25-14.41A2.07,2.07,0,0,1,108,93.44Z"/><path class="cls-73" d="M108,93.46l16,9.14a.52.52,0,0,1,0,.9L99.11,117.86a2.06,2.06,0,0,1-2,0l-16-9.14a.52.52,0,0,1,0-.9L106,93.46A2.08,2.08,0,0,1,108,93.46Z"/><path class="cls-74" d="M108,93.48l15.93,9.1a.52.52,0,0,1,0,.9L99.13,117.8a2,2,0,0,1-2,0l-15.93-9.1a.52.52,0,0,1,0-.9L106,93.48A2,2,0,0,1,108,93.48Z"/><path class="cls-75" d="M108,93.49l15.88,9.08a.51.51,0,0,1,0,.89L99.14,117.74a2.06,2.06,0,0,1-2,0l-15.88-9.08a.51.51,0,0,1,0-.89L105.94,93.5A2,2,0,0,1,108,93.49Z"/><path class="cls-76" d="M108,93.51l15.83,9a.52.52,0,0,1,0,.9L99.15,117.67a2,2,0,0,1-2,0l-15.83-9.05a.52.52,0,0,1,0-.89l24.65-14.23A2,2,0,0,1,108,93.51Z"/><path class="cls-77" d="M107.94,93.52l15.78,9a.52.52,0,0,1,0,.89L99.16,117.61a2.07,2.07,0,0,1-2,0l-15.78-9a.52.52,0,0,1,0-.89l24.57-14.18A2,2,0,0,1,107.94,93.52Z"/><path class="cls-78" d="M107.93,93.54l15.72,9a.51.51,0,0,1,0,.88L99.17,117.55a2,2,0,0,1-2,0l-15.73-9a.51.51,0,0,1,0-.88l24.49-14.14A2,2,0,0,1,107.93,93.54Z"/><path class="cls-79" d="M107.91,93.55l15.67,9a.52.52,0,0,1,0,.89l-24.4,14.08a2,2,0,0,1-2,0l-15.68-9a.51.51,0,0,1,0-.88l24.4-14.09A2,2,0,0,1,107.91,93.55Z"/><path class="cls-80" d="M107.89,93.57l15.62,8.93a.51.51,0,0,1,0,.88l-24.32,14a2,2,0,0,1-2,0L81.56,108.5a.51.51,0,0,1,0-.88l24.32-14.05A2,2,0,0,1,107.89,93.57Z"/><path class="cls-81" d="M107.87,93.59l15.57,8.9a.5.5,0,0,1,0,.87l-24.25,14a2,2,0,0,1-2,0l-15.57-8.9a.5.5,0,0,1,0-.87l24.24-14A2,2,0,0,1,107.87,93.59Z"/><path class="cls-82" d="M107.86,93.6l15.51,8.87a.51.51,0,0,1,0,.88l-24.17,14a2,2,0,0,1-2,0L81.7,108.43a.5.5,0,0,1,0-.87l24.16-14A2,2,0,0,1,107.86,93.6Z"/><path class="cls-83" d="M107.84,93.62l15.46,8.84a.5.5,0,0,1,0,.87l-24.09,13.9a2,2,0,0,1-2,0L81.77,108.4a.51.51,0,0,1,0-.88l24.08-13.9A2,2,0,0,1,107.84,93.62Z"/><path class="cls-84" d="M107.82,93.63l15.42,8.81a.51.51,0,0,1,0,.87l-24,13.86a2,2,0,0,1-2,0l-15.41-8.81a.5.5,0,0,1,0-.87l24-13.85A2,2,0,0,1,107.82,93.63Z"/><path class="cls-85" d="M107.8,93.65l15.37,8.78a.51.51,0,0,1,0,.87L99.25,117.11a2,2,0,0,1-2,0l-15.36-8.78a.5.5,0,0,1,0-.87l23.92-13.81A2,2,0,0,1,107.8,93.65Z"/><path class="cls-86" d="M107.78,93.66l15.32,8.76a.5.5,0,0,1,0,.86L99.26,117a2,2,0,0,1-2,0L82,108.29a.49.49,0,0,1,0-.86l23.84-13.76A2,2,0,0,1,107.78,93.66Z"/><path class="cls-87" d="M107.77,93.68,123,102.4a.5.5,0,0,1,0,.86L99.27,117a2,2,0,0,1-2,0l-15.26-8.72a.49.49,0,0,1,0-.86l23.76-13.72A2,2,0,0,1,107.77,93.68Z"/><path class="cls-88" d="M107.75,93.7,123,102.39a.5.5,0,0,1,0,.86L99.28,116.92a1.94,1.94,0,0,1-2,0l-15.21-8.69a.5.5,0,0,1,0-.86L105.79,93.7A2,2,0,0,1,107.75,93.7Z"/><path class="cls-89" d="M107.73,93.71l15.16,8.67a.49.49,0,0,1,0,.85l-23.6,13.62a2,2,0,0,1-2,0l-15.15-8.67a.49.49,0,0,1,0-.85l23.6-13.62A2,2,0,0,1,107.73,93.71Z"/><path class="cls-90" d="M107.71,93.73l15.11,8.63a.49.49,0,0,1,0,.85L99.3,116.79a2,2,0,0,1-1.94,0l-15.11-8.64a.5.5,0,0,1,0-.85l23.52-13.58A1.92,1.92,0,0,1,107.71,93.73Z"/><path class="cls-91" d="M107.7,93.74l15,8.61a.49.49,0,0,1,0,.85L99.31,116.73a1.93,1.93,0,0,1-1.93,0l-15.06-8.6a.5.5,0,0,1,0-.85l23.44-13.53A2,2,0,0,1,107.7,93.74Z"/><path class="cls-92" d="M107.68,93.76l15,8.57a.49.49,0,0,1,0,.85L99.32,116.67a1.93,1.93,0,0,1-1.92,0l-15-8.58a.49.49,0,0,1,0-.84l23.36-13.49A2,2,0,0,1,107.68,93.76Z"/><path class="cls-93" d="M107.66,93.77l15,8.55a.48.48,0,0,1,0,.84L99.34,116.6a1.93,1.93,0,0,1-1.93,0l-15-8.55a.49.49,0,0,1,0-.84l23.28-13.44A1.93,1.93,0,0,1,107.66,93.77Z"/><path class="cls-94" d="M107.64,93.79l14.9,8.52a.48.48,0,0,1,0,.84L99.35,116.54a1.93,1.93,0,0,1-1.92,0L82.53,108a.49.49,0,0,1,0-.84l23.2-13.4A1.92,1.92,0,0,1,107.64,93.79Z"/><path class="cls-95" d="M107.63,93.81l14.84,8.48a.48.48,0,0,1,0,.84L99.36,116.48a1.92,1.92,0,0,1-1.91,0L82.6,108a.48.48,0,0,1,0-.83l23.12-13.35A1.92,1.92,0,0,1,107.63,93.81Z"/><path class="cls-96" d="M80.42,85.72,106,70.93a.52.52,0,0,1,.78.45V90.69a1.15,1.15,0,0,1-.57,1L80.63,106.46a.52.52,0,0,1-.78-.45V86.7A1.14,1.14,0,0,1,80.42,85.72Z"/><path class="cls-52" d="M80.75,85.94l25.62-14.79a.52.52,0,0,1,.78.45V90.91a1.14,1.14,0,0,1-.57,1L81,106.68a.51.51,0,0,1-.77-.45V86.92A1.14,1.14,0,0,1,80.75,85.94Z"/><polygon class="cls-97" points="81.7 87.16 105.81 73.16 105.81 90.83 81.7 104.83 81.7 87.16"/><path class="cls-98" d="M108.19,92.82l16.4,8.65s.1,1.28-.26,1.49L99.2,117.47a2.09,2.09,0,0,1-2.08,0L81,108.24c-.67-.41-.27-1.48-.27-1.48l25.4-13.94A2.09,2.09,0,0,1,108.19,92.82Z"/><path class="cls-44" d="M108.19,91.82l16.14,9.23a.52.52,0,0,1,0,.91L99.2,116.47a2.06,2.06,0,0,1-2.08,0L81,107.25a.53.53,0,0,1,0-.91l25.13-14.51A2.11,2.11,0,0,1,108.19,91.82Z"/><path class="cls-48" d="M109.62,103.77l4.25,2.44a.14.14,0,0,1,0,.24l-6.63,3.82a.54.54,0,0,1-.55,0l-4.25-2.43a.13.13,0,0,1,0-.24l6.62-3.82A.57.57,0,0,1,109.62,103.77Z"/><path class="cls-48" d="M106.41,93.23,105,94a.08.08,0,0,0,0,.14l.69.4a.19.19,0,0,0,.18,0l1.39-.8a.09.09,0,0,0,0-.15l-.69-.4A.19.19,0,0,0,106.41,93.23Z"/><path class="cls-48" d="M104.37,94.45l-1.39.8a.08.08,0,0,0,0,.15l.69.39a.19.19,0,0,0,.18,0l1.39-.8a.08.08,0,0,0,0-.14l-.69-.4A.19.19,0,0,0,104.37,94.45Z"/><path class="cls-48" d="M102.32,95.6l-1.39.8a.08.08,0,0,0,0,.14l.69.4a.19.19,0,0,0,.18,0l1.39-.8a.08.08,0,0,0,0-.14l-.69-.4A.19.19,0,0,0,102.32,95.6Z"/><path class="cls-48" d="M100.22,96.79l-1.39.8a.08.08,0,0,0,0,.14l.69.4a.19.19,0,0,0,.18,0l1.39-.8a.09.09,0,0,0,0-.15l-.69-.4A.17.17,0,0,0,100.22,96.79Z"/><path class="cls-48" d="M98.19,97.91l-1.39.81a.08.08,0,0,0,0,.14l.69.4a.19.19,0,0,0,.18,0l1.39-.81a.08.08,0,0,0,0-.14l-.69-.4A.19.19,0,0,0,98.19,97.91Z"/><path class="cls-48" d="M96.22,99.13l-1.39.8a.08.08,0,0,0,0,.14l.69.4a.19.19,0,0,0,.18,0l1.39-.8a.08.08,0,0,0,0-.15l-.69-.39A.19.19,0,0,0,96.22,99.13Z"/><path class="cls-48" d="M94.16,100.26l-1.39.81a.08.08,0,0,0,0,.14l.69.4a.19.19,0,0,0,.18,0L95,100.8a.08.08,0,0,0,0-.14l-.69-.4A.19.19,0,0,0,94.16,100.26Z"/><path class="cls-48" d="M92.13,101.47l-1.39.81a.08.08,0,0,0,0,.14l.69.4a.19.19,0,0,0,.18,0L93,102a.08.08,0,0,0,0-.14l-.69-.4A.19.19,0,0,0,92.13,101.47Z"/><path class="cls-48" d="M90.14,102.65l-1.39.8a.08.08,0,0,0,0,.15l.69.39a.15.15,0,0,0,.18,0l1.39-.8a.08.08,0,0,0,0-.14l-.69-.4A.19.19,0,0,0,90.14,102.65Z"/><path class="cls-48" d="M88,103.86l-1.39.81a.08.08,0,0,0,0,.14l.69.4a.19.19,0,0,0,.18,0l1.39-.81a.08.08,0,0,0,0-.14l-.69-.4A.19.19,0,0,0,88,103.86Z"/><path class="cls-48" d="M86,105l-1.39.8a.08.08,0,0,0,0,.15l.69.39a.15.15,0,0,0,.18,0l1.39-.8a.08.08,0,0,0,0-.14l-.69-.4A.19.19,0,0,0,86,105Z"/><path class="cls-48" d="M109.24,94.75l-.95-.55a.37.37,0,0,0-.39,0l-.92.54a.19.19,0,0,0,0,.33l.92.56a.38.38,0,0,0,.4,0l.95-.54A.2.2,0,0,0,109.24,94.75Z"/><path class="cls-48" d="M107.13,96l-.95-.55a.39.39,0,0,0-.39,0l-.92.53a.2.2,0,0,0,0,.34l.92.56a.38.38,0,0,0,.4,0l.95-.54A.2.2,0,0,0,107.13,96Z"/><path class="cls-48" d="M105.08,97.11l-.94-.55a.41.41,0,0,0-.4,0l-.92.53a.2.2,0,0,0,0,.34l.92.56a.38.38,0,0,0,.4,0l1-.54A.2.2,0,0,0,105.08,97.11Z"/><path class="cls-48" d="M102.9,98.3l-.94-.55a.36.36,0,0,0-.4,0l-.92.53a.19.19,0,0,0,0,.33l.91.57a.41.41,0,0,0,.4,0l1-.54A.2.2,0,0,0,102.9,98.3Z"/><path class="cls-48" d="M101,99.43l-.94-.56a.41.41,0,0,0-.4,0l-.92.54a.19.19,0,0,0,0,.33l.91.56a.38.38,0,0,0,.4,0l1-.54A.2.2,0,0,0,101,99.43Z"/><path class="cls-48" d="M99,100.63l-.94-.55a.41.41,0,0,0-.4,0l-.92.53a.2.2,0,0,0,0,.34l.92.56a.38.38,0,0,0,.4,0l1-.55A.2.2,0,0,0,99,100.63Z"/><path class="cls-48" d="M96.94,101.78l-.94-.55a.38.38,0,0,0-.4,0l-.92.54a.19.19,0,0,0,0,.33l.92.56a.38.38,0,0,0,.4,0l.94-.54A.2.2,0,0,0,96.94,101.78Z"/><path class="cls-48" d="M94.9,102.93l-.94-.55a.41.41,0,0,0-.4,0l-.92.53a.2.2,0,0,0,0,.34l.92.56a.38.38,0,0,0,.4,0l.94-.55A.2.2,0,0,0,94.9,102.93Z"/><path class="cls-48" d="M92.9,104.16l-.94-.55a.41.41,0,0,0-.4,0l-.92.53a.2.2,0,0,0,0,.34l.92.56a.38.38,0,0,0,.4,0l1-.55A.2.2,0,0,0,92.9,104.16Z"/><path class="cls-48" d="M90.71,105.45l-.94-.55a.41.41,0,0,0-.4,0l-.92.53a.2.2,0,0,0,0,.34l.91.56a.4.4,0,0,0,.41,0l.94-.54A.2.2,0,0,0,90.71,105.45Z"/><path class="cls-48" d="M88.74,106.52l-.95-.55a.39.39,0,0,0-.39,0l-.92.53a.2.2,0,0,0,0,.34l.92.56a.38.38,0,0,0,.4,0l.94-.55A.19.19,0,0,0,88.74,106.52Z"/><path class="cls-48" d="M111.34,95.89l-1-.55a.39.39,0,0,0-.39,0l-.92.53a.19.19,0,0,0,0,.33l.92.57a.41.41,0,0,0,.4,0l1-.54A.2.2,0,0,0,111.34,95.89Z"/><path class="cls-48" d="M109.23,97.1l-1-.55a.39.39,0,0,0-.39,0l-.92.53a.2.2,0,0,0,0,.34l.92.56a.38.38,0,0,0,.4,0l1-.55A.2.2,0,0,0,109.23,97.1Z"/><path class="cls-48" d="M107.18,98.25l-.94-.55a.41.41,0,0,0-.4,0l-.92.53a.2.2,0,0,0,0,.34l.92.56a.38.38,0,0,0,.4,0l1-.55A.2.2,0,0,0,107.18,98.25Z"/><path class="cls-48" d="M105,99.44l-.94-.55a.41.41,0,0,0-.4,0l-.92.53a.2.2,0,0,0,0,.34l.91.56a.38.38,0,0,0,.4,0l1-.54A.2.2,0,0,0,105,99.44Z"/><path class="cls-48" d="M103.08,100.57l-.94-.55a.36.36,0,0,0-.4,0l-.92.53a.19.19,0,0,0,0,.33l.91.57a.41.41,0,0,0,.4,0l1-.54A.2.2,0,0,0,103.08,100.57Z"/><path class="cls-48" d="M101.13,101.78l-.94-.56a.41.41,0,0,0-.4,0l-.92.53a.2.2,0,0,0,0,.34l.92.56a.38.38,0,0,0,.4,0l.95-.54A.2.2,0,0,0,101.13,101.78Z"/><path class="cls-48" d="M99,102.92l-.94-.55a.38.38,0,0,0-.4,0l-.92.53a.19.19,0,0,0,0,.33l.92.57a.41.41,0,0,0,.4,0l.94-.54A.2.2,0,0,0,99,102.92Z"/><path class="cls-48" d="M97,104.08l-.94-.56a.41.41,0,0,0-.4,0l-.92.53a.2.2,0,0,0,0,.34l.91.56a.4.4,0,0,0,.41,0l.94-.55A.19.19,0,0,0,97,104.08Z"/><path class="cls-48" d="M95,105.31l-1-.56a.39.39,0,0,0-.39,0l-.92.53a.2.2,0,0,0,0,.34l.92.56a.38.38,0,0,0,.4,0l1-.55A.19.19,0,0,0,95,105.31Z"/><path class="cls-48" d="M92.81,106.59l-.94-.55a.41.41,0,0,0-.4,0l-.92.53a.2.2,0,0,0,0,.34l.91.56a.4.4,0,0,0,.41,0l.94-.55A.2.2,0,0,0,92.81,106.59Z"/><path class="cls-48" d="M90.84,107.66l-1-.55a.39.39,0,0,0-.39,0l-.92.53a.2.2,0,0,0,0,.34l.92.56a.38.38,0,0,0,.4,0l.94-.55A.2.2,0,0,0,90.84,107.66Z"/><path class="cls-48" d="M113.44,97l-1-.55a.39.39,0,0,0-.39,0l-.92.53a.2.2,0,0,0,0,.34l.92.56a.38.38,0,0,0,.4,0l1-.54A.2.2,0,0,0,113.44,97Z"/><path class="cls-48" d="M111.33,98.25l-1-.56a.39.39,0,0,0-.39,0l-.92.53a.2.2,0,0,0,0,.34l.92.56a.38.38,0,0,0,.4,0l1-.55A.19.19,0,0,0,111.33,98.25Z"/><path class="cls-48" d="M109.28,99.39l-.94-.55a.41.41,0,0,0-.4,0l-.92.53a.2.2,0,0,0,0,.34l.92.56a.38.38,0,0,0,.4,0l1-.55A.2.2,0,0,0,109.28,99.39Z"/><path class="cls-48" d="M107.1,100.58l-.94-.55a.41.41,0,0,0-.4,0l-.92.53a.2.2,0,0,0,0,.34l.92.56a.38.38,0,0,0,.4,0l.95-.54A.2.2,0,0,0,107.1,100.58Z"/><path class="cls-48" d="M105.18,101.71l-.94-.55a.41.41,0,0,0-.4,0l-.92.53a.2.2,0,0,0,0,.34l.92.56a.38.38,0,0,0,.4,0l1-.54A.2.2,0,0,0,105.18,101.71Z"/><path class="cls-48" d="M103.23,102.92l-.94-.55a.36.36,0,0,0-.4,0l-.92.53a.19.19,0,0,0,0,.33l.92.57a.41.41,0,0,0,.4,0l1-.54A.2.2,0,0,0,103.23,102.92Z"/><path class="cls-48" d="M101.14,104.06l-.94-.55a.41.41,0,0,0-.4,0l-.92.53a.2.2,0,0,0,0,.34l.91.56a.4.4,0,0,0,.41,0l.94-.54A.2.2,0,0,0,101.14,104.06Z"/><path class="cls-48" d="M99.1,105.22l-.94-.55a.38.38,0,0,0-.4,0l-.92.54a.19.19,0,0,0,0,.33l.91.56a.4.4,0,0,0,.41,0l.94-.54A.2.2,0,0,0,99.1,105.22Z"/><path class="cls-48" d="M97.1,106.45l-.95-.55a.37.37,0,0,0-.39,0l-.92.54a.19.19,0,0,0,0,.33l.92.56a.38.38,0,0,0,.4,0l.95-.54A.2.2,0,0,0,97.1,106.45Z"/><path class="cls-48" d="M94.91,107.73l-.94-.55a.41.41,0,0,0-.4,0l-.92.53a.2.2,0,0,0,0,.34l.91.56a.4.4,0,0,0,.41,0l.94-.55A.2.2,0,0,0,94.91,107.73Z"/><path class="cls-48" d="M92.94,108.81l-1-.56a.39.39,0,0,0-.39,0l-.92.53a.2.2,0,0,0,0,.34l.92.56a.38.38,0,0,0,.4,0l.94-.54A.2.2,0,0,0,92.94,108.81Z"/><path class="cls-48" d="M115.54,98.17l-1-.55a.39.39,0,0,0-.39,0l-.92.53a.2.2,0,0,0,0,.34l.92.56a.38.38,0,0,0,.4,0l1-.55A.2.2,0,0,0,115.54,98.17Z"/><path class="cls-48" d="M113.43,99.39l-1-.55a.37.37,0,0,0-.39,0l-.92.54a.19.19,0,0,0,0,.33l.92.56a.38.38,0,0,0,.4,0l1-.54A.2.2,0,0,0,113.43,99.39Z"/><path class="cls-48" d="M111.38,100.54l-.94-.56a.41.41,0,0,0-.4,0l-.92.53a.2.2,0,0,0,0,.34l.92.56a.38.38,0,0,0,.4,0l.95-.54A.2.2,0,0,0,111.38,100.54Z"/><path class="cls-48" d="M109.2,101.72l-.94-.55a.41.41,0,0,0-.4,0l-.92.53a.2.2,0,0,0,0,.34l.92.56a.38.38,0,0,0,.4,0l1-.55A.2.2,0,0,0,109.2,101.72Z"/><path class="cls-48" d="M107.1,103l-.94-.55a.38.38,0,0,0-.4,0L101,105.19a.2.2,0,0,0,0,.34l.92.56a.38.38,0,0,0,.4,0l4.82-2.78A.2.2,0,0,0,107.1,103Z"/><path class="cls-48" d="M101.2,106.36l-.94-.55a.41.41,0,0,0-.4,0l-.92.53a.19.19,0,0,0,0,.33l.91.57a.43.43,0,0,0,.41,0l.94-.54A.2.2,0,0,0,101.2,106.36Z"/><path class="cls-48" d="M99.2,107.59l-1-.55a.39.39,0,0,0-.39,0l-.92.53a.19.19,0,0,0,0,.33l.92.57a.41.41,0,0,0,.4,0l1-.54A.2.2,0,0,0,99.2,107.59Z"/><path class="cls-48" d="M97,108.88l-.94-.56a.41.41,0,0,0-.4,0l-.92.53a.2.2,0,0,0,0,.34l.91.56a.4.4,0,0,0,.41,0l.94-.54A.2.2,0,0,0,97,108.88Z"/><path class="cls-48" d="M95,110l-1-.55a.35.35,0,0,0-.39,0l-.92.53a.19.19,0,0,0,0,.33l.92.57a.41.41,0,0,0,.4,0l.94-.54A.2.2,0,0,0,95,110Z"/><rect class="cls-99" x="98.53" y="105.31" width="1.72" height="5.28" rx="0.39" transform="translate(198.79 215.9) rotate(180)"/><path class="cls-99" d="M126.24,111.1a3.32,3.32,0,0,0,1.67-6.19l-15.07-8.72a3.32,3.32,0,1,0-3.32,5.74l15.07,8.72A3.31,3.31,0,0,0,126.24,111.1Z"/><path class="cls-100" d="M140.41,126.33l2.06,15.25a5.38,5.38,0,0,1-2.7,4.67l-12.5,7a5,5,0,0,1-7.53-4.35V118c0-1.93-4-.6-2.34-1.56l17.54-10.13C138.29,104.36,140.41,122.47,140.41,126.33Z"/><path class="cls-101" d="M142.08,101.85l.81,7.57a103.13,103.13,0,0,1,.59,11.25l0,5.82a129.52,129.52,0,0,1-1,14.74c-.23,1.13-25.24,8-29.88,7.18l2.88-15.79c0-1.16.16-2.31.31-3.45L115,120c-.54-7.71-.5-17.35,7.08-22.07.32-.2.65-.39,1-.57l8.08-4.41a6.14,6.14,0,0,1,6.15,0h0C140.46,94.73,141.59,98.14,142.08,101.85Z"/><path class="cls-99" d="M129.64,98.75A2.74,2.74,0,0,0,132.38,96V85.25a2.74,2.74,0,0,0-5.48,0V96A2.74,2.74,0,0,0,129.64,98.75Z"/><path class="cls-99" d="M119.69,77.23h7.43a5,5,0,0,1,5,5V95.48a0,0,0,0,1,0,0H119.69a1.09,1.09,0,0,1-1.09-1.09V78.32A1.09,1.09,0,0,1,119.69,77.23Z" transform="translate(250.7 172.71) rotate(180)"/><path class="cls-43" d="M115.53,73.62a2.82,2.82,0,0,1,3.79-1.54c.72.37,1.23.57,1.94.13.94-.57,1.18-.94,2.46-.76.52.07,1.2.52,1.68.51,1,0,1.71-.84,2.91-.48a3.48,3.48,0,0,0,2,.21,3.72,3.72,0,0,1,1.93.17c1.23.5,1.15,1.42,1.86,2.25s1.44.24,2.15.89a2,2,0,0,1,.45,2.27c-.17.35-.44.73-.29,1.09s.37.38.57.58c.7.7.14,1.89-.4,2.73a1,1,0,0,0-.21.54,1.3,1.3,0,0,0,.37.66,2.51,2.51,0,0,1-.33,3.28c-.42.37-1,.66-1.1,1.21a2.22,2.22,0,0,0,.16.91,2.73,2.73,0,0,1-1.37,3c-1.23.63-.1,2.87-2,3-1.49.14-2.86-1.72-3.18-3,.05.19-1-.33-1-.42a3.38,3.38,0,0,1-.45-1.23,8.81,8.81,0,0,1-.49-2.45c0-.31,0-3.81-.29-3.82a5.83,5.83,0,0,1-2-.28c-1.47-.57-.85-1.53-1.41-2.56-.27-.5-.91-.61-1.21-1.12a3.08,3.08,0,0,1-.17-1.9,7.28,7.28,0,0,1-4.21,0c-1-.44-2.48-1.19-2.51-2.43A3.38,3.38,0,0,1,115.53,73.62Z"/><path class="cls-102" d="M115.53,73.62a2.92,2.92,0,0,1,3.21-1.76,3.26,3.26,0,0,0-2.06,1.76,3.38,3.38,0,0,0-.35,1.54c0,1.24,1.48,2,2.52,2.43a3.91,3.91,0,0,0,1.18.28,5,5,0,0,1-2.34-.28c-1-.44-2.48-1.19-2.51-2.43A3.38,3.38,0,0,1,115.53,73.62Z"/><path class="cls-99" d="M123.58,85a2,2,0,1,0,2-2A2,2,0,0,0,123.58,85Z"/><path class="cls-53" d="M118.39,119.77a10.4,10.4,0,0,1-3.08,3.75L115,120c-.1-1.36-.17-2.79-.19-4.23s.08-3,.23-4.41l4.2-8.49a3.19,3.19,0,0,1,4.49-1.47,3.79,3.79,0,0,1,1.35,4.89Z"/><path class="cls-99" d="M109.4,121.85a9.83,9.83,0,0,0,1.7-.14,10,10,0,0,0,6.71-4.52l7.49-12a3.32,3.32,0,1,0-5.62-3.52l-7.49,12a3.3,3.3,0,0,1-4.84.84l-10-7.91a3.31,3.31,0,0,0-4.1,5.21l10,7.91A10,10,0,0,0,109.4,121.85Z"/><path class="cls-103" d="M117,112.89a6,6,0,0,1-3-2.93l5.38-8.47a3.71,3.71,0,0,1,6.28,3.94l-4.53,7.24c-.7,1.13-1.4,2.43-1.4,2.43A6.81,6.81,0,0,0,117,112.89Z"/><rect class="cls-99" x="110.97" y="100.53" width="1.72" height="5.28" rx="0.39" transform="translate(189.67 -27.56) rotate(78.08)"/><path class="cls-52" d="M136.18,185h.16a1.37,1.37,0,0,0,1.2-1.52l-6.37-51.43c-.09-.75-1.22-1.29-2-1.2s-1.74.76-1.65,1.51l7.27,51.44A1.38,1.38,0,0,0,136.18,185Z"/><path class="cls-52" d="M159.72,171l.15-.05a1.37,1.37,0,0,0,.81-1.76L147.56,131c-.26-.71-1.48-1-2.19-.7s-1.52,1.15-1.25,1.86l14,38A1.38,1.38,0,0,0,159.72,171Z"/><path class="cls-52" d="M105.17,168.61a1.37,1.37,0,0,0,1.49-1l7.73-25.32c.17-.73-.73-1.52-1.47-1.7s-1.92.23-2.1,1L104,166.94a1.36,1.36,0,0,0,1,1.64Z"/><g class="cls-104"><path class="cls-105" d="M145.37,130.3c.71-.27,1.93,0,2.19.7L153,146.76a9.62,9.62,0,0,1-.91.61l-1.93,1.12-6-16.33C143.85,131.45,144.66,130.56,145.37,130.3Z"/><path class="cls-105" d="M131.11,157.54l-3.56-25.17c-.09-.75.9-1.42,1.65-1.51s1.88.45,2,1.2l3.07,24.79A24.31,24.31,0,0,1,131.11,157.54Z"/></g><path class="cls-53" d="M110.82,141.51a1.42,1.42,0,0,1,1-.87,8.34,8.34,0,0,0,2.45.93,1,1,0,0,1,.13.68l-3,9.82-2.94-1.71Z"/><path class="cls-106" d="M152.41,121.19l4.05,15a9,9,0,0,1-4.39,9l-12.56,7.25a23.75,23.75,0,0,1-23.81,0l-13.39-7.8V139a3.75,3.75,0,0,1,5.69-3.22l3.64,2.6c4.47,2.69,11.33-3.43,13-8.37l1.88-4.21a16.32,16.32,0,0,1,6.63-7.43l3.5-2A11.14,11.14,0,0,1,152.41,121.19Z"/><path class="cls-107" d="M155.46,138.41l-4.05-15a11.15,11.15,0,0,0-15.77-4.91l-3.49,2.06a16.37,16.37,0,0,0-6.64,7.42l-.9,2,0-.07,1.87-4.21a16.39,16.39,0,0,1,6.64-7.43l3.5-2a11.14,11.14,0,0,1,15.76,4.91l4.05,15a8.93,8.93,0,0,1-1.27,6A8.94,8.94,0,0,0,155.46,138.41Z"/><path class="cls-52" d="M102.31,142.07l13.39,7.79a23.73,23.73,0,0,0,23.81,0l12.56-7.25a8.94,8.94,0,0,0,4.39-6.51h0a9,9,0,0,1-4.39,9l-12.56,7.25a23.75,23.75,0,0,1-23.81,0l-13.39-7.8v-2.5Z"/><path class="cls-108" d="M76.29,121.46c-2.2-1.26-2.2-3.32,0-4.58a8.79,8.79,0,0,1,8,0c2.19,1.26,2.19,3.32,0,4.58A8.85,8.85,0,0,1,76.29,121.46Z"/><path class="cls-109" d="M83.88,118.34a4.79,4.79,0,0,0,2.13-4V113a1.1,1.1,0,0,0-.56-1,1.12,1.12,0,0,0-1.12,0l-1,.58.52.9,1-.58a.1.1,0,0,1,.08,0,.08.08,0,0,1,0,.07v1.41a3.76,3.76,0,0,1-1.66,3.12Z"/><path class="cls-110" d="M76.63,111.78H83.9v7h0a1.84,1.84,0,0,1-1.05,1.44,5.2,5.2,0,0,1-2.5.61h-.16a5.31,5.31,0,0,1-2.5-.61,1.79,1.79,0,0,1-1.06-1.51h0Z"/><path class="cls-109" d="M77.69,113.27c-1.42-.82-1.42-2.15,0-3a5.78,5.78,0,0,1,5.16,0c1.41.82,1.41,2.15,0,3A5.78,5.78,0,0,1,77.69,113.27Z"/><path class="cls-111" d="M77.92,113.14c-1.3-.75-1.3-2,0-2.71a5.19,5.19,0,0,1,4.7,0c1.29.75,1.29,2,0,2.71A5.19,5.19,0,0,1,77.92,113.14Z"/><path class="cls-112" d="M78.13,113.28c-1.19-.56-1.19-1.47,0-2a5.78,5.78,0,0,1,4.29,0c1.18.56,1.18,1.47,0,2A5.69,5.69,0,0,1,78.13,113.28Z"/><path class="cls-113" d="M77.29,112.51a1.39,1.39,0,0,1,.84-.54,8,8,0,0,1,4.29,0,1.39,1.39,0,0,1,.84.54,1.53,1.53,0,0,1-.84.77,5.69,5.69,0,0,1-4.29,0A1.53,1.53,0,0,1,77.29,112.51Z"/><path class="cls-2" d="M81.53,127.3a.55.55,0,0,1,0,1l-13.82,8a2,2,0,0,1-1.83,0L44.23,123.88c-.51-.29-.51-.76,0-1l13.83-8a2,2,0,0,1,1.83,0Z"/><path class="cls-114" d="M81.45,127.29a.56.56,0,0,1,0,1L67.7,136.28a2,2,0,0,1-1.82,0l-21.55-12.4a.55.55,0,0,1,0-1l13.75-8a2,2,0,0,1,1.82,0Z"/><path class="cls-115" d="M81.37,127.28c.5.29.5.76,0,1l-13.67,7.9a2.06,2.06,0,0,1-1.81,0L44.44,123.88c-.49-.29-.5-.76,0-1l13.68-7.94a2,2,0,0,1,1.8,0Z"/><path class="cls-116" d="M81.29,127.27a.55.55,0,0,1,0,1l-13.6,7.85a2,2,0,0,1-1.8,0L44.55,123.88a.55.55,0,0,1,0-1L58.15,115a2,2,0,0,1,1.8,0Z"/><path class="cls-117" d="M81.21,127.26a.54.54,0,0,1,0,1l-13.52,7.8a2,2,0,0,1-1.79,0L44.66,123.88a.55.55,0,0,1,0-1L58.18,115A2,2,0,0,1,60,115Z"/><path class="cls-118" d="M81.13,127.25a.54.54,0,0,1,0,1L67.69,136a2,2,0,0,1-1.78,0L44.77,123.88a.54.54,0,0,1,0-1l13.44-7.8A2,2,0,0,1,60,115Z"/><path class="cls-119" d="M81,127.24a.54.54,0,0,1,0,1L67.68,136a2,2,0,0,1-1.77,0l-21-12.09c-.49-.28-.49-.74,0-1l13.36-7.75a1.94,1.94,0,0,1,1.77,0Z"/><path class="cls-120" d="M81,127.23c.49.28.49.73,0,1l-13.28,7.67a2,2,0,0,1-1.76,0L45,123.87c-.49-.27-.49-.73,0-1l13.29-7.71a1.9,1.9,0,0,1,1.75,0Z"/><path class="cls-121" d="M80.88,127.22a.53.53,0,0,1,0,1l-13.21,7.62a1.93,1.93,0,0,1-1.75,0l-20.82-12a.53.53,0,0,1,0-1l13.22-7.67a1.94,1.94,0,0,1,1.74,0Z"/><path class="cls-122" d="M80.8,127.21c.48.27.48.72,0,1l-13.13,7.58a1.91,1.91,0,0,1-1.74,0L45.21,123.87a.53.53,0,0,1,0-1l13.14-7.63a2,2,0,0,1,1.74,0Z"/><path class="cls-123" d="M80.72,127.2a.52.52,0,0,1,0,1l-13.06,7.54a1.87,1.87,0,0,1-1.72,0L45.31,123.87a.53.53,0,0,1,0-1l13.06-7.58a2,2,0,0,1,1.73,0Z"/><path class="cls-124" d="M80.64,127.19c.47.27.47.71,0,1l-13,7.49a1.93,1.93,0,0,1-1.72,0l-20.52-11.8a.52.52,0,0,1,0-1l13-7.54a1.93,1.93,0,0,1,1.72,0Z"/><path class="cls-125" d="M80.56,127.18a.52.52,0,0,1,0,1l-12.91,7.45a1.89,1.89,0,0,1-1.7,0L45.53,123.87a.52.52,0,0,1,0-1l12.9-7.49a1.91,1.91,0,0,1,1.71,0Z"/><path class="cls-126" d="M80.48,127.17a.51.51,0,0,1,0,1l-12.83,7.41a1.89,1.89,0,0,1-1.7,0L45.64,123.87a.52.52,0,0,1,0-1l12.83-7.45a1.86,1.86,0,0,1,1.69,0Z"/><path class="cls-127" d="M80.39,127.15a.52.52,0,0,1,0,1l-12.74,7.36a1.86,1.86,0,0,1-1.69,0L45.75,123.87a.52.52,0,0,1,0-1l12.75-7.4a1.84,1.84,0,0,1,1.68,0Z"/><path class="cls-128" d="M80.31,127.14a.51.51,0,0,1,0,1l-12.67,7.32a1.87,1.87,0,0,1-1.68,0l-20.1-11.56a.51.51,0,0,1,0-1l12.67-7.36a1.84,1.84,0,0,1,1.68,0Z"/><path class="cls-129" d="M80.23,127.13a.51.51,0,0,1,0,1l-12.59,7.27a1.89,1.89,0,0,1-1.67,0L46,123.86c-.46-.26-.46-.69,0-1l12.59-7.31a1.82,1.82,0,0,1,1.67,0Z"/><path class="cls-130" d="M80.15,127.12c.46.27.46.7,0,1l-12.52,7.23a1.84,1.84,0,0,1-1.65,0l-19.9-11.45a.5.5,0,0,1,0-1l12.52-7.27a1.8,1.8,0,0,1,1.66,0Z"/><path class="cls-131" d="M80.07,127.11c.45.27.45.69,0,1l-12.44,7.19a1.84,1.84,0,0,1-1.65,0l-19.8-11.39a.5.5,0,0,1,0-1l12.45-7.22a1.82,1.82,0,0,1,1.64,0Z"/><path class="cls-132" d="M80,127.1a.5.5,0,0,1,0,1l-12.37,7.14a1.8,1.8,0,0,1-1.63,0l-19.7-11.33a.5.5,0,0,1,0-.94l12.37-7.18a1.8,1.8,0,0,1,1.63,0Z"/><path class="cls-133" d="M79.91,127.09a.5.5,0,0,1,0,.94l-12.29,7.1a1.87,1.87,0,0,1-1.63,0L46.4,123.86a.5.5,0,0,1,0-.94l12.29-7.13a1.78,1.78,0,0,1,1.62,0Z"/><path class="cls-134" d="M79.82,127.08a.5.5,0,0,1,0,.94l-12.21,7a1.79,1.79,0,0,1-1.61,0L46.51,123.86a.49.49,0,0,1,0-.93l12.21-7.09a1.81,1.81,0,0,1,1.62,0Z"/><path class="cls-135" d="M79.74,127.07a.49.49,0,0,1,0,.93l-12.13,7A1.79,1.79,0,0,1,66,135L46.62,123.86a.49.49,0,0,1,0-.93l12.13-7a1.79,1.79,0,0,1,1.61,0Z"/><path class="cls-136" d="M79.66,127.06c.44.26.44.67,0,.92l-12,7a1.74,1.74,0,0,1-1.6,0L46.73,123.86a.49.49,0,0,1,0-.93l12.06-7a1.75,1.75,0,0,1,1.59,0Z"/><path class="cls-137" d="M79.58,127.05a.49.49,0,0,1,0,.92l-12,6.91a1.73,1.73,0,0,1-1.58,0l-19.18-11c-.44-.26-.44-.67,0-.92l12-7a1.76,1.76,0,0,1,1.58,0Z"/><path class="cls-138" d="M79.5,127a.48.48,0,0,1,0,.91l-11.9,6.87a1.76,1.76,0,0,1-1.58,0L47,123.85c-.44-.25-.44-.65,0-.91L58.85,116a1.74,1.74,0,0,1,1.57,0Z"/><path class="cls-139" d="M79.42,127a.48.48,0,0,1,0,.91l-11.83,6.82a1.72,1.72,0,0,1-1.56,0l-19-10.91a.48.48,0,0,1,0-.9l11.83-6.87a1.72,1.72,0,0,1,1.56,0Z"/><path class="cls-140" d="M79.34,127a.48.48,0,0,1,0,.9L67.59,134.7a1.72,1.72,0,0,1-1.56,0L47.16,123.85a.48.48,0,0,1,0-.9l11.75-6.82a1.75,1.75,0,0,1,1.56,0Z"/><path class="cls-141" d="M79.25,127c.43.25.43.65,0,.89l-11.67,6.74a1.67,1.67,0,0,1-1.54,0L47.27,123.85a.47.47,0,0,1,0-.89l11.67-6.78a1.76,1.76,0,0,1,1.55,0Z"/><path class="cls-142" d="M79.17,127c.43.24.43.64,0,.89l-11.59,6.69a1.74,1.74,0,0,1-1.54,0L47.38,123.85a.47.47,0,0,1,0-.89L59,116.23a1.72,1.72,0,0,1,1.53,0Z"/><path class="cls-143" d="M79.09,127a.46.46,0,0,1,0,.88l-11.52,6.65a1.69,1.69,0,0,1-1.52,0L47.49,123.85a.46.46,0,0,1,0-.88L59,116.28a1.69,1.69,0,0,1,1.52,0Z"/><path class="cls-144" d="M79,127a.46.46,0,0,1,0,.87l-11.44,6.61a1.67,1.67,0,0,1-1.51,0L47.6,123.85a.46.46,0,0,1,0-.88L59,116.33a1.67,1.67,0,0,1,1.51,0Z"/><path class="cls-145" d="M78.93,127a.46.46,0,0,1,0,.87L67.57,134.4a1.67,1.67,0,0,1-1.51,0L47.71,123.85a.46.46,0,0,1,0-.87l11.36-6.6a1.65,1.65,0,0,1,1.5,0Z"/><path class="cls-146" d="M78.85,127a.45.45,0,0,1,0,.86l-11.29,6.52a1.63,1.63,0,0,1-1.49,0l-18.25-10.5a.45.45,0,0,1,0-.86l11.28-6.55a1.65,1.65,0,0,1,1.5,0Z"/><path class="cls-147" d="M78.77,127a.46.46,0,0,1,0,.86l-11.21,6.47a1.7,1.7,0,0,1-1.49,0L47.93,123.84a.45.45,0,0,1,0-.85l11.22-6.51a1.61,1.61,0,0,1,1.48,0Z"/><path class="cls-148" d="M78.68,126.94a.45.45,0,0,1,0,.85l-11.13,6.43a1.65,1.65,0,0,1-1.47,0L48,123.84a.45.45,0,0,1,0-.85l11.14-6.46a1.59,1.59,0,0,1,1.47,0Z"/><path class="cls-149" d="M78.6,126.93a.44.44,0,0,1,0,.84l-11,6.39a1.65,1.65,0,0,1-1.47,0L48.14,123.84a.44.44,0,0,1,0-.84l11.06-6.42a1.57,1.57,0,0,1,1.46,0Z"/><path class="cls-150" d="M78.52,126.92a.44.44,0,0,1,0,.84l-11,6.34a1.61,1.61,0,0,1-1.45,0L48.25,123.84a.44.44,0,0,1,0-.84l11-6.37a1.58,1.58,0,0,1,1.45,0Z"/><path class="cls-151" d="M78.44,126.91a.44.44,0,0,1,0,.83L67.54,134a1.65,1.65,0,0,1-1.44,0l-17.74-10.2a.44.44,0,0,1,0-.83l10.9-6.33a1.62,1.62,0,0,1,1.44,0Z"/><path class="cls-152" d="M78.36,126.9a.44.44,0,0,1,0,.83L67.54,134a1.62,1.62,0,0,1-1.44,0L48.47,123.84a.44.44,0,0,1,0-.83l10.83-6.28a1.6,1.6,0,0,1,1.43,0Z"/><path class="cls-153" d="M78.28,126.89a.43.43,0,0,1,0,.82l-10.75,6.2a1.58,1.58,0,0,1-1.42,0L48.58,123.84a.44.44,0,0,1,0-.83l10.75-6.23a1.58,1.58,0,0,1,1.42,0Z"/><path class="cls-154" d="M78.2,126.88a.43.43,0,0,1,0,.81l-10.67,6.16a1.55,1.55,0,0,1-1.42,0l-17.42-10a.43.43,0,0,1,0-.82l10.67-6.2a1.59,1.59,0,0,1,1.41,0Z"/><path class="cls-155" d="M78.12,126.87a.43.43,0,0,1,0,.81l-10.6,6.11a1.51,1.51,0,0,1-1.4,0l-17.32-10c-.39-.22-.39-.58,0-.81l10.59-6.15a1.57,1.57,0,0,1,1.4,0Z"/><path class="cls-156" d="M78,126.86a.42.42,0,0,1,0,.8l-10.51,6.07a1.55,1.55,0,0,1-1.39,0l-17.22-9.9c-.39-.22-.39-.58,0-.8l10.52-6.11a1.55,1.55,0,0,1,1.39,0Z"/><path class="cls-157" d="M78,126.85c.38.22.38.58,0,.79l-10.44,6a1.53,1.53,0,0,1-1.38,0L49,123.83a.42.42,0,0,1,0-.8L59.45,117a1.53,1.53,0,0,1,1.38,0Z"/><path class="cls-158" d="M77.87,126.84c.38.21.38.57,0,.79l-10.36,6a1.5,1.5,0,0,1-1.37,0l-17-9.78a.42.42,0,0,1,0-.79l10.37-6a1.5,1.5,0,0,1,1.37,0Z"/><path class="cls-159" d="M77.79,126.83a.41.41,0,0,1,0,.78L67.5,133.55a1.48,1.48,0,0,1-1.36,0l-16.91-9.72a.42.42,0,0,1,0-.79l10.29-6a1.48,1.48,0,0,1,1.36,0Z"/><path class="cls-160" d="M77.71,126.82c.37.21.37.56,0,.78L67.5,133.49a1.49,1.49,0,0,1-1.35,0l-16.81-9.66c-.37-.22-.37-.57,0-.78l10.21-5.93a1.53,1.53,0,0,1,1.35,0Z"/><path class="cls-161" d="M77.63,126.81a.41.41,0,0,1,0,.77L67.5,133.43a1.53,1.53,0,0,1-1.35,0l-16.7-9.6c-.37-.21-.37-.56,0-.78l10.13-5.88a1.5,1.5,0,0,1,1.34,0Z"/><path class="cls-162" d="M77.55,126.8a.4.4,0,0,1,0,.76l-10.06,5.81a1.48,1.48,0,0,1-1.33,0l-16.6-9.54a.41.41,0,0,1,0-.77l10-5.84a1.48,1.48,0,0,1,1.33,0Z"/><path class="cls-163" d="M77.46,126.79c.37.2.37.55,0,.76l-10,5.76a1.46,1.46,0,0,1-1.32,0l-16.5-9.48a.41.41,0,0,1,0-.77l10-5.79a1.46,1.46,0,0,1,1.32,0Z"/><path class="cls-95" d="M77.38,126.78c.36.2.36.54,0,.75l-9.9,5.72a1.44,1.44,0,0,1-1.31,0l-16.39-9.43a.4.4,0,0,1,0-.75l9.91-5.75a1.44,1.44,0,0,1,1.31,0Z"/><path class="cls-164" d="M80.51,126.5v.43a.62.62,0,0,1-.32.55l-12.67,7.3a1.82,1.82,0,0,1-1.67,0L46.14,123.44a.84.84,0,0,1-.41-.71v-.17l13-7.47a1.87,1.87,0,0,1,1.68,0Z"/><path class="cls-45" d="M80.17,126a.51.51,0,0,1,0,1l-12.65,7.3a1.89,1.89,0,0,1-1.67,0l-19.8-11.39a.51.51,0,0,1,0-1l12.64-7.34a1.91,1.91,0,0,1,1.68,0Z"/><polygon class="cls-165" points="76.62 125.08 64.22 132.29 48.59 123.3 60.98 116.05 76.62 125.08"/><path class="cls-166" d="M52.88,119.66a.27.27,0,0,0,.12,0l2.65-1.54a.23.23,0,0,0,.09-.33.24.24,0,0,0-.33-.08l-2.65,1.53a.24.24,0,0,0-.09.33A.25.25,0,0,0,52.88,119.66Z"/><path class="cls-167" d="M69.72,104.59v6.86a1.66,1.66,0,0,1-1,1.37,5.32,5.32,0,0,1-4.76,0,1.67,1.67,0,0,1-1-1.37v-6.86Z"/><path class="cls-168" d="M64,106c-1.31-.75-1.31-2,0-2.74a5.32,5.32,0,0,1,4.76,0,1.45,1.45,0,0,1,0,2.74A5.32,5.32,0,0,1,64,106Z"/><path class="cls-169" d="M64.21,105.83a1.31,1.31,0,0,1,0-2.48,4.77,4.77,0,0,1,4.32,0,1.31,1.31,0,0,1,0,2.48A4.77,4.77,0,0,1,64.21,105.83Z"/><path class="cls-50" d="M66.22,101.21a.42.42,0,0,1,.42.42v4.7a4.71,4.71,0,0,1-.84,0v-4.69A.42.42,0,0,1,66.22,101.21Z"/><path class="cls-170" d="M66.42,106.24,67,104.6h0l1-3a.42.42,0,0,1,.53-.27.44.44,0,0,1,.27.54l-.45,1.35h0l-1,3a6.53,6.53,0,0,1-.9.09S66.41,106.28,66.42,106.24Z"/><path class="cls-109" d="M64.28,101.46a.42.42,0,0,1,.53.27L66,105.3h0l.33,1a4.53,4.53,0,0,1-.91-.1l-1-3h0L64,102A.41.41,0,0,1,64.28,101.46Z"/><rect class="cls-171" width="200" height="200"/></g></g></g></g></svg>