<svg xmlns="http://www.w3.org/2000/svg" xmlns:xlink="http://www.w3.org/1999/xlink" viewBox="0 0 200 200"><defs><style>.cls-1{fill:none;}.cls-2{fill:#f3f8fe;}.cls-3{fill:url(#linear-gradient);}.cls-4{fill:#0c4da4;}.cls-5{fill:url(#linear-gradient-2);}.cls-24,.cls-6{font-size:10.9px;font-family:Montserrat-Bold, Montserrat;font-weight:700;}.cls-12,.cls-21,.cls-6{fill:#1067db;}.cls-7{letter-spacing:-0.01em;}.cls-8{letter-spacing:-0.02em;}.cls-9{letter-spacing:-0.01em;}.cls-10{letter-spacing:0em;}.cls-11{letter-spacing:-0.01em;}.cls-12,.cls-29{font-size:5.45px;font-family:Montserrat-Regular, Montserrat;}.cls-13{letter-spacing:-0.05em;}.cls-14{letter-spacing:0em;}.cls-15{letter-spacing:-0.01em;}.cls-16{letter-spacing:-0.01em;}.cls-17{letter-spacing:-0.02em;}.cls-18{fill:#e9edfc;}.cls-19{fill:url(#linear-gradient-3);}.cls-20{fill:url(#linear-gradient-4);}.cls-22{fill:url(#linear-gradient-5);}.cls-23,.cls-24,.cls-29{fill:#fff;}.cls-25{letter-spacing:-0.01em;}.cls-26{letter-spacing:0.01em;}.cls-27{letter-spacing:0em;}.cls-28{letter-spacing:0.01em;}.cls-30{letter-spacing:0em;}.cls-31{letter-spacing:-0.01em;}.cls-32{letter-spacing:-0.02em;}.cls-33{letter-spacing:-0.02em;}.cls-34{fill:url(#linear-gradient-6);}.cls-35{fill:url(#linear-gradient-7);}.cls-36{fill:url(#linear-gradient-8);}.cls-37{fill:url(#linear-gradient-9);}.cls-38{letter-spacing:0em;}.cls-39{letter-spacing:-0.03em;}.cls-40{letter-spacing:0.01em;}.cls-41{letter-spacing:-0.01em;}.cls-42{fill:url(#linear-gradient-10);}.cls-43{fill:url(#linear-gradient-11);}.cls-44{opacity:0.4;}.cls-45{fill:url(#linear-gradient-12);}.cls-46{fill:url(#linear-gradient-13);}.cls-47{fill:url(#linear-gradient-14);}.cls-48{fill:url(#linear-gradient-15);}.cls-49{fill:url(#linear-gradient-16);}.cls-50{fill:url(#linear-gradient-17);}.cls-51{fill:url(#linear-gradient-18);}.cls-52{fill:#f7f9fa;}.cls-53{fill:url(#linear-gradient-19);}.cls-54{fill:#231f20;}</style><linearGradient id="linear-gradient" x1="-4.02" y1="100.98" x2="66.64" y2="6.67" gradientUnits="userSpaceOnUse"><stop offset="0" stop-color="#1067db"/><stop offset="0.01" stop-color="#1068db"/><stop offset="0.42" stop-color="#1787ec"/><stop offset="0.76" stop-color="#1b9bf5"/><stop offset="1" stop-color="#1ca2f9"/></linearGradient><linearGradient id="linear-gradient-2" x1="6.82" y1="74.45" x2="49.69" y2="74.45" gradientUnits="userSpaceOnUse"><stop offset="0" stop-color="#f7a66a"/><stop offset="1" stop-color="#edbd6a"/></linearGradient><linearGradient id="linear-gradient-3" x1="8.55" y1="78.99" x2="23.31" y2="47.9" xlink:href="#linear-gradient"/><linearGradient id="linear-gradient-4" x1="12.88" y1="75.66" x2="27.59" y2="54.56" xlink:href="#linear-gradient-2"/><linearGradient id="linear-gradient-5" x1="26.56" y1="116.75" x2="97.21" y2="22.44" gradientUnits="userSpaceOnUse"><stop offset="0.01" stop-color="#05105d"/><stop offset="0.24" stop-color="#0c3f8f"/><stop offset="0.48" stop-color="#136abd"/><stop offset="0.7" stop-color="#1888de"/><stop offset="0.88" stop-color="#1b9bf2"/><stop offset="1" stop-color="#1ca2f9"/></linearGradient><linearGradient id="linear-gradient-6" x1="39.12" y1="94.76" x2="53.89" y2="63.67" xlink:href="#linear-gradient"/><linearGradient id="linear-gradient-7" x1="43.45" y1="91.43" x2="58.17" y2="70.33" xlink:href="#linear-gradient-2"/><linearGradient id="linear-gradient-8" x1="57.13" y1="135.23" x2="127.78" y2="40.92" xlink:href="#linear-gradient"/><linearGradient id="linear-gradient-9" x1="67.97" y1="108.69" x2="110.83" y2="108.69" xlink:href="#linear-gradient-2"/><linearGradient id="linear-gradient-10" x1="69.7" y1="113.24" x2="84.46" y2="82.14" xlink:href="#linear-gradient"/><linearGradient id="linear-gradient-11" x1="74.02" y1="109.9" x2="88.74" y2="88.81" xlink:href="#linear-gradient-2"/><linearGradient id="linear-gradient-12" x1="87.7" y1="204.41" x2="158.35" y2="110.1" xlink:href="#linear-gradient"/><linearGradient id="linear-gradient-13" x1="98.54" y1="177.87" x2="141.4" y2="177.87" xlink:href="#linear-gradient-2"/><linearGradient id="linear-gradient-14" x1="100.27" y1="182.41" x2="115.03" y2="151.32" xlink:href="#linear-gradient"/><linearGradient id="linear-gradient-15" x1="104.6" y1="179.08" x2="119.31" y2="157.98" xlink:href="#linear-gradient-2"/><linearGradient id="linear-gradient-16" x1="87.7" y1="152.35" x2="158.35" y2="58.04" xlink:href="#linear-gradient-5"/><linearGradient id="linear-gradient-17" x1="100.27" y1="130.36" x2="115.03" y2="99.27" xlink:href="#linear-gradient"/><linearGradient id="linear-gradient-18" x1="104.6" y1="127.03" x2="119.31" y2="105.93" xlink:href="#linear-gradient-2"/><linearGradient id="linear-gradient-19" x1="196.78" y1="76.77" x2="217.34" y2="44.73" gradientTransform="translate(-24.86)" gradientUnits="userSpaceOnUse"><stop offset="0" stop-color="#1067db"/><stop offset="1" stop-color="#1ca2f9"/></linearGradient></defs><title>talent-image-04</title><g id="Layer_2" data-name="Layer 2"><g id="Graphics"><g id="bot"><rect class="cls-1" width="200" height="200"/><path class="cls-2" d="M90.51,4.73c1.12-.65,2-.12,2,1.18V40.12a4.57,4.57,0,0,1-2,3.55L7.05,91.85c-1.13.65-2,.12-2-1.18V56.46a4.54,4.54,0,0,1,2.05-3.55Z"/><path class="cls-3" d="M6.83,91.89V57.68a4.54,4.54,0,0,1,2.05-3.55L92.34,6l.21-.1c0-1.26-.93-1.76-2-1.12L7.05,52.91a4.54,4.54,0,0,0-2,3.55V90.67c0,1.22.81,1.75,1.84,1.28C6.84,91.93,6.83,91.91,6.83,91.89Z"/><polygon class="cls-4" points="6.82 85.82 92.55 36.26 92.55 38.29 6.82 87.86 6.82 85.82"/><polygon class="cls-5" points="6.82 85.82 49.69 61.04 49.69 63.08 6.82 87.86 6.82 85.82"/><text class="cls-6" transform="matrix(0.62, -0.35, -0.03, 1, 34.36, 53.73)">Sof<tspan class="cls-7" x="18.31" y="0">t</tspan><tspan class="cls-8" x="22.94" y="0">w</tspan><tspan x="32.96" y="0">a</tspan><tspan class="cls-9" x="39.68" y="0">r</tspan><tspan class="cls-10" x="44.28" y="0">e D</tspan><tspan class="cls-11" x="63.25" y="0">e</tspan><tspan x="70.01" y="0">v</tspan></text><text class="cls-12" transform="matrix(0.62, -0.35, -0.03, 1, 35.27, 60.54)"><tspan class="cls-13">V</tspan><tspan x="3.5" y="0">a</tspan><tspan class="cls-14" x="6.72" y="0">n</tspan><tspan class="cls-15" x="10.42" y="0">c</tspan><tspan x="13.44" y="0">ou</tspan><tspan class="cls-16" x="20.52" y="0">v</tspan><tspan x="23.39" y="0">er </tspan><tspan class="cls-17" x="30.3" y="0">C</tspan><tspan x="34.12" y="0">A</tspan></text><path class="cls-18" d="M12.66,57.05l14.47-7.82a1.8,1.8,0,0,1,2.66,1.58V67.58a2.94,2.94,0,0,1-1.48,2.56l-14.49,8.4A1.8,1.8,0,0,1,11.11,77V59.66A3,3,0,0,1,12.66,57.05Z"/><path class="cls-19" d="M12.06,77.61V60.28a3,3,0,0,1,1.55-2.6l14.46-7.82a1.77,1.77,0,0,1,1.32-.16,1.78,1.78,0,0,0-2.26-.47L12.66,57.05a3,3,0,0,0-1.55,2.61V77a1.8,1.8,0,0,0,1.33,1.74A1.75,1.75,0,0,1,12.06,77.61Z"/><path class="cls-20" d="M20.94,57.21a13.06,13.06,0,0,0-5.89,10.2c0,3.74,2.65,5.34,5.89,3.54a12.85,12.85,0,0,0,5.89-10.21C26.83,56.93,24.18,55.34,20.94,57.21Z"/><path class="cls-21" d="M121.08,20.49c1.13-.65,2-.12,2,1.18V55.89a4.52,4.52,0,0,1-2,3.54L37.62,107.62c-1.13.65-2,.12-2-1.18V72.22a4.52,4.52,0,0,1,2-3.54Z"/><path class="cls-22" d="M37.4,107.66V73.45a4.57,4.57,0,0,1,2.05-3.55l83.46-48.19.21-.09c0-1.26-.93-1.77-2-1.13L37.62,68.68a4.52,4.52,0,0,0-2,3.54v34.22c0,1.22.81,1.75,1.84,1.28C37.41,107.7,37.4,107.68,37.4,107.66Z"/><polygon class="cls-4" points="37.39 101.59 123.12 52.02 123.12 54.06 37.39 103.63 37.39 101.59"/><polygon class="cls-23" points="37.39 101.59 80.26 76.81 80.26 78.84 37.39 103.63 37.39 101.59"/><text class="cls-24" transform="matrix(0.62, -0.35, -0.03, 1, 64.93, 69.5)"><tspan class="cls-11">F</tspan><tspan class="cls-25" x="6.86" y="0">r</tspan><tspan x="11.45" y="0">on</tspan><tspan class="cls-11" x="26.12" y="0">t</tspan><tspan class="cls-26" x="30.76" y="0">-</tspan><tspan class="cls-27" x="35.07" y="0">e</tspan><tspan class="cls-28" x="41.95" y="0">n</tspan><tspan x="49.54" y="0">d D</tspan><tspan class="cls-11" x="69.17" y="0">e</tspan><tspan x="75.94" y="0">v</tspan></text><text class="cls-29" transform="matrix(0.62, -0.35, -0.03, 1, 65.84, 76.31)"><tspan class="cls-13">T</tspan><tspan class="cls-30" x="2.83" y="0">o</tspan><tspan class="cls-31" x="6.25" y="0">r</tspan><tspan x="8.36" y="0">on</tspan><tspan class="cls-32" x="15.47" y="0">t</tspan><tspan x="17.57" y="0">o </tspan><tspan class="cls-33" x="22.42" y="0">C</tspan><tspan x="26.24" y="0">A</tspan></text><path class="cls-18" d="M43.24,72.82,57.7,65a1.8,1.8,0,0,1,2.66,1.58V83.35a3,3,0,0,1-1.47,2.56L44.4,94.31a1.81,1.81,0,0,1-2.71-1.56V75.42A3,3,0,0,1,43.24,72.82Z"/><path class="cls-34" d="M42.63,93.37V76.05a2.94,2.94,0,0,1,1.55-2.6l14.46-7.83A1.81,1.81,0,0,1,60,65.47,1.77,1.77,0,0,0,57.7,65L43.24,72.82a3,3,0,0,0-1.55,2.6V92.75A1.8,1.8,0,0,0,43,94.49,1.76,1.76,0,0,1,42.63,93.37Z"/><path class="cls-35" d="M51.51,73a13.06,13.06,0,0,0-5.89,10.2c0,3.74,2.65,5.33,5.89,3.54A12.85,12.85,0,0,0,57.4,76.51C57.4,72.7,54.75,71.1,51.51,73Z"/><path class="cls-2" d="M151.65,39c1.13-.65,2-.12,2,1.18V74.37a4.52,4.52,0,0,1-2,3.54L68.19,126.1c-1.12.65-2,.12-2-1.18V90.7a4.54,4.54,0,0,1,2-3.54Z"/><path class="cls-36" d="M68,126.14V91.92a4.54,4.54,0,0,1,2-3.54l83.47-48.19.21-.1c0-1.25-.94-1.76-2-1.12L68.19,87.16a4.54,4.54,0,0,0-2,3.54v34.22c0,1.21.81,1.74,1.83,1.27Z"/><polygon class="cls-4" points="67.97 120.07 153.69 70.5 153.69 72.54 67.97 122.1 67.97 120.07"/><polygon class="cls-37" points="67.97 120.07 110.83 95.28 110.83 97.32 67.97 122.1 67.97 120.07"/><text class="cls-6" transform="matrix(0.62, -0.35, -0.03, 1, 95.5, 87.98)">B<tspan class="cls-28" x="8.34" y="0">a</tspan><tspan class="cls-38" x="15.13" y="0">c</tspan><tspan class="cls-39" x="21.52" y="0">k</tspan><tspan class="cls-26" x="28.43" y="0">-</tspan><tspan x="32.75" y="0">e</tspan><tspan class="cls-40" x="39.63" y="0">n</tspan><tspan x="47.22" y="0">d D</tspan><tspan class="cls-41" x="66.85" y="0">e</tspan><tspan class="cls-27" x="73.62" y="0">v</tspan></text><text class="cls-12" transform="matrix(0.62, -0.35, -0.03, 1, 96.41, 94.79)"><tspan class="cls-13">V</tspan><tspan x="3.5" y="0">a</tspan><tspan class="cls-14" x="6.72" y="0">n</tspan><tspan class="cls-15" x="10.42" y="0">c</tspan><tspan x="13.44" y="0">ou</tspan><tspan class="cls-16" x="20.52" y="0">v</tspan><tspan x="23.39" y="0">er </tspan><tspan class="cls-17" x="30.3" y="0">C</tspan><tspan x="34.12" y="0">A</tspan></text><path class="cls-18" d="M73.81,91.3l14.46-7.83a1.8,1.8,0,0,1,2.66,1.59v16.77a2.94,2.94,0,0,1-1.47,2.55L75,112.78a1.8,1.8,0,0,1-2.71-1.56V93.9A2.94,2.94,0,0,1,73.81,91.3Z"/><path class="cls-42" d="M73.2,111.85V94.53a3,3,0,0,1,1.55-2.6L89.21,84.1A1.79,1.79,0,0,1,90.54,84a1.8,1.8,0,0,0-2.27-.48L73.81,91.3a2.94,2.94,0,0,0-1.55,2.6v17.32A1.8,1.8,0,0,0,73.58,113,1.81,1.81,0,0,1,73.2,111.85Z"/><path class="cls-43" d="M82.08,91.45a13.08,13.08,0,0,0-5.89,10.21c0,3.74,2.65,5.33,5.89,3.53A12.82,12.82,0,0,0,88,95C88,91.17,85.32,89.58,82.08,91.45Z"/><g class="cls-44"><path class="cls-2" d="M182.23,108.15c1.12-.65,2-.12,2,1.18v34.21a4.56,4.56,0,0,1-2,3.55L98.76,195.27c-1.12.65-2,.12-2-1.18V159.88a4.56,4.56,0,0,1,2-3.55Z"/><path class="cls-45" d="M98.55,195.31V161.1a4.52,4.52,0,0,1,2-3.54l83.46-48.19.21-.1c0-1.25-.94-1.76-2-1.12L98.76,156.33a4.56,4.56,0,0,0-2,3.55v34.21c0,1.22.81,1.75,1.83,1.28Z"/><polygon class="cls-4" points="98.54 189.25 184.27 139.68 184.27 141.72 98.54 191.28 98.54 189.25"/><polygon class="cls-46" points="98.54 189.25 141.4 164.46 141.4 166.5 98.54 191.28 98.54 189.25"/><text class="cls-6" transform="matrix(0.62, -0.35, -0.03, 1, 126.07, 157.15)">B<tspan class="cls-28" x="8.34" y="0">a</tspan><tspan class="cls-38" x="15.13" y="0">c</tspan><tspan class="cls-39" x="21.52" y="0">k</tspan><tspan class="cls-26" x="28.43" y="0">-</tspan><tspan x="32.75" y="0">e</tspan><tspan class="cls-40" x="39.63" y="0">n</tspan><tspan x="47.22" y="0">d D</tspan><tspan class="cls-41" x="66.85" y="0">e</tspan><tspan class="cls-27" x="73.62" y="0">v</tspan></text><text class="cls-12" transform="matrix(0.62, -0.35, -0.03, 1, 126.98, 163.97)"><tspan class="cls-13">V</tspan><tspan x="3.5" y="0">a</tspan><tspan class="cls-14" x="6.72" y="0">n</tspan><tspan class="cls-15" x="10.42" y="0">c</tspan><tspan x="13.44" y="0">ou</tspan><tspan class="cls-16" x="20.52" y="0">v</tspan><tspan x="23.39" y="0">er </tspan><tspan class="cls-17" x="30.3" y="0">C</tspan><tspan x="34.12" y="0">A</tspan></text><path class="cls-18" d="M104.38,160.48l14.46-7.83a1.81,1.81,0,0,1,2.67,1.59V171a3,3,0,0,1-1.48,2.56L105.54,182a1.8,1.8,0,0,1-2.71-1.56V163.08A3,3,0,0,1,104.38,160.48Z"/><path class="cls-47" d="M103.77,181V163.71a3,3,0,0,1,1.55-2.61l14.47-7.82a1.72,1.72,0,0,1,1.32-.15,1.8,1.8,0,0,0-2.27-.48l-14.46,7.83a3,3,0,0,0-1.55,2.6V180.4a1.8,1.8,0,0,0,1.33,1.74A1.76,1.76,0,0,1,103.77,181Z"/><path class="cls-48" d="M112.65,160.63a13.07,13.07,0,0,0-5.89,10.21c0,3.74,2.65,5.33,5.89,3.53a12.83,12.83,0,0,0,5.9-10.2C118.55,160.35,115.9,158.76,112.65,160.63Z"/></g><path class="cls-21" d="M182.23,56.1c1.12-.65,2-.12,2,1.18V91.49a4.56,4.56,0,0,1-2,3.55L98.76,143.22c-1.12.65-2,.12-2-1.18V107.83a4.56,4.56,0,0,1,2-3.55Z"/><path class="cls-49" d="M98.55,143.26V109.05a4.54,4.54,0,0,1,2-3.55l83.46-48.18.21-.1c0-1.25-.94-1.76-2-1.12L98.76,104.28a4.56,4.56,0,0,0-2,3.55V142c0,1.22.81,1.75,1.83,1.28Z"/><polygon class="cls-4" points="98.54 137.19 184.27 87.63 184.27 89.66 98.54 139.23 98.54 137.19"/><polygon class="cls-23" points="98.54 137.19 141.4 112.41 141.4 114.45 98.54 139.23 98.54 137.19"/><text class="cls-24" transform="matrix(0.62, -0.35, -0.03, 1, 126.07, 105.1)">Senior D<tspan class="cls-41" x="48.56" y="0">e</tspan><tspan x="55.33" y="0">v</tspan></text><text class="cls-29" transform="matrix(0.62, -0.35, -0.03, 1, 126.98, 111.92)"><tspan class="cls-13">V</tspan><tspan x="3.5" y="0">a</tspan><tspan class="cls-14" x="6.72" y="0">n</tspan><tspan class="cls-15" x="10.42" y="0">c</tspan><tspan x="13.44" y="0">ou</tspan><tspan class="cls-16" x="20.52" y="0">v</tspan><tspan x="23.39" y="0">er </tspan><tspan class="cls-17" x="30.3" y="0">C</tspan><tspan x="34.12" y="0">A</tspan></text><path class="cls-18" d="M104.38,108.43l14.46-7.83a1.81,1.81,0,0,1,2.67,1.59V119a3,3,0,0,1-1.48,2.56l-14.49,8.4a1.8,1.8,0,0,1-2.71-1.56V111A3,3,0,0,1,104.38,108.43Z"/><path class="cls-50" d="M103.77,129V111.65a3,3,0,0,1,1.55-2.6l14.47-7.82a1.77,1.77,0,0,1,1.32-.16,1.81,1.81,0,0,0-2.27-.47l-14.46,7.83a3,3,0,0,0-1.55,2.6v17.32a1.8,1.8,0,0,0,1.33,1.74A1.76,1.76,0,0,1,103.77,129Z"/><path class="cls-51" d="M112.65,108.58a13.06,13.06,0,0,0-5.89,10.2c0,3.75,2.65,5.34,5.89,3.54a12.83,12.83,0,0,0,5.9-10.2C118.55,108.3,115.9,106.71,112.65,108.58Z"/><path class="cls-52" d="M184.27,49.67c5.9-3.41,10.73-.62,10.73,6.19S190.17,71,184.27,74.45s-10.73.62-10.73-6.2S178.37,53.07,184.27,49.67Z"/><path class="cls-53" d="M184.27,49.67a9.15,9.15,0,0,1,5.23-1.43,10,10,0,0,0-4.27,1.43c-5.9,3.4-10.73,11.77-10.73,18.58,0,4.63,2.23,7.39,5.5,7.63-3.79.28-6.46-2.56-6.46-7.63C173.54,61.44,178.37,53.07,184.27,49.67Z"/><polygon class="cls-54" points="183.39 65.12 181.13 62.43 180.25 64.23 183.23 67.79 183.23 67.78 183.77 68.44 189.74 56.2 188.48 54.69 183.39 65.12"/><polygon class="cls-21" points="183.69 65.12 181.43 62.43 180.55 64.23 183.53 67.79 183.53 67.78 184.08 68.44 190.04 56.2 188.78 54.69 183.69 65.12"/></g></g></g></svg>