<svg xmlns="http://www.w3.org/2000/svg" xmlns:xlink="http://www.w3.org/1999/xlink" viewBox="0 0 200 200"><defs><style>.cls-1{isolation:isolate;}.cls-2{fill:#f3f8fe;}.cls-3{fill:url(#linear-gradient);}.cls-4{fill:#d3dbf9;}.cls-12,.cls-5{fill:#1067db;}.cls-6{fill:url(#linear-gradient-2);}.cls-7{fill:url(#linear-gradient-3);}.cls-8{fill:#0c4da4;}.cls-9{fill:#1ca2f9;}.cls-10{fill:url(#linear-gradient-4);}.cls-11,.cls-20,.cls-78{fill:#fff;}.cls-12,.cls-18,.cls-71,.cls-78{opacity:0.3;}.cls-13{fill:url(#linear-gradient-5);}.cls-14{fill:url(#linear-gradient-6);}.cls-15{fill:#f7a66a;}.cls-16{fill:#e9edfc;}.cls-17{fill:#05105d;}.cls-18,.cls-72{fill:#231f20;}.cls-19{fill:url(#linear-gradient-7);}.cls-20{opacity:0;}.cls-21{fill:#fbfbfb;opacity:0.02;}.cls-22{fill:#f6f6f8;opacity:0.05;}.cls-23{fill:#f2f2f4;opacity:0.07;}.cls-24,.cls-83{fill:#ededf0;}.cls-24{opacity:0.1;}.cls-25,.cls-84{fill:#e9e9ed;}.cls-25{opacity:0.12;}.cls-26{fill:#e4e4e9;opacity:0.15;}.cls-27{fill:#e0e0e6;opacity:0.17;}.cls-28,.cls-88{fill:#dbdbe2;}.cls-28{opacity:0.2;}.cls-29{fill:#d7d7de;opacity:0.22;}.cls-30{fill:#d2d2db;opacity:0.24;}.cls-31{fill:#ceced7;opacity:0.27;}.cls-32,.cls-93{fill:#c9c9d3;}.cls-32{opacity:0.29;}.cls-33{fill:#c5c5d0;opacity:0.32;}.cls-34{fill:#c1c1cc;opacity:0.34;}.cls-35{fill:#bcbcc8;opacity:0.37;}.cls-36{fill:#b8b8c5;opacity:0.39;}.cls-37{fill:#b3b3c1;opacity:0.41;}.cls-38{fill:#afafbe;opacity:0.44;}.cls-39{fill:#aaaaba;opacity:0.46;}.cls-40{fill:#a6a6b6;opacity:0.49;}.cls-41{fill:#a1a1b3;opacity:0.51;}.cls-42{fill:#9d9daf;opacity:0.54;}.cls-43{fill:#9898ab;opacity:0.56;}.cls-44{fill:#9494a8;opacity:0.59;}.cls-45{fill:#8f8fa4;opacity:0.61;}.cls-46{fill:#8b8ba1;opacity:0.63;}.cls-47{fill:#86869d;opacity:0.66;}.cls-48{fill:#828299;opacity:0.68;}.cls-114,.cls-49{fill:#7e7e96;}.cls-49{opacity:0.71;}.cls-50{fill:#797992;opacity:0.73;}.cls-51{fill:#75758e;opacity:0.76;}.cls-52{fill:#70708b;opacity:0.78;}.cls-119,.cls-53{fill:#6c6c87;}.cls-53{opacity:0.8;}.cls-54{fill:#676783;opacity:0.83;}.cls-55{fill:#636380;opacity:0.85;}.cls-123,.cls-56{fill:#5e5e7c;}.cls-56{opacity:0.88;}.cls-124,.cls-57{fill:#5a5a79;}.cls-57{opacity:0.9;}.cls-58{fill:#555575;opacity:0.93;}.cls-59{fill:#515171;opacity:0.95;}.cls-60{fill:#4c4c6e;opacity:0.98;}.cls-61{fill:#48486a;}.cls-62{fill:url(#linear-gradient-8);}.cls-63{fill:url(#linear-gradient-9);}.cls-64{fill:url(#linear-gradient-10);}.cls-65{fill:#becaf7;}.cls-66{fill:#f9b888;}.cls-67{fill:#f5f7f9;}.cls-68{fill:url(#linear-gradient-11);}.cls-69{fill:#4085e2;}.cls-70{fill:url(#linear-gradient-12);}.cls-73{fill:#edf0f8;}.cls-74{opacity:0.59;mix-blend-mode:multiply;fill:url(#radial-gradient);}.cls-75{fill:url(#linear-gradient-13);}.cls-76{fill:url(#linear-gradient-14);}.cls-77{fill:url(#linear-gradient-15);}.cls-79{fill:#fbfbfc;opacity:0.02;}.cls-80{fill:#f8f8f9;opacity:0.04;}.cls-81{fill:#f4f4f6;opacity:0.06;}.cls-82{fill:#f1f1f3;opacity:0.08;}.cls-83{opacity:0.1;}.cls-84{opacity:0.12;}.cls-85{fill:#e6e6eb;opacity:0.14;}.cls-86{fill:#e2e2e8;opacity:0.16;}.cls-87{fill:#dfdfe5;opacity:0.18;}.cls-88{opacity:0.2;}.cls-89{fill:#d8d8df;opacity:0.22;}.cls-90{fill:#d4d4dc;opacity:0.24;}.cls-91{fill:#d0d0d9;opacity:0.25;}.cls-92{fill:#cdcdd6;opacity:0.27;}.cls-93{opacity:0.29;}.cls-94{fill:#c6c6d0;opacity:0.31;}.cls-95{fill:#c2c2cd;opacity:0.33;}.cls-96{fill:#bebeca;opacity:0.35;}.cls-97{fill:#bbbbc7;opacity:0.37;}.cls-98{fill:#b7b7c5;opacity:0.39;}.cls-99{fill:#b4b4c2;opacity:0.41;}.cls-100{fill:#b0b0bf;opacity:0.43;}.cls-101{fill:#acacbc;opacity:0.45;}.cls-102{fill:#a9a9b9;opacity:0.47;}.cls-103{fill:#a5a5b6;opacity:0.49;}.cls-104{fill:#a2a2b3;opacity:0.51;}.cls-105{fill:#9e9eb0;opacity:0.53;}.cls-106{fill:#9b9bad;opacity:0.55;}.cls-107{fill:#9797aa;opacity:0.57;}.cls-108{fill:#9393a7;opacity:0.59;}.cls-109{fill:#9090a4;opacity:0.61;}.cls-110{fill:#8c8ca2;opacity:0.63;}.cls-111{fill:#89899f;opacity:0.65;}.cls-112{fill:#85859c;opacity:0.67;}.cls-113{fill:#818199;opacity:0.69;}.cls-114{opacity:0.71;}.cls-115{fill:#7a7a93;opacity:0.73;}.cls-116{fill:#777790;opacity:0.75;}.cls-117{fill:#73738d;opacity:0.76;}.cls-118{fill:#6f6f8a;opacity:0.78;}.cls-119{opacity:0.8;}.cls-120{fill:#686884;opacity:0.82;}.cls-121{fill:#656581;opacity:0.84;}.cls-122{fill:#61617e;opacity:0.86;}.cls-123{opacity:0.88;}.cls-124{opacity:0.9;}.cls-125{fill:#565676;opacity:0.92;}.cls-126{fill:#535373;opacity:0.94;}.cls-127{fill:#4f4f70;opacity:0.96;}.cls-128{fill:#4c4c6d;opacity:0.98;}.cls-129{fill:url(#linear-gradient-16);}.cls-130{fill:url(#linear-gradient-17);}.cls-131{fill:#92a6f1;}.cls-132{fill:url(#linear-gradient-18);}.cls-133{fill:#2a78df;}.cls-134{fill:url(#linear-gradient-19);}.cls-135{fill:#a8d9fb;}.cls-136{fill:none;}</style><linearGradient id="linear-gradient" x1="7.02" y1="67.54" x2="71.38" y2="67.54" gradientUnits="userSpaceOnUse"><stop offset="0" stop-color="#1ca2f9"/><stop offset="0.21" stop-color="#1993f1"/><stop offset="0.72" stop-color="#1273e1"/><stop offset="1" stop-color="#1067db"/></linearGradient><linearGradient id="linear-gradient-2" x1="108.27" y1="57.64" x2="130.95" y2="57.64" gradientUnits="userSpaceOnUse"><stop offset="0" stop-color="#1ca2f9"/><stop offset="1" stop-color="#05105d"/></linearGradient><linearGradient id="linear-gradient-3" x1="77.53" y1="49.66" x2="108.07" y2="49.66" xlink:href="#linear-gradient-2"/><linearGradient id="linear-gradient-4" x1="126.23" y1="84.88" x2="199.99" y2="84.88" xlink:href="#linear-gradient"/><linearGradient id="linear-gradient-5" x1="165.57" y1="66.75" x2="190.03" y2="66.75" gradientUnits="userSpaceOnUse"><stop offset="0.09" stop-color="#92a6f1"/><stop offset="0.37" stop-color="#bfcaf7"/><stop offset="0.64" stop-color="#e2e7fb"/><stop offset="0.86" stop-color="#f7f9fe"/><stop offset="1" stop-color="#fff"/></linearGradient><linearGradient id="linear-gradient-6" x1="0.01" y1="111.74" x2="53.5" y2="111.74" xlink:href="#linear-gradient-2"/><linearGradient id="linear-gradient-7" x1="355.01" y1="102.19" x2="239.51" y2="120.95" gradientTransform="matrix(-1, 0, 0, 1, 421.1, 0)" gradientUnits="userSpaceOnUse"><stop offset="0" stop-color="#92a6f1"/><stop offset="1" stop-color="#dce5fb"/></linearGradient><linearGradient id="linear-gradient-8" x1="-2762.04" y1="94.18" x2="-2740.61" y2="94.18" gradientTransform="translate(2866.19)" xlink:href="#linear-gradient-7"/><linearGradient id="linear-gradient-9" x1="-2761.44" y1="95.72" x2="-2742.06" y2="93.14" gradientTransform="translate(2866.19)" gradientUnits="userSpaceOnUse"><stop offset="0.02" stop-color="#1ca2f9"/><stop offset="0.33" stop-color="#1993f1"/><stop offset="0.93" stop-color="#116cde"/><stop offset="1" stop-color="#1067db"/></linearGradient><linearGradient id="linear-gradient-10" x1="-2776.18" y1="107.25" x2="-2741.2" y2="107.25" gradientTransform="translate(2866.19)" xlink:href="#linear-gradient-7"/><linearGradient id="linear-gradient-11" x1="321.54" y1="119.27" x2="346.09" y2="119.27" gradientTransform="matrix(-1, 0, 0, 1, 421.1, 0)" gradientUnits="userSpaceOnUse"><stop offset="0" stop-color="#1067db"/><stop offset="0.17" stop-color="#0f5dcc"/><stop offset="0.49" stop-color="#0b42a5"/><stop offset="0.94" stop-color="#061666"/><stop offset="1" stop-color="#05105d"/></linearGradient><linearGradient id="linear-gradient-12" x1="342.23" y1="101.56" x2="325" y2="110.6" gradientTransform="matrix(-1, 0, 0, 1, 421.1, 0)" gradientUnits="userSpaceOnUse"><stop offset="0" stop-color="#05105d"/><stop offset="0.15" stop-color="#072278"/><stop offset="0.41" stop-color="#0b40a2"/><stop offset="0.65" stop-color="#0e55c1"/><stop offset="0.86" stop-color="#0f62d4"/><stop offset="1" stop-color="#1067db"/></linearGradient><radialGradient id="radial-gradient" cx="-2740.94" cy="8222.98" r="4.47" gradientTransform="translate(2866.19 -4363.39) scale(1 0.55)" gradientUnits="userSpaceOnUse"><stop offset="0.53" stop-color="#1067db"/><stop offset="0.58" stop-color="#3b82e1"/><stop offset="0.64" stop-color="#6ea3e9"/><stop offset="0.7" stop-color="#9bbff0"/><stop offset="0.76" stop-color="#bfd6f5"/><stop offset="0.82" stop-color="#dbe8fa"/><stop offset="0.88" stop-color="#eff5fd"/><stop offset="0.94" stop-color="#fbfcfe"/><stop offset="1" stop-color="#fff"/></radialGradient><linearGradient id="linear-gradient-13" x1="-2743.83" y1="116.12" x2="-2738.05" y2="116.12" xlink:href="#linear-gradient-9"/><linearGradient id="linear-gradient-14" x1="-2743.58" y1="112.53" x2="-2738.3" y2="112.53" xlink:href="#linear-gradient-9"/><linearGradient id="linear-gradient-15" x1="-2743.36" y1="112.91" x2="-2738.53" y2="112.91" gradientTransform="translate(2866.19)" gradientUnits="userSpaceOnUse"><stop offset="0" stop-color="#edbd6a"/><stop offset="1" stop-color="#f7a66a"/></linearGradient><linearGradient id="linear-gradient-16" x1="-2395" y1="122.97" x2="-2367.36" y2="122.97" gradientTransform="translate(2520.05)" xlink:href="#linear-gradient-7"/><linearGradient id="linear-gradient-17" x1="-2391.91" y1="122.37" x2="-2369.63" y2="122.37" gradientTransform="translate(2520.05)" xlink:href="#linear-gradient-9"/><linearGradient id="linear-gradient-18" x1="-2386.43" y1="110.3" x2="-2381.09" y2="110.3" gradientTransform="translate(2520.05)" gradientUnits="userSpaceOnUse"><stop offset="0" stop-color="#05105d"/><stop offset="0.06" stop-color="#061666"/><stop offset="0.5" stop-color="#0b42a5"/><stop offset="0.81" stop-color="#0f5dcc"/><stop offset="0.98" stop-color="#1067db"/></linearGradient><linearGradient id="linear-gradient-19" x1="282.38" y1="106.81" x2="287.23" y2="106.81" gradientTransform="matrix(-1, 0, 0, 1, 421.1, 0)" xlink:href="#linear-gradient-18"/></defs><title>talent-image-03</title><g class="cls-1"><g id="Layer_2" data-name="Layer 2"><g id="Graphics"><g id="bot"><path class="cls-2" d="M33,42.77,69.53,64.24a3.75,3.75,0,0,1,0,6.48L54.18,79.58a8.4,8.4,0,0,1-8.37,0L8.89,58.41a3.75,3.75,0,0,1,0-6.49l15.67-9.17A8.38,8.38,0,0,1,33,42.77Z"/><path class="cls-3" d="M8.89,56.86,45.81,78a8.37,8.37,0,0,0,8.37,0l15.33-8.85A3.73,3.73,0,0,0,71.3,66.7a3.72,3.72,0,0,1-1.79,4L54.18,79.58a8.4,8.4,0,0,1-8.37,0L8.89,58.41a3.73,3.73,0,0,1-1.79-4A3.69,3.69,0,0,0,8.89,56.86Z"/><polygon class="cls-4" points="27.54 45.4 65.04 67.14 62.33 68.71 24.82 46.97 27.54 45.4"/><polygon class="cls-4" points="21.8 48.66 59.31 70.41 56.59 71.97 19.09 50.23 21.8 48.66"/><polygon class="cls-4" points="16.07 51.92 36.18 63.58 33.47 65.14 13.36 53.49 16.07 51.92"/><path class="cls-5" d="M99.1,30.08l30.31,17.83a3.11,3.11,0,0,1,0,5.37L108.27,65.45l-.2-5.75-29-16.64a3.11,3.11,0,0,1,0-5.38l13-7.61A7,7,0,0,1,99.1,30.08Z"/><path class="cls-6" d="M130.86,49.84a3.07,3.07,0,0,1-1.46,1.95L108.27,64v1.5L129.4,53.28A3.1,3.1,0,0,0,130.86,49.84Z"/><path class="cls-7" d="M79.09,41.57a3.06,3.06,0,0,1-1.47-2,3.09,3.09,0,0,0,1.47,3.44l29,16.64V58.21Z"/><polygon class="cls-8" points="94.56 32.27 125.69 50.31 123.44 51.62 92.31 33.57 94.56 32.27"/><polygon class="cls-8" points="89.8 34.97 120.93 53.02 118.68 54.32 87.55 36.27 89.8 34.97"/><polygon class="cls-8" points="85.05 37.68 101.73 47.35 99.48 48.66 82.79 38.98 85.05 37.68"/><path class="cls-9" d="M160.82,58.49l37.29,21.93a3.82,3.82,0,0,1,0,6.61l-15.66,9a8.57,8.57,0,0,1-8.54,0L136.42,74.59l-8.5-.72a.54.54,0,0,1-.23-1l24.5-14.39A8.57,8.57,0,0,1,160.82,58.49Z"/><path class="cls-10" d="M198.09,85.66l-15.66,9a8.57,8.57,0,0,1-8.54,0l-37.47-21.5-8.17-.67-2,1.19,10.19.86,37.47,21.49a8.57,8.57,0,0,0,8.54,0l15.66-9a3.8,3.8,0,0,0,1.84-4A3.82,3.82,0,0,1,198.09,85.66Z"/><polygon class="cls-11" points="155.24 61.18 193.53 83.38 190.75 84.98 152.47 62.78 155.24 61.18"/><polygon class="cls-11" points="149.38 64.51 187.67 86.71 184.9 88.31 146.61 66.11 149.38 64.51"/><polygon class="cls-11" points="143.53 67.84 164.06 79.74 161.29 81.34 140.76 69.44 143.53 67.84"/><ellipse class="cls-12" cx="176.16" cy="69.13" rx="12.74" ry="7.35"/><path class="cls-13" d="M190,65l-1.37-1.49a8.86,8.86,0,0,0-2.2-1.74c-4.77-2.75-12.56-2.75-17.32,0a8.67,8.67,0,0,0-2.2,1.74L165.57,65v1.74h0c0,1.82,1.18,3.64,3.57,5,4.76,2.74,12.55,2.74,17.32,0,2.39-1.39,3.58-3.21,3.57-5h0Z"/><path class="cls-2" d="M169.14,60c4.76-2.75,12.55-2.75,17.32,0s4.76,7.25,0,10-12.56,2.75-17.32,0S164.38,62.73,169.14,60Z"/><path class="cls-5" d="M181.21,68.2h-.32l-7.29-.65-.26-5a1.82,1.82,0,0,1,.94-1.61,4.73,4.73,0,0,1,5,.42,2.52,2.52,0,0,1,1.11,1.87,5,5,0,0,1,2.57.93c1.43,1.09,1.51,2.65.17,3.5A3.77,3.77,0,0,1,181.21,68.2Z"/><path class="cls-2" d="M25.5,90.3l26.18,15.34a3.68,3.68,0,0,1,0,6.36l-15,8.69a8.24,8.24,0,0,1-8.21,0L1.84,105.64a3.67,3.67,0,0,1,0-6.36l15.38-9A8.22,8.22,0,0,1,25.5,90.3Z"/><path class="cls-14" d="M1.84,104.13l26.57,15.05a8.22,8.22,0,0,0,8.21,0l15-8.69a3.6,3.6,0,0,0,1.76-2.42A3.66,3.66,0,0,1,51.66,112l-15,8.69a8.24,8.24,0,0,1-8.21,0L1.84,105.64A3.66,3.66,0,0,1,.08,101.7,3.63,3.63,0,0,0,1.84,104.13Z"/><path class="cls-15" d="M18.46,101.76l-1.06-1.55a.16.16,0,0,0-.11-.07l-2.49-.57c-.12,0-.17-.13-.08-.17l1.85-.84a.07.07,0,0,0,0-.08l-.37-1.6c0-.08.11-.12.22-.07l2.21,1a.22.22,0,0,0,.14,0l2.25-.42c.12,0,.24,0,.22.12l-.48,1.49s0,.06,0,.09l1.76,1.34c.09.06,0,.15-.09.14l-2.5-.12a.12.12,0,0,0-.11,0l-1.17,1.25A.2.2,0,0,1,18.46,101.76Z"/><path class="cls-15" d="M27.18,106.8l-1.07-1.55a.18.18,0,0,0-.11-.07l-2.49-.57c-.12,0-.16-.13-.07-.17l1.84-.84a.07.07,0,0,0,0-.08l-.37-1.6c0-.07.11-.11.22-.06l2.2,1a.23.23,0,0,0,.14,0l2.26-.42c.11,0,.24.05.21.13l-.48,1.48s0,.06,0,.09l1.77,1.34c.08.06,0,.15-.09.14l-2.5-.11a.14.14,0,0,0-.12,0l-1.16,1.25A.2.2,0,0,1,27.18,106.8Z"/><path class="cls-15" d="M35.89,111.85l-1.06-1.56a.2.2,0,0,0-.12-.07l-2.48-.56c-.12,0-.17-.13-.08-.17l1.85-.85a.06.06,0,0,0,0-.07l-.37-1.6c0-.08.11-.12.22-.07l2.21,1a.22.22,0,0,0,.14,0l2.25-.42c.11,0,.24.06.22.13l-.48,1.48s0,.06,0,.09L40,110.57c.09.07,0,.15-.09.15l-2.5-.12a.16.16,0,0,0-.11,0l-1.17,1.25A.21.21,0,0,1,35.89,111.85Z"/><path class="cls-16" d="M62.21,159.68,81,170.87l25.34-14.21,20.13,11.26a2.08,2.08,0,0,0,2.09,0l22.11-13.56a2.07,2.07,0,0,0,0-3.54l-60-34.09L64.82,134.25l19.85,10.09-22.45,13A1.34,1.34,0,0,0,62.21,159.68Z"/><path class="cls-5" d="M97.86,141.52v3.4A2.35,2.35,0,0,0,99,147l.46.34a6.62,6.62,0,0,0,6.48.09l6-3.25a1,1,0,0,0,0-1.79h0c-1.14-.65-2.5-1.64-3.73-1.48a14.12,14.12,0,0,1-1.72.18l-2.78.38Z"/><path class="cls-2" d="M112,143.36l-6,3.25a6.62,6.62,0,0,1-6.48-.09l-.46-.34a2.35,2.35,0,0,1-1.17-2v.78A2.35,2.35,0,0,0,99,147l.46.34a6.62,6.62,0,0,0,6.48.09l6-3.25a1,1,0,0,0,.45-1.29A1,1,0,0,1,112,143.36Z"/><path class="cls-17" d="M100.83,145.75a3.51,3.51,0,0,1-3.5-3.3l-1.07-17.57-9.64,5.76a3.51,3.51,0,0,1-3.6-6l10.65-6.36a6.31,6.31,0,0,1,9.53,5L104.34,142a3.51,3.51,0,0,1-3.29,3.72Z"/><path class="cls-5" d="M108.61,149.65V153a2.37,2.37,0,0,0,1.18,2.05l.46.33a6.62,6.62,0,0,0,6.47.1l6-3.26a1,1,0,0,0,0-1.79h0c-1.14-.65-2.49-1.64-3.72-1.48a14.5,14.5,0,0,1-1.73.18l-2.78.38Z"/><path class="cls-2" d="M122.72,151.48l-6,3.26a6.6,6.6,0,0,1-6.47-.1l-.46-.33a2.37,2.37,0,0,1-1.18-2V153a2.37,2.37,0,0,0,1.18,2.05l.46.33a6.62,6.62,0,0,0,6.47.1l6-3.26a1,1,0,0,0,.45-1.29A1,1,0,0,1,122.72,151.48Z"/><path class="cls-18" d="M93.24,133.57a4,4,0,0,0,.41-.21l6.38-3.81-.48-6.14-6.61,3.36Z"/><path class="cls-17" d="M111.59,153.87a3.53,3.53,0,0,1-3.51-3.3L107,133l-9.63,5.76a3.51,3.51,0,1,1-3.6-6l10.65-6.36a6.3,6.3,0,0,1,9.52,5l1.15,18.77a3.52,3.52,0,0,1-3.3,3.72Z"/><path class="cls-17" d="M121.33,170.7h-.14a1.19,1.19,0,0,1-1-1.33l4.38-41c.08-.65,1.07-1.12,1.73-1s1.52.68,1.45,1.33l-5.19,40.95A1.2,1.2,0,0,1,121.33,170.7Z"/><path class="cls-17" d="M65.17,138.55H65A1.19,1.19,0,0,1,64,137.22l4.39-40.95c.08-.66,1.07-1.13,1.72-1s1.53.67,1.45,1.32l-5.18,41A1.2,1.2,0,0,1,65.17,138.55Z"/><path class="cls-17" d="M160.43,148.24a1.18,1.18,0,0,1-1.18-1.05l-4-31.09c-.07-.65.8-1.25,1.45-1.33s1.65.4,1.73,1l3.23,31.09a1.19,1.19,0,0,1-1.05,1.33Z"/><path class="cls-18" d="M126.25,127.36c-.66-.07-1.65.4-1.73,1l-1.17,11,2.79,1.62,1.56-12.34C127.77,128,126.91,127.44,126.25,127.36Z"/><path class="cls-18" d="M67.19,107.39,70,109l1.57-12.39a1.13,1.13,0,0,0-.62-1L68.3,97Z"/><path class="cls-18" d="M158.39,115.82c-.08-.65-1.07-1.12-1.73-1s-1.52.68-1.45,1.33l1.56,12,2.73-1.57Z"/><path class="cls-19" d="M96.1,81a3.81,3.81,0,0,1,3.45,0l66.06,36.44v2a1.78,1.78,0,0,1-.9,1.55l-31.82,18.23a3.81,3.81,0,0,1-3.45,0l-65.2-37.67a1.72,1.72,0,0,1-.86-1.5l0-1.92Z"/><path class="cls-2" d="M96.1,78.77a3.81,3.81,0,0,1,3.45,0l65.35,37.71a1.06,1.06,0,0,1,0,2l-32,18.48a3.84,3.84,0,0,1-3.45,0L64.09,99.24a1.05,1.05,0,0,1,0-2Z"/><path class="cls-20" d="M102.93,97.73l-13.48,7.7a.44.44,0,0,0,0,.76l21,12.12a1.73,1.73,0,0,0,1.73,0l13.48-7.7a.44.44,0,0,0,0-.76l-21-12.12A1.73,1.73,0,0,0,102.93,97.73Z"/><path class="cls-21" d="M102.94,97.74,89.5,105.42a.44.44,0,0,0,0,.76l20.93,12.08a1.73,1.73,0,0,0,1.73,0l13.44-7.68a.44.44,0,0,0,0-.76L104.67,97.74A1.73,1.73,0,0,0,102.94,97.74Z"/><path class="cls-22" d="M103,97.75l-13.4,7.66a.43.43,0,0,0,0,.75l20.86,12a1.71,1.71,0,0,0,1.72,0l13.4-7.66a.43.43,0,0,0,0-.75l-20.86-12A1.73,1.73,0,0,0,103,97.75Z"/><path class="cls-23" d="M103,97.76,89.61,105.4a.43.43,0,0,0,0,.75l20.8,12a1.71,1.71,0,0,0,1.72,0l13.36-7.63a.43.43,0,0,0,0-.75l-20.8-12A1.73,1.73,0,0,0,103,97.76Z"/><path class="cls-24" d="M103,97.78l-13.32,7.61a.43.43,0,0,0,0,.75l20.73,12a1.71,1.71,0,0,0,1.71,0l13.32-7.61a.43.43,0,0,0,0-.75l-20.73-12A1.69,1.69,0,0,0,103,97.78Z"/><path class="cls-25" d="M103,97.79l-13.27,7.59a.43.43,0,0,0,0,.74l20.67,11.94a1.74,1.74,0,0,0,1.71,0l13.28-7.59a.43.43,0,0,0,0-.74L104.71,97.79A1.74,1.74,0,0,0,103,97.79Z"/><path class="cls-26" d="M103,97.8l-13.23,7.57a.42.42,0,0,0,0,.74l20.6,11.9a1.74,1.74,0,0,0,1.71,0l13.23-7.56a.43.43,0,0,0,0-.75l-20.6-11.9A1.74,1.74,0,0,0,103,97.8Z"/><path class="cls-27" d="M103,97.81l-13.19,7.55a.43.43,0,0,0,0,.74L110.38,118a1.7,1.7,0,0,0,1.69,0l13.2-7.54a.43.43,0,0,0,0-.74L104.72,97.82A1.68,1.68,0,0,0,103,97.81Z"/><path class="cls-28" d="M103,97.83l-13.15,7.51a.43.43,0,0,0,0,.75l20.48,11.82a1.7,1.7,0,0,0,1.69,0l13.15-7.52a.42.42,0,0,0,0-.74L104.73,97.83A1.7,1.7,0,0,0,103,97.83Z"/><path class="cls-29" d="M103.06,97.84,90,105.33a.43.43,0,0,0,0,.74l20.42,11.79a1.68,1.68,0,0,0,1.68,0l13.12-7.49a.43.43,0,0,0,0-.74L104.74,97.84A1.68,1.68,0,0,0,103.06,97.84Z"/><path class="cls-30" d="M103.07,97.85,90,105.32a.43.43,0,0,0,0,.74l20.35,11.75a1.68,1.68,0,0,0,1.68,0l13.07-7.47a.43.43,0,0,0,0-.74L104.75,97.85A1.71,1.71,0,0,0,103.07,97.85Z"/><path class="cls-31" d="M103.09,97.86l-13,7.45a.43.43,0,0,0,0,.74l20.29,11.71a1.68,1.68,0,0,0,1.68,0l13-7.45a.42.42,0,0,0,0-.73L104.76,97.87A1.69,1.69,0,0,0,103.09,97.86Z"/><path class="cls-32" d="M103.1,97.88l-13,7.42a.42.42,0,0,0,0,.73l20.22,11.68a1.66,1.66,0,0,0,1.67,0l13-7.42a.42.42,0,0,0,0-.73L104.77,97.88A1.66,1.66,0,0,0,103.1,97.88Z"/><path class="cls-33" d="M103.11,97.89l-12.94,7.4a.42.42,0,0,0,0,.73l20.16,11.64a1.69,1.69,0,0,0,1.67,0l12.94-7.4a.42.42,0,0,0,0-.73L104.78,97.89A1.69,1.69,0,0,0,103.11,97.89Z"/><path class="cls-34" d="M103.13,97.9l-12.91,7.38a.42.42,0,0,0,0,.73l20.09,11.6a1.67,1.67,0,0,0,1.66,0l12.91-7.38a.41.41,0,0,0,0-.72L104.79,97.9A1.69,1.69,0,0,0,103.13,97.9Z"/><path class="cls-35" d="M103.14,97.91l-12.86,7.36a.42.42,0,0,0,0,.72l20,11.57a1.67,1.67,0,0,0,1.65,0l12.86-7.35a.42.42,0,0,0,0-.73l-20-11.56A1.67,1.67,0,0,0,103.14,97.91Z"/><path class="cls-36" d="M103.16,97.93l-12.83,7.33a.41.41,0,0,0,0,.72l20,11.53a1.67,1.67,0,0,0,1.65,0l12.82-7.33a.41.41,0,0,0,0-.72l-20-11.53A1.63,1.63,0,0,0,103.16,97.93Z"/><path class="cls-37" d="M103.17,97.94l-12.78,7.31a.42.42,0,0,0,0,.72l19.91,11.49a1.65,1.65,0,0,0,1.64,0l12.78-7.31a.42.42,0,0,0,0-.72L104.81,97.94A1.65,1.65,0,0,0,103.17,97.94Z"/><path class="cls-38" d="M103.18,98l-12.74,7.29a.41.41,0,0,0,0,.71l19.84,11.46a1.65,1.65,0,0,0,1.64,0l12.74-7.28a.41.41,0,0,0,0-.72L104.82,98A1.65,1.65,0,0,0,103.18,98Z"/><path class="cls-39" d="M103.2,98l-12.7,7.26a.42.42,0,0,0,0,.72l19.78,11.42a1.64,1.64,0,0,0,1.63,0l12.7-7.26a.42.42,0,0,0,0-.72L104.83,98A1.64,1.64,0,0,0,103.2,98Z"/><path class="cls-40" d="M103.21,98l-12.66,7.23a.42.42,0,0,0,0,.72l19.71,11.38a1.64,1.64,0,0,0,1.63,0l12.66-7.24a.41.41,0,0,0,0-.71L104.84,98A1.64,1.64,0,0,0,103.21,98Z"/><path class="cls-41" d="M103.23,98,90.61,105.2a.41.41,0,0,0,0,.71l19.65,11.35a1.62,1.62,0,0,0,1.62,0l12.62-7.21a.41.41,0,0,0,0-.71L104.85,98A1.62,1.62,0,0,0,103.23,98Z"/><path class="cls-42" d="M103.24,98l-12.58,7.19a.41.41,0,0,0,0,.71l19.58,11.31a1.62,1.62,0,0,0,1.62,0L124.44,110a.41.41,0,0,0,0-.71L104.86,98A1.64,1.64,0,0,0,103.24,98Z"/><path class="cls-43" d="M103.25,98l-12.53,7.17a.41.41,0,0,0,0,.71l19.53,11.27a1.62,1.62,0,0,0,1.61,0L124.38,110a.4.4,0,0,0,0-.7L104.87,98A1.64,1.64,0,0,0,103.25,98Z"/><path class="cls-44" d="M103.27,98l-12.5,7.14a.4.4,0,0,0,0,.7l19.46,11.24a1.63,1.63,0,0,0,1.6,0l12.5-7.14a.41.41,0,0,0,0-.71L104.87,98A1.58,1.58,0,0,0,103.27,98Z"/><path class="cls-45" d="M103.28,98l-12.45,7.12a.4.4,0,0,0,0,.7l19.4,11.2a1.63,1.63,0,0,0,1.6,0l12.45-7.12a.4.4,0,0,0,0-.7L104.88,98A1.63,1.63,0,0,0,103.28,98Z"/><path class="cls-46" d="M103.3,98.05l-12.42,7.1a.4.4,0,0,0,0,.7L110.21,117a1.61,1.61,0,0,0,1.59,0l12.42-7.1a.4.4,0,0,0,0-.7L104.89,98.05A1.61,1.61,0,0,0,103.3,98.05Z"/><path class="cls-47" d="M103.31,98.06l-12.37,7.08a.4.4,0,0,0,0,.69L110.2,117a1.61,1.61,0,0,0,1.59,0l12.37-7.07a.41.41,0,0,0,0-.7L104.9,98.07A1.59,1.59,0,0,0,103.31,98.06Z"/><path class="cls-48" d="M103.32,98.08l-12.33,7a.4.4,0,0,0,0,.69l19.2,11.09a1.61,1.61,0,0,0,1.59,0l12.33-7a.4.4,0,0,0,0-.69l-19.2-11.09A1.61,1.61,0,0,0,103.32,98.08Z"/><path class="cls-49" d="M103.34,98.09l-12.29,7a.4.4,0,0,0,0,.69l19.13,11a1.59,1.59,0,0,0,1.58,0l12.29-7a.4.4,0,0,0,0-.69l-19.14-11A1.59,1.59,0,0,0,103.34,98.09Z"/><path class="cls-50" d="M103.35,98.1l-12.25,7a.4.4,0,0,0,0,.69l19.07,11a1.59,1.59,0,0,0,1.58,0l12.25-7a.4.4,0,0,0,0-.69l-19.07-11A1.59,1.59,0,0,0,103.35,98.1Z"/><path class="cls-51" d="M103.37,98.11l-12.21,7a.4.4,0,0,0,0,.69l19,11a1.57,1.57,0,0,0,1.57,0l12.21-7a.4.4,0,0,0,0-.69l-19-11A1.6,1.6,0,0,0,103.37,98.11Z"/><path class="cls-52" d="M103.38,98.13l-12.17,7a.4.4,0,0,0,0,.69l19,10.94a1.58,1.58,0,0,0,1.56,0l12.17-7a.39.39,0,0,0,0-.68l-19-10.94A1.55,1.55,0,0,0,103.38,98.13Z"/><path class="cls-53" d="M103.39,98.14l-12.12,6.93a.39.39,0,0,0,0,.68l18.88,10.91a1.6,1.6,0,0,0,1.56,0l12.12-6.93a.4.4,0,0,0,0-.69L105,98.14A1.55,1.55,0,0,0,103.39,98.14Z"/><path class="cls-54" d="M103.41,98.15l-12.09,6.91a.39.39,0,0,0,0,.68l18.82,10.87a1.58,1.58,0,0,0,1.55,0l12.09-6.91a.39.39,0,0,0,0-.68L105,98.15A1.58,1.58,0,0,0,103.41,98.15Z"/><path class="cls-55" d="M103.42,98.16l-12,6.89a.39.39,0,0,0,0,.68l18.75,10.83a1.58,1.58,0,0,0,1.55,0l12-6.89a.39.39,0,0,0,0-.68L105,98.17A1.56,1.56,0,0,0,103.42,98.16Z"/><path class="cls-56" d="M103.44,98.18l-12,6.86a.39.39,0,0,0,0,.67l18.69,10.8a1.57,1.57,0,0,0,1.54,0l12-6.86a.39.39,0,0,0,0-.68L105,98.18A1.52,1.52,0,0,0,103.44,98.18Z"/><path class="cls-57" d="M103.45,98.19l-12,6.84a.39.39,0,0,0,0,.67l18.62,10.75a1.54,1.54,0,0,0,1.54,0l12-6.84a.39.39,0,0,0,0-.67L105,98.19A1.57,1.57,0,0,0,103.45,98.19Z"/><path class="cls-58" d="M103.46,98.2,91.54,105a.39.39,0,0,0,0,.67L110.1,116.4a1.54,1.54,0,0,0,1.54,0l11.92-6.82a.39.39,0,0,0,0-.67L105,98.2A1.57,1.57,0,0,0,103.46,98.2Z"/><path class="cls-59" d="M103.48,98.21,91.6,105a.38.38,0,0,0,0,.66l18.49,10.68a1.52,1.52,0,0,0,1.53,0l11.88-6.79a.39.39,0,0,0,0-.67L105,98.22A1.52,1.52,0,0,0,103.48,98.21Z"/><path class="cls-60" d="M103.49,98.23,91.65,105a.39.39,0,0,0,0,.67l18.44,10.64a1.5,1.5,0,0,0,1.52,0l11.84-6.77a.39.39,0,0,0,0-.67L105,98.23A1.53,1.53,0,0,0,103.49,98.23Z"/><path class="cls-61" d="M103.51,98.24,91.71,105a.39.39,0,0,0,0,.67l18.37,10.6a1.49,1.49,0,0,0,1.51,0l11.8-6.75a.38.38,0,0,0,0-.66L105,98.24A1.51,1.51,0,0,0,103.51,98.24Z"/><path class="cls-62" d="M125.13,91.82,104.77,80.06a.41.41,0,0,0-.62.36V95.76a.9.9,0,0,0,.45.78L125,108.29a.41.41,0,0,0,.62-.35V92.59A.9.9,0,0,0,125.13,91.82Z"/><path class="cls-17" d="M124.86,92,104.5,80.24a.41.41,0,0,0-.61.35V95.94a.89.89,0,0,0,.44.77l20.36,11.76a.41.41,0,0,0,.62-.36V92.77A.9.9,0,0,0,124.86,92Z"/><polygon class="cls-63" points="124.11 92.96 104.95 81.83 104.95 95.87 124.11 107 124.11 92.96"/><path class="cls-64" d="M103.06,97.45l-13,6.88s-.07,1,.21,1.18l20,11.53a1.65,1.65,0,0,0,1.65,0l12.83-7.34c.53-.33.21-1.18.21-1.18L104.71,97.46A1.65,1.65,0,0,0,103.06,97.45Z"/><path class="cls-2" d="M103.06,96.66,90.23,104a.41.41,0,0,0,0,.72l20,11.53a1.65,1.65,0,0,0,1.65,0l12.83-7.34a.41.41,0,0,0,0-.72l-20-11.53A1.65,1.65,0,0,0,103.06,96.66Z"/><path class="cls-65" d="M101.92,106.16l-3.38,1.93a.11.11,0,0,0,0,.19l5.27,3a.44.44,0,0,0,.43,0l3.38-1.94a.11.11,0,0,0,0-.19l-5.26-3A.43.43,0,0,0,101.92,106.16Z"/><path class="cls-65" d="M104.47,97.78l1.11.64a.08.08,0,0,1,0,.12l-.55.31a.12.12,0,0,1-.14,0l-1.11-.64a.07.07,0,0,1,0-.11l.55-.32A.17.17,0,0,1,104.47,97.78Z"/><path class="cls-65" d="M106.09,98.75l1.11.64a.07.07,0,0,1,0,.11l-.55.32a.17.17,0,0,1-.14,0l-1.11-.64a.08.08,0,0,1,0-.12l.55-.31A.12.12,0,0,1,106.09,98.75Z"/><path class="cls-65" d="M107.72,99.66l1.11.64a.08.08,0,0,1,0,.12l-.55.31a.14.14,0,0,1-.15,0l-1.1-.64a.06.06,0,0,1,0-.11l.55-.32A.17.17,0,0,1,107.72,99.66Z"/><path class="cls-65" d="M109.39,100.61l1.11.63a.07.07,0,0,1,0,.12l-.55.31a.12.12,0,0,1-.14,0L108.7,101a.07.07,0,0,1,0-.12l.55-.31A.12.12,0,0,1,109.39,100.61Z"/><path class="cls-65" d="M111,101.5l1.11.64a.07.07,0,0,1,0,.12l-.55.31a.12.12,0,0,1-.14,0l-1.11-.64a.07.07,0,0,1,0-.11l.55-.32A.17.17,0,0,1,111,101.5Z"/><path class="cls-65" d="M112.57,102.47l1.1.64a.06.06,0,0,1,0,.11l-.55.32a.17.17,0,0,1-.14,0l-1.1-.64a.07.07,0,0,1,0-.12l.55-.31A.12.12,0,0,1,112.57,102.47Z"/><path class="cls-65" d="M114.2,103.37l1.11.64a.07.07,0,0,1,0,.11l-.55.32a.17.17,0,0,1-.14,0l-1.11-.64a.07.07,0,0,1,0-.11l.55-.32A.17.17,0,0,1,114.2,103.37Z"/><path class="cls-65" d="M115.82,104.33l1.1.64a.06.06,0,0,1,0,.11l-.55.32a.17.17,0,0,1-.14,0l-1.1-.64a.06.06,0,0,1,0-.11l.55-.32A.17.17,0,0,1,115.82,104.33Z"/><path class="cls-65" d="M117.4,105.27l1.11.64a.07.07,0,0,1,0,.11l-.55.32a.17.17,0,0,1-.14,0l-1.11-.64a.07.07,0,0,1,0-.12l.55-.31A.12.12,0,0,1,117.4,105.27Z"/><path class="cls-65" d="M119.08,106.23l1.1.64a.06.06,0,0,1,0,.11l-.55.32a.17.17,0,0,1-.14,0l-1.1-.64a.06.06,0,0,1,0-.11l.54-.32A.19.19,0,0,1,119.08,106.23Z"/><path class="cls-65" d="M120.7,107.14l1.11.64a.07.07,0,0,1,0,.11l-.55.32a.14.14,0,0,1-.15,0l-1.1-.64a.07.07,0,0,1,0-.11l.55-.32A.17.17,0,0,1,120.7,107.14Z"/><path class="cls-65" d="M102.23,99l.74-.44a.31.31,0,0,1,.32,0L104,99a.16.16,0,0,1,0,.27l-.72.44a.31.31,0,0,1-.32,0l-.75-.43A.15.15,0,0,1,102.23,99Z"/><path class="cls-65" d="M103.9,100l.75-.44a.36.36,0,0,1,.32,0l.73.42a.16.16,0,0,1,0,.27l-.73.45a.31.31,0,0,1-.32,0l-.75-.43A.16.16,0,0,1,103.9,100Z"/><path class="cls-65" d="M105.53,100.87l.75-.44a.29.29,0,0,1,.31,0l.74.42a.16.16,0,0,1,0,.27l-.73.44a.33.33,0,0,1-.32,0l-.75-.44A.15.15,0,0,1,105.53,100.87Z"/><path class="cls-65" d="M107.26,101.81l.75-.44a.31.31,0,0,1,.32,0l.73.42a.16.16,0,0,1,0,.27l-.73.45a.31.31,0,0,1-.32,0l-.75-.43A.16.16,0,0,1,107.26,101.81Z"/><path class="cls-65" d="M108.79,102.71l.75-.44a.29.29,0,0,1,.31,0l.73.42a.16.16,0,0,1,0,.27l-.73.44a.33.33,0,0,1-.32,0l-.75-.43A.16.16,0,0,1,108.79,102.71Z"/><path class="cls-65" d="M110.34,103.67l.75-.44a.29.29,0,0,1,.31,0l.73.42a.16.16,0,0,1,0,.27l-.73.44a.33.33,0,0,1-.32,0l-.75-.44A.15.15,0,0,1,110.34,103.67Z"/><path class="cls-65" d="M112,104.57l.74-.44a.36.36,0,0,1,.32,0l.73.43a.15.15,0,0,1,0,.26l-.72.45a.31.31,0,0,1-.32,0l-.75-.43A.15.15,0,0,1,112,104.57Z"/><path class="cls-65" d="M113.62,105.49l.75-.44a.34.34,0,0,1,.31,0l.73.43a.15.15,0,0,1,0,.26l-.73.45a.31.31,0,0,1-.32,0l-.75-.43A.15.15,0,0,1,113.62,105.49Z"/><path class="cls-65" d="M115.21,106.47,116,106a.29.29,0,0,1,.31,0l.74.42a.16.16,0,0,1,0,.27l-.73.45a.31.31,0,0,1-.32,0l-.75-.43A.16.16,0,0,1,115.21,106.47Z"/><path class="cls-65" d="M117,107.49l.75-.44a.34.34,0,0,1,.31,0l.73.43a.15.15,0,0,1,0,.26l-.73.45a.31.31,0,0,1-.32,0l-.75-.43A.15.15,0,0,1,117,107.49Z"/><path class="cls-65" d="M118.52,108.34l.75-.43a.29.29,0,0,1,.31,0l.73.42a.16.16,0,0,1,0,.27l-.73.44a.33.33,0,0,1-.32,0l-.75-.44A.16.16,0,0,1,118.52,108.34Z"/><path class="cls-65" d="M100.56,99.89l.75-.43a.29.29,0,0,1,.31,0l.73.42a.15.15,0,0,1,0,.26l-.73.45a.33.33,0,0,1-.32,0l-.75-.44A.15.15,0,0,1,100.56,99.89Z"/><path class="cls-65" d="M102.23,100.86l.75-.44a.31.31,0,0,1,.32,0l.73.42a.16.16,0,0,1,0,.27l-.72.45a.31.31,0,0,1-.32,0l-.75-.43A.16.16,0,0,1,102.23,100.86Z"/><path class="cls-65" d="M103.86,101.77l.75-.44a.36.36,0,0,1,.32,0l.73.43a.15.15,0,0,1,0,.26l-.73.45a.31.31,0,0,1-.32,0l-.75-.43A.16.16,0,0,1,103.86,101.77Z"/><path class="cls-65" d="M105.59,102.72l.75-.44a.31.31,0,0,1,.32,0l.73.42a.16.16,0,0,1,0,.27l-.72.44a.31.31,0,0,1-.32,0l-.76-.43A.16.16,0,0,1,105.59,102.72Z"/><path class="cls-65" d="M107.12,103.61l.75-.44a.34.34,0,0,1,.31,0l.74.43a.15.15,0,0,1,0,.26l-.73.45a.31.31,0,0,1-.32,0l-.75-.43A.16.16,0,0,1,107.12,103.61Z"/><path class="cls-65" d="M108.67,104.57l.75-.44a.34.34,0,0,1,.31,0l.74.43a.15.15,0,0,1,0,.26l-.73.45a.31.31,0,0,1-.32,0l-.75-.43A.16.16,0,0,1,108.67,104.57Z"/><path class="cls-65" d="M110.33,105.48l.75-.44a.34.34,0,0,1,.31,0l.73.42a.16.16,0,0,1,0,.27l-.73.45a.31.31,0,0,1-.32,0l-.75-.43A.15.15,0,0,1,110.33,105.48Z"/><path class="cls-65" d="M112,106.4l.75-.44a.29.29,0,0,1,.31,0l.73.42a.16.16,0,0,1,0,.27l-.73.45a.31.31,0,0,1-.32,0l-.75-.43A.16.16,0,0,1,112,106.4Z"/><path class="cls-65" d="M113.54,107.38l.75-.44a.31.31,0,0,1,.32,0l.73.42a.16.16,0,0,1,0,.27l-.73.44a.31.31,0,0,1-.32,0l-.75-.43A.16.16,0,0,1,113.54,107.38Z"/><path class="cls-65" d="M115.28,108.4,116,108a.29.29,0,0,1,.31,0l.73.42a.16.16,0,0,1,0,.27l-.73.45a.31.31,0,0,1-.32,0l-.75-.43A.16.16,0,0,1,115.28,108.4Z"/><path class="cls-65" d="M116.85,109.25l.75-.44a.34.34,0,0,1,.31,0l.73.43a.15.15,0,0,1,0,.26l-.73.45a.31.31,0,0,1-.32,0l-.75-.43A.16.16,0,0,1,116.85,109.25Z"/><path class="cls-65" d="M98.89,100.8l.75-.44a.34.34,0,0,1,.31,0l.73.42a.16.16,0,0,1,0,.27l-.73.45a.31.31,0,0,1-.32,0l-.75-.43A.16.16,0,0,1,98.89,100.8Z"/><path class="cls-65" d="M100.57,101.77l.74-.44a.31.31,0,0,1,.32,0l.73.42a.16.16,0,0,1,0,.27l-.72.44a.31.31,0,0,1-.32,0l-.75-.43A.15.15,0,0,1,100.57,101.77Z"/><path class="cls-65" d="M102.19,102.68l.75-.44a.31.31,0,0,1,.32,0l.73.42a.16.16,0,0,1,0,.27l-.73.45a.31.31,0,0,1-.32,0l-.75-.43A.16.16,0,0,1,102.19,102.68Z"/><path class="cls-65" d="M103.93,103.62l.74-.43a.33.33,0,0,1,.32,0l.73.43a.15.15,0,0,1,0,.26l-.72.45a.33.33,0,0,1-.32,0l-.75-.44A.15.15,0,0,1,103.93,103.62Z"/><path class="cls-65" d="M105.45,104.52l.75-.44a.31.31,0,0,1,.32,0l.73.42a.16.16,0,0,1,0,.27l-.73.45a.31.31,0,0,1-.32,0l-.75-.43A.16.16,0,0,1,105.45,104.52Z"/><path class="cls-65" d="M107,105.48l.75-.44a.31.31,0,0,1,.32,0l.73.42a.16.16,0,0,1,0,.27l-.73.45a.31.31,0,0,1-.32,0l-.75-.43A.16.16,0,0,1,107,105.48Z"/><path class="cls-65" d="M108.66,106.39l.75-.44a.29.29,0,0,1,.31,0l.73.42a.16.16,0,0,1,0,.27l-.73.45a.31.31,0,0,1-.32,0l-.75-.43A.16.16,0,0,1,108.66,106.39Z"/><path class="cls-65" d="M110.28,107.31l.75-.44a.29.29,0,0,1,.31,0l.73.42a.16.16,0,0,1,0,.27l-.73.44a.31.31,0,0,1-.32,0l-.75-.43A.16.16,0,0,1,110.28,107.31Z"/><path class="cls-65" d="M111.87,108.28l.75-.43a.31.31,0,0,1,.32,0l.73.42a.16.16,0,0,1,0,.27L113,109a.35.35,0,0,1-.33,0l-.75-.44A.16.16,0,0,1,111.87,108.28Z"/><path class="cls-65" d="M113.61,109.31l.75-.44a.29.29,0,0,1,.31,0l.74.42a.16.16,0,0,1,0,.27l-.73.44a.31.31,0,0,1-.32,0l-.75-.43A.16.16,0,0,1,113.61,109.31Z"/><path class="cls-65" d="M115.18,110.16l.75-.44a.29.29,0,0,1,.31,0l.74.42a.16.16,0,0,1,0,.27l-.73.45a.31.31,0,0,1-.32,0l-.75-.43A.16.16,0,0,1,115.18,110.16Z"/><path class="cls-65" d="M97.22,101.71l.75-.44a.29.29,0,0,1,.31,0l.74.42a.16.16,0,0,1,0,.27l-.73.45a.31.31,0,0,1-.32,0l-.75-.43A.16.16,0,0,1,97.22,101.71Z"/><path class="cls-65" d="M98.9,102.67l.75-.43a.31.31,0,0,1,.31,0l.73.43a.15.15,0,0,1,0,.26l-.73.45a.33.33,0,0,1-.32,0l-.75-.44A.15.15,0,0,1,98.9,102.67Z"/><path class="cls-65" d="M100.52,103.59l.75-.44a.31.31,0,0,1,.32,0l.73.42a.16.16,0,0,1,0,.27l-.72.44a.31.31,0,0,1-.32,0l-.75-.43A.16.16,0,0,1,100.52,103.59Z"/><path class="cls-65" d="M102.26,104.53l.75-.44a.34.34,0,0,1,.31,0l.73.42a.16.16,0,0,1,0,.27l-.73.45a.31.31,0,0,1-.32,0l-.75-.43A.15.15,0,0,1,102.26,104.53Z"/><path class="cls-65" d="M103.93,105.53l.74-.44a.31.31,0,0,1,.32,0l3.81,2.2a.15.15,0,0,1,0,.26l-.73.45a.33.33,0,0,1-.32,0l-3.82-2.21A.15.15,0,0,1,103.93,105.53Z"/><path class="cls-65" d="M108.61,108.21l.75-.43a.29.29,0,0,1,.31,0l.74.42a.16.16,0,0,1,0,.27l-.73.44a.33.33,0,0,1-.32,0l-.75-.44A.16.16,0,0,1,108.61,108.21Z"/><path class="cls-65" d="M110.2,109.19l.75-.44a.36.36,0,0,1,.32,0l.73.43a.15.15,0,0,1,0,.26l-.72.45a.31.31,0,0,1-.32,0l-.75-.43A.16.16,0,0,1,110.2,109.19Z"/><path class="cls-65" d="M111.94,110.22l.75-.44a.31.31,0,0,1,.32,0l.73.42a.16.16,0,0,1,0,.27l-.73.44a.33.33,0,0,1-.32,0l-.75-.44A.15.15,0,0,1,111.94,110.22Z"/><path class="cls-65" d="M113.51,111.07l.75-.44a.31.31,0,0,1,.32,0l.73.42a.16.16,0,0,1,0,.27l-.73.44a.31.31,0,0,1-.32,0l-.75-.43A.16.16,0,0,1,113.51,111.07Z"/><rect class="cls-66" x="109.37" y="107.38" width="1.37" height="4.2" rx="0.39"/><path class="cls-66" d="M88.71,112a2.63,2.63,0,0,1-1.32-4.91l12-6.94a2.63,2.63,0,1,1,2.64,4.56l-12,6.93A2.65,2.65,0,0,1,88.71,112Z"/><path class="cls-67" d="M77.45,124.09,75.82,136.2A4.29,4.29,0,0,0,78,139.91l9.94,5.58a4,4,0,0,0,6-3.45V117.45c0-1.53,3.19-.48,1.86-1.24l-13.94-8C79.14,106.62,77.45,121,77.45,124.09Z"/><path class="cls-68" d="M76.12,104.63l-.64,6a80.86,80.86,0,0,0-.46,8.94v4.62a103.87,103.87,0,0,0,.78,11.71c.18.91,20,6.38,23.75,5.71l-2.29-12.55c0-.92-.13-1.83-.25-2.74l.63-7.32c.43-6.13.4-13.79-5.63-17.54l-.78-.46-6.42-3.5a4.86,4.86,0,0,0-4.89,0h0C77.41,99,76.52,101.68,76.12,104.63Z"/><path class="cls-66" d="M86,102.17A2.17,2.17,0,0,1,83.84,100V91.44a2.18,2.18,0,1,1,4.35,0V100A2.17,2.17,0,0,1,86,102.17Z"/><path class="cls-66" d="M85.14,85.07h9.65a0,0,0,0,1,0,0v9.51a5,5,0,0,1-5,5H85.14a1.09,1.09,0,0,1-1.09-1.09V86.15A1.09,1.09,0,0,1,85.14,85.07Z"/><path class="cls-5" d="M97.23,82.19a2.25,2.25,0,0,0-3-1.22c-.58.3-1,.46-1.55.11-.75-.46-.94-.75-2-.61-.41.06-1,.42-1.34.41-.82,0-1.35-.67-2.31-.38a2.75,2.75,0,0,1-1.6.16,3,3,0,0,0-1.54.14c-1,.39-.91,1.12-1.47,1.79s-1.14.19-1.71.71a1.59,1.59,0,0,0-.35,1.8c.13.28.34.58.23.86s-.3.31-.46.46c-.56.56-.11,1.5.32,2.17a.79.79,0,0,1,.16.43c0,.2-.16.36-.28.53a2,2,0,0,0,.25,2.6c.34.3.81.53.88,1a1.83,1.83,0,0,1-.13.72,2.16,2.16,0,0,0,1.09,2.39c1,.5.08,2.29,1.6,2.43,1.18.11,2.27-1.37,2.53-2.37,0,.15.76-.26.83-.34a2.57,2.57,0,0,0,.36-1A7.43,7.43,0,0,0,88.17,93c0-.25,0-3,.23-3A4.51,4.51,0,0,0,90,89.77c1.16-.46.68-1.21,1.12-2,.21-.4.72-.49,1-.89a2.44,2.44,0,0,0,.13-1.51,5.79,5.79,0,0,0,3.35,0c.82-.35,2-.94,2-1.93A2.76,2.76,0,0,0,97.23,82.19Z"/><path class="cls-69" d="M97.23,82.19a2.34,2.34,0,0,0-2.56-1.39,2.59,2.59,0,0,1,1.64,1.39,2.77,2.77,0,0,1,.28,1.23c0,1-1.18,1.58-2,1.93a3.24,3.24,0,0,1-.94.23,4,4,0,0,0,1.86-.23c.82-.35,2-.94,2-1.93A2.76,2.76,0,0,0,97.23,82.19Z"/><path class="cls-66" d="M90.83,91.26a1.58,1.58,0,1,1-1.58-1.57A1.58,1.58,0,0,1,90.83,91.26Z"/><path class="cls-18" d="M95,118.88a8.29,8.29,0,0,0,2.45,3l.25-2.83c.07-1.09.13-2.22.15-3.37a34.2,34.2,0,0,0-.19-3.5l-3.33-6.75a2.54,2.54,0,0,0-3.57-1.17,3,3,0,0,0-1.07,3.89Z"/><path class="cls-66" d="M102.1,120.53a7.7,7.7,0,0,1-1.35-.12,7.88,7.88,0,0,1-5.34-3.59l-6-9.51a2.64,2.64,0,0,1,4.47-2.8L99.88,114a2.62,2.62,0,0,0,3.84.67l8-6.29a2.63,2.63,0,0,1,3.26,4.14l-8,6.29A7.9,7.9,0,0,1,102.1,120.53Z"/><path class="cls-70" d="M96.06,113.4a4.7,4.7,0,0,0,2.41-2.33l-4.28-6.72a2.94,2.94,0,1,0-5,3.12l3.6,5.76c.56.89,1.11,1.93,1.11,1.93A5.46,5.46,0,0,1,96.06,113.4Z"/><rect class="cls-66" x="99.48" y="103.58" width="1.37" height="4.2" rx="0.39" transform="translate(224.26 29.52) rotate(101.92)"/><path class="cls-17" d="M80.81,170.72h-.12a1.08,1.08,0,0,1-1-1.21l5.06-40.87c.07-.6,1-1,1.56-1s1.39.61,1.32,1.21l-5.79,40.88A1.07,1.07,0,0,1,80.81,170.72Z"/><path class="cls-17" d="M62.11,159.56l-.12,0a1.08,1.08,0,0,1-.64-1.39l10.42-30.34c.21-.56,1.18-.76,1.75-.55s1.2.92,1,1.48L63.38,158.88A1.08,1.08,0,0,1,62.11,159.56Z"/><path class="cls-17" d="M105.45,157.69a1.1,1.1,0,0,1-1.18-.83l-6.14-20.12c-.13-.58.58-1.21,1.17-1.35s1.53.18,1.66.76l5.42,20.21a1.08,1.08,0,0,1-.8,1.3Z"/><g class="cls-71"><path class="cls-72" d="M73.52,127.24c-.57-.21-1.54,0-1.75.55l-4.31,12.53a6.93,6.93,0,0,0,.72.48l1.54.89,4.79-13C74.72,128.16,74.08,127.45,73.52,127.24Z"/><path class="cls-72" d="M84.85,148.88l2.83-20c.07-.6-.72-1.14-1.32-1.21s-1.49.36-1.56,1l-2.44,19.7A17.83,17.83,0,0,0,84.85,148.88Z"/></g><path class="cls-18" d="M101,136.15a1.1,1.1,0,0,0-.78-.69,6.63,6.63,0,0,1-2,.74.8.8,0,0,0-.1.54l2.38,7.8,2.34-1.36Z"/><path class="cls-4" d="M67.91,120,64.7,131.89a7.11,7.11,0,0,0,3.48,7.16l10,5.76a18.87,18.87,0,0,0,18.92,0l10.64-6.2v-4.46a3,3,0,0,0-4.53-2.56l-2.88,2.07c-3.56,2.14-9-2.73-10.34-6.66l-1.49-3.34a13,13,0,0,0-5.28-5.9l-2.78-1.63A8.85,8.85,0,0,0,67.91,120Z"/><path class="cls-73" d="M65.49,133.68l3.22-11.89a8.86,8.86,0,0,1,12.53-3.9L84,119.52a13,13,0,0,1,5.27,5.9L90,127a.14.14,0,0,1,0-.06l-1.49-3.34a13,13,0,0,0-5.28-5.9l-2.78-1.63A8.85,8.85,0,0,0,67.91,120L64.7,131.89a7.11,7.11,0,0,0,1,4.75A7.17,7.17,0,0,1,65.49,133.68Z"/><path class="cls-17" d="M107.73,136.59l-10.64,6.2a18.87,18.87,0,0,1-18.92,0l-10-5.76a7.14,7.14,0,0,1-3.48-5.18h0a7.11,7.11,0,0,0,3.48,7.16l10,5.76a18.87,18.87,0,0,0,18.92,0l10.64-6.2v-2Z"/><path class="cls-74" d="M128.41,120.22c1.74-1,1.74-2.65,0-3.65a7.05,7.05,0,0,0-6.33,0c-1.73,1-1.73,2.64,0,3.65A7.05,7.05,0,0,0,128.41,120.22Z"/><path class="cls-9" d="M122.38,117.74a3.8,3.8,0,0,1-1.69-3.17v-1.12a.87.87,0,0,1,.44-.77.89.89,0,0,1,.89,0l.79.46-.41.72-.79-.46a0,0,0,0,0-.06,0,0,0,0,0,0,0,0v1.12a3,3,0,0,0,1.32,2.48Z"/><path class="cls-75" d="M128.14,112.53h-5.78v5.55h0a1.44,1.44,0,0,0,.84,1.15,4.24,4.24,0,0,0,2,.48h.12a4.2,4.2,0,0,0,2-.48,1.43,1.43,0,0,0,.85-1.2h0Z"/><path class="cls-9" d="M127.29,113.7a1.24,1.24,0,0,0,0-2.35,4.53,4.53,0,0,0-4.09,0,1.24,1.24,0,0,0,0,2.35A4.53,4.53,0,0,0,127.29,113.7Z"/><path class="cls-76" d="M127.12,113.6a1.13,1.13,0,0,0,0-2.15,4.17,4.17,0,0,0-3.74,0,1.13,1.13,0,0,0,0,2.15A4.11,4.11,0,0,0,127.12,113.6Z"/><path class="cls-77" d="M127,113.72c.94-.45.94-1.17,0-1.62a4.57,4.57,0,0,0-3.41,0c-.94.45-.94,1.17,0,1.62A4.57,4.57,0,0,0,127,113.72Z"/><path class="cls-78" d="M127.62,113.11a1.18,1.18,0,0,0-.67-.44,6.37,6.37,0,0,0-3.41,0,1.15,1.15,0,0,0-.67.44,1.23,1.23,0,0,0,.67.61,4.57,4.57,0,0,0,3.41,0A1.27,1.27,0,0,0,127.62,113.11Z"/><path class="cls-20" d="M124.24,124.86a.44.44,0,0,0,0,.83l11,6.35a1.61,1.61,0,0,0,1.45,0l17.21-9.9a.44.44,0,0,0,0-.84l-11-6.38a1.61,1.61,0,0,0-1.45,0Z"/><path class="cls-79" d="M124.31,124.85a.44.44,0,0,0,0,.83L135.23,132a1.61,1.61,0,0,0,1.45,0l17.12-9.85c.4-.23.4-.6,0-.84L142.88,115a1.61,1.61,0,0,0-1.45,0Z"/><path class="cls-80" d="M124.37,124.84a.44.44,0,0,0,0,.83l10.87,6.27a1.57,1.57,0,0,0,1.43,0l17.05-9.8a.44.44,0,0,0,0-.83L142.85,115a1.59,1.59,0,0,0-1.44,0Z"/><path class="cls-81" d="M124.44,124.83a.44.44,0,0,0,0,.83l10.8,6.23a1.57,1.57,0,0,0,1.43,0l17-9.75a.44.44,0,0,0,0-.83L142.83,115a1.57,1.57,0,0,0-1.43,0Z"/><path class="cls-82" d="M124.5,124.82a.43.43,0,0,0,0,.82l10.74,6.21a1.63,1.63,0,0,0,1.43,0l16.87-9.71c.39-.23.4-.6,0-.82l-10.75-6.24a1.55,1.55,0,0,0-1.42,0Z"/><path class="cls-83" d="M124.57,124.81a.43.43,0,0,0,0,.82l10.68,6.17a1.59,1.59,0,0,0,1.41,0l16.8-9.66a.43.43,0,0,0,0-.82l-10.68-6.2a1.55,1.55,0,0,0-1.42,0Z"/><path class="cls-84" d="M124.63,124.81c-.39.22-.39.58,0,.81l10.62,6.13a1.59,1.59,0,0,0,1.41,0l16.71-9.61a.43.43,0,0,0,0-.82l-10.62-6.16a1.51,1.51,0,0,0-1.4,0Z"/><path class="cls-85" d="M124.69,124.8a.42.42,0,0,0,0,.8l10.56,6.1a1.57,1.57,0,0,0,1.4,0l16.63-9.57c.39-.22.39-.58,0-.8l-10.57-6.13a1.49,1.49,0,0,0-1.39,0Z"/><path class="cls-86" d="M124.76,124.79a.42.42,0,0,0,0,.8l10.5,6.06a1.55,1.55,0,0,0,1.39,0l16.55-9.52a.42.42,0,0,0,0-.8l-10.5-6.09a1.52,1.52,0,0,0-1.39,0Z"/><path class="cls-87" d="M124.82,124.78a.42.42,0,0,0,0,.8l10.44,6a1.56,1.56,0,0,0,1.38,0l16.47-9.48a.42.42,0,0,0,0-.8l-10.44-6a1.53,1.53,0,0,0-1.38,0Z"/><path class="cls-88" d="M124.89,124.77a.42.42,0,0,0,0,.8l10.37,6a1.59,1.59,0,0,0,1.38,0L153,122.13a.42.42,0,0,0,0-.79l-10.38-6a1.57,1.57,0,0,0-1.37,0Z"/><path class="cls-89" d="M125,124.77a.41.41,0,0,0,0,.78l10.32,6a1.48,1.48,0,0,0,1.36,0l16.31-9.38a.42.42,0,0,0,0-.79l-10.32-6a1.55,1.55,0,0,0-1.36,0Z"/><path class="cls-90" d="M125,124.76a.41.41,0,0,0,0,.78l10.25,5.92a1.48,1.48,0,0,0,1.36,0l16.22-9.33c.38-.22.38-.57,0-.78l-10.25-6a1.55,1.55,0,0,0-1.36,0Z"/><path class="cls-91" d="M125.08,124.75c-.37.21-.37.56,0,.78l10.19,5.88a1.46,1.46,0,0,0,1.35,0l16.15-9.28a.41.41,0,0,0,0-.78l-10.2-5.92a1.5,1.5,0,0,0-1.34,0Z"/><path class="cls-92" d="M125.15,124.74a.41.41,0,0,0,0,.77l10.13,5.85a1.44,1.44,0,0,0,1.34,0l16.06-9.23c.37-.21.37-.56,0-.78l-10.13-5.88a1.5,1.5,0,0,0-1.34,0Z"/><path class="cls-93" d="M125.21,124.73a.41.41,0,0,0,0,.77l10.07,5.82a1.48,1.48,0,0,0,1.33,0l16-9.19a.41.41,0,0,0,0-.77l-10.07-5.85a1.48,1.48,0,0,0-1.33,0Z"/><path class="cls-94" d="M125.28,124.72a.41.41,0,0,0,0,.77l10,5.78a1.46,1.46,0,0,0,1.32,0l15.9-9.14a.41.41,0,0,0,0-.77l-10-5.81a1.48,1.48,0,0,0-1.33,0Z"/><path class="cls-95" d="M125.34,124.72a.4.4,0,0,0,0,.76l9.95,5.74a1.46,1.46,0,0,0,1.32,0l15.81-9.09a.41.41,0,0,0,0-.77l-9.95-5.77a1.44,1.44,0,0,0-1.31,0Z"/><path class="cls-96" d="M125.41,124.71c-.36.21-.36.55,0,.75l9.88,5.71a1.44,1.44,0,0,0,1.31,0l15.73-9c.36-.2.36-.54,0-.75l-9.88-5.74a1.44,1.44,0,0,0-1.31,0Z"/><path class="cls-97" d="M125.47,124.7a.4.4,0,0,0,0,.75l9.83,5.67a1.42,1.42,0,0,0,1.3,0l15.65-9a.4.4,0,0,0,0-.75l-9.83-5.7a1.42,1.42,0,0,0-1.3,0Z"/><path class="cls-98" d="M125.54,124.69a.4.4,0,0,0,0,.75l9.76,5.64a1.46,1.46,0,0,0,1.29,0l15.57-9a.39.39,0,0,0,0-.74l-9.76-5.67a1.42,1.42,0,0,0-1.3,0Z"/><path class="cls-99" d="M125.6,124.68a.4.4,0,0,0,0,.75l9.7,5.6a1.46,1.46,0,0,0,1.29,0l15.48-8.91a.39.39,0,0,0,0-.74l-9.7-5.63a1.41,1.41,0,0,0-1.28,0Z"/><path class="cls-100" d="M125.66,124.68a.39.39,0,0,0,0,.73l9.65,5.57a1.42,1.42,0,0,0,1.27,0L152,122.12c.35-.2.35-.53,0-.74l-9.65-5.59a1.39,1.39,0,0,0-1.27,0Z"/><path class="cls-101" d="M125.73,124.67a.39.39,0,0,0,0,.73l9.58,5.53a1.42,1.42,0,0,0,1.27,0l15.32-8.81a.39.39,0,0,0,0-.73l-9.58-5.57a1.42,1.42,0,0,0-1.27,0Z"/><path class="cls-102" d="M125.79,124.66a.39.39,0,0,0,0,.73l9.52,5.49a1.4,1.4,0,0,0,1.26,0l15.24-8.76a.39.39,0,0,0,0-.73l-9.53-5.53a1.38,1.38,0,0,0-1.25,0Z"/><path class="cls-103" d="M125.86,124.65c-.35.2-.35.53,0,.72l9.46,5.46a1.41,1.41,0,0,0,1.25,0l15.16-8.72a.39.39,0,0,0,0-.73l-9.46-5.49a1.38,1.38,0,0,0-1.25,0Z"/><path class="cls-104" d="M125.92,124.64a.38.38,0,0,0,0,.72l9.4,5.43a1.42,1.42,0,0,0,1.24,0l15.08-8.67a.38.38,0,0,0,0-.72l-9.4-5.46a1.36,1.36,0,0,0-1.24,0Z"/><path class="cls-105" d="M126,124.63a.38.38,0,0,0,0,.72l9.33,5.39a1.42,1.42,0,0,0,1.24,0l15-8.62c.34-.2.35-.52,0-.72L142.22,116a1.39,1.39,0,0,0-1.24,0Z"/><path class="cls-106" d="M126.05,124.63a.38.38,0,0,0,0,.71l9.28,5.35a1.37,1.37,0,0,0,1.23,0l14.91-8.57c.34-.2.34-.52,0-.71L142.19,116a1.35,1.35,0,0,0-1.22,0Z"/><path class="cls-107" d="M126.12,124.62a.37.37,0,0,0,0,.7l9.21,5.32a1.32,1.32,0,0,0,1.22,0l14.83-8.53a.37.37,0,0,0,0-.7l-9.21-5.35a1.38,1.38,0,0,0-1.22,0Z"/><path class="cls-108" d="M126.18,124.61a.37.37,0,0,0,0,.7l9.15,5.28a1.32,1.32,0,0,0,1.22,0l14.74-8.48c.34-.19.34-.5,0-.7l-9.16-5.31a1.36,1.36,0,0,0-1.21,0Z"/><path class="cls-109" d="M126.25,124.6a.37.37,0,0,0,0,.7l9.09,5.25a1.33,1.33,0,0,0,1.2,0l14.67-8.44a.36.36,0,0,0,0-.69l-9.09-5.28a1.36,1.36,0,0,0-1.21,0Z"/><path class="cls-110" d="M126.31,124.59a.36.36,0,0,0,0,.69l9,5.22a1.33,1.33,0,0,0,1.2,0l14.58-8.39a.36.36,0,0,0,0-.69l-9-5.24a1.31,1.31,0,0,0-1.19,0Z"/><path class="cls-111" d="M126.38,124.59c-.33.18-.33.49,0,.68l9,5.18a1.31,1.31,0,0,0,1.19,0L151,122.11a.37.37,0,0,0,0-.69l-9-5.2a1.31,1.31,0,0,0-1.19,0Z"/><path class="cls-112" d="M126.44,124.58a.36.36,0,0,0,0,.68l8.91,5.14a1.29,1.29,0,0,0,1.18,0L151,122.11a.36.36,0,0,0,0-.68L142,116.26a1.29,1.29,0,0,0-1.18,0Z"/><path class="cls-113" d="M126.51,124.57c-.33.19-.33.49,0,.68l8.84,5.1a1.27,1.27,0,0,0,1.17,0l14.34-8.24c.32-.19.33-.49,0-.68L142,116.3a1.3,1.3,0,0,0-1.17,0Z"/><path class="cls-114" d="M126.57,124.56c-.32.19-.32.49,0,.67l8.79,5.07a1.28,1.28,0,0,0,1.16,0l14.26-8.2c.32-.19.32-.49,0-.67l-8.79-5.1a1.28,1.28,0,0,0-1.16,0Z"/><path class="cls-115" d="M126.63,124.55a.36.36,0,0,0,0,.67l8.73,5a1.29,1.29,0,0,0,1.15,0l14.18-8.15c.32-.19.32-.49,0-.67L142,116.37a1.31,1.31,0,0,0-1.16,0Z"/><path class="cls-116" d="M126.7,124.55a.35.35,0,0,0,0,.66l8.66,5a1.29,1.29,0,0,0,1.15,0l14.09-8.1c.32-.19.32-.48,0-.67l-8.66-5a1.29,1.29,0,0,0-1.15,0Z"/><path class="cls-117" d="M126.76,124.54a.34.34,0,0,0,0,.65l8.61,5a1.25,1.25,0,0,0,1.13,0l14-8.06a.34.34,0,0,0,0-.65l-8.61-5a1.25,1.25,0,0,0-1.13,0Z"/><path class="cls-118" d="M126.83,124.53a.34.34,0,0,0,0,.65l8.54,4.93a1.25,1.25,0,0,0,1.13,0l13.93-8a.34.34,0,0,0,0-.65l-8.54-5a1.25,1.25,0,0,0-1.13,0Z"/><path class="cls-119" d="M126.89,124.52a.34.34,0,0,0,0,.65l8.48,4.89a1.28,1.28,0,0,0,1.13,0l13.84-8a.34.34,0,0,0,0-.65l-8.48-4.92a1.23,1.23,0,0,0-1.12,0Z"/><path class="cls-120" d="M127,124.51a.34.34,0,0,0,0,.65l8.42,4.86a1.27,1.27,0,0,0,1.11,0l13.77-7.92a.34.34,0,0,0,0-.64l-8.42-4.89a1.21,1.21,0,0,0-1.11,0Z"/><path class="cls-121" d="M127,124.5a.34.34,0,0,0,0,.64l8.36,4.83a1.27,1.27,0,0,0,1.11,0l13.68-7.87a.34.34,0,0,0,0-.64l-8.36-4.85a1.19,1.19,0,0,0-1.1,0Z"/><path class="cls-122" d="M127.09,124.5a.33.33,0,0,0,0,.63l8.29,4.79a1.25,1.25,0,0,0,1.1,0l13.6-7.82a.33.33,0,0,0,0-.63l-8.3-4.82a1.19,1.19,0,0,0-1.1,0Z"/><path class="cls-123" d="M127.15,124.49c-.3.17-.3.45,0,.63l8.24,4.75a1.2,1.2,0,0,0,1.09,0L150,122.1a.33.33,0,0,0,0-.63l-8.24-4.78a1.17,1.17,0,0,0-1.09,0Z"/><path class="cls-124" d="M127.22,124.48a.33.33,0,0,0,0,.62l8.17,4.72a1.15,1.15,0,0,0,1.08,0l13.44-7.72c.3-.17.3-.45,0-.63l-8.17-4.74a1.18,1.18,0,0,0-1.08,0Z"/><path class="cls-125" d="M127.28,124.47a.33.33,0,0,0,0,.62l8.11,4.69a1.21,1.21,0,0,0,1.08,0l13.35-7.68a.33.33,0,0,0,0-.62l-8.12-4.71a1.19,1.19,0,0,0-1.07,0Z"/><path class="cls-126" d="M127.35,124.46a.33.33,0,0,0,0,.62l8.05,4.65a1.17,1.17,0,0,0,1.06,0l13.28-7.63a.33.33,0,0,0,0-.62l-8.05-4.67a1.19,1.19,0,0,0-1.07,0Z"/><path class="cls-127" d="M127.41,124.46a.32.32,0,0,0,0,.61l8,4.61a1.17,1.17,0,0,0,1.06,0l13.19-7.58a.33.33,0,0,0,0-.62l-8-4.63a1.2,1.2,0,0,0-1.06,0Z"/><path class="cls-128" d="M127.48,124.45a.32.32,0,0,0,0,.6l7.92,4.58a1.14,1.14,0,0,0,1,0l13.12-7.54a.32.32,0,0,0,0-.6l-7.93-4.61a1.21,1.21,0,0,0-1,0Z"/><path class="cls-61" d="M127.54,124.44c-.29.16-.29.43,0,.6l7.87,4.54a1.12,1.12,0,0,0,1,0l13-7.49c.29-.16.29-.43,0-.6l-7.87-4.57a1.19,1.19,0,0,0-1,0Z"/><path class="cls-129" d="M125.06,124.22v.34a.5.5,0,0,0,.25.44l10.07,5.8a1.48,1.48,0,0,0,1.33,0l15.66-9a.65.65,0,0,0,.32-.57v-.13l-10.3-5.94a1.48,1.48,0,0,0-1.33,0Z"/><path class="cls-11" d="M125.33,123.85a.41.41,0,0,0,0,.77l10,5.8a1.48,1.48,0,0,0,1.33,0l15.73-9a.41.41,0,0,0,0-.77l-10.05-5.83a1.45,1.45,0,0,0-1.33,0Z"/><polygon class="cls-130" points="128.15 123.09 138 128.82 150.42 121.67 140.57 115.92 128.15 123.09"/><path class="cls-131" d="M147,118.78a.15.15,0,0,1-.09,0l-2.11-1.22a.19.19,0,1,1,.19-.33l2.11,1.22a.19.19,0,0,1,.07.26A.2.2,0,0,1,147,118.78Z"/><path class="cls-132" d="M133.63,106.81v5.45a1.34,1.34,0,0,0,.77,1.09,4.19,4.19,0,0,0,3.78,0,1.33,1.33,0,0,0,.78-1.09v-5.45Z"/><path class="cls-133" d="M138.18,107.9a1.15,1.15,0,0,0,0-2.18,4.19,4.19,0,0,0-3.78,0,1.16,1.16,0,0,0,0,2.18A4.26,4.26,0,0,0,138.18,107.9Z"/><path class="cls-134" d="M138,107.8a1,1,0,0,0,0-2,3.83,3.83,0,0,0-3.43,0,1,1,0,0,0,0,2A3.83,3.83,0,0,0,138,107.8Z"/><path class="cls-15" d="M136.41,104.12a.34.34,0,0,0-.33.34v3.73a5,5,0,0,0,.67,0v-3.72A.34.34,0,0,0,136.41,104.12Z"/><path class="cls-135" d="M136.25,108.12l-.43-1.3h0l-.79-2.36a.34.34,0,0,0-.64.21l.36,1.08h0l.8,2.39a3.35,3.35,0,0,0,.71.07A.25.25,0,0,0,136.25,108.12Z"/><path class="cls-9" d="M138,104.32a.33.33,0,0,0-.42.22l-.91,2.84h0l-.26.82a3.55,3.55,0,0,0,.73-.08l.76-2.37h0l.32-1A.33.33,0,0,0,138,104.32Z"/><rect class="cls-136" width="200" height="200"/></g></g></g></g></svg>