<svg xmlns="http://www.w3.org/2000/svg" xmlns:xlink="http://www.w3.org/1999/xlink" viewBox="0 0 200 200"><defs><style>.cls-1{opacity:0.3;}.cls-10,.cls-11,.cls-12,.cls-13,.cls-14,.cls-15,.cls-16,.cls-17,.cls-18,.cls-19,.cls-2,.cls-20,.cls-21,.cls-22,.cls-23,.cls-24,.cls-25,.cls-26,.cls-27,.cls-28,.cls-29,.cls-3,.cls-30,.cls-31,.cls-32,.cls-33,.cls-34,.cls-35,.cls-36,.cls-37,.cls-38,.cls-39,.cls-4,.cls-40,.cls-41,.cls-42,.cls-43,.cls-5,.cls-6,.cls-7,.cls-8,.cls-9{fill:#1067db;}.cls-2{opacity:0;}.cls-3{opacity:0.02;}.cls-4{opacity:0.05;}.cls-5{opacity:0.07;}.cls-6{opacity:0.1;}.cls-7{opacity:0.12;}.cls-8{opacity:0.15;}.cls-9{opacity:0.17;}.cls-10{opacity:0.2;}.cls-11{opacity:0.22;}.cls-12{opacity:0.24;}.cls-13{opacity:0.27;}.cls-14{opacity:0.29;}.cls-15{opacity:0.32;}.cls-16{opacity:0.34;}.cls-17{opacity:0.37;}.cls-18{opacity:0.39;}.cls-19{opacity:0.41;}.cls-20{opacity:0.44;}.cls-21{opacity:0.46;}.cls-22{opacity:0.49;}.cls-23{opacity:0.51;}.cls-24{opacity:0.54;}.cls-25{opacity:0.56;}.cls-26{opacity:0.59;}.cls-27{opacity:0.61;}.cls-28{opacity:0.63;}.cls-29{opacity:0.66;}.cls-30{opacity:0.68;}.cls-31{opacity:0.71;}.cls-32{opacity:0.73;}.cls-33{opacity:0.76;}.cls-34{opacity:0.78;}.cls-35{opacity:0.8;}.cls-36{opacity:0.83;}.cls-37{opacity:0.85;}.cls-38{opacity:0.88;}.cls-39{opacity:0.9;}.cls-40{opacity:0.93;}.cls-41{opacity:0.95;}.cls-42{opacity:0.98;}.cls-44{fill:#d3daed;}.cls-45{fill:url(#linear-gradient);}.cls-46{fill:url(#linear-gradient-2);}.cls-47{fill:#05105d;}.cls-48{fill:#e9edfc;}.cls-49{fill:url(#linear-gradient-3);}.cls-50{fill:#f7a66a;}.cls-51{fill:url(#linear-gradient-4);}.cls-52{fill:#9fc2f1;}.cls-53{fill:#fff;}.cls-54{fill:url(#linear-gradient-5);}.cls-55{fill:none;}</style><linearGradient id="linear-gradient" x1="106.91" y1="91.09" x2="150.07" y2="91.09" gradientUnits="userSpaceOnUse"><stop offset="0" stop-color="#1ca2f9"/><stop offset="0.18" stop-color="#1991f0"/><stop offset="0.48" stop-color="#147ae5"/><stop offset="0.76" stop-color="#116cdd"/><stop offset="1" stop-color="#1067db"/></linearGradient><linearGradient id="linear-gradient-2" x1="119.64" y1="92.82" x2="137.34" y2="92.82" xlink:href="#linear-gradient"/><linearGradient id="linear-gradient-3" x1="29.27" y1="147.03" x2="51.56" y2="147.03" gradientUnits="userSpaceOnUse"><stop offset="0" stop-color="#f7a66a"/><stop offset="0.32" stop-color="#f3ae6a"/><stop offset="1" stop-color="#edbd6a"/></linearGradient><linearGradient id="linear-gradient-4" x1="15.39" y1="113.61" x2="94.15" y2="8.48" gradientUnits="userSpaceOnUse"><stop offset="0" stop-color="#071e71"/><stop offset="0.21" stop-color="#092f8a"/><stop offset="0.54" stop-color="#0c45a9"/><stop offset="0.81" stop-color="#0d52bd"/><stop offset="1" stop-color="#0e57c4"/></linearGradient><linearGradient id="linear-gradient-5" x1="36.48" y1="75.66" x2="46.03" y2="75.66" xlink:href="#linear-gradient-4"/></defs><title>talent-image-01</title><g id="Layer_2" data-name="Layer 2"><g id="Graphics"><g id="bot"><g class="cls-1"><polygon class="cls-2" points="40.58 157.7 89.43 185.9 65.01 200 16.16 171.8 25.39 171.67 32.32 167.72 40.58 157.7"/><polygon class="cls-3" points="40.58 157.7 88.4 185.3 63.97 199.4 16.16 171.8 25.4 171.67 32.32 167.72 40.58 157.7"/><polygon class="cls-4" points="40.58 157.7 87.36 184.71 62.94 198.81 16.16 171.8 25.42 171.66 32.32 167.72 40.58 157.7"/><polygon class="cls-5" points="40.58 157.7 86.33 184.11 61.9 198.21 16.16 171.8 25.44 171.66 32.32 167.72 40.58 157.7"/><polygon class="cls-6" points="40.58 157.7 85.29 183.52 60.87 197.62 16.16 171.8 25.45 171.65 32.32 167.72 40.58 157.7"/><polygon class="cls-7" points="40.58 157.7 84.26 182.92 59.83 197.02 16.16 171.8 25.47 171.65 32.32 167.72 40.58 157.7"/><polygon class="cls-8" points="40.58 157.7 83.22 182.32 58.8 196.43 16.16 171.8 25.49 171.64 32.32 167.72 40.58 157.7"/><polygon class="cls-9" points="40.58 157.7 82.19 181.73 57.77 195.83 16.16 171.8 25.5 171.63 32.32 167.72 40.58 157.7"/><polygon class="cls-10" points="40.58 157.7 81.16 181.13 56.73 195.24 16.16 171.8 25.52 171.63 32.32 167.72 40.58 157.7"/><polygon class="cls-11" points="40.58 157.7 80.12 180.54 55.7 194.64 16.16 171.8 25.54 171.62 32.32 167.72 40.58 157.7"/><polygon class="cls-12" points="40.58 157.7 79.09 179.94 54.66 194.04 16.16 171.8 25.55 171.62 32.32 167.72 40.58 157.7"/><polygon class="cls-13" points="40.58 157.7 78.05 179.35 53.63 193.45 16.16 171.8 25.57 171.61 32.32 167.72 40.58 157.7"/><polygon class="cls-14" points="40.58 157.7 77.02 178.75 52.59 192.85 16.16 171.8 25.59 171.61 32.32 167.72 40.58 157.7"/><polygon class="cls-15" points="40.58 157.7 75.98 178.16 51.56 192.26 16.16 171.8 25.6 171.6 32.32 167.72 40.58 157.7"/><polygon class="cls-16" points="40.58 157.7 74.95 177.56 50.52 191.66 16.16 171.8 25.62 171.59 32.32 167.72 40.58 157.7"/><polygon class="cls-17" points="40.58 157.7 73.91 176.97 49.49 191.07 16.16 171.8 25.64 171.59 32.32 167.72 40.58 157.7"/><polygon class="cls-18" points="40.58 157.7 72.88 176.37 48.45 190.47 16.16 171.8 25.66 171.58 32.32 167.72 40.58 157.7"/><polygon class="cls-19" points="40.58 157.7 71.84 175.77 47.42 189.88 16.16 171.8 25.67 171.58 32.32 167.72 40.58 157.7"/><polygon class="cls-20" points="40.58 157.7 70.81 175.18 46.39 189.28 16.16 171.8 25.69 171.57 32.32 167.72 40.58 157.7"/><polygon class="cls-21" points="40.58 157.7 69.78 174.58 45.35 188.68 16.16 171.8 25.7 171.57 32.32 167.72 40.58 157.7"/><polygon class="cls-22" points="40.58 157.7 68.74 173.99 44.32 188.09 16.16 171.8 25.72 171.56 32.32 167.72 40.58 157.7"/><polygon class="cls-23" points="40.58 157.7 67.71 173.39 43.28 187.49 16.16 171.8 25.74 171.56 32.32 167.72 40.58 157.7"/><polygon class="cls-24" points="40.58 157.7 66.67 172.8 42.25 186.9 16.16 171.8 25.76 171.55 32.32 167.72 40.58 157.7"/><polygon class="cls-25" points="40.58 157.7 65.64 172.2 41.21 186.3 16.16 171.8 25.77 171.54 32.32 167.72 40.58 157.7"/><polygon class="cls-26" points="40.58 157.7 64.6 171.6 40.18 185.71 16.16 171.8 25.79 171.54 32.32 167.72 40.58 157.7"/><polygon class="cls-27" points="40.58 157.7 63.57 171.01 39.15 185.11 16.16 171.8 25.81 171.53 32.32 167.72 40.58 157.7"/><polygon class="cls-28" points="40.58 157.7 62.53 170.41 38.11 184.51 16.16 171.8 25.82 171.53 32.32 167.72 40.58 157.7"/><polygon class="cls-29" points="40.58 157.7 61.5 169.82 37.08 183.92 16.16 171.8 25.84 171.52 32.32 167.72 40.58 157.7"/><polygon class="cls-30" points="40.58 157.7 60.47 169.22 36.04 183.32 16.16 171.8 25.86 171.52 32.32 167.72 40.58 157.7"/><polygon class="cls-31" points="40.58 157.7 59.43 168.63 35.01 182.73 16.16 171.8 25.87 171.51 32.32 167.72 40.58 157.7"/><polygon class="cls-32" points="40.58 157.7 58.4 168.03 33.97 182.13 16.16 171.8 25.89 171.5 32.32 167.72 40.58 157.7"/><polygon class="cls-33" points="40.58 157.7 57.36 167.44 32.94 181.54 16.16 171.8 25.91 171.5 32.32 167.72 40.58 157.7"/><polygon class="cls-34" points="40.58 157.7 56.33 166.84 31.9 180.94 16.16 171.8 25.92 171.49 32.32 167.72 40.58 157.7"/><polygon class="cls-35" points="40.58 157.7 55.29 166.24 30.87 180.34 16.16 171.8 25.94 171.49 32.32 167.72 40.58 157.7"/><polygon class="cls-36" points="40.58 157.7 54.26 165.65 29.84 179.75 16.16 171.8 25.96 171.48 32.32 167.72 40.58 157.7"/><polygon class="cls-37" points="40.58 157.7 53.23 165.05 28.8 179.15 16.16 171.8 25.98 171.48 32.32 167.72 40.58 157.7"/><polygon class="cls-38" points="40.58 157.7 52.19 164.46 27.77 178.56 16.16 171.8 25.99 171.47 32.32 167.72 40.58 157.7"/><polygon class="cls-39" points="40.58 157.7 51.16 163.86 26.73 177.96 16.16 171.8 26.01 171.47 32.32 167.72 40.58 157.7"/><polygon class="cls-40" points="40.58 157.7 50.12 163.27 25.7 177.37 16.16 171.8 26.03 171.46 32.32 167.72 40.58 157.7"/><polygon class="cls-41" points="40.58 157.7 49.09 162.67 24.66 176.77 16.16 171.8 26.04 171.46 32.32 167.72 40.58 157.7"/><polygon class="cls-42" points="40.58 157.7 48.05 162.07 23.63 176.18 16.16 171.8 26.06 171.45 32.32 167.72 40.58 157.7"/><polygon class="cls-43" points="40.58 157.7 47.02 161.48 22.59 175.58 16.16 171.8 26.08 171.44 32.32 167.72 40.58 157.7"/></g><g class="cls-1"><polygon class="cls-2" points="92.14 131.63 140.99 159.83 116.57 173.94 67.72 145.73 76.95 145.61 83.88 141.66 92.14 131.63"/><polygon class="cls-3" points="92.14 131.63 139.96 159.24 115.53 173.34 67.72 145.73 76.96 145.6 83.88 141.66 92.14 131.63"/><polygon class="cls-4" points="92.14 131.63 138.92 158.64 114.5 172.74 67.72 145.73 76.98 145.6 83.88 141.66 92.14 131.63"/><polygon class="cls-5" points="92.14 131.63 137.89 158.05 113.47 172.15 67.72 145.73 77 145.59 83.88 141.66 92.14 131.63"/><polygon class="cls-6" points="92.14 131.63 136.85 157.45 112.43 171.55 67.72 145.73 77.01 145.59 83.88 141.66 92.14 131.63"/><polygon class="cls-7" points="92.14 131.63 135.82 156.86 111.4 170.96 67.72 145.73 77.03 145.58 83.88 141.66 92.14 131.63"/><polygon class="cls-8" points="92.14 131.63 134.79 156.26 110.36 170.36 67.72 145.73 77.05 145.57 83.88 141.66 92.14 131.63"/><polygon class="cls-9" points="92.14 131.63 133.75 155.66 109.33 169.77 67.72 145.73 77.06 145.57 83.88 141.66 92.14 131.63"/><polygon class="cls-10" points="92.14 131.63 132.72 155.07 108.29 169.17 67.72 145.73 77.08 145.56 83.88 141.66 92.14 131.63"/><polygon class="cls-11" points="92.14 131.63 131.68 154.47 107.26 168.57 67.72 145.73 77.1 145.56 83.88 141.66 92.14 131.63"/><polygon class="cls-12" points="92.14 131.63 130.65 153.88 106.22 167.98 67.72 145.73 77.11 145.55 83.88 141.66 92.14 131.63"/><polygon class="cls-13" points="92.14 131.63 129.61 153.28 105.19 167.38 67.72 145.73 77.13 145.55 83.88 141.66 92.14 131.63"/><polygon class="cls-14" points="92.14 131.63 128.58 152.69 104.16 166.79 67.72 145.73 77.15 145.54 83.88 141.66 92.14 131.63"/><polygon class="cls-15" points="92.14 131.63 127.54 152.09 103.12 166.19 67.72 145.73 77.17 145.54 83.88 141.66 92.14 131.63"/><polygon class="cls-16" points="92.14 131.63 126.51 151.5 102.09 165.6 67.72 145.73 77.18 145.53 83.88 141.66 92.14 131.63"/><polygon class="cls-17" points="92.14 131.63 125.47 150.9 101.05 165 67.72 145.73 77.2 145.53 83.88 141.66 92.14 131.63"/><polygon class="cls-18" points="92.14 131.63 124.44 150.3 100.02 164.41 67.72 145.73 77.22 145.52 83.88 141.66 92.14 131.63"/><polygon class="cls-19" points="92.14 131.63 123.41 149.71 98.98 163.81 67.72 145.73 77.23 145.51 83.88 141.66 92.14 131.63"/><polygon class="cls-20" points="92.14 131.63 122.37 149.11 97.95 163.21 67.72 145.73 77.25 145.51 83.88 141.66 92.14 131.63"/><polygon class="cls-21" points="92.14 131.63 121.34 148.52 96.91 162.62 67.72 145.73 77.27 145.5 83.88 141.66 92.14 131.63"/><polygon class="cls-22" points="92.14 131.63 120.3 147.92 95.88 162.02 67.72 145.73 77.28 145.5 83.88 141.66 92.14 131.63"/><polygon class="cls-23" points="92.14 131.63 119.27 147.33 94.84 161.43 67.72 145.73 77.3 145.49 83.88 141.66 92.14 131.63"/><polygon class="cls-24" points="92.14 131.63 118.23 146.73 93.81 160.83 67.72 145.73 77.32 145.49 83.88 141.66 92.14 131.63"/><polygon class="cls-25" points="92.14 131.63 117.2 146.13 92.78 160.24 67.72 145.73 77.33 145.48 83.88 141.66 92.14 131.63"/><polygon class="cls-26" points="92.14 131.63 116.17 145.54 91.74 159.64 67.72 145.73 77.35 145.47 83.88 141.66 92.14 131.63"/><polygon class="cls-27" points="92.14 131.63 115.13 144.94 90.71 159.04 67.72 145.73 77.37 145.47 83.88 141.66 92.14 131.63"/><polygon class="cls-28" points="92.14 131.63 114.1 144.35 89.67 158.45 67.72 145.73 77.39 145.46 83.88 141.66 92.14 131.63"/><polygon class="cls-29" points="92.14 131.63 113.06 143.75 88.64 157.85 67.72 145.73 77.4 145.46 83.88 141.66 92.14 131.63"/><polygon class="cls-30" points="92.14 131.63 112.03 143.16 87.6 157.26 67.72 145.73 77.42 145.45 83.88 141.66 92.14 131.63"/><polygon class="cls-31" points="92.14 131.63 110.99 142.56 86.57 156.66 67.72 145.73 77.44 145.45 83.88 141.66 92.14 131.63"/><polygon class="cls-32" points="92.14 131.63 109.96 141.97 85.53 156.07 67.72 145.73 77.45 145.44 83.88 141.66 92.14 131.63"/><polygon class="cls-33" points="92.14 131.63 108.92 141.37 84.5 155.47 67.72 145.73 77.47 145.44 83.88 141.66 92.14 131.63"/><polygon class="cls-34" points="92.14 131.63 107.89 140.78 83.47 154.88 67.72 145.73 77.49 145.43 83.88 141.66 92.14 131.63"/><polygon class="cls-35" points="92.14 131.63 106.86 140.18 82.43 154.28 67.72 145.73 77.5 145.42 83.88 141.66 92.14 131.63"/><polygon class="cls-36" points="92.14 131.63 105.82 139.58 81.4 153.68 67.72 145.73 77.52 145.42 83.88 141.66 92.14 131.63"/><polygon class="cls-37" points="92.14 131.63 104.79 138.99 80.36 153.09 67.72 145.73 77.54 145.41 83.88 141.66 92.14 131.63"/><polygon class="cls-38" points="92.14 131.63 103.75 138.39 79.33 152.49 67.72 145.73 77.55 145.41 83.88 141.66 92.14 131.63"/><polygon class="cls-39" points="92.14 131.63 102.72 137.8 78.29 151.9 67.72 145.73 77.57 145.4 83.88 141.66 92.14 131.63"/><polygon class="cls-40" points="92.14 131.63 101.68 137.2 77.26 151.3 67.72 145.73 77.59 145.4 83.88 141.66 92.14 131.63"/><polygon class="cls-41" points="92.14 131.63 100.65 136.6 76.22 150.71 67.72 145.73 77.6 145.39 83.88 141.66 92.14 131.63"/><polygon class="cls-42" points="92.14 131.63 99.61 136.01 75.19 150.11 67.72 145.73 77.62 145.38 83.88 141.66 92.14 131.63"/><polygon class="cls-43" points="92.14 131.63 98.58 135.41 74.16 149.51 67.72 145.73 77.64 145.38 83.88 141.66 92.14 131.63"/></g><g class="cls-1"><polygon class="cls-2" points="141.11 103.18 189.95 131.39 165.53 145.49 116.68 117.28 125.91 117.16 132.84 113.21 141.11 103.18"/><polygon class="cls-3" points="141.11 103.18 188.92 130.79 164.5 144.89 116.68 117.28 125.93 117.16 132.84 113.21 141.11 103.18"/><polygon class="cls-4" points="141.11 103.18 187.88 130.19 163.46 144.3 116.68 117.28 125.94 117.15 132.84 113.21 141.11 103.18"/><polygon class="cls-5" points="141.11 103.18 186.85 129.6 162.43 143.7 116.68 117.28 125.96 117.14 132.84 113.21 141.11 103.18"/><polygon class="cls-6" points="141.11 103.18 185.82 129 161.39 143.1 116.68 117.28 125.98 117.14 132.84 113.21 141.11 103.18"/><polygon class="cls-7" points="141.11 103.18 184.78 128.41 160.36 142.51 116.68 117.28 125.99 117.13 132.84 113.21 141.11 103.18"/><polygon class="cls-8" points="141.11 103.18 183.75 127.81 159.32 141.91 116.68 117.28 126.01 117.13 132.84 113.21 141.11 103.18"/><polygon class="cls-9" points="141.11 103.18 182.71 127.22 158.29 141.32 116.68 117.28 126.03 117.12 132.84 113.21 141.11 103.18"/><polygon class="cls-10" points="141.11 103.18 181.68 126.62 157.25 140.72 116.68 117.28 126.04 117.12 132.84 113.21 141.11 103.18"/><polygon class="cls-11" points="141.11 103.18 180.64 126.03 156.22 140.13 116.68 117.28 126.06 117.11 132.84 113.21 141.11 103.18"/><polygon class="cls-12" points="141.11 103.18 179.61 125.43 155.19 139.53 116.68 117.28 126.08 117.11 132.84 113.21 141.11 103.18"/><polygon class="cls-13" points="141.11 103.18 178.57 124.83 154.15 138.94 116.68 117.28 126.09 117.1 132.84 113.21 141.11 103.18"/><polygon class="cls-14" points="141.11 103.18 177.54 124.24 153.12 138.34 116.68 117.28 126.11 117.09 132.84 113.21 141.11 103.18"/><polygon class="cls-15" points="141.11 103.18 176.51 123.64 152.08 137.74 116.68 117.28 126.13 117.09 132.84 113.21 141.11 103.18"/><polygon class="cls-16" points="141.11 103.18 175.47 123.05 151.05 137.15 116.68 117.28 126.14 117.08 132.84 113.21 141.11 103.18"/><polygon class="cls-17" points="141.11 103.18 174.44 122.45 150.01 136.55 116.68 117.28 126.16 117.08 132.84 113.21 141.11 103.18"/><polygon class="cls-18" points="141.11 103.18 173.4 121.86 148.98 135.96 116.68 117.28 126.18 117.07 132.84 113.21 141.11 103.18"/><polygon class="cls-19" points="141.11 103.18 172.37 121.26 147.94 135.36 116.68 117.28 126.19 117.06 132.84 113.21 141.11 103.18"/><polygon class="cls-20" points="141.11 103.18 171.33 120.67 146.91 134.77 116.68 117.28 126.21 117.06 132.84 113.21 141.11 103.18"/><polygon class="cls-21" points="141.11 103.18 170.3 120.07 145.88 134.17 116.68 117.28 126.23 117.05 132.84 113.21 141.11 103.18"/><polygon class="cls-22" points="141.11 103.18 169.26 119.47 144.84 133.57 116.68 117.28 126.25 117.05 132.84 113.21 141.11 103.18"/><polygon class="cls-23" points="141.11 103.18 168.23 118.88 143.81 132.98 116.68 117.28 126.26 117.04 132.84 113.21 141.11 103.18"/><polygon class="cls-24" points="141.11 103.18 167.2 118.28 142.77 132.38 116.68 117.28 126.28 117.04 132.84 113.21 141.11 103.18"/><polygon class="cls-25" points="141.11 103.18 166.16 117.69 141.74 131.79 116.68 117.28 126.3 117.03 132.84 113.21 141.11 103.18"/><polygon class="cls-26" points="141.11 103.18 165.13 117.09 140.7 131.19 116.68 117.28 126.31 117.03 132.84 113.21 141.11 103.18"/><polygon class="cls-27" points="141.11 103.18 164.09 116.5 139.67 130.6 116.68 117.28 126.33 117.02 132.84 113.21 141.11 103.18"/><polygon class="cls-28" points="141.11 103.18 163.06 115.9 138.63 130 116.68 117.28 126.35 117.02 132.84 113.21 141.11 103.18"/><polygon class="cls-29" points="141.11 103.18 162.02 115.31 137.6 129.41 116.68 117.28 126.36 117.01 132.84 113.21 141.11 103.18"/><polygon class="cls-30" points="141.11 103.18 160.99 114.71 136.57 128.81 116.68 117.28 126.38 117 132.84 113.21 141.11 103.18"/><polygon class="cls-31" points="141.11 103.18 159.96 114.11 135.53 128.21 116.68 117.28 126.4 117 132.84 113.21 141.11 103.18"/><polygon class="cls-32" points="141.11 103.18 158.92 113.52 134.5 127.62 116.68 117.28 126.42 116.99 132.84 113.21 141.11 103.18"/><polygon class="cls-33" points="141.11 103.18 157.89 112.92 133.46 127.02 116.68 117.28 126.43 116.99 132.84 113.21 141.11 103.18"/><polygon class="cls-34" points="141.11 103.18 156.85 112.33 132.43 126.43 116.68 117.28 126.45 116.98 132.84 113.21 141.11 103.18"/><polygon class="cls-35" points="141.11 103.18 155.82 111.73 131.39 125.83 116.68 117.28 126.47 116.97 132.84 113.21 141.11 103.18"/><polygon class="cls-36" points="141.11 103.18 154.78 111.14 130.36 125.24 116.68 117.28 126.48 116.97 132.84 113.21 141.11 103.18"/><polygon class="cls-37" points="141.11 103.18 153.75 110.54 129.32 124.64 116.68 117.28 126.5 116.96 132.84 113.21 141.11 103.18"/><polygon class="cls-38" points="141.11 103.18 152.71 109.94 128.29 124.05 116.68 117.28 126.52 116.96 132.84 113.21 141.11 103.18"/><polygon class="cls-39" points="141.11 103.18 151.68 109.35 127.26 123.45 116.68 117.28 126.53 116.95 132.84 113.21 141.11 103.18"/><polygon class="cls-40" points="141.11 103.18 150.65 108.75 126.22 122.85 116.68 117.28 126.55 116.95 132.84 113.21 141.11 103.18"/><polygon class="cls-41" points="141.11 103.18 149.61 108.16 125.19 122.26 116.68 117.28 126.57 116.94 132.84 113.21 141.11 103.18"/><polygon class="cls-42" points="141.11 103.18 148.58 107.56 124.15 121.66 116.68 117.28 126.58 116.94 132.84 113.21 141.11 103.18"/><polygon class="cls-43" points="141.11 103.18 147.54 106.97 123.12 121.07 116.68 117.28 126.6 116.93 132.84 113.21 141.11 103.18"/></g><path class="cls-44" d="M119.87,117.27a11.1,11.1,0,0,1-5.62-1.45c-4-2.33-6.28-7.13-6.29-13.51,0-12.74,8.93-28.28,20-34.62h0c5.53-3.18,10.8-3.65,14.83-1.31S149,73.5,149,79.86c0,12.73-9,28.26-20,34.62A18.49,18.49,0,0,1,119.87,117.27ZM137.12,67A16.6,16.6,0,0,0,129,69.5h0c-10.48,6-19,20.73-19,32.81,0,5.6,1.88,9.76,5.25,11.7s7.88,1.46,12.71-1.33c10.45-6,18.94-20.75,18.94-32.82,0-5.58-1.84-9.73-5.2-11.67A9.14,9.14,0,0,0,137.12,67Z"/><path class="cls-45" d="M119.87,118.31a12.09,12.09,0,0,1-6.14-1.59c-4.38-2.52-6.8-7.64-6.82-14.41h4.18c0,5.22,1.68,9.06,4.72,10.8s7.16,1.27,11.67-1.33c10-5.76,18.42-20.37,18.42-31.91,0-5.2-1.66-9-4.68-10.77S134,67.8,129.51,70.4l-2.08-3.62c5.87-3.37,11.51-3.83,15.88-1.3s6.76,7.63,6.76,14.38c0,13.06-9.2,29-20.5,35.53A19.69,19.69,0,0,1,119.87,118.31Z"/><path class="cls-46" d="M119.79,94.55l-.15-4,8.13-4.33.07,2.12-4.46,14.59L121.24,104l4.34-14.49-4.09,2.19.07,1.89Zm16.47-12.93.07,2.16-4.87,2.6.12,3.47a5.28,5.28,0,0,1,1.64-1.36,3.06,3.06,0,0,1,2.83-.3c.81.38,1.24,1.24,1.29,2.6a7.34,7.34,0,0,1-1.1,4,7.68,7.68,0,0,1-3,3Q131,99,129.5,97.85l1-2.29.37.19a2.69,2.69,0,0,0,.94.11,3.21,3.21,0,0,0,1.53-.44,4.16,4.16,0,0,0,1.48-1.4,3.47,3.47,0,0,0,.62-2.13q0-1.15-.78-1.41a2.34,2.34,0,0,0-1.84.33,6.89,6.89,0,0,0-2.07,1.78l-.86-.65-.24-6.78Z"/><path class="cls-44" d="M70.33,146.45A11.16,11.16,0,0,1,64.7,145c-4-2.33-6.27-7.12-6.29-13.51,0-12.74,8.94-28.28,20-34.62h0c5.54-3.18,10.81-3.64,14.84-1.31s6.25,7.12,6.25,13.48c0,12.73-9,28.26-20,34.63A18.63,18.63,0,0,1,70.33,146.45ZM87.57,96.18a16.63,16.63,0,0,0-8.13,2.5h0c-10.47,6-19,20.73-18.94,32.81,0,5.6,1.87,9.76,5.24,11.7s7.88,1.46,12.72-1.33c10.44-6,18.94-20.75,18.94-32.82,0-5.58-1.85-9.73-5.21-11.67A9.08,9.08,0,0,0,87.57,96.18Z"/><path class="cls-47" d="M70.33,147.5a12.14,12.14,0,0,1-6.15-1.6l2.08-3.62c3,1.75,7.17,1.27,11.67-1.33,10-5.76,18.43-20.37,18.43-31.91,0-5.19-1.67-9-4.69-10.77l2.09-3.61c4.37,2.53,6.77,7.63,6.77,14.38,0,13.06-9.2,29-20.51,35.53A19.7,19.7,0,0,1,70.33,147.5Z"/><path class="cls-47" d="M86.71,110.81l.08,2.15-4.87,2.6L82,119a5.24,5.24,0,0,1,1.63-1.36,3.08,3.08,0,0,1,2.84-.3c.81.38,1.24,1.24,1.28,2.6a7.34,7.34,0,0,1-1.1,4,7.62,7.62,0,0,1-3,3q-2.33,1.23-3.78.08l1-2.29a1.79,1.79,0,0,0,.37.19,2.61,2.61,0,0,0,.94.11,3.21,3.21,0,0,0,1.53-.44,4.24,4.24,0,0,0,1.48-1.4,3.45,3.45,0,0,0,.61-2.13q0-1.16-.78-1.41a2.35,2.35,0,0,0-1.84.33,6.88,6.88,0,0,0-2.06,1.78l-.87-.65-.24-6.78Zm-10.62,5.61.08,2.16-4.87,2.59.12,3.47a5.42,5.42,0,0,1,1.64-1.36,3.06,3.06,0,0,1,2.83-.3c.81.38,1.24,1.25,1.29,2.6a7.32,7.32,0,0,1-1.1,4,7.68,7.68,0,0,1-3,2.95c-1.55.83-2.81.85-3.78.08l1-2.29a3.91,3.91,0,0,0,.37.2,3.06,3.06,0,0,0,.94.1,3.18,3.18,0,0,0,1.53-.43,4.28,4.28,0,0,0,1.48-1.41,3.44,3.44,0,0,0,.62-2.13q0-1.16-.78-1.41a2.34,2.34,0,0,0-1.84.33,6.91,6.91,0,0,0-2.07,1.78l-.86-.65L69.46,120Z"/><path class="cls-48" d="M21.8,173.29a10.94,10.94,0,0,1-5.55-1.44c-4-2.29-6.19-7-6.2-13.31,0-12.55,8.8-27.85,19.69-34.1,5.45-3.13,10.64-3.59,14.62-1.29s6.16,7,6.16,13.29c0,12.53-8.83,27.83-19.69,34.1A18.37,18.37,0,0,1,21.8,173.29Zm17-49.5a16.39,16.39,0,0,0-8,2.46c-10.3,5.92-18.67,20.4-18.64,32.29,0,5.51,1.85,9.6,5.16,11.5s7.74,1.44,12.5-1.31c10.28-5.93,18.64-20.42,18.64-32.29,0-5.49-1.81-9.57-5.11-11.48A9,9,0,0,0,38.77,123.79Z"/><path class="cls-49" d="M31.35,171.44l-2.08-3.61c9.82-5.67,18.12-20.05,18.12-31.39,0-4.87-1.5-8.55-4.23-10.35l2.3-3.48c3.94,2.6,6.1,7.51,6.1,13.83C51.56,149.31,42.5,165,31.35,171.44Z"/><path class="cls-50" d="M22.66,145.79l0-2.42,7.24-4,0,2.12-3.06,6c1.13-.58,2-.61,2.63-.08a3.23,3.23,0,0,1,.9,2.64,9.31,9.31,0,0,1-4.67,7.82,4.78,4.78,0,0,1-3.92.51l.92-2.68a3.72,3.72,0,0,0,3.16-.38,5.14,5.14,0,0,0,1.79-1.65,4.12,4.12,0,0,0,.74-2.28c0-.82-.24-1.33-.75-1.54a2.69,2.69,0,0,0-2.15.47,6.29,6.29,0,0,0-1.33,1l0-2.08,2.94-5.92Z"/><path class="cls-50" d="M38,141.09a5.84,5.84,0,0,0,.56-2.2,1.46,1.46,0,0,0-.54-1.34,1.33,1.33,0,0,0-1.42.12,6.51,6.51,0,0,0-2.57,3.43l-1.66-.33a16.47,16.47,0,0,1,1.84-3.4,7.82,7.82,0,0,1,2.55-2.21,2.68,2.68,0,0,1,2.69-.23c.77.42,1.13,1.37,1.11,2.85a7.77,7.77,0,0,1-.54,2.64,30.69,30.69,0,0,1-1.87,3.92l-3,5.46,5.61-3.11,0,2.6L32.32,154l0-2.3,3.84-7Q37.47,142.34,38,141.09Z"/><path class="cls-43" d="M120.76,6.31C122,5.58,123,6.18,123,7.63V45.76a5.1,5.1,0,0,1-2.28,4l-93,53.71c-1.25.72-2.28.13-2.28-1.32V64A5.08,5.08,0,0,1,27.72,60Z"/><path class="cls-51" d="M27.48,103.47V65.33a5.09,5.09,0,0,1,2.28-3.95l93-53.71a2.4,2.4,0,0,1,.23-.11c0-1.4-1-2-2.27-1.25L27.72,60A5.08,5.08,0,0,0,25.44,64v38.14c0,1.36.9,2,2,1.43C27.49,103.51,27.48,103.5,27.48,103.47Z"/><polygon class="cls-52" points="118.81 22.81 55.73 59.99 55.73 62.68 118.81 25.63 118.81 22.81"/><polygon class="cls-52" points="118.81 31.19 55.73 68.37 55.73 71.06 118.81 34.01 118.81 31.19"/><polygon class="cls-52" points="82.5 60.83 55.42 76.72 55.42 79.41 82.5 63.64 82.5 60.83"/><path class="cls-53" d="M41,63.84c4.69-2.71,8.53-.49,8.53,4.92S45.73,80.83,41,83.54s-8.53.49-8.53-4.93S36.35,66.55,41,63.84Z"/><path class="cls-54" d="M43.1,73.74a8.15,8.15,0,0,0,1.67-4.6c0-2.24-1.45-3.15-3.22-2a8,8,0,0,0-3.22,6.1,2.76,2.76,0,0,0,.76,2.14,14,14,0,0,0-2.61,8.19v1.09A6.55,6.55,0,0,0,41,83.43a17.22,17.22,0,0,0,5-5.21A5.64,5.64,0,0,0,43.1,73.74Z"/><rect class="cls-55" width="200" height="200"/></g></g></g></svg>