<svg width="450" height="345" viewBox="0 0 450 345" fill="none" xmlns="http://www.w3.org/2000/svg">
<path opacity="0.5" fillRule="evenodd" clipRule="evenodd" d="M275.016 5.00976C306.568 4.46253 332.347 27.031 358.189 45.1333C384.521 63.5789 415.259 80.2234 425.758 110.603C436.325 141.181 425.257 174.411 413.247 204.453C401.91 232.812 383.031 256.336 359.643 275.986C334.618 297.01 307.603 317.997 275.016 320.586C241.047 323.285 205.623 312.732 180.015 290.259C155.485 268.732 150.78 234.213 141.092 203.055C131.552 172.371 113.782 140.976 124.143 110.56C134.467 80.2515 167.673 66.3412 193.915 47.9825C219.611 30.0056 243.656 5.55368 275.016 5.00976Z" fill="#D5F2FB"/>
<path d="M285.317 75.4053L260.427 103.629L270.809 121.53L283.086 99.8906L285.317 75.4053Z" fill="#F15A24"/>
<path d="M260.493 308.486C261.422 309.462 254.126 327.531 254.126 327.531L264.303 330.46L269.359 309.257L260.493 308.486Z" fill="#FC7575"/>
<path d="M284.573 151.103L278.783 160.039C278.783 160.039 270.986 233.142 269.09 241.372C267.194 249.602 256.896 319.078 256.896 319.078L267.565 323.021C267.565 323.021 287.919 265.495 286.897 257.925C285.875 250.355 310.132 179.336 310.132 179.336L285.893 150.982L284.573 151.103Z" fill="#47545C"/>
<path d="M289.109 155.492C289.109 155.492 302.827 237.327 303.896 255.6C304.965 273.873 295.001 324.583 295.001 324.583L312.595 325.243C312.595 325.243 327.8 273.734 324.259 258.79C320.718 243.846 325.867 178.61 325.867 178.61L319.798 154.06L289.109 155.492Z" fill="url(#paint0_linear)"/>
<path d="M309.5 323.114C309.5 323.114 309.147 329.679 308.914 334.143C308.682 338.606 310.69 342.252 304.453 342.912C298.217 343.572 291.73 341.703 291.256 338.83C290.782 335.956 297.223 329.335 297.381 326.452C297.539 323.569 299.36 322.453 300.345 323.42C301.331 324.388 309.5 323.114 309.5 323.114Z" fill="#095270"/>
<path d="M308.543 341.024C307.428 342.047 305.894 342.15 304.203 342.15C300.615 342.15 292.79 341.666 291.256 338.792C291.237 339.207 291.31 339.621 291.471 340.004C291.631 340.387 291.876 340.729 292.185 341.006C296.377 345.339 307.809 344.67 308.543 341.024Z" fill="#ACFCDD"/>
<path d="M298.236 330.116C298.115 332.906 302.372 335.398 303.924 332.906C303.924 332.906 306.108 326.778 306.312 324.918C306.424 323.802 307.242 321.905 304.453 321.347C301.665 320.789 299.528 321.784 299.472 322.779C298.822 325.179 298.408 327.636 298.236 330.116Z" fill="#9DBAC6"/>
<path d="M304.639 331.846C304.639 331.846 304.816 323.718 306.136 323.476C307.248 323.286 308.372 323.177 309.5 323.151C309.5 323.151 308.403 331.316 306.786 332.627C305.169 333.938 304.639 331.846 304.639 331.846Z" fill="#095270"/>
<path d="M297.557 325.643C297.557 325.696 297.569 325.748 297.594 325.795C297.618 325.842 297.653 325.883 297.697 325.913C301.266 328.517 306.508 326.285 306.721 326.192C306.764 326.177 306.804 326.153 306.837 326.121C306.87 326.09 306.895 326.052 306.912 326.009C306.929 325.967 306.936 325.921 306.934 325.876C306.931 325.83 306.919 325.786 306.898 325.745C306.847 325.663 306.768 325.602 306.676 325.574C306.583 325.547 306.483 325.555 306.396 325.597C306.35 325.597 301.368 327.735 298.171 325.401C298.091 325.346 297.994 325.321 297.898 325.329C297.801 325.338 297.71 325.38 297.641 325.448C297.596 325.504 297.567 325.572 297.557 325.643Z" fill="#ACFCDD"/>
<path d="M297.167 328.888C297.167 328.94 297.179 328.991 297.201 329.038C297.224 329.085 297.257 329.126 297.297 329.158C299.5 330.86 305.764 329.4 306.024 329.335C306.069 329.326 306.111 329.308 306.148 329.283C306.186 329.257 306.218 329.224 306.242 329.186C306.266 329.148 306.283 329.105 306.29 329.06C306.297 329.015 306.295 328.97 306.285 328.926C306.255 328.837 306.192 328.763 306.108 328.719C306.025 328.676 305.928 328.667 305.838 328.693C304.128 329.102 299.333 329.874 297.781 328.693C297.707 328.633 297.615 328.6 297.52 328.6C297.425 328.6 297.333 328.633 297.26 328.693C297.21 328.748 297.178 328.816 297.167 328.888Z" fill="#ACFCDD"/>
<path d="M296.795 331.223C296.795 331.268 296.804 331.312 296.822 331.354C296.839 331.396 296.865 331.433 296.898 331.464C298.626 333.166 305.262 332.069 306.043 331.939C306.089 331.934 306.133 331.92 306.173 331.898C306.214 331.876 306.249 331.845 306.277 331.808C306.305 331.772 306.325 331.73 306.336 331.685C306.347 331.64 306.348 331.594 306.34 331.548C306.314 331.457 306.254 331.38 306.173 331.332C306.092 331.283 305.996 331.268 305.903 331.288C303.97 331.623 298.682 332.218 297.446 331.018C297.372 330.955 297.278 330.921 297.181 330.921C297.084 330.921 296.99 330.955 296.916 331.018C296.853 331.07 296.811 331.143 296.795 331.223Z" fill="#ACFCDD"/>
<path d="M253.085 329.037C250.548 330.6 248.438 328.107 248.438 328.107C250.957 324.295 252.36 320.854 252.955 320.026C253.55 319.199 254.554 317.869 256.868 319.096C259.182 320.324 261.143 323.039 260.242 323.606C257.985 325.581 255.594 327.396 253.085 329.037Z" fill="#9DBAC6"/>
<path d="M269.062 336.486L258.68 336.607C254.405 336.663 247.583 337.202 245.446 337.221C243.308 337.239 235.501 332.841 235.994 331.362C236.486 329.884 243.513 330.172 247.147 328.479C250.781 326.787 255.576 321.775 257.221 321.858C258.597 321.933 265.642 323.309 266.878 324.397C268.114 325.485 270.121 335.51 269.062 336.486Z" fill="#095270"/>
<path d="M237.825 330.46C239.479 330.86 242.314 333.799 246.58 334.784C249.888 335.556 263.402 333.985 269.257 333.25C269.434 334.896 269.424 336.198 269.071 336.514L258.69 336.635C254.414 336.691 247.593 337.23 245.455 337.249C243.317 337.267 235.51 332.869 236.003 331.39C236.133 330.934 236.821 330.655 237.825 330.46Z" fill="#ACFCDD"/>
<path d="M251.254 330.6C251.3 330.545 251.323 330.475 251.319 330.404C250.855 327.921 247.434 327.828 247.295 327.828C247.232 327.83 247.171 327.851 247.121 327.89C247.071 327.928 247.034 327.982 247.016 328.042C247.005 328.067 247 328.095 247.003 328.123C247.005 328.15 247.015 328.177 247.031 328.199C247.047 328.222 247.069 328.24 247.094 328.252C247.119 328.263 247.147 328.268 247.174 328.265C247.174 328.265 250.455 328.349 250.892 330.572C250.9 330.599 250.913 330.624 250.932 330.645C250.951 330.666 250.974 330.682 251 330.693C251.026 330.704 251.054 330.708 251.082 330.707C251.11 330.705 251.137 330.697 251.161 330.683C251.198 330.663 251.23 330.634 251.254 330.6Z" fill="#ACFCDD"/>
<path d="M252.899 328.796C252.923 328.771 252.941 328.742 252.952 328.71C252.963 328.677 252.967 328.643 252.964 328.61C252.723 327.019 249.191 326.201 249.033 326.173C248.972 326.164 248.91 326.176 248.856 326.206C248.802 326.236 248.76 326.284 248.736 326.341C248.722 326.363 248.713 326.388 248.711 326.415C248.709 326.441 248.713 326.468 248.723 326.492C248.733 326.517 248.748 326.538 248.768 326.556C248.788 326.573 248.812 326.585 248.838 326.592C249.767 326.815 252.342 327.633 252.556 328.768C252.561 328.794 252.573 328.819 252.589 328.84C252.606 328.861 252.627 328.878 252.652 328.889C252.676 328.901 252.702 328.907 252.729 328.907C252.756 328.907 252.782 328.9 252.807 328.889C252.846 328.868 252.878 328.835 252.899 328.796Z" fill="#ACFCDD"/>
<path d="M254.126 327.531C254.169 327.485 254.192 327.425 254.191 327.363C254.191 325.894 250.613 324.76 250.204 324.639C250.144 324.624 250.08 324.631 250.024 324.658C249.969 324.685 249.924 324.731 249.898 324.787C249.881 324.809 249.87 324.834 249.865 324.861C249.86 324.887 249.861 324.915 249.868 324.941C249.876 324.967 249.889 324.991 249.907 325.011C249.925 325.031 249.947 325.047 249.972 325.057C251.013 325.373 253.69 326.433 253.736 327.475C253.737 327.502 253.745 327.529 253.759 327.552C253.772 327.576 253.791 327.596 253.813 327.612C253.836 327.627 253.861 327.637 253.888 327.641C253.915 327.644 253.943 327.642 253.968 327.633C254.03 327.616 254.085 327.58 254.126 327.531Z" fill="#ACFCDD"/>
<path d="M305.969 335.11C305.969 335.11 307.335 339.388 306.377 340.159C305.42 340.931 293.645 340.271 293.747 338.458C293.849 336.644 296.693 333.166 297.762 332.934C298.831 332.701 305.969 335.11 305.969 335.11Z" fill="#3A758D"/>
<path d="M295.16 71.2113C291.269 71.9595 287.621 73.649 284.533 76.1323C281.445 78.6156 279.012 81.8173 277.445 85.458C276.762 86.97 276.374 88.5987 276.302 90.2565C276.302 96.1802 279.202 117.16 279.202 127.742C279.202 138.325 275.726 176.443 275.726 176.443C287.297 177.456 298.954 176.747 310.318 174.342C320.755 172.203 326.49 176.899 326.49 176.899C326.49 176.899 321.341 130.542 318.19 109.943C315.039 89.3451 318.934 75.3588 316.331 72.2714C314.491 70.0768 304.667 69.2398 295.16 71.2113Z" fill="#F57408"/>
<path opacity="0.39" d="M321.889 137.414C321.313 132.764 320.737 128.198 320.17 123.892H318.311C318.311 123.892 305.671 133.461 300.16 133.461C296.275 133.461 285.503 129.286 279.202 128.244C279.202 130.569 279.016 133.991 278.774 137.962C284.62 140.799 297.678 146.499 307.502 145.951C312.902 145.644 317.893 141.803 321.889 137.414Z" fill="#B85706"/>
<path d="M289.816 25.9326C289.816 25.9326 282.38 32.9816 280.456 38.1892C278.505 43.5457 275.726 52.1383 275.726 52.1383L278.161 52.4638C278.161 52.4638 279.267 57.5878 278.663 60.8333C278.059 64.0788 283.561 62.6932 286.535 63.1209C289.509 63.5487 296.609 61.819 300.94 52.8451C305.272 43.8712 313.106 27.8948 289.816 25.9326Z" fill="#FC7575"/>
<path d="M302.465 72.1135C301.126 77.5164 289.109 81.822 287.947 78.9671C285.968 74.0849 287.241 69.6677 287.52 66.0131C287.603 65.0366 287.668 64.0974 287.734 63.2232C287.729 63.1924 287.729 63.1611 287.734 63.1302C287.799 62.1538 287.864 61.2704 287.919 60.6659C288.728 59.3733 294.128 50.6597 295.234 48.8929C295.234 48.8185 295.317 48.7534 295.345 48.7069C295.373 48.6604 295.345 48.7069 295.345 48.7069C295.364 48.6843 295.38 48.6592 295.392 48.6325L296.516 46.8284L296.842 46.3076L297.018 47.1353L297.093 47.47L297.455 49.1346L298.087 52.0175L298.942 55.9604L298.998 56.1929L302.465 72.1135Z" fill="#FC7575"/>
<path d="M282.78 19.1904C282.417 19.6182 275.93 28.4898 283.328 33.2325C290.726 37.9752 293.737 32.9628 295.29 36.4873C296.842 40.0118 291.814 44.7266 293.003 47.9256L295.606 48.7997C295.606 48.7997 296.451 47.2746 297.529 47.4141C298.608 47.5536 297.371 55.7836 299.109 56.0068C300.847 56.2299 305.541 49.7204 307.781 46.7073C310.021 43.6943 315.458 33.1767 309.77 29.5313C304.082 25.886 300.987 27.6715 301.489 24.9746C301.991 22.2778 298.766 24.7607 298.766 24.7607C298.453 24.0613 298.315 23.2963 298.363 22.5316C298.412 21.767 298.646 21.0256 299.044 20.3714C300.42 18.1954 293.003 16.3913 290.382 20.7434C287.761 25.0955 286.702 14.5872 282.78 19.1904Z" fill="#210075"/>
<path d="M295.773 44.15C295.773 44.15 294.639 49.4599 295.922 49.6366C297.204 49.8133 300.569 47.1537 300.727 43.8896C300.885 40.6255 297.065 40.5046 295.773 44.15Z" fill="#FC7575"/>
<path d="M296.777 43.6943C296.777 43.6943 295.736 45.7309 296.516 46.8189C297.297 47.9069 299.602 45.889 298.896 43.9733C298.189 42.0576 297.213 42.504 296.777 43.6943Z" fill="#FD5E5A"/>
<path d="M283.049 40.3652L282.594 41.63C282.594 41.63 284.908 41.63 285.912 43.0528C286.916 44.4756 287.083 44.6151 287.083 44.6151C287.083 44.6151 286.953 41.6207 283.049 40.3652Z" fill="#210075"/>
<path d="M284.732 44.6615C284.695 44.9556 284.549 45.2253 284.324 45.418C284.099 45.6106 283.81 45.7122 283.514 45.703C283.374 45.6731 283.242 45.6145 283.126 45.5309C283.01 45.4473 282.913 45.3404 282.84 45.2171C282.768 45.0938 282.722 44.9568 282.705 44.8147C282.688 44.6726 282.701 44.5286 282.743 44.3918C282.777 44.0968 282.922 43.8258 283.148 43.6327C283.373 43.4397 283.663 43.3388 283.96 43.3502C284.099 43.3826 284.229 43.4427 284.344 43.527C284.458 43.6112 284.554 43.7179 284.627 43.8405C284.699 43.9631 284.745 44.0991 284.763 44.2402C284.781 44.3813 284.771 44.5246 284.732 44.6615Z" fill="#210075"/>
<path d="M280.577 56.2952C281.343 56.4119 282.126 56.322 282.845 56.0348C283.179 55.8918 283.475 55.672 283.709 55.3931C283.921 55.1177 284.073 54.8009 284.155 54.4632C284.187 54.3634 284.256 54.2793 284.347 54.2276C284.438 54.176 284.546 54.1605 284.648 54.1842C284.697 54.1978 284.743 54.2215 284.783 54.2537C284.822 54.2859 284.855 54.3259 284.879 54.3713C284.902 54.4166 284.916 54.4664 284.92 54.5174C284.923 54.5684 284.916 54.6196 284.899 54.6678C284.903 54.6861 284.903 54.7052 284.899 54.7236C284.715 55.138 284.449 55.5111 284.118 55.8209C283.786 56.1185 283.388 56.3322 282.956 56.444C282.164 56.6062 281.343 56.5548 280.577 56.2952Z" fill="#210075"/>
<path d="M277.389 28.4434C277.355 29.0197 277.494 29.5929 277.789 30.0894C278.858 32.1167 281.571 32.7397 283.365 33.214C281.75 33.2902 280.135 33.0437 278.616 32.4886C277.741 32.1908 276.969 31.6509 276.388 30.9317C275.807 30.2124 275.442 29.3432 275.335 28.4248L277.389 28.4434Z" fill="#210075"/>
<path d="M293.7 62.9163C291.717 64.0727 289.666 65.1068 287.557 66.013C287.789 63.0557 287.919 60.6658 287.919 60.6658C287.919 60.6658 289.174 62.1537 295.355 48.5115V48.5952C295.373 49.8413 295.094 61.9119 293.7 62.9163Z" fill="#FD5E5A"/>
<path d="M278.839 58.592C278.413 59.6446 278.062 60.726 277.789 61.8282C277.566 63.0185 280.317 64.7482 283.161 64.3298C286.005 63.9113 290.085 62.6373 291.181 61.8375C292.278 61.0378 295.354 48.6882 295.354 48.6882L293.003 47.8977C293.003 47.8977 290.271 55.8301 289.072 56.7042C287.873 57.5784 278.839 58.592 278.839 58.592Z" fill="#210075"/>
<path d="M283.003 47.3769C282.64 48.2231 283.467 49.3297 284.862 49.8319C286.256 50.3341 287.65 50.0551 288.003 49.1995C288.356 48.344 287.538 47.2467 286.144 46.7445C284.75 46.2423 283.365 46.5213 283.003 47.3769Z" fill="#FD5E5A"/>
<path d="M264.814 136.205L296.228 131.695L222.908 133.396L219.515 138.055L264.814 136.205Z" fill="#374A4F"/>
<path d="M319.473 77.6094C319.473 77.6094 354.929 123 353.656 131.695C352.383 140.39 341.36 137.842 337.336 133.815C333.312 129.788 316.359 98.6167 316.359 98.6167L319.473 77.6094Z" fill="#FD5E5A"/>
<path d="M222.908 133.396L296.228 131.695V135.935L274.406 138.055H219.515L222.908 133.396Z" fill="#381A3F"/>
<path d="M274.406 138.055L268.467 92.7859L213 93.7437L218.725 138.744L274.406 138.055Z" fill="#6F4D77"/>
<path d="M268.495 92.7859L274.406 138.055L218.725 138.744L218.242 135.024C224.088 135.517 250.483 137.265 252.853 128.226C254.925 120.294 244.498 101.397 239.683 93.3253L268.495 92.7859Z" fill="#653870"/>
<path d="M268.467 92.7859L274.406 138.055L218.725 138.744L271.924 135.182L268.467 92.7859Z" fill="#381A3F"/>
<path d="M248.355 138.381C251.412 140.824 255.105 142.341 258.996 142.752C265.121 143.226 269.564 140.687 271.32 140.687C273.077 140.687 278.393 140.362 281.088 141.161C283.784 141.961 293.087 136.688 293.087 136.688C293.087 136.688 297.176 131.109 296.024 130.792C294.871 130.476 289.518 137.302 288.161 137.302C286.804 137.302 293.245 131.323 291.879 130.737C290.512 130.151 287.232 136.902 283.849 137.302C280.466 137.702 278.811 137.023 280.131 135.712C281.451 134.401 285.057 132.764 283.784 132.29C282.51 131.815 249.275 137.46 248.355 138.381Z" fill="#FC7575"/>
<path d="M289.239 118.973C289.239 118.973 293.263 117.113 296.228 117.113C299.193 117.113 303.859 118.973 312.335 118.973C320.811 118.973 349.939 119.364 351.611 123.911C353.284 128.459 356.993 134.503 349.353 137.126C341.713 139.748 304.742 126.18 300.894 125.334C300.894 125.334 298.561 128.728 296.247 128.728C293.933 128.728 292.009 128.626 292.009 128.626C292.009 128.626 287.929 129.203 287.241 128.514C286.553 127.826 284.276 127.882 284.276 127.882C284.276 127.882 279.629 132.653 277.77 132.653C275.911 132.653 280.373 125.39 281.906 123.855C283.44 122.321 289.239 118.973 289.239 118.973Z" fill="#FC7575"/>
<path d="M307.66 85.6067C309.872 90.8051 323.59 115.411 323.692 115.365L344.083 105.07C340.552 96.6451 335.133 89.3823 329.148 82.1659C325.709 78.0463 321.238 72.3272 315.207 71.7971C306.944 71.1182 304.9 79.1064 307.66 85.6067Z" fill="#F9B406"/>
<path d="M309.946 72.8667C306.461 75.3031 306.322 80.3062 307.53 83.9144C308.338 86.3043 308.032 85.2442 323.674 115.356C320.067 110.064 314.779 100.653 311.731 94.9807C308.357 88.5548 305.225 83.7005 306.396 78.0837C306.578 77.0097 306.989 75.9876 307.602 75.0873C308.214 74.1869 309.014 73.4295 309.946 72.8667Z" fill="#FFDA88"/>
<path d="M245.084 89.9087C257.617 50.838 227.538 29.9997 213 30M313.764 68.0289C324.124 75.3221 342.339 50.8377 404 89.9087M319.78 142.523C344.845 142.523 344.845 211.288 381.441 229" stroke="#0675CE" strokeDasharray="10 10"/>
<rect x="1" y="204" width="246" height="34" rx="6" fill="#EB5757"/>
<path d="M19.2578 227H17V218.297L14.3047 219.133V217.297L19.0156 215.609H19.2578V227ZM30.6172 222.297C30.6172 223.87 30.2917 225.073 29.6406 225.906C28.9896 226.74 28.0365 227.156 26.7812 227.156C25.5417 227.156 24.5938 226.747 23.9375 225.93C23.2812 225.112 22.9453 223.94 22.9297 222.414V220.32C22.9297 218.732 23.2578 217.526 23.9141 216.703C24.5755 215.88 25.526 215.469 26.7656 215.469C28.0052 215.469 28.9531 215.878 29.6094 216.695C30.2656 217.508 30.6016 218.677 30.6172 220.203V222.297ZM28.3594 220C28.3594 219.057 28.2292 218.372 27.9688 217.945C27.7135 217.513 27.3125 217.297 26.7656 217.297C26.2344 217.297 25.8411 217.503 25.5859 217.914C25.3359 218.32 25.2031 218.958 25.1875 219.828V222.594C25.1875 223.521 25.3125 224.211 25.5625 224.664C25.8177 225.112 26.224 225.336 26.7812 225.336C27.3333 225.336 27.7318 225.12 27.9766 224.688C28.2214 224.255 28.349 223.594 28.3594 222.703V220ZM39.8047 222.297C39.8047 223.87 39.4792 225.073 38.8281 225.906C38.1771 226.74 37.224 227.156 35.9688 227.156C34.7292 227.156 33.7812 226.747 33.125 225.93C32.4688 225.112 32.1328 223.94 32.1172 222.414V220.32C32.1172 218.732 32.4453 217.526 33.1016 216.703C33.763 215.88 34.7135 215.469 35.9531 215.469C37.1927 215.469 38.1406 215.878 38.7969 216.695C39.4531 217.508 39.7891 218.677 39.8047 220.203V222.297ZM37.5469 220C37.5469 219.057 37.4167 218.372 37.1562 217.945C36.901 217.513 36.5 217.297 35.9531 217.297C35.4219 217.297 35.0286 217.503 34.7734 217.914C34.5234 218.32 34.3906 218.958 34.375 219.828V222.594C34.375 223.521 34.5 224.211 34.75 224.664C35.0052 225.112 35.4115 225.336 35.9688 225.336C36.5208 225.336 36.9193 225.12 37.1641 224.688C37.4089 224.255 37.5365 223.594 37.5469 222.703V220ZM41.3047 217.812C41.3047 217.115 41.5312 216.549 41.9844 216.117C42.4375 215.68 43.0312 215.461 43.7656 215.461C44.5104 215.461 45.1094 215.677 45.5625 216.109C46.0156 216.536 46.2422 217.117 46.2422 217.852V218.414C46.2422 219.117 46.0156 219.682 45.5625 220.109C45.1094 220.536 44.5156 220.75 43.7812 220.75C43.0417 220.75 42.4427 220.536 41.9844 220.109C41.5312 219.677 41.3047 219.096 41.3047 218.367V217.812ZM42.8047 218.414C42.8047 218.727 42.8932 218.979 43.0703 219.172C43.2526 219.359 43.4896 219.453 43.7812 219.453C44.0729 219.453 44.3047 219.357 44.4766 219.164C44.6484 218.971 44.7344 218.714 44.7344 218.391V217.812C44.7344 217.5 44.6484 217.247 44.4766 217.055C44.3047 216.862 44.0677 216.766 43.7656 216.766C43.4792 216.766 43.2474 216.862 43.0703 217.055C42.8932 217.242 42.8047 217.505 42.8047 217.844V218.414ZM46.7422 224.211C46.7422 223.508 46.9714 222.943 47.4297 222.516C47.888 222.083 48.4818 221.867 49.2109 221.867C49.9505 221.867 50.5469 222.081 51 222.508C51.4583 222.93 51.6875 223.513 51.6875 224.258V224.82C51.6875 225.518 51.4635 226.083 51.0156 226.516C50.5677 226.943 49.9714 227.156 49.2266 227.156C48.4766 227.156 47.875 226.94 47.4219 226.508C46.9688 226.076 46.7422 225.503 46.7422 224.789V224.211ZM48.2422 224.82C48.2422 225.107 48.3359 225.352 48.5234 225.555C48.7109 225.758 48.9453 225.859 49.2266 225.859C49.862 225.859 50.1797 225.508 50.1797 224.805V224.211C50.1797 223.898 50.0911 223.648 49.9141 223.461C49.737 223.268 49.5026 223.172 49.2109 223.172C48.9193 223.172 48.6849 223.268 48.5078 223.461C48.3307 223.648 48.2422 223.906 48.2422 224.234V224.82ZM44.2266 226.148L43.125 225.555L48.6797 216.664L49.7812 217.258L44.2266 226.148ZM57.8438 227V220.203H56.5859V218.547H57.8438V217.828C57.8438 216.88 58.1146 216.146 58.6562 215.625C59.2031 215.099 59.9661 214.836 60.9453 214.836C61.2578 214.836 61.6406 214.888 62.0938 214.992L62.0703 216.742C61.8828 216.695 61.6536 216.672 61.3828 216.672C60.5339 216.672 60.1094 217.07 60.1094 217.867V218.547H61.7891V220.203H60.1094V227H57.8438ZM62.6094 222.695C62.6094 221.857 62.7708 221.109 63.0938 220.453C63.4167 219.797 63.8802 219.289 64.4844 218.93C65.0938 218.57 65.7995 218.391 66.6016 218.391C67.7422 218.391 68.6719 218.74 69.3906 219.438C70.1146 220.135 70.5182 221.083 70.6016 222.281L70.6172 222.859C70.6172 224.156 70.2552 225.198 69.5312 225.984C68.8073 226.766 67.8359 227.156 66.6172 227.156C65.3984 227.156 64.4245 226.766 63.6953 225.984C62.9714 225.203 62.6094 224.141 62.6094 222.797V222.695ZM64.8672 222.859C64.8672 223.661 65.0182 224.276 65.3203 224.703C65.6224 225.125 66.0547 225.336 66.6172 225.336C67.1641 225.336 67.5911 225.128 67.8984 224.711C68.2057 224.289 68.3594 223.617 68.3594 222.695C68.3594 221.909 68.2057 221.299 67.8984 220.867C67.5911 220.435 67.1589 220.219 66.6016 220.219C66.0495 220.219 65.6224 220.435 65.3203 220.867C65.0182 221.294 64.8672 221.958 64.8672 222.859ZM75.5234 225.336C75.9401 225.336 76.2786 225.221 76.5391 224.992C76.7995 224.763 76.9349 224.458 76.9453 224.078H79.0625C79.0573 224.651 78.901 225.177 78.5938 225.656C78.2865 226.13 77.8646 226.5 77.3281 226.766C76.7969 227.026 76.2083 227.156 75.5625 227.156C74.3542 227.156 73.401 226.773 72.7031 226.008C72.0052 225.237 71.6562 224.174 71.6562 222.82V222.672C71.6562 221.37 72.0026 220.331 72.6953 219.555C73.388 218.779 74.3385 218.391 75.5469 218.391C76.6042 218.391 77.4505 218.693 78.0859 219.297C78.7266 219.896 79.0521 220.695 79.0625 221.695H76.9453C76.9349 221.258 76.7995 220.904 76.5391 220.633C76.2786 220.357 75.9349 220.219 75.5078 220.219C74.9818 220.219 74.5833 220.411 74.3125 220.797C74.0469 221.177 73.9141 221.797 73.9141 222.656V222.891C73.9141 223.76 74.0469 224.385 74.3125 224.766C74.5781 225.146 74.9818 225.336 75.5234 225.336ZM85.4141 226.141C84.8568 226.818 84.0859 227.156 83.1016 227.156C82.1953 227.156 81.5026 226.896 81.0234 226.375C80.5495 225.854 80.3073 225.091 80.2969 224.086V218.547H82.5547V224.008C82.5547 224.888 82.9557 225.328 83.7578 225.328C84.5234 225.328 85.0495 225.062 85.3359 224.531V218.547H87.6016V227H85.4766L85.4141 226.141ZM93.8828 224.664C93.8828 224.388 93.7448 224.172 93.4688 224.016C93.1979 223.854 92.7604 223.711 92.1562 223.586C90.1458 223.164 89.1406 222.31 89.1406 221.023C89.1406 220.273 89.4505 219.648 90.0703 219.148C90.6953 218.643 91.5104 218.391 92.5156 218.391C93.5885 218.391 94.4453 218.643 95.0859 219.148C95.7318 219.654 96.0547 220.31 96.0547 221.117H93.7969C93.7969 220.794 93.6927 220.529 93.4844 220.32C93.276 220.107 92.9505 220 92.5078 220C92.1276 220 91.8333 220.086 91.625 220.258C91.4167 220.43 91.3125 220.648 91.3125 220.914C91.3125 221.164 91.4297 221.367 91.6641 221.523C91.9036 221.674 92.3047 221.807 92.8672 221.922C93.4297 222.031 93.9036 222.156 94.2891 222.297C95.4818 222.734 96.0781 223.492 96.0781 224.57C96.0781 225.341 95.7474 225.966 95.0859 226.445C94.4245 226.919 93.5703 227.156 92.5234 227.156C91.8151 227.156 91.1849 227.031 90.6328 226.781C90.0859 226.526 89.6562 226.18 89.3438 225.742C89.0312 225.299 88.875 224.823 88.875 224.312H91.0156C91.0365 224.714 91.1849 225.021 91.4609 225.234C91.737 225.448 92.1068 225.555 92.5703 225.555C93.0026 225.555 93.3281 225.474 93.5469 225.312C93.7708 225.146 93.8828 224.93 93.8828 224.664ZM101.43 227.156C100.19 227.156 99.1797 226.776 98.3984 226.016C97.6224 225.255 97.2344 224.242 97.2344 222.977V222.758C97.2344 221.909 97.3984 221.151 97.7266 220.484C98.0547 219.812 98.5182 219.297 99.1172 218.938C99.7214 218.573 100.409 218.391 101.18 218.391C102.336 218.391 103.245 218.755 103.906 219.484C104.573 220.214 104.906 221.247 104.906 222.586V223.508H99.5234C99.5964 224.06 99.8151 224.503 100.18 224.836C100.549 225.169 101.016 225.336 101.578 225.336C102.448 225.336 103.128 225.021 103.617 224.391L104.727 225.633C104.388 226.112 103.93 226.487 103.352 226.758C102.773 227.023 102.133 227.156 101.43 227.156ZM101.172 220.219C100.724 220.219 100.359 220.37 100.078 220.672C99.8021 220.974 99.625 221.406 99.5469 221.969H102.688V221.789C102.677 221.289 102.542 220.904 102.281 220.633C102.021 220.357 101.651 220.219 101.172 220.219ZM105.844 222.711C105.844 221.393 106.138 220.344 106.727 219.562C107.32 218.781 108.13 218.391 109.156 218.391C109.979 218.391 110.659 218.698 111.195 219.312V215H113.461V227H111.422L111.312 226.102C110.75 226.805 110.026 227.156 109.141 227.156C108.146 227.156 107.346 226.766 106.742 225.984C106.143 225.198 105.844 224.107 105.844 222.711ZM108.102 222.875C108.102 223.667 108.24 224.273 108.516 224.695C108.792 225.117 109.193 225.328 109.719 225.328C110.417 225.328 110.909 225.034 111.195 224.445V221.109C110.914 220.521 110.427 220.227 109.734 220.227C108.646 220.227 108.102 221.109 108.102 222.875ZM118.844 222.695C118.844 221.857 119.005 221.109 119.328 220.453C119.651 219.797 120.115 219.289 120.719 218.93C121.328 218.57 122.034 218.391 122.836 218.391C123.977 218.391 124.906 218.74 125.625 219.438C126.349 220.135 126.753 221.083 126.836 222.281L126.852 222.859C126.852 224.156 126.49 225.198 125.766 225.984C125.042 226.766 124.07 227.156 122.852 227.156C121.633 227.156 120.659 226.766 119.93 225.984C119.206 225.203 118.844 224.141 118.844 222.797V222.695ZM121.102 222.859C121.102 223.661 121.253 224.276 121.555 224.703C121.857 225.125 122.289 225.336 122.852 225.336C123.398 225.336 123.826 225.128 124.133 224.711C124.44 224.289 124.594 223.617 124.594 222.695C124.594 221.909 124.44 221.299 124.133 220.867C123.826 220.435 123.393 220.219 122.836 220.219C122.284 220.219 121.857 220.435 121.555 220.867C121.253 221.294 121.102 221.958 121.102 222.859ZM130.32 218.547L130.391 219.523C130.995 218.768 131.805 218.391 132.82 218.391C133.716 218.391 134.383 218.654 134.82 219.18C135.258 219.706 135.482 220.492 135.492 221.539V227H133.234V221.594C133.234 221.115 133.13 220.768 132.922 220.555C132.714 220.336 132.367 220.227 131.883 220.227C131.247 220.227 130.771 220.497 130.453 221.039V227H128.195V218.547H130.32ZM143.586 218.547V227.461C143.586 228.393 143.339 229.117 142.844 229.633C142.349 230.154 141.635 230.414 140.703 230.414C140.312 230.414 139.94 230.37 139.586 230.281V228.492C139.857 228.539 140.094 228.562 140.297 228.562C140.979 228.562 141.32 228.201 141.32 227.477V218.547H143.586ZM141.141 216.359C141.141 216.021 141.253 215.742 141.477 215.523C141.706 215.305 142.016 215.195 142.406 215.195C142.797 215.195 143.104 215.305 143.328 215.523C143.557 215.742 143.672 216.021 143.672 216.359C143.672 216.703 143.555 216.984 143.32 217.203C143.091 217.422 142.786 217.531 142.406 217.531C142.026 217.531 141.719 217.422 141.484 217.203C141.255 216.984 141.141 216.703 141.141 216.359ZM145 222.695C145 221.857 145.161 221.109 145.484 220.453C145.807 219.797 146.271 219.289 146.875 218.93C147.484 218.57 148.19 218.391 148.992 218.391C150.133 218.391 151.062 218.74 151.781 219.438C152.505 220.135 152.909 221.083 152.992 222.281L153.008 222.859C153.008 224.156 152.646 225.198 151.922 225.984C151.198 226.766 150.227 227.156 149.008 227.156C147.789 227.156 146.815 226.766 146.086 225.984C145.362 225.203 145 224.141 145 222.797V222.695ZM147.258 222.859C147.258 223.661 147.409 224.276 147.711 224.703C148.013 225.125 148.445 225.336 149.008 225.336C149.555 225.336 149.982 225.128 150.289 224.711C150.596 224.289 150.75 223.617 150.75 222.695C150.75 221.909 150.596 221.299 150.289 220.867C149.982 220.435 149.549 220.219 148.992 220.219C148.44 220.219 148.013 220.435 147.711 220.867C147.409 221.294 147.258 221.958 147.258 222.859ZM162.016 222.852C162.016 224.206 161.727 225.263 161.148 226.023C160.57 226.779 159.763 227.156 158.727 227.156C157.81 227.156 157.078 226.805 156.531 226.102L156.43 227H154.398V215H156.656V219.305C157.177 218.695 157.862 218.391 158.711 218.391C159.742 218.391 160.549 218.771 161.133 219.531C161.721 220.286 162.016 221.352 162.016 222.727V222.852ZM159.758 222.688C159.758 221.833 159.622 221.211 159.352 220.82C159.081 220.424 158.677 220.227 158.141 220.227C157.422 220.227 156.927 220.521 156.656 221.109V224.445C156.932 225.039 157.432 225.336 158.156 225.336C158.885 225.336 159.365 224.977 159.594 224.258C159.703 223.914 159.758 223.391 159.758 222.688ZM169.781 227H167.516V218.547H169.781V227ZM167.383 216.359C167.383 216.021 167.495 215.742 167.719 215.523C167.948 215.305 168.258 215.195 168.648 215.195C169.034 215.195 169.341 215.305 169.57 215.523C169.799 215.742 169.914 216.021 169.914 216.359C169.914 216.703 169.797 216.984 169.562 217.203C169.333 217.422 169.029 217.531 168.648 217.531C168.268 217.531 167.961 217.422 167.727 217.203C167.497 216.984 167.383 216.703 167.383 216.359ZM173.727 218.547L173.797 219.523C174.401 218.768 175.211 218.391 176.227 218.391C177.122 218.391 177.789 218.654 178.227 219.18C178.664 219.706 178.888 220.492 178.898 221.539V227H176.641V221.594C176.641 221.115 176.536 220.768 176.328 220.555C176.12 220.336 175.773 220.227 175.289 220.227C174.654 220.227 174.177 220.497 173.859 221.039V227H171.602V218.547H173.727ZM183.32 216.469V218.547H184.766V220.203H183.32V224.422C183.32 224.734 183.38 224.958 183.5 225.094C183.62 225.229 183.849 225.297 184.188 225.297C184.438 225.297 184.659 225.279 184.852 225.242V226.953C184.409 227.089 183.953 227.156 183.484 227.156C181.901 227.156 181.094 226.357 181.062 224.758V220.203H179.828V218.547H181.062V216.469H183.32ZM189.914 227.156C188.674 227.156 187.664 226.776 186.883 226.016C186.107 225.255 185.719 224.242 185.719 222.977V222.758C185.719 221.909 185.883 221.151 186.211 220.484C186.539 219.812 187.003 219.297 187.602 218.938C188.206 218.573 188.893 218.391 189.664 218.391C190.82 218.391 191.729 218.755 192.391 219.484C193.057 220.214 193.391 221.247 193.391 222.586V223.508H188.008C188.081 224.06 188.299 224.503 188.664 224.836C189.034 225.169 189.5 225.336 190.062 225.336C190.932 225.336 191.612 225.021 192.102 224.391L193.211 225.633C192.872 226.112 192.414 226.487 191.836 226.758C191.258 227.023 190.617 227.156 189.914 227.156ZM189.656 220.219C189.208 220.219 188.844 220.37 188.562 220.672C188.286 220.974 188.109 221.406 188.031 221.969H191.172V221.789C191.161 221.289 191.026 220.904 190.766 220.633C190.505 220.357 190.135 220.219 189.656 220.219ZM199.43 220.664C199.122 220.622 198.852 220.602 198.617 220.602C197.763 220.602 197.203 220.891 196.938 221.469V227H194.68V218.547H196.812L196.875 219.555C197.328 218.779 197.956 218.391 198.758 218.391C199.008 218.391 199.242 218.424 199.461 218.492L199.43 220.664ZM203.828 224.242L205.398 218.547H207.758L204.906 227H202.75L199.898 218.547H202.258L203.828 224.242ZM211.141 227H208.875V218.547H211.141V227ZM208.742 216.359C208.742 216.021 208.854 215.742 209.078 215.523C209.307 215.305 209.617 215.195 210.008 215.195C210.393 215.195 210.701 215.305 210.93 215.523C211.159 215.742 211.273 216.021 211.273 216.359C211.273 216.703 211.156 216.984 210.922 217.203C210.693 217.422 210.388 217.531 210.008 217.531C209.628 217.531 209.32 217.422 209.086 217.203C208.857 216.984 208.742 216.703 208.742 216.359ZM216.898 227.156C215.659 227.156 214.648 226.776 213.867 226.016C213.091 225.255 212.703 224.242 212.703 222.977V222.758C212.703 221.909 212.867 221.151 213.195 220.484C213.523 219.812 213.987 219.297 214.586 218.938C215.19 218.573 215.878 218.391 216.648 218.391C217.805 218.391 218.714 218.755 219.375 219.484C220.042 220.214 220.375 221.247 220.375 222.586V223.508H214.992C215.065 224.06 215.284 224.503 215.648 224.836C216.018 225.169 216.484 225.336 217.047 225.336C217.917 225.336 218.596 225.021 219.086 224.391L220.195 225.633C219.857 226.112 219.398 226.487 218.82 226.758C218.242 227.023 217.602 227.156 216.898 227.156ZM216.641 220.219C216.193 220.219 215.828 220.37 215.547 220.672C215.271 220.974 215.094 221.406 215.016 221.969H218.156V221.789C218.146 221.289 218.01 220.904 217.75 220.633C217.49 220.357 217.12 220.219 216.641 220.219ZM229.016 223.93L230.125 218.547H232.305L230.148 227H228.258L226.656 221.68L225.055 227H223.172L221.016 218.547H223.195L224.297 223.922L225.844 218.547H227.477L229.016 223.93Z" fill="white"/>
<rect y="160" width="248" height="34" rx="6" fill="#EB5757"/>
<path d="M42.4531 178.719H43.7422V180.539H42.4531V183H40.1953V180.539H35.5312L35.4297 179.117L40.1719 171.625H42.4531V178.719ZM37.6797 178.719H40.1953V174.703L40.0469 174.961L37.6797 178.719ZM52.6172 178.297C52.6172 179.87 52.2917 181.073 51.6406 181.906C50.9896 182.74 50.0365 183.156 48.7812 183.156C47.5417 183.156 46.5938 182.747 45.9375 181.93C45.2812 181.112 44.9453 179.94 44.9297 178.414V176.32C44.9297 174.732 45.2578 173.526 45.9141 172.703C46.5755 171.88 47.526 171.469 48.7656 171.469C50.0052 171.469 50.9531 171.878 51.6094 172.695C52.2656 173.508 52.6016 174.677 52.6172 176.203V178.297ZM50.3594 176C50.3594 175.057 50.2292 174.372 49.9688 173.945C49.7135 173.513 49.3125 173.297 48.7656 173.297C48.2344 173.297 47.8411 173.503 47.5859 173.914C47.3359 174.32 47.2031 174.958 47.1875 175.828V178.594C47.1875 179.521 47.3125 180.211 47.5625 180.664C47.8177 181.112 48.224 181.336 48.7812 181.336C49.3333 181.336 49.7318 181.12 49.9766 180.688C50.2214 180.255 50.349 179.594 50.3594 178.703V176ZM58.7969 176.633H61.6172V178.672H58.7969V181.859H56.6484V178.672H53.8203V176.633H56.6484V173.578H58.7969V176.633ZM69.1641 175.469C69.763 174.75 70.5156 174.391 71.4219 174.391C73.2552 174.391 74.1849 175.456 74.2109 177.586V183H71.9531V177.648C71.9531 177.164 71.849 176.807 71.6406 176.578C71.4323 176.344 71.0859 176.227 70.6016 176.227C69.9401 176.227 69.4609 176.482 69.1641 176.992V183H66.9062V171H69.1641V175.469ZM75.5625 178.695C75.5625 177.857 75.724 177.109 76.0469 176.453C76.3698 175.797 76.8333 175.289 77.4375 174.93C78.0469 174.57 78.7526 174.391 79.5547 174.391C80.6953 174.391 81.625 174.74 82.3438 175.438C83.0677 176.135 83.4714 177.083 83.5547 178.281L83.5703 178.859C83.5703 180.156 83.2083 181.198 82.4844 181.984C81.7604 182.766 80.7891 183.156 79.5703 183.156C78.3516 183.156 77.3776 182.766 76.6484 181.984C75.9245 181.203 75.5625 180.141 75.5625 178.797V178.695ZM77.8203 178.859C77.8203 179.661 77.9714 180.276 78.2734 180.703C78.5755 181.125 79.0078 181.336 79.5703 181.336C80.1172 181.336 80.5443 181.128 80.8516 180.711C81.1589 180.289 81.3125 179.617 81.3125 178.695C81.3125 177.909 81.1589 177.299 80.8516 176.867C80.5443 176.435 80.112 176.219 79.5547 176.219C79.0026 176.219 78.5755 176.435 78.2734 176.867C77.9714 177.294 77.8203 177.958 77.8203 178.859ZM90.0234 182.141C89.4661 182.818 88.6953 183.156 87.7109 183.156C86.8047 183.156 86.112 182.896 85.6328 182.375C85.1589 181.854 84.9167 181.091 84.9062 180.086V174.547H87.1641V180.008C87.1641 180.888 87.5651 181.328 88.3672 181.328C89.1328 181.328 89.6589 181.062 89.9453 180.531V174.547H92.2109V183H90.0859L90.0234 182.141ZM98.6641 176.664C98.3568 176.622 98.0859 176.602 97.8516 176.602C96.9974 176.602 96.4375 176.891 96.1719 177.469V183H93.9141V174.547H96.0469L96.1094 175.555C96.5625 174.779 97.1901 174.391 97.9922 174.391C98.2422 174.391 98.4766 174.424 98.6953 174.492L98.6641 176.664ZM104.336 180.664C104.336 180.388 104.198 180.172 103.922 180.016C103.651 179.854 103.214 179.711 102.609 179.586C100.599 179.164 99.5938 178.31 99.5938 177.023C99.5938 176.273 99.9036 175.648 100.523 175.148C101.148 174.643 101.964 174.391 102.969 174.391C104.042 174.391 104.898 174.643 105.539 175.148C106.185 175.654 106.508 176.31 106.508 177.117H104.25C104.25 176.794 104.146 176.529 103.938 176.32C103.729 176.107 103.404 176 102.961 176C102.581 176 102.286 176.086 102.078 176.258C101.87 176.43 101.766 176.648 101.766 176.914C101.766 177.164 101.883 177.367 102.117 177.523C102.357 177.674 102.758 177.807 103.32 177.922C103.883 178.031 104.357 178.156 104.742 178.297C105.935 178.734 106.531 179.492 106.531 180.57C106.531 181.341 106.201 181.966 105.539 182.445C104.878 182.919 104.023 183.156 102.977 183.156C102.268 183.156 101.638 183.031 101.086 182.781C100.539 182.526 100.109 182.18 99.7969 181.742C99.4844 181.299 99.3281 180.823 99.3281 180.312H101.469C101.49 180.714 101.638 181.021 101.914 181.234C102.19 181.448 102.56 181.555 103.023 181.555C103.456 181.555 103.781 181.474 104 181.312C104.224 181.146 104.336 180.93 104.336 180.664ZM111.625 178.695C111.625 177.857 111.786 177.109 112.109 176.453C112.432 175.797 112.896 175.289 113.5 174.93C114.109 174.57 114.815 174.391 115.617 174.391C116.758 174.391 117.688 174.74 118.406 175.438C119.13 176.135 119.534 177.083 119.617 178.281L119.633 178.859C119.633 180.156 119.271 181.198 118.547 181.984C117.823 182.766 116.852 183.156 115.633 183.156C114.414 183.156 113.44 182.766 112.711 181.984C111.987 181.203 111.625 180.141 111.625 178.797V178.695ZM113.883 178.859C113.883 179.661 114.034 180.276 114.336 180.703C114.638 181.125 115.07 181.336 115.633 181.336C116.18 181.336 116.607 181.128 116.914 180.711C117.221 180.289 117.375 179.617 117.375 178.695C117.375 177.909 117.221 177.299 116.914 176.867C116.607 176.435 116.174 176.219 115.617 176.219C115.065 176.219 114.638 176.435 114.336 176.867C114.034 177.294 113.883 177.958 113.883 178.859ZM121.641 183V176.203H120.383V174.547H121.641V173.828C121.641 172.88 121.911 172.146 122.453 171.625C123 171.099 123.763 170.836 124.742 170.836C125.055 170.836 125.438 170.888 125.891 170.992L125.867 172.742C125.68 172.695 125.451 172.672 125.18 172.672C124.331 172.672 123.906 173.07 123.906 173.867V174.547H125.586V176.203H123.906V183H121.641ZM133.125 183H130.859V171H133.125V183ZM137.375 183H135.109V174.547H137.375V183ZM134.977 172.359C134.977 172.021 135.089 171.742 135.312 171.523C135.542 171.305 135.852 171.195 136.242 171.195C136.628 171.195 136.935 171.305 137.164 171.523C137.393 171.742 137.508 172.021 137.508 172.359C137.508 172.703 137.391 172.984 137.156 173.203C136.927 173.422 136.622 173.531 136.242 173.531C135.862 173.531 135.555 173.422 135.32 173.203C135.091 172.984 134.977 172.703 134.977 172.359ZM142.406 180.242L143.977 174.547H146.336L143.484 183H141.328L138.477 174.547H140.836L142.406 180.242ZM151.117 183.156C149.878 183.156 148.867 182.776 148.086 182.016C147.31 181.255 146.922 180.242 146.922 178.977V178.758C146.922 177.909 147.086 177.151 147.414 176.484C147.742 175.812 148.206 175.297 148.805 174.938C149.409 174.573 150.096 174.391 150.867 174.391C152.023 174.391 152.932 174.755 153.594 175.484C154.26 176.214 154.594 177.247 154.594 178.586V179.508H149.211C149.284 180.06 149.503 180.503 149.867 180.836C150.237 181.169 150.703 181.336 151.266 181.336C152.135 181.336 152.815 181.021 153.305 180.391L154.414 181.633C154.076 182.112 153.617 182.487 153.039 182.758C152.461 183.023 151.82 183.156 151.117 183.156ZM150.859 176.219C150.411 176.219 150.047 176.37 149.766 176.672C149.49 176.974 149.312 177.406 149.234 177.969H152.375V177.789C152.365 177.289 152.229 176.904 151.969 176.633C151.708 176.357 151.339 176.219 150.859 176.219ZM163.383 181.336C163.799 181.336 164.138 181.221 164.398 180.992C164.659 180.763 164.794 180.458 164.805 180.078H166.922C166.917 180.651 166.76 181.177 166.453 181.656C166.146 182.13 165.724 182.5 165.188 182.766C164.656 183.026 164.068 183.156 163.422 183.156C162.214 183.156 161.26 182.773 160.562 182.008C159.865 181.237 159.516 180.174 159.516 178.82V178.672C159.516 177.37 159.862 176.331 160.555 175.555C161.247 174.779 162.198 174.391 163.406 174.391C164.464 174.391 165.31 174.693 165.945 175.297C166.586 175.896 166.911 176.695 166.922 177.695H164.805C164.794 177.258 164.659 176.904 164.398 176.633C164.138 176.357 163.794 176.219 163.367 176.219C162.841 176.219 162.443 176.411 162.172 176.797C161.906 177.177 161.773 177.797 161.773 178.656V178.891C161.773 179.76 161.906 180.385 162.172 180.766C162.438 181.146 162.841 181.336 163.383 181.336ZM170.594 183H168.328V171H170.594V183ZM177.359 183C177.255 182.797 177.18 182.544 177.133 182.242C176.586 182.852 175.875 183.156 175 183.156C174.172 183.156 173.484 182.917 172.938 182.438C172.396 181.958 172.125 181.354 172.125 180.625C172.125 179.729 172.456 179.042 173.117 178.562C173.784 178.083 174.745 177.841 176 177.836H177.039V177.352C177.039 176.961 176.938 176.648 176.734 176.414C176.536 176.18 176.221 176.062 175.789 176.062C175.409 176.062 175.109 176.154 174.891 176.336C174.677 176.518 174.57 176.768 174.57 177.086H172.312C172.312 176.596 172.464 176.143 172.766 175.727C173.068 175.31 173.495 174.984 174.047 174.75C174.599 174.51 175.219 174.391 175.906 174.391C176.948 174.391 177.773 174.654 178.383 175.18C178.997 175.701 179.305 176.435 179.305 177.383V181.047C179.31 181.849 179.422 182.456 179.641 182.867V183H177.359ZM175.492 181.43C175.826 181.43 176.133 181.357 176.414 181.211C176.695 181.06 176.904 180.859 177.039 180.609V179.156H176.195C175.065 179.156 174.464 179.547 174.391 180.328L174.383 180.461C174.383 180.742 174.482 180.974 174.68 181.156C174.878 181.339 175.148 181.43 175.492 181.43ZM185.617 180.664C185.617 180.388 185.479 180.172 185.203 180.016C184.932 179.854 184.495 179.711 183.891 179.586C181.88 179.164 180.875 178.31 180.875 177.023C180.875 176.273 181.185 175.648 181.805 175.148C182.43 174.643 183.245 174.391 184.25 174.391C185.323 174.391 186.18 174.643 186.82 175.148C187.466 175.654 187.789 176.31 187.789 177.117H185.531C185.531 176.794 185.427 176.529 185.219 176.32C185.01 176.107 184.685 176 184.242 176C183.862 176 183.568 176.086 183.359 176.258C183.151 176.43 183.047 176.648 183.047 176.914C183.047 177.164 183.164 177.367 183.398 177.523C183.638 177.674 184.039 177.807 184.602 177.922C185.164 178.031 185.638 178.156 186.023 178.297C187.216 178.734 187.812 179.492 187.812 180.57C187.812 181.341 187.482 181.966 186.82 182.445C186.159 182.919 185.305 183.156 184.258 183.156C183.549 183.156 182.919 183.031 182.367 182.781C181.82 182.526 181.391 182.18 181.078 181.742C180.766 181.299 180.609 180.823 180.609 180.312H182.75C182.771 180.714 182.919 181.021 183.195 181.234C183.471 181.448 183.841 181.555 184.305 181.555C184.737 181.555 185.062 181.474 185.281 181.312C185.505 181.146 185.617 180.93 185.617 180.664ZM193.852 180.664C193.852 180.388 193.714 180.172 193.438 180.016C193.167 179.854 192.729 179.711 192.125 179.586C190.115 179.164 189.109 178.31 189.109 177.023C189.109 176.273 189.419 175.648 190.039 175.148C190.664 174.643 191.479 174.391 192.484 174.391C193.557 174.391 194.414 174.643 195.055 175.148C195.701 175.654 196.023 176.31 196.023 177.117H193.766C193.766 176.794 193.661 176.529 193.453 176.32C193.245 176.107 192.919 176 192.477 176C192.096 176 191.802 176.086 191.594 176.258C191.385 176.43 191.281 176.648 191.281 176.914C191.281 177.164 191.398 177.367 191.633 177.523C191.872 177.674 192.273 177.807 192.836 177.922C193.398 178.031 193.872 178.156 194.258 178.297C195.451 178.734 196.047 179.492 196.047 180.57C196.047 181.341 195.716 181.966 195.055 182.445C194.393 182.919 193.539 183.156 192.492 183.156C191.784 183.156 191.154 183.031 190.602 182.781C190.055 182.526 189.625 182.18 189.312 181.742C189 181.299 188.844 180.823 188.844 180.312H190.984C191.005 180.714 191.154 181.021 191.43 181.234C191.706 181.448 192.076 181.555 192.539 181.555C192.971 181.555 193.297 181.474 193.516 181.312C193.74 181.146 193.852 180.93 193.852 180.664ZM201.398 183.156C200.159 183.156 199.148 182.776 198.367 182.016C197.591 181.255 197.203 180.242 197.203 178.977V178.758C197.203 177.909 197.367 177.151 197.695 176.484C198.023 175.812 198.487 175.297 199.086 174.938C199.69 174.573 200.378 174.391 201.148 174.391C202.305 174.391 203.214 174.755 203.875 175.484C204.542 176.214 204.875 177.247 204.875 178.586V179.508H199.492C199.565 180.06 199.784 180.503 200.148 180.836C200.518 181.169 200.984 181.336 201.547 181.336C202.417 181.336 203.096 181.021 203.586 180.391L204.695 181.633C204.357 182.112 203.898 182.487 203.32 182.758C202.742 183.023 202.102 183.156 201.398 183.156ZM201.141 176.219C200.693 176.219 200.328 176.37 200.047 176.672C199.771 176.974 199.594 177.406 199.516 177.969H202.656V177.789C202.646 177.289 202.51 176.904 202.25 176.633C201.99 176.357 201.62 176.219 201.141 176.219ZM210.742 180.664C210.742 180.388 210.604 180.172 210.328 180.016C210.057 179.854 209.62 179.711 209.016 179.586C207.005 179.164 206 178.31 206 177.023C206 176.273 206.31 175.648 206.93 175.148C207.555 174.643 208.37 174.391 209.375 174.391C210.448 174.391 211.305 174.643 211.945 175.148C212.591 175.654 212.914 176.31 212.914 177.117H210.656C210.656 176.794 210.552 176.529 210.344 176.32C210.135 176.107 209.81 176 209.367 176C208.987 176 208.693 176.086 208.484 176.258C208.276 176.43 208.172 176.648 208.172 176.914C208.172 177.164 208.289 177.367 208.523 177.523C208.763 177.674 209.164 177.807 209.727 177.922C210.289 178.031 210.763 178.156 211.148 178.297C212.341 178.734 212.938 179.492 212.938 180.57C212.938 181.341 212.607 181.966 211.945 182.445C211.284 182.919 210.43 183.156 209.383 183.156C208.674 183.156 208.044 183.031 207.492 182.781C206.945 182.526 206.516 182.18 206.203 181.742C205.891 181.299 205.734 180.823 205.734 180.312H207.875C207.896 180.714 208.044 181.021 208.32 181.234C208.596 181.448 208.966 181.555 209.43 181.555C209.862 181.555 210.188 181.474 210.406 181.312C210.63 181.146 210.742 180.93 210.742 180.664Z" fill="white"/>
<circle cx="392.5" cy="238.5" r="23.5" fill="#D5F2FB"/>
<circle cx="426.5" cy="101.5" r="23.5" fill="#D5F2FB"/>
<circle cx="194.5" cy="23.5" r="23.5" fill="#D5F2FB"/>
<path d="M190.908 17.8624C188.195 17.8624 185.997 20.0611 185.997 22.7732C185.997 25.4854 188.195 27.684 190.908 27.684C193.62 27.684 195.818 25.4854 195.818 22.7732C195.818 20.0611 193.62 17.8624 190.908 17.8624ZM194.542 20.9317H192.772C192.603 20.0835 192.339 19.398 192.069 18.8691C193.15 19.1919 194.038 19.9418 194.542 20.9317ZM192.135 22.7732C192.135 23.1386 192.108 23.4742 192.07 23.7963H189.745C189.707 23.4742 189.68 23.1385 189.68 22.7732C189.68 22.4077 189.707 22.0722 189.744 21.7501H192.071C192.108 22.0722 192.135 22.4078 192.135 22.7732ZM190.789 18.6929C190.829 18.6917 190.867 18.6809 190.908 18.6809C190.949 18.6809 190.987 18.6919 191.028 18.6931C191.335 19.1642 191.708 19.9096 191.935 20.9317H189.881C190.108 19.9061 190.483 19.1611 190.789 18.6929ZM189.747 18.8691C189.478 19.3969 189.213 20.0832 189.044 20.9317H187.273C187.777 19.9418 188.665 19.1921 189.747 18.8691ZM186.815 22.7732C186.815 22.4179 186.875 22.0791 186.961 21.7501H188.919C188.885 22.0743 188.861 22.4114 188.861 22.7732C188.861 23.1353 188.886 23.472 188.921 23.7963H186.961C186.875 23.4674 186.815 23.1285 186.815 22.7732ZM187.273 24.6148H189.046C189.217 25.4648 189.481 26.1562 189.746 26.677C188.665 26.354 187.777 25.6043 187.273 24.6148ZM191.027 26.8536C190.986 26.8548 190.948 26.8656 190.908 26.8656C190.867 26.8656 190.829 26.8548 190.789 26.8536C190.495 26.4024 190.113 25.6554 189.882 24.6148H191.934C191.703 25.6547 191.321 26.4014 191.027 26.8536ZM192.07 26.677C192.335 26.1557 192.599 25.4649 192.77 24.6148H194.542C194.038 25.6042 193.151 26.3539 192.07 26.677ZM192.895 23.7963C192.929 23.472 192.954 23.1353 192.954 22.7732C192.954 22.4114 192.93 22.0743 192.896 21.7501H194.855C194.94 22.0791 195 22.418 195 22.7732C195 23.1285 194.94 23.4674 194.855 23.7963H192.895Z" fill="#333333"/>
<path d="M195 30.1394H186.815V30.9579H195V30.1394Z" fill="#333333"/>
<path d="M200.698 24.2437L200.274 25.8248L201.065 26.0367L201.489 24.4556L200.698 24.2437Z" fill="#333333"/>
<path d="M199.85 27.4045L198.368 32.9382L199.158 33.1501L200.641 27.6163L199.85 27.4045Z" fill="#333333"/>
<path d="M205.245 13.5982L195.758 11.0562C195.616 11.0182 195.474 11 195.333 11C194.611 11.0001 193.949 11.4824 193.753 12.2137L192.898 15.407H184.36C183.908 15.407 183.542 15.7735 183.542 16.2255V32.5948C183.542 33.0469 183.908 33.4133 184.36 33.4133H193.813L199.525 34.9438C199.667 34.9818 199.81 35 199.95 35C200.673 35 201.334 34.5176 201.53 33.7863L206.402 15.603C206.636 14.7298 206.118 13.8322 205.245 13.5982ZM184.36 32.5948V16.2255H196.637C197.088 16.2255 197.455 16.5927 197.455 17.044V31.7764C197.455 32.2276 197.088 32.5948 196.637 32.5948H184.36ZM205.612 15.3912L200.74 33.5745C200.644 33.932 200.319 34.1816 199.95 34.1816C199.879 34.1816 199.807 34.1721 199.737 34.1532L196.883 33.3885C197.669 33.269 198.274 32.5961 198.274 31.7764V25.2878L198.693 25.4002L199.117 23.819L198.326 23.6071L198.274 23.8028V17.2986C198.529 17.367 198.824 17.4459 199.109 17.5224L200.077 20.6869L200.755 20.8685L200.69 17.9461C201.135 18.0654 201.59 18.1871 201.888 18.2669L202.414 19.1947L202.866 19.3157L202.788 18.0239L203.501 16.944L203.049 16.823L202.13 17.3634C201.832 17.2837 201.378 17.1619 200.932 17.0426L202.449 14.544L201.772 14.3624L199.351 16.619C198.875 16.4915 198.356 16.3522 198.075 16.2769C197.799 15.7616 197.262 15.4071 196.637 15.4071H193.745L194.544 12.4256C194.64 12.0682 194.964 11.8186 195.333 11.8185C195.404 11.8185 195.476 11.828 195.546 11.8469L205.033 14.3889C205.244 14.4455 205.421 14.5809 205.53 14.7703C205.639 14.9595 205.668 15.1801 205.612 15.3912Z" fill="#333333"/>
<path d="M200.485 22.0804L200.276 22.8716L201.053 23.0774L201.263 22.2862L200.485 22.0804Z" fill="#333333"/>
<path d="M202.038 22.493L201.829 23.2842L202.607 23.49L202.816 22.6988L202.038 22.493Z" fill="#333333"/>
<path d="M198.932 21.6688L198.722 22.46L199.5 22.6658L199.709 21.8746L198.932 21.6688Z" fill="#333333"/>
<g clipPath="url(#clip0)">
<path d="M434.068 93.9046C432.18 92.0316 429.669 91 426.998 91C424.328 91 421.817 92.0316 419.928 93.9046C418.04 95.7777 417 98.2681 417 100.917C417 101.078 417.131 101.208 417.293 101.208C417.455 101.208 417.586 101.078 417.586 100.917C417.586 98.4232 418.565 96.0788 420.343 94.3154C422.121 92.5523 424.484 91.5811 426.998 91.5811C429.513 91.5811 431.876 92.5521 433.654 94.3154C435.432 96.0788 436.411 98.4232 436.411 100.917C436.411 103.411 435.432 105.755 433.654 107.519C431.876 109.282 429.513 110.253 426.998 110.253C424.718 110.253 422.517 109.434 420.803 107.946C419.104 106.472 417.995 104.446 417.68 102.242C417.657 102.083 417.509 101.972 417.349 101.995C417.188 102.017 417.077 102.164 417.1 102.323C417.435 104.665 418.613 106.817 420.417 108.383C422.238 109.963 424.576 110.834 426.998 110.834C429.669 110.834 432.18 109.802 434.068 107.929C435.957 106.056 436.997 103.566 436.997 100.917C436.997 98.2681 435.957 95.7777 434.068 93.9046Z" fill="black"/>
<path d="M424.553 97.1139C424.596 97.0906 424.71 97.0449 424.834 97.1245L426.839 98.4118C426.975 98.4991 427.156 98.4605 427.244 98.3258C427.332 98.191 427.294 98.0112 427.158 97.924L425.152 96.6366C424.887 96.4665 424.55 96.4538 424.272 96.6035C423.995 96.7531 423.823 97.0406 423.823 97.3539V104.909C423.823 105.222 423.995 105.509 424.272 105.659C424.401 105.728 424.543 105.763 424.684 105.763C424.847 105.763 425.01 105.717 425.152 105.626L431.037 101.848C431.283 101.69 431.43 101.422 431.43 101.131C431.43 100.84 431.283 100.572 431.037 100.414L428.415 98.731C428.279 98.6439 428.098 98.6823 428.01 98.8171C427.922 98.9518 427.961 99.1317 428.097 99.2189L430.719 100.902C430.799 100.953 430.845 101.037 430.845 101.131C430.845 101.226 430.799 101.309 430.719 101.361L424.834 105.138C424.71 105.218 424.596 105.172 424.552 105.149C424.509 105.125 424.409 105.055 424.409 104.909V97.3539C424.409 97.2072 424.509 97.1372 424.553 97.1139Z" fill="black"/>
</g>
<g clipPath="url(#clip1)">
<path d="M402.404 236.6H399.126C399.1 235.021 398.88 233.494 398.498 232.14H400.648C400.824 232.14 400.967 231.999 400.967 231.824C400.967 231.649 400.824 231.507 400.648 231.507H398.302C397.961 230.487 397.523 229.586 397.002 228.863C396.9 228.721 396.7 228.688 396.557 228.789C396.414 228.891 396.38 229.089 396.483 229.231C396.935 229.858 397.321 230.632 397.63 231.507H394.319V228.582C394.319 228.408 394.176 228.266 394 228.266C393.824 228.266 393.681 228.408 393.681 228.582V231.507H390.37C390.679 230.632 391.065 229.858 391.517 229.231C391.62 229.089 391.586 228.891 391.443 228.789C391.3 228.688 391.1 228.721 390.998 228.863C390.477 229.586 390.039 230.487 389.698 231.507H387.352C387.176 231.507 387.033 231.649 387.033 231.824C387.033 231.999 387.176 232.14 387.352 232.14H389.502C389.12 233.494 388.9 235.021 388.874 236.6H385.596C385.419 236.6 385.277 236.742 385.277 236.917C385.277 237.092 385.419 237.233 385.596 237.233H388.874C388.9 238.813 389.12 240.34 389.502 241.694H387.352C387.176 241.694 387.033 241.835 387.033 242.01C387.033 242.185 387.176 242.327 387.352 242.327H389.698C390.039 243.347 390.477 244.248 390.998 244.971C391.06 245.058 391.159 245.104 391.258 245.104C391.322 245.104 391.387 245.085 391.443 245.045C391.587 244.943 391.62 244.746 391.518 244.603C391.066 243.976 390.68 243.202 390.37 242.327H393.681V245.251C393.681 245.426 393.824 245.568 394 245.568C394.176 245.568 394.319 245.426 394.319 245.251V242.327H397.63C397.321 243.202 396.934 243.976 396.482 244.603C396.38 244.746 396.413 244.943 396.557 245.045C396.613 245.085 396.678 245.104 396.742 245.104C396.842 245.104 396.94 245.058 397.002 244.971C397.523 244.248 397.961 243.347 398.302 242.327H400.648C400.824 242.327 400.967 242.185 400.967 242.01C400.967 241.835 400.824 241.694 400.648 241.694H398.498C398.88 240.34 399.1 238.813 399.126 237.233H402.404C402.581 237.233 402.723 237.092 402.723 236.917C402.723 236.742 402.581 236.6 402.404 236.6ZM397.836 232.14C398.232 233.477 398.461 235.008 398.488 236.6H394.319V232.14H397.836ZM390.164 232.14H393.681V236.6H389.512C389.539 235.008 389.768 233.477 390.164 232.14ZM390.164 241.694C389.768 240.357 389.539 238.826 389.512 237.233H393.681V241.694H390.164ZM397.836 241.694H394.319V237.233H398.488C398.461 238.826 398.232 240.357 397.836 241.694Z" fill="black"/>
<path d="M401.071 229.905C399.182 228.032 396.671 227 394 227C391.329 227 388.818 228.032 386.929 229.905C385.04 231.778 384 234.268 384 236.917C384 238.87 384.57 240.753 385.65 242.374L384.427 246.01C384.389 246.123 384.419 246.249 384.505 246.334C384.59 246.418 384.716 246.448 384.831 246.41L388.497 245.198C390.132 246.269 392.031 246.834 394 246.834C396.671 246.834 399.182 245.802 401.071 243.929C402.96 242.056 404 239.566 404 236.917C404 234.268 402.96 231.778 401.071 229.905ZM394 246.201C392.107 246.201 390.283 245.643 388.725 244.587C388.671 244.551 388.609 244.532 388.545 244.532C388.511 244.532 388.477 244.538 388.444 244.549L385.235 245.609L386.305 242.427C386.336 242.333 386.322 242.23 386.265 242.148C385.201 240.603 384.638 238.795 384.638 236.917C384.638 231.798 388.838 227.633 394 227.633C399.162 227.633 403.362 231.798 403.362 236.917C403.362 242.036 399.162 246.201 394 246.201Z" fill="black"/>
</g>
<defs>
<linearGradient id="paint0_linear" x1="301.418" y1="153.631" x2="320.744" y2="370.636" gradientUnits="userSpaceOnUse">
<stop stopColor="#116363"/>
<stop offset="1" stopColor="#2C9D9E"/>
</linearGradient>
<clipPath id="clip0">
<path d="M417 91H437V110.834H417V91Z" fill="white"/>
</clipPath>
<clipPath id="clip1">
<path d="M384 227H404V246.834H384V227Z" fill="white"/>
</clipPath>
</defs>
</svg>
