<svg xmlns="http://www.w3.org/2000/svg" width="48" height="48" fill="none" viewBox="0 0 48 48">
    <path fill="#0069C3" d="M38.25 6.75a3 3 0 0 0-3-3h-30a3 3 0 0 0-3 3v4.5h36v-4.5zM32.25 33.75a1.5 1.5 0 1 0 0-3 1.5 1.5 0 0 0 0 3zM15.75 27.75h3.773c.2-.577.443-1.139.727-1.68v-2.82h-4.5v4.5zM15.75 15.75h4.5v4.5h-4.5v-4.5zM15.75 35.25h3.345a12.83 12.83 0 0 1-.345-3c0-.501.028-1.002.082-1.5H15.75v4.5zM6.75 30.75h4.5v4.5h-4.5v-4.5zM6.75 23.25h4.5v4.5h-4.5v-4.5zM6.75 15.75h4.5v4.5h-4.5v-4.5z"/>
    <path fill="#0069C3" d="M11.25 15h-4.5a.75.75 0 0 0-.75.75v4.5a.75.75 0 0 0 .75.75h4.5a.75.75 0 0 0 .75-.75v-4.5a.75.75 0 0 0-.75-.75zm-.75 4.5h-3v-3h3v3zM15.75 21h4.5a.75.75 0 0 0 .75-.75v-4.5a.75.75 0 0 0-.75-.75h-4.5a.75.75 0 0 0-.75.75v4.5a.75.75 0 0 0 .75.75zm.75-4.5h3v3h-3v-3zM11.25 22.5h-4.5a.75.75 0 0 0-.75.75v4.5a.75.75 0 0 0 .75.75h4.5a.75.75 0 0 0 .75-.75v-4.5a.75.75 0 0 0-.75-.75zM10.5 27h-3v-3h3v3zM11.25 30h-4.5a.75.75 0 0 0-.75.75v4.5a.75.75 0 0 0 .75.75h4.5a.75.75 0 0 0 .75-.75v-4.5a.75.75 0 0 0-.75-.75zm-.75 4.5h-3v-3h3v3z"/>
    <path fill="#0069C3" d="M39 19.705V6.75A3.755 3.755 0 0 0 35.25 3h-1.5V1.5h-1.5V3h-4.5V1.5h-1.5V3h-4.5V1.5h-1.5V3h-4.5V1.5h-1.5V3h-4.5V1.5h-1.5V3h-3A3.755 3.755 0 0 0 1.5 6.75v30a3.754 3.754 0 0 0 3.75 3.75h15.403A14.24 14.24 0 1 0 39 19.705zM5.25 4.5h3V6h1.5V4.5h4.5V6h1.5V4.5h4.5V6h1.5V4.5h4.5V6h1.5V4.5h4.5V6h1.5V4.5h1.5a2.25 2.25 0 0 1 2.25 2.25v3.75H3V6.75A2.25 2.25 0 0 1 5.25 4.5zm0 34.5A2.25 2.25 0 0 1 3 36.75V12h34.5v7.015a14.168 14.168 0 0 0-16.5 4.52v-.285a.75.75 0 0 0-.75-.75h-4.5a.75.75 0 0 0-.75.75v4.5a.75.75 0 0 0 .75.75h2.767c-.134.494-.241.994-.321 1.5H15.75a.75.75 0 0 0-.75.75v4.5a.75.75 0 0 0 .75.75h2.767c.28 1.042.679 2.049 1.188 3H5.25zM19.5 25.924A14.17 14.17 0 0 0 19.015 27H16.5v-3h3v1.924zM18.196 34.5H16.5v-3h1.538c-.013.25-.038.497-.038.75.005.754.07 1.506.196 2.25zm21.063 8.39l-1.11-1.921-1.299.75 1.107 1.916A12.629 12.629 0 0 1 33 44.962V42.75h-1.5v2.212a12.63 12.63 0 0 1-4.957-1.327l1.107-1.916-1.3-.75-1.109 1.92a12.858 12.858 0 0 1-3.63-3.63l1.921-1.11-.75-1.299-1.917 1.107A12.632 12.632 0 0 1 19.538 33h2.212v-1.5h-2.212c.099-1.726.55-3.413 1.327-4.957l1.917 1.107.75-1.3-1.922-1.109a12.858 12.858 0 0 1 3.631-3.63l1.11 1.92 1.299-.75-1.107-1.916a12.63 12.63 0 0 1 4.957-1.327v2.212H33v-2.212c1.726.099 3.413.55 4.957 1.327l-1.107 1.916 1.3.75 1.109-1.92a12.857 12.857 0 0 1 3.63 3.63l-1.921 1.11.75 1.299 1.917-1.107a12.631 12.631 0 0 1 1.327 4.957H42.75V33h2.212a12.63 12.63 0 0 1-1.327 4.957l-1.917-1.107-.75 1.3 1.921 1.109a12.857 12.857 0 0 1-3.63 3.63z"/>
    <path fill="#0069C3" d="M33 30.138V23.25h-1.5v6.888A2.244 2.244 0 1 0 34.362 33h3.888v-1.5h-3.888A2.25 2.25 0 0 0 33 30.138zM32.25 33a.75.75 0 1 1 0-1.5.75.75 0 0 1 0 1.5z"/>
</svg>
