<svg xmlns="http://www.w3.org/2000/svg" viewBox="0 0 304 255.99"><defs><style>.cls-1{fill:#56ccf2;}.cls-2{fill:#ff977b;}.cls-3{fill:#ffcb57;}.cls-4{fill:#f2a97e;}.cls-5{fill:#f7931e;}.cls-6{fill:#1e3340;}.cls-7{fill:#ffe8bb;}.cls-8{fill:#38ab01;}.cls-9{fill:#a3a8bf;}.cls-10{fill:#fd5e5a;}.cls-11{fill:#fc7575;}.cls-12{fill:#2d1e66;}.cls-13{fill:#f0e6a6;}.cls-14{fill:#590209;}.cls-15{fill:#111f59;}.cls-16{fill:#c2cef9;}.cls-17{fill:#6265a8;}.cls-18{fill:#2846a6;}.cls-19{fill:#172866;}.cls-20{fill:#a1b2e2;}.cls-21{fill:#eaf6f9;}.cls-22{fill:#260101;}.cls-23{fill:#c5c6fe;}.cls-24{fill:#e3e4ff;}.cls-25{fill:#0f1d5b;}.cls-26{fill:#8c0303;}.cls-27{fill:#400106;}.cls-28{fill:#757ad8;}</style></defs><title>img-meeting</title><g id="Layer_2" data-name="Layer 2"><g id="Layer_1-2" data-name="Layer 1"><path class="cls-1" d="M206.36,26S148-10,113.05,24.65,59.36,88.56,28.28,107.83s-40.8,85.53,7.56,93.83S49,171,137.21,178.35,292.05,111,278.59,75.61,206.36,26,206.36,26ZM23.34,238.2c15.49,10.36,32.63,1.24,41.5-13.31,4.26-7-.93-9.19-7.59-9.31-13.74-.22-25.82-4-39.25-5.16-8.92-.75-17.3,4.87-11.72,13.63C10.17,230.16,17.46,234.27,23.34,238.2Z"/><path class="cls-2" d="M284.72,252.26c0,2.07-63.74,3.73-142.36,3.73S0,254.33,0,252.26s63.73-3.73,142.36-3.73S284.72,250.19,284.72,252.26Z"/><path class="cls-3" d="M238.65,171.42c-1.66-4.83-5.39-25.09-12.43-25.09s-4.86,4.83-7.46,4.83-3.9-8.74-8.55-9.85-2,3.53-5,3.53-8.74-7.23-16.91-3.71,3.15,12.61,5.2,14.66S189,158.22,189,161s17.27.75,17.27,3.35-7,5.2.19,7,32.15,0,32.15,0Z"/><path class="cls-3" d="M193.49,82.91s-6.14,7-1.31,14.32S206.33,105.43,205,109s-14.22.83-8.92,6.13,13.55-.18,13.55,4.46-10.31,3.63-3.53,10.42,20.26.74,20.26,6.5-5.58,5.15.82,10,13.11,8.21,18.32,6.91S250.89,130,246.63,122s-4.67-1.86-8-.18-.93-13.57-3.73-18.6-4.28-.55-8.36,1.49.18-12.82-5.39-15.06-3,8-7,5.58S203.15,76.8,193.49,82.91Z"/><path class="cls-4" d="M253.87,165.1c0-2,3.16-22.68,6.5-22.68s.37,5.76,3.53,5.76,8.72-13.75,13.38-12.82,0,7,3.34,7,8.55-7.11,16.35-7.11,11.52,15.29-1.86,16.59-1.85.24,0,4.3-10.77,6.67-14.3,6.67,3.81,3.81,1.3,6.32S253.87,165.1,253.87,165.1Z"/><path class="cls-5" d="M257.21,188a.74.74,0,0,1-.74-.67c-2.9-30.41-10.28-36.1-25.63-57.43-16.16-20.78-31.05-35.55-31.05-36s3.75,1.72,4.47,2.46c12.78,13.27,28.08,33,28.18,33.17,17.81,22.88,23,31.82,25.5,57.62a.72.72,0,0,1-.16.56.68.68,0,0,1-.51.27l-.06,0Zm-8.1-8c-10.6-10.6-51.23-30.62-50.86-30.45,1.68.76,41.12,18.61,51.91,29.4a.74.74,0,0,1-1,1.05Z"/><path class="cls-5" d="M248.92,186.11c-.09-.35-2.22-8.86,4.29-21.35s34.06-19.43,35.22-19.72c.41-.1-27.68,8.46-33.91,20.41-7.65,14.68-2.68,20.66-4.7,21.19a.74.74,0,0,1-.9-.53Zm-8.59-5.42c-2.77-4.75-10-8.71-12.24-4.56-2.36,4.4,5.86,3.35,3.62,1.11a.75.75,0,0,1,.54-1.22.72.72,0,0,1,.51.17c2,2,.28,4.26-2.6,4.48-6.18.5-4.82-9.09,2.69-7.56,5.36,1.1,8.62,6.59,8.76,6.83a.74.74,0,0,1-1.28.75Z"/><path class="cls-5" d="M257.12,178.86c0-9.32-.46-11.84,2.1-14.17a3.69,3.69,0,0,1,3.1-1c1.24.25,3,2,3,3.45,0,1.63-2.29,2.32-2.52,1.15a.74.74,0,0,1,.59-.88c.45-.08.45-.22.45-.27,0-.63-1.66-3.15-3.62-1.37s-1.66,3.32-1.61,13.07c0,.41-1.49,1-1.49,0Z"/><path class="cls-6" d="M259.44,192.91H239.57L234,179h30.84Z"/><path class="cls-3" d="M274.23,192.91H228.87v55.61h45.36ZM237,248.52H230.1v3.74H237Zm36.2,0H266.3v3.74h6.91Z"/><path class="cls-7" d="M269.05,210.35H236a.58.58,0,0,1,0-1.15h31.9V196.35a.57.57,0,0,1,.61-.54.57.57,0,0,1,.54.54Zm-17.21-10.23a1.65,1.65,0,1,1-.28-.93A1.72,1.72,0,0,1,251.84,200.12Zm17.21,29.82H236a.58.58,0,0,1,0-1.15h31.9V215.94a.58.58,0,0,1,.36-.54.55.55,0,0,1,.62.13.57.57,0,0,1,.17.41Zm-17.21-10.22a1.66,1.66,0,0,1-3.31,0h0a1.66,1.66,0,0,1,3.31,0Z"/><path class="cls-8" d="M139.21,144.44h0Z"/><path class="cls-4" d="M264.83,59.58a24.58,24.58,0,1,1,17.36-7.2,24.53,24.53,0,0,1-17.36,7.2Zm0-46.53a22,22,0,1,0,15.53,6.43,21.91,21.91,0,0,0-15.53-6.43Z"/><path class="cls-4" d="M265.6,35.91H247.26a.77.77,0,0,1-.77-.76h0a.77.77,0,0,1,.77-.76h16.8V17.67a.77.77,0,0,1,1.54,0V35.91Z"/><path class="cls-9" d="M124.9,97.09c-7.6,1.33-16.64-3.65-16.64-3.65s-4.79,8.12-2.42,10.49c1.81,1.81,11.48.53,19.29-.93.2-2,.41-4,.41-6Z"/><path class="cls-10" d="M94.57,101.15a2.2,2.2,0,0,1,.1.56c0,2.35-6.76,11.47-9.69,22.93s1.32,55.87,1.32,55.87-4.85,9.86-4.85,16.17,4.18,42.56,4.18,42.56l-2.2,2.87a25.92,25.92,0,0,1,3.16,3.38c.76,1.09,5.92,5.81,6,4.84s-4.09-7.7-4.26-10.21c-.12-1.74,1.17-46.75,4.85-52.34s4.65-18.9,4.65-23.46c0-4.18,10.41-53.1,12.16-61.3Z"/><path class="cls-11" d="M107.31,101.69l2.86.15s2.08,10.43,2.08,16S107.31,183,107.31,183s-28.21,50.58-28.8,54.4-1.76,5.73-1.76,8.09v1.91s1.7,2.15.6,2.15-3.17-3.73-3.17-3.73.83-1.5,0-4.44A49.08,49.08,0,0,1,73,236.19a4.37,4.37,0,0,0,2.86-1.58C77.49,233,80,209,84.52,198.87S96.86,180.49,98,180.49c0,0-3.68-41.16-3.68-42.78S107.31,101.69,107.31,101.69Z"/><path d="M73.44,236.17s-.72-.31-1.54,1-2.62,8.56-2.62,8.56l.55.26s2.65-6.08,3.58-4.7-.14,5.26-.14,5.26a13.93,13.93,0,0,0,4.46,4.4c3.17,2-.22-3.2-.22-3.2l-2.8-2.57s.67-4.83.24-6.76S73.44,236.17,73.44,236.17Zm10.61,5.06s-.77.08-.86,1.62,1.9,8.75,1.9,8.75l.6,0s-.66-6.6.83-5.85S89,251.23,89,251.23a36,36,0,0,0,6,.8c3.77.24-1.75-2.68-1.75-2.68l-3.7-.87s-1.76-4.56-3.09-6-2.41-1.22-2.41-1.22Z"/><path class="cls-12" d="M146.21,84.85l-17.49-8.16L116.9,102l17.5,8.17Z"/><path class="cls-13" d="M133.67,108.19l10.54-22.62-14.77-6.89L118.9,101.3Z"/><path class="cls-14" d="M94.57,101.15s-9.77,17.63-10.41,23.91,0,56.18,0,56.18L107.31,183s5.47-61.06,5.47-66.74-2.46-13.63-2.46-13.63Z"/><path class="cls-15" d="M94.69,35.08c-.15,3-1.11,7.05-4.08,7.57l-.07-.76C93.15,41.61,94.32,37.69,94.69,35.08Z"/><path class="cls-16" d="M113.47,76.28s3-5.72,3-9.2c0-3.21-6.46-10.43-9.87-16.17-3.67-1-5.1-1.93-10.48-1.6-3.16.78-4.53,4.24-4.53,4.24s2.75,10.62,5.08,16.62c1.87,4.8-3.14,20.38-5.27,26.45a3.9,3.9,0,0,0,1.86,4.74c3.86,2.07,9.63,2,15.33,2.14a3.9,3.9,0,0,0,4-3.81c.5-19.53.86-23.41.86-23.41Z"/><path class="cls-17" d="M96.71,70.14c1.84,3.62-.23,12.4-1.28,16.31C93,95.16,91.65,96.49,91.6,98a3.85,3.85,0,0,0,1.7,3.32A4,4,0,0,1,90.85,98c-.3-2.31,7.15-22.11,5.86-27.86Z"/><path class="cls-11" d="M94.29,35s1.33,13.27,3.17,15.91c1.15,1.66,7.25,7.92,9.41,7.47,1.3-.31-4.72-22.28-4.72-22.28Z"/><path class="cls-10" d="M103.4,40.77c-.41-1.57-.83-3.13-1.25-4.69l-.86-.12-7-1s4.32,4.36,5.64,5A9.88,9.88,0,0,0,103.4,40.77Z"/><path class="cls-18" d="M91.05,17.18s1.55-4.41-1-6.24-7.65-.89-8.82,4.77-.21,9.41,4.3,7.8A9.29,9.29,0,0,0,91.05,17.18Z"/><path class="cls-11" d="M102.18,14.83s3.2-.33,4.19,4,.72,7.05,1.32,7.66a7.29,7.29,0,0,0,1.93,1.16,1.75,1.75,0,0,1-.8,1.21,1.83,1.83,0,0,0-.85,1.43c0,.25.52.25.52.69s-.63,1.19-.63,1.19a1.55,1.55,0,0,1,.47.88c0,.44-.75,1-.75,1s-.11,1.6-.11,2.49-3.19,3-7.54,1.27-16.58-4.41-11.85-14a15.41,15.41,0,0,1,14.1-9Z"/><path class="cls-15" d="M96.12,30.26c.23.22-2.82,2-1.78,5.48s-4.6,1.06-6.55-1.66S84.52,25,86.5,21.78s2.07-2.4,4-5.05,11.92-4,13.81-1.32-1.42,6.76-4.84,8.53S96.12,30.26,96.12,30.26Z"/><path class="cls-18" d="M103.62,14.82c.29,0,6.31-2.12,5.65,1.85s-4.7,7.18-9.69,8.2-7.35,2.53-4.41,4.44c0,0-3.38-.36-3.38-2.13s4.31-3.82,6.52-4.93S103.62,14.83,103.62,14.82Z"/><path class="cls-11" d="M98.61,28.21s-.22-4-2.43-3.23-.83,6.63,1.22,6.63S98.61,28.21,98.61,28.21Z"/><path class="cls-10" d="M97.61,27.67s-.33-2.24-1.24-1.76-.78,4.74.41,4.52S97.61,27.67,97.61,27.67Z"/><path class="cls-18" d="M106.07,32a2.62,2.62,0,0,0,1.79.12,2.76,2.76,0,0,1-1.9.08l0,0a.05.05,0,0,1,0,0,.08.08,0,0,1,0-.08A.11.11,0,0,1,106,32Z"/><path class="cls-19" d="M104.82,26.72s.83-1,1.36-1.57a4.65,4.65,0,0,1,2.07-.74Z"/><path class="cls-19" d="M106.35,25.43a1.05,1.05,0,0,1,.32,1.64Zm-2-1.32a5.7,5.7,0,0,1,2.07-1.44c.93-.22.42,1,.42,1S107,22.89,104.32,24.11Z"/><path class="cls-15" d="M98.31,31.29a1,1,0,1,1-1-1,1,1,0,0,1,1,1Z"/><path class="cls-11" d="M93.4,52.76S99.74,56.87,98.24,64s-18.66,19.83-17,24.77,15.38,18.07,16.47,18.07,3.36,1.11,6.74-.58,4.08-1.36,3.09-.36-4.15,1.78-3.49,2.42,4.14.37,6.5-2,2.46-.26,1.18,1-6.17,3-6.17,3,6.32-2.21,7.49-3.38,2.13.59,0,2a25.87,25.87,0,0,1-11.76,3.39c-4.26,0-5.29-2.46-9.41-4.12s-18.36-10-18.36-19.9S89.24,53.06,93.4,52.76Z"/><path class="cls-20" d="M91.22,108.39,95.11,110l2.21-3.34L94,103.84Z"/><path class="cls-16" d="M81.21,88.72c-1.62-4.93,17-17.69,18.34-24.78,1.62-8.29-6.14-11.17-6.14-11.17C89.24,53.06,71.86,77.64,71,87.45s14.15,19.22,19.43,22.25a2.1,2.1,0,0,0,2.85-.74l1.66-2.71a2.09,2.09,0,0,0-.41-2.67C89.72,99.44,82.32,92.13,81.21,88.72Z"/><path class="cls-21" d="M93.4,52.76c6,2.86,7.55,9.07,4.69,13.62C93.38,73.84,79.54,83.9,80.73,88.6c.69,3.68,8.47,10.81,12.74,14.16C91,100.51,82,91.71,81.6,88.41,80.42,83.82,98.94,71.73,100,62.66a9.73,9.73,0,0,0-6.64-9.9Z"/><path class="cls-22" d="M186.24,47.55a67.36,67.36,0,0,0-8.55,7.26c-4.42,4.42-8.7,41.87-8.7,41.87L177.65,99Z"/><path class="cls-23" d="M187.79,116.25l-21,5.83L155.19,80.26l21.7-3.38,10.9,39.37Z"/><path class="cls-24" d="M189.38,114.89l-21,5.83L156.78,78.89l21.69-3.37,10.9,39.37Z"/><path class="cls-25" d="M175.45,76.31l-21,5.83L166,124l21-5.82L175.45,76.31Z"/><path class="cls-22" d="M198.42,146.62s-10.73,88.71-13.08,98.17l-.14,6L169,250.35s1-2,2.86-1.92,6.52-2,7.83-3.46,2.38-124.47,2.38-124.47l20.13.55Z"/><path class="cls-26" d="M185.22,128.24l2.46,14.37s20.57,77.94,18.89,104.93c0,0-2,3.15-8.73,4.87-.36.09-.73,1.34-.73,1.34l17.46.47-.82-5.46s1.78-92,2.07-102.67-2.19-24.71-2.19-24.71l-29.3-.8.89,7.66Z"/><path class="cls-4" d="M177.69,101.64c.67-26.32,2.95-51.09,9-54.26,0,0,8.76-2.14,12.33-2.16,5.35,0,13.5,2.79,17.56,17.42,3.69,13.32-1.94,48.75-3.06,68.4-15.08-.41-16.83-.56-31.45-1-.11-4.57-4.61-20.16-4.4-28.44Z"/><path class="cls-27" d="M186.4,47.38c-2.77,1.53-4.14,3.24-6.41,10.93S173.72,141,174.78,142s7.31,4,7.31,4l6.13-91,5-10.08a59.33,59.33,0,0,0-6.79,2.41Z"/><path class="cls-11" d="M189.57,36.56l1.25,12.81c.26,2.62,2.15,4.56,4.33,4.44.58,0,1.15-.09,1.72-.17,2.9-.45,5.64-2.91,5-6.42-.76-4.48-2.49-11.93-2.46-15.86.07-6.44-9.89,1.92-9.89,5.2Z"/><path class="cls-10" d="M199.47,31.36c.06-6.44-9.9,1.92-9.9,5.2l.74,7.47a25,25,0,0,0,5.1-1.4c2.67-1.11,2.84-4.45,4.41-5.39l.24-.19A37.47,37.47,0,0,1,199.47,31.36Z"/><path class="cls-25" d="M176.78,15.37c2.9,1.81,8.53,4.44,10.63,1.79-1.87,3-8.12,1-11.37-.47Z"/><path class="cls-10" d="M185.1,23.5s-3.54-2.62-2.95-.33,2.38,7.23,4.24,5.29-1.29-5-1.29-5Z"/><path class="cls-11" d="M192.34,12.34c-.47.48-5.74.1-7.46,5.51s.25,17.8,3.61,21.12,7.17,1.24,10.14-4.36,8.73-12.79,4.49-18.12C200.87,13.64,192.34,12.34,192.34,12.34Z"/><path class="cls-25" d="M186.15,34.7s1.56,3.61,0,5.14,4.43,2.09,6.44,1.56,4.65-1,5.38-1.66,1.12-10.1,1.12-10.1l-.89-.53c-1.13,2.9-3.82,8.16-4.94,8.16s-2.57.29-3.73.29-3.41-2.86-3.41-2.86Z"/><path class="cls-25" d="M191.52,14.75c-.48,2.84-3.31,6.75-10.12,2.48S176,7.56,176,7.56s3.45,4.46,5.55,3.51.57-6.27.57-6.27,7.66-.57,9.09-.57,2.9,4.46,2.9,4.46-1-2,6.58-2.65,3.13,10.57,4,14.46-4.28,10.78-4.28,13a6,6,0,0,0,1.24,3.7s-1.62.38-3.06-3.61,1.17-9.86,1.17-12.91a6.66,6.66,0,0,0-3.28-6.15C195.28,13.74,192,11.9,191.52,14.75Z"/><path class="cls-11" d="M199.49,24.53s-2.77,5.06-.81,4.67,5.8-3,5-6.61S199.49,24.53,199.49,24.53Z"/><path class="cls-10" d="M199.49,24.53s1.71-1.6,2.27-1c1.33,1.31-3,5.07-3,4.07A12.83,12.83,0,0,1,199.49,24.53Z"/><path class="cls-18" d="M192.62,23.36c0,.77-.46,1.4-1,1.4s-1-.63-1-1.4.45-1.39,1-1.39,1,.62,1,1.39Zm-6,0c0,.77-.47,1.4-1,1.4s-1-.63-1-1.4.46-1.39,1-1.39,1,.62,1,1.39Zm5,10.63a4.58,4.58,0,0,0,1.85-1.8c.17-.28.62,0,.41.25a4.94,4.94,0,0,1-2.14,1.8,5.38,5.38,0,0,1-2.79.46,0,0,0,0,1,0,0h0A5.79,5.79,0,0,0,191.55,34Zm0-15.46-.31.9a2.47,2.47,0,0,1,2.57.74S192.83,18.33,191.58,18.53Zm-7,2a4.58,4.58,0,0,1,1.86-.71l-.41-.68s-1.45.62-1.45,1.39Z"/><path class="cls-25" d="M185.1,20.82h-3.22a2,2,0,0,0-1.88,2v2.4a2,2,0,0,0,1.88,2h3.24A2,2,0,0,0,186.88,26a2.11,2.11,0,0,0,.12-.75v-2.4a2,2,0,0,0-1.9-2Zm1,4.42a1.07,1.07,0,0,1-1,1.09h-3.22a1.06,1.06,0,0,1-1-1.09v-2.4a1.07,1.07,0,0,1,1-1.09h3.24a1.05,1.05,0,0,1,1,1.09Zm8.82-4.51h-3.76A2.12,2.12,0,0,0,189,22.79h0v2.49a2.11,2.11,0,0,0,1.37,1.93,2.08,2.08,0,0,0,.82.14h3.76a2.13,2.13,0,0,0,2.2-2.06h0V22.8a2.13,2.13,0,0,0-1.38-1.93,2.08,2.08,0,0,0-.82-.14Zm1.18,4.56a1.14,1.14,0,0,1-1.18,1.11h-3.76A1.15,1.15,0,0,1,190,25.29h0V22.8a1.15,1.15,0,0,1,1.18-1.11h3.76a1.14,1.14,0,0,1,1.18,1.11h0Z"/><path class="cls-18" d="M187.23,31.41s-1.38-4,.36-10.1a.25.25,0,0,1,.49.13s-1.51,5.43-.48,9.41c1.48-.22,2-.59,2.12-.18s-.56.27-2.49.74Z"/><path class="cls-25" d="M189.22,22.93h-2.61v.88h2.61ZM188.22,0a6.62,6.62,0,0,1,5.64,2.9,7.29,7.29,0,0,1,.7,4.39l-.25,1.44-.49-.08a13.94,13.94,0,0,0,0-2.74c-.46-3.05-2.64-4.4-5.58-4.2Z"/><path class="cls-11" d="M163.06,106.54a11.44,11.44,0,0,0-2.2,1.2c-1.48,1-.83,3.2-.71,3.66a15.52,15.52,0,0,0,1.19,3,5.77,5.77,0,0,0,1.24,1.69c.8.75,5.17-1.22,5.09-1.69,0-.32-.17-.62-.44-.68s-3.45.31-3.45.31,3.49-1.28,3.78-2.16-.23-1.07-.54-1-4.15.77-4.15.77,3.39-1.84,3.58-2.42-.3-1.35-2-.63a12.45,12.45,0,0,1-2.31.67s2-1.53,2.26-2.4-1.35-.3-1.35-.3Z"/><path class="cls-27" d="M201.57,45.22,195.79,84l1.63,62s15.35-1.71,19.76-4c0,0,1.3-60.29,1.3-70.06s1.25-22-16.91-26.73Z"/><path class="cls-11" d="M217.81,120.71l-3.55,7.18-11.34-.3s10.41-11,11.78-12.34,5.36,3.32,3.11,5.46Z"/><path class="cls-27" d="M210.35,64l-.67-15.17c14.18,7.5,25.8,36.53,26.31,45,.34,5.58-10.35,20-17.61,27.86-1.17-1.86-2.66-5.18-4.59-6,3.44-4.8,7.91-12,9.3-18.43s-3-13.38-6.93-18.14A25.39,25.39,0,0,1,210.35,64Z"/><path class="cls-15" d="M62.39,110.42a.36.36,0,0,1-.27-.12c-10.18-10.18-1.8-30.53-1.71-30.74a.38.38,0,0,1,.71.27v0c-.08.2-8.28,20.08,1.55,29.9a.39.39,0,0,1,0,.55.43.43,0,0,1-.26.11Z"/><path class="cls-11" d="M139.94,94.85s-3.61-1.1-4.22-.06,3.68,2.48,3.68,2.48-5.35-1.82-5-1S138,99.19,138,99.19s-4.11-2.6-4.2-1.93,2.18,2.51,3.48,3.31-2.37-1.61-2.49-1,2.49,3.07,3.43,3.22.86-1.06,1.66-1.63.78-1.29,1.15-2.1,1-3.2.73-3.61-1.84-.58-1.84-.58Z"/><path class="cls-15" d="M133.41,80.43c0,.19-1.44,2.12.29,2.93,5.32,2.43,5.59,2.84,6.44,2.52s.91-1.08,1.28-1.72Zm.45,2.59c-1.27-.59-.29-1.94-.27-2.1l7.34,3.42c-1.24,2.07-.59,1.56-7.11-1.33Z"/><path class="cls-28" d="M140.45,81.23a2.12,2.12,0,0,0-3.83-1.79l-3.21-1.5-1,2.21,9.83,4.59,1-2.22Z"/></g></g></svg>