<svg xmlns="http://www.w3.org/2000/svg" width="356" height="194" fill="none" viewBox="0 0 356 194">
    <path fill="#F2E9E9" d="M63.49 161.359c2.766.309 5.49.907 8.13 1.785l.107.033.291.106c14.772 5.271 21.56 4.281 27.367 2.496 15.667-4.818 24.989-25.559 50.398-21.542 10.776 1.679 19.449 4.018 26.203 8.729l.14.112a52.402 52.402 0 0 1 2.797 2.087c13.211 8.622 26.377-2.619 30.159-5.17.275-.202.56-1.796.845-1.998l.235-.179c16.557-11.666 42.894-23.499 68.264-20.584 43.644 4.985 61.18 54.458 61.18 54.458H13.664c5.092-11.717 25.459-23.131 49.827-20.333z"/>
    <path fill="#0675CE" d="M30.411 35.545h25.7c.599 0 1.085-.485 1.085-1.085v-7.14c0-.599-.486-1.085-1.085-1.085h-25.7c-.6 0-1.085.486-1.085 1.086v7.14c0 .599.485 1.084 1.085 1.084z"/>
    <path stroke="#fff" stroke-miterlimit="10" stroke-width=".62" d="M34.786 29.85H53.04M34.786 31.931h5.372"/>
    <path fill="#0675CE" d="M53.878 34.303v4.214l-5.366-4.214h5.366z"/>
    <path stroke="#fff" stroke-miterlimit="10" stroke-width="1.09" d="M331.828 79.675c1.724 0 3.122-1.418 3.122-3.167 0-1.75-1.398-3.167-3.122-3.167s-3.122 1.418-3.122 3.167c0 1.749 1.398 3.167 3.122 3.167zM187.512 2.243a1.7 1.7 0 0 1-2.899 1.2 1.7 1.7 0 0 1 1.201-2.898 1.7 1.7 0 0 1 1.698 1.698z"/>
    <path fill="#F7F7F7" d="M233.003 52.538H104.925V181.02h128.078V52.538z"/>
    <path fill="#0675CE" d="M233.003 32.323v20.215H104.925V32.323a7.274 7.274 0 0 1 7.274-7.274h113.535a7.273 7.273 0 0 1 7.269 7.274z"/>
    <path fill="#2B4183" d="M213.156 43.63a6.026 6.026 0 1 0 0-12.051 6.026 6.026 0 0 0 0 12.052z"/>
    <path fill="#FFCB2D" d="M213.184 39.865a3.454 3.454 0 0 0 3.452-3.452v-15.6a3.46 3.46 0 0 0-3.452-3.452 3.46 3.46 0 0 0-3.458 3.452v15.6a3.456 3.456 0 0 0 3.458 3.452z"/>
    <path fill="#2B4183" d="M170.631 43.63a6.026 6.026 0 1 0 0-12.051 6.026 6.026 0 0 0 0 12.052z"/>
    <path fill="#FFCB2D" d="M170.659 39.865a3.45 3.45 0 0 0 3.452-3.452v-15.6a3.45 3.45 0 0 0-3.452-3.452 3.45 3.45 0 0 0-3.452 3.452v15.6a3.45 3.45 0 0 0 3.452 3.452z"/>
    <path fill="#2B4183" d="M128.106 43.63a6.026 6.026 0 1 0 0-12.051 6.026 6.026 0 0 0 0 12.052z"/>
    <path fill="#FFCB2D" d="M128.134 39.865a3.45 3.45 0 0 0 3.452-3.452v-15.6a3.45 3.45 0 0 0-3.452-3.452 3.45 3.45 0 0 0-3.452 3.452v15.6a3.45 3.45 0 0 0 3.452 3.452z"/>
    <path stroke="#F0E0DF" stroke-miterlimit="10" stroke-width="2.21" d="M189.728 97.534h24.351v-24.35h-24.351v24.35zM157.325 97.534h24.351v-24.35h-24.351v24.35zM124.922 97.534h24.351v-24.35h-24.351v24.35zM189.728 128.442h24.351v-24.35h-24.351v24.35zM157.325 128.442h24.351v-24.35h-24.351v24.35z"/>
    <path fill="#EF5C11" d="M124.922 128.442h24.351v-24.35h-24.351v24.35z"/>
    <path stroke="#fff" stroke-miterlimit="10" stroke-width="2.02" d="M133.724 112.792l6.753 6.961M140.477 112.792l-6.753 6.961"/>
    <path stroke="#F0E0DF" stroke-miterlimit="10" stroke-width="2.21" d="M189.728 159.361h24.351v-24.35h-24.351v24.35zM157.325 159.361h24.351v-24.35h-24.351v24.35zM124.922 159.361h24.351v-24.35h-24.351v24.35z"/>
    <path fill="#FFA80A" d="M230.804 96.354h-11.851v7.805h11.851v-7.805z"/>
    <path fill="#FFCB2D" d="M232.633 98.38h-15.504a3.197 3.197 0 0 1-3.195-3.195 3.195 3.195 0 0 1 3.195-3.195h15.504a3.193 3.193 0 0 1 2.259 5.454c-.599.599-1.411.935-2.259.935z"/>
    <path fill="#FFA80A" d="M196.139 108.198l-6.682 6.683 4.712 4.712 6.682-6.683-4.712-4.712z"/>
    <path fill="#FFCB2D" d="M198.25 107.919l-9.333 9.339a2.414 2.414 0 0 1-3.408 0 2.415 2.415 0 0 1 0-3.408l9.339-9.333a2.39 2.39 0 0 1 3.402 0 2.407 2.407 0 0 1 0 3.402z"/>
    <path fill="#F67B91" d="M224.738 180.908c22.123 0 40.058-17.933 40.058-40.055 0-22.123-17.935-40.056-40.058-40.056s-40.057 17.933-40.057 40.056c0 22.122 17.934 40.055 40.057 40.055z"/>
    <path fill="#EF5C11" d="M224.738 178.754c20.933 0 37.903-16.969 37.903-37.902 0-20.932-16.97-37.901-37.903-37.901s-37.903 16.969-37.903 37.901c0 20.933 16.97 37.902 37.903 37.902z"/>
    <path fill="#F6F6F6" d="M224.738 174.474c18.57 0 33.623-15.053 33.623-33.622 0-18.568-15.053-33.621-33.623-33.621-18.569 0-33.622 15.053-33.622 33.621 0 18.569 15.053 33.622 33.622 33.622z"/>
    <g fill="#fff" opacity=".71">
        <path d="M187.96 114.253l50.957 78.965 23.025-19.796-50.42-70.678-23.562 11.509zM215.114 95.235l50.963 78.965 2.96-9.904-50.42-70.672-3.503 1.61z" opacity=".71"/>
    </g>
    <path fill="#8054FF" d="M224.934 114.807a.846.846 0 0 1-.845-.845v-1.986a.854.854 0 0 1 .839-.713.849.849 0 0 1 .84.713v1.986a.844.844 0 0 1-.834.845zM224.934 170.982a.849.849 0 0 1-.845-.844v-1.987a.848.848 0 0 1 .839-.713.85.85 0 0 1 .84.713v1.987a.854.854 0 0 1-.834.844zM205.747 122.752a.846.846 0 0 1-.598-.252l-1.405-1.427a.844.844 0 0 1 1.198-1.191l1.404 1.404a.843.843 0 0 1 .184.919.843.843 0 0 1-.184.273.831.831 0 0 1-.599.274zM245.469 162.478a.846.846 0 0 1-.593-.246l-1.405-1.433a.845.845 0 0 1 1.192-1.197l1.405 1.404a.843.843 0 0 1 .216.946.84.84 0 0 1-.815.526zM204.343 162.478a.871.871 0 0 1-.599-.246.858.858 0 0 1-.184-.923.868.868 0 0 1 .184-.275l1.405-1.404a.846.846 0 1 1 1.197 1.197l-1.404 1.405a.846.846 0 0 1-.599.246zM244.065 122.752a.833.833 0 0 1-.594-.252.84.84 0 0 1 0-1.192l1.405-1.404a.847.847 0 0 1 1.15.041.843.843 0 0 1 .042 1.151l-1.405 1.404a.826.826 0 0 1-.598.252zM197.813 141.904h-1.975a.852.852 0 0 1-.713-.839.852.852 0 0 1 .713-.839h1.986a.847.847 0 0 1 .713.839.849.849 0 0 1-.713.839h-.011zM253.991 141.904h-1.987a.847.847 0 0 1-.712-.839.849.849 0 0 1 .712-.839h1.987a.852.852 0 0 1 .713.839.852.852 0 0 1-.713.839zM226.932 140.741h-4.046v-17.524a2.02 2.02 0 0 1 3.45-1.429c.38.379.594.892.596 1.429v17.524z"/>
    <path fill="#2B4183" d="M224.906 145.373a4.633 4.633 0 1 0 0-9.265 4.633 4.633 0 0 0 0 9.265z"/>
    <path fill="#0866A5" d="M86.622 99.09l7.324 32.284a8.715 8.715 0 0 1-3.094 8.046l-21.86 17.093.407-15.739 10.917-8.908L68.991 98.2l17.631.89z"/>
    <path fill="#FA849B" d="M58.343 156.642l10.52-5.506-4.152-5.863-11.432 6.216 3.648 4.627 1.416.526z"/>
    <path fill="#181F42" d="M55.836 149.049s1.78 6.519 6.9 6.155l1.974 15.527-15.107-19.158 6.233-2.524z"/>
    <path fill="#fff" d="M64.715 170.713l-15.11-19.16-1.81 1.428 15.11 19.159 1.81-1.427z"/>
    <path stroke="#fff" stroke-linecap="round" stroke-linejoin="round" stroke-width="1.5" d="M62.993 157.207a9.073 9.073 0 0 0-2.944-.296M63.43 159.479a9.101 9.101 0 0 0-2.944-.297M63.866 161.75a9.301 9.301 0 0 0-2.944-.296"/>
    <path fill="#FA849B" d="M67.732 175.66l1.069-11.671-7.18-.364-1.068 12.818h5.886l1.293-.783z"/>
    <path fill="#181F42" d="M59.636 172.907s6.216 2.641 9.103-1.606l13.429 8.069H57.772l1.864-6.463z"/>
    <path fill="#fff" d="M82.157 179.37H57.756v2.305h24.401v-2.305z"/>
    <path stroke="#fff" stroke-linecap="round" stroke-linejoin="round" stroke-width="1.5" d="M70.502 172.359a9.264 9.264 0 0 0-2.054 2.126M72.55 173.422a9.212 9.212 0 0 0-2.06 2.126M74.603 174.485a9.152 9.152 0 0 0-2.053 2.126"/>
    <path fill="#0675CE" d="M62.455 98.296l-3.295 68.087h12.489l9.098-67.864-18.292-.224z"/>
    <path fill="#0675CE" d="M86.622 99.09l-7.57 11.867-1.579-12.17 9.149.303z"/>
    <path fill="#FA849B" d="M119.081 87.553l-7.459.587 1.337-7.497 7.789.66-1.667 6.25z"/>
    <path fill="#FA849B" d="M125.365 87.19a5.234 5.234 0 0 1-7.97-1.396 5.228 5.228 0 0 1 2.929-7.542 5.232 5.232 0 0 1 5.041 8.937z"/>
    <path fill="#FA849B" d="M122.231 77.99s-.951-2.187-3.167-.559c-2.216 1.628-4.18 4.935-1.074 9.187l4.241-8.627z"/>
    <path fill="#FA849B" d="M122.231 77.99l6.004-1.51a.983.983 0 0 1 1.225.593.855.855 0 0 1-.453 1.063l-6.099 2.725-.677-2.87z"/>
    <path fill="#FFCD2E" d="M90.914 67.55l9.853 15.588a5.446 5.446 0 0 1-1.774 7.218 5.444 5.444 0 0 1-7.531-1.561L80.573 73.817a6.047 6.047 0 0 1 .795-7.576 6.044 6.044 0 0 1 9.546 1.309z"/>
    <path fill="#F2BB19" d="M87.83 83.86l.583-8.538 2.115 12.264-2.697-3.726z"/>
    <path fill="#FFCD2E" d="M95.681 81.577l21.699-2.546-.073 9.91-20.177 2.596a5.036 5.036 0 0 1-6.02-5.154 5.036 5.036 0 0 1 4.571-4.806z"/>
    <path fill="#FA849B" d="M58.108 110.952s2.423.196 2.026-2.568c-.398-2.764-2.434-6.121-7.739-5.372l5.713 7.94z"/>
    <path fill="#FFCD2E" d="M40.606 133.125h24.35v-24.35h-24.35v24.35z"/>
    <path fill="#FFCD2E" d="M41.725 133.125h24.35v-24.35h-24.35v24.35z"/>
    <path fill="#FA849B" d="M48.35 109.368a5.326 5.326 0 1 1 10.397-2.32 5.326 5.326 0 0 1-10.397 2.32z"/>
    <path fill="#FFCD2E" d="M58.752 82.925l-.241 21.822-9.568-.448-.263-21.206a5.036 5.036 0 0 1 5.853-5.287 5.036 5.036 0 0 1 4.218 5.12z"/>
    <path fill="#FFCD2E" d="M71.061 73.783l-13.2 12.869a5.444 5.444 0 0 1-7.424-.235 5.449 5.449 0 0 1-.078-7.682l12.388-13.742a6.044 6.044 0 0 1 7.593-.828 6.042 6.042 0 0 1 .721 9.618z"/>
    <path fill="#FFCD2E" d="M85.766 64.428L67 63.197c-1.678-.112-4.711 2.96-4.532 4.65V98.3l24.166.789 2.457-30.913a3.553 3.553 0 0 0-3.324-3.75z"/>
    <path fill="#F2BB19" d="M62.456 82.159l5.45-5.321-5.45 14.408v-9.087z"/>
    <path fill="#E6728C" d="M82.705 51.828a2.49 2.49 0 1 0 2.697-2.334 2.54 2.54 0 0 0-2.697 2.334z"/>
    <path fill="#FA849B" d="M81.262 57.848l-.112 6.155c-.034 2.154-1.343 3.278-3.39 3.217-1.758-.05-3.666-.934-3.554-2.831l.632-9.64 6.424 3.099z"/>
    <path fill="#312725" d="M81.2 61.932s-5.002.325-6.446-5.326c-.459-1.78 6.535.62 6.535.62l-.09 4.706z"/>
    <path fill="#F8879D" d="M79.393 59.605c3.497.073 6.44-2.72 6.597-5.674l.296-6.154a6.793 6.793 0 0 0-6.054-7.213c-3.66-.324-7.526 2.412-7.834 6.189l-.173 4.817a7.7 7.7 0 0 0 7.168 8.035z"/>
    <path stroke="#312725" stroke-linecap="round" stroke-linejoin="round" stroke-width=".6" d="M82.347 51.229l.168 2.014-.867.023"/>
    <path fill="#312725" d="M78.553 47.139s1.433-.095 1.439.509c0 0 0 .408-1.26.464-1.258.056-1.577-.039-1.678-.425-.1-.386.822-.554 1.5-.548zM84.546 48.554s-1.18-.145-1.287.42c0 0-.067.38.968.487 1.035.106 1.376-.028 1.477-.336.1-.308-.599-.548-1.158-.57zM83.64 50.848a.62.62 0 1 0 1.238.074.62.62 0 0 0-1.239-.074zM78.369 50.574a.621.621 0 1 0 1.24.073.621.621 0 0 0-1.24-.073z"/>
    <path stroke="#312725" stroke-linecap="round" stroke-linejoin="round" stroke-width=".6" d="M79.823 54.133a1.986 1.986 0 0 0 2.01.66"/>
    <path fill="#312725" d="M84.843 37.549c-1.338-.56-4.762-1.209-5.517 1.818-3.408-.263-8.824-.196-9.384 2.759-.8 4.336 2.283 8.633 2.283 8.633l.862.442s2.204-1.147 1.634-6.334c0 0 7.872 1.897 11.565-.1 3.693-1.998 2.585-5.484-1.443-7.218z"/>
    <path fill="#F8879D" d="M68.996 51.369a2.518 2.518 0 0 0 2.239 2.753 2.489 2.489 0 0 0 2.669-2.311 2.517 2.517 0 0 0-2.239-2.753 2.485 2.485 0 0 0-2.669 2.31z"/>
    <path stroke="#312725" stroke-linecap="round" stroke-linejoin="round" stroke-width=".6" d="M72.236 52.253s.157-1.835-1.572-1.679"/>
    <path fill="#FA849B" d="M71.834 63.516l11.235.738s.358 3.872-4.639 3.604c-5.623-.302-6.597-4.342-6.597-4.342zM306.761 157.168l-11.074-5.164 3.995-6.222 12.042 5.847-3.531 4.929-1.432.61z"/>
    <path fill="#181F42" d="M308.976 149.217s-1.516 6.782-6.798 6.647l-1.298 16.053 14.626-20.4-6.53-2.3z"/>
    <path fill="#fff" d="M304.096 172.855l14.562-20.335-1.922-1.376-14.562 20.335 1.922 1.376z"/>
    <path stroke="#fff" stroke-linecap="round" stroke-linejoin="round" stroke-width="1.55" d="M302.01 157.963a9.43 9.43 0 0 1 3.011-.442M301.663 160.324a9.383 9.383 0 0 1 3.016-.448M301.322 162.679a9.375 9.375 0 0 1 3.011-.447"/>
    <path fill="#243B77" d="M281.055 89.74s-7.234 27.008-8.303 32.335c-1.069 5.327-3.195 15.974 1.281 19.807 4.477 3.833 21.654 13.031 21.654 13.031l6.323-11.353-10.239-6.154-10.716-47.666z"/>
    <path fill="#FA849B" d="M290.814 175.626l-2.255-12.012 7.386-.375 2.261 13.193h-6.06l-1.332-.806z"/>
    <path fill="#181F42" d="M298.569 172.795s-6.401 2.714-9.367-1.678l-13.804 8.297h25.101l-1.93-6.619z"/>
    <path fill="#fff" d="M275.393 181.815H300.5v-2.373h-25.107v2.373z"/>
    <path stroke="#fff" stroke-linecap="round" stroke-linejoin="round" stroke-width="1.55" d="M287.395 172.225a9.504 9.504 0 0 1 2.115 2.187M285.28 173.321a9.388 9.388 0 0 1 2.115 2.188M283.165 174.412a9.531 9.531 0 0 1 2.115 2.193"/>
    <path fill="#2B4183" d="M281.056 89.74l-.728 40.745c-.027 1.46.089 2.92.347 4.358l6.054 31.423h12.663l-3.531-35.44c.145-6.513 2.311-13.815 3.122-21.76 0 0 2.479-14.749-4.325-19.247l-13.602-.079z"/>
    <path fill="#FA849B" d="M272.948 84.145l-20.703-7.575-2.406 4.034 20.188 10.698a4.617 4.617 0 0 0 6.189-5.142c-.302-1.623-1.713-1.455-3.268-2.015z"/>
    <path fill="#FA849B" d="M249.694 73.514a1.54 1.54 0 0 0-1.444-.447.917.917 0 0 0-.587 1.427l.302.492c-.666.252-2.037.319-4.549-2.238a1.262 1.262 0 0 0-1.55-.23.78.78 0 0 0-.207 1.075 1.124 1.124 0 0 0-1.007.106.774.774 0 0 0-.235 1.018c.025.051.055.1.089.146-.17.013-.333.069-.475.162a.78.78 0 0 0-.236 1.018c.055.112.127.213.213.303l.101.095h-.045a.775.775 0 0 0-.235 1.024c.056.108.128.208.213.296.631.644 1.318 1.23 2.053 1.751h.028c.307.204.625.39.951.56 1.45.84 4.555.134 7.224.56l2.082-3.917-2.686-3.2z"/>
    <path fill="#FFCD2E" d="M242.362 87.6l10.011-22.871-22.871-10.011-10.011 22.87L242.362 87.6z"/>
    <path fill="#FA849B" d="M250.035 73.917l-2.031-2.367a.827.827 0 0 0-.624-.289.818.818 0 0 0-.624.29.818.818 0 0 0-.112.912l1.018 2.014a5.596 5.596 0 0 0 1.209 5.12l1.164-5.68zM282.13 84.587l-7.543 6.02a4.61 4.61 0 0 1-5.299.32c-2.333-1.438-3.76-2.798-2.076-4.935l8.282-8.393 6.636 6.988z"/>
    <path fill="#0866A5" d="M287.966 77.38s-1.002 4.947-6.949 9.434l-9.166-8.655 7.42-8.265 8.695 7.487z"/>
    <path fill="#FA849B" d="M302.279 83.916l15.941 20.109 3.609-2.389s-9.148-17.032-13.401-22.38a4.605 4.605 0 0 0-4.353-1.702 4.611 4.611 0 0 0-3.603 2.977c-.56 1.55.744 2.12 1.807 3.385zM318.992 108.07a1.498 1.498 0 0 0 1.024 1.058.9.9 0 0 0 .824-.155.905.905 0 0 0 .335-.768v-.56c.688.09 1.885.672 2.853 4.006a1.233 1.233 0 0 0 1.22.912.76.76 0 0 0 .677-.761v-.056a1.121 1.121 0 0 0 .912.375.754.754 0 0 0 .677-.761v-.162a.916.916 0 0 0 .476.078.752.752 0 0 0 .677-.761 1.102 1.102 0 0 0-.045-.352c0-.045 0-.084-.039-.129h.05a.75.75 0 0 0 .486-.249.749.749 0 0 0 .191-.512 1.172 1.172 0 0 0-.044-.358 14.536 14.536 0 0 0-.94-2.445v-.033a9.708 9.708 0 0 0-.56-.935c-.851-1.393-3.833-2.238-5.909-3.844l-3.609 2.389.744 4.023z"/>
    <path fill="#FA849B" d="M299.912 71.523l7.274 6.361a4.6 4.6 0 0 1 1.248 5.159c-1.007 2.551-2.065 4.19-4.476 2.915l-9.725-6.675 5.679-7.76z"/>
    <path fill="#0675CE" d="M290.562 67.08a19.32 19.32 0 0 1 11.683 5.159l-4.941 9.187-9.708-3.357 2.966-10.989z"/>
    <path fill="#0675CE" d="M282.701 67.628s-6.032 1.679-6.049 9.753c0 4.409 4.404 12.36 4.404 12.36l13.613.078s1.998-5.545 3.195-10.558c1.198-5.014-2.635-9.775-7.302-12.181l-7.861.548z"/>
    <path fill="#0866A5" d="M297.305 81.426l-5.338-3.833 4.118 7.98 1.22-4.147z"/>
    <path fill="#F8879D" d="M286.131 70.219c1.891-.28 2.557-1.544 2.277-3.435l-2.098-10.822-5.696.912 1.589 10.435a3.457 3.457 0 0 0 3.928 2.91z"/>
    <path fill="#32292A" d="M285.006 58.105s1.847 5.769-3.049 7.727l-.454-3.44 5.036-3.806"/>
    <path fill="#F8879D" d="M280.787 63.136c3.553-.342 6.194-3.184 5.892-6.362l-.985-10.39h-5.992c-2.211.207-5.249 3.138-5.064 5.114l1.046 6.45c.218 2.323 2.11 5.495 5.103 5.188z"/>
    <path fill="#F8879D" d="M275.958 54.194l-1.36 3.48a.513.513 0 0 0 .023.542.513.513 0 0 0 .498.214l2.344-.224-1.505-4.012z"/>
    <path fill="#312725" d="M277.155 52.577s-1.281.034-1.236.56c0 0 .045.358 1.158.307 1.114-.05 1.388-.173 1.455-.52.067-.347-.783-.408-1.377-.347zM277.223 55.095a.56.56 0 1 1-1.11.152.56.56 0 0 1 1.11-.152z"/>
    <path stroke="#312725" stroke-linecap="round" stroke-linejoin="round" stroke-width=".6" d="M276.814 59.146a1.498 1.498 0 0 0 1.304-1.04"/>
    <path fill="#F8879D" d="M286.701 66.465l3.861.615s-4.051 6.569-8.04 4.991c-4.605-1.813 1.499-5.265 1.499-5.265l2.68-.341z"/>
    <path fill="#32292A" d="M285.084 54.67a4.98 4.98 0 0 1-3.586-3.598l-7.974 1.578s-1.236-7.945 8.309-9.445c4.784-.75 7.834 1.567 9.457 3.878a7.764 7.764 0 0 1 .615 7.548 12.211 12.211 0 0 1-4.857 5.31l-.738-3.979s-.689-1.158-1.226-1.292z"/>
    <path fill="#F8879D" d="M288.912 54.094a2.54 2.54 0 0 1-2.513 2.551 2.51 2.51 0 0 1-2.456-2.574 2.481 2.481 0 0 1 2.484-2.484 2.482 2.482 0 0 1 2.485 2.484v.023z"/>
    <path stroke="#312725" stroke-linecap="round" stroke-linejoin="round" stroke-width=".6" d="M285.571 54.692s0-1.857 1.735-1.555"/>
    <path fill="#32292A" d="M301.59 43.91a6.195 6.195 0 0 1-2.825 6.285 6.2 6.2 0 1 1 2.825-6.285z"/>
    <path stroke="#F7F7F7" stroke-miterlimit="10" stroke-width=".76" d="M356 182.005H0"/>
</svg>
