<svg xmlns="http://www.w3.org/2000/svg" width="356" height="190" fill="none" viewBox="0 0 356 190">
    <path fill="#F2E9E9" d="M63.49 161.359c2.766.309 5.49.907 8.13 1.785l.107.033.291.106c14.772 5.271 21.56 4.281 27.367 2.496 15.667-4.818 24.989-25.559 50.398-21.542 10.776 1.679 19.449 4.018 26.203 8.729l.14.112a52.402 52.402 0 0 1 2.797 2.087c13.211 8.622 26.377-2.619 30.159-5.17.275-.202.56-1.796.845-1.998l.235-.179c16.557-11.666 42.894-23.499 68.264-20.584 43.644 4.985 61.18 54.458 61.18 54.458H13.664c5.092-11.717 25.459-23.131 49.827-20.333z"/>
    <path fill="#0675CE" d="M30.411 35.545h25.7c.6 0 1.085-.485 1.085-1.085v-7.14c0-.599-.486-1.085-1.085-1.085h-25.7c-.6 0-1.085.486-1.085 1.086v7.14c0 .599.486 1.084 1.085 1.084z"/>
    <path stroke="#fff" stroke-miterlimit="10" stroke-width=".62" d="M34.786 29.85h18.252M34.786 31.931h5.372"/>
    <path fill="#0675CE" d="M53.878 34.303v4.214l-5.366-4.214h5.366z"/>
    <path stroke="#fff" stroke-miterlimit="10" stroke-width="1.09" d="M331.828 79.675c1.725 0 3.123-1.418 3.123-3.167 0-1.75-1.398-3.167-3.123-3.167-1.724 0-3.122 1.418-3.122 3.167 0 1.749 1.398 3.167 3.122 3.167zM187.513 2.243a1.696 1.696 0 0 1-1.699 1.698 1.696 1.696 0 0 1-1.698-1.698 1.696 1.696 0 0 1 1.698-1.698 1.697 1.697 0 0 1 1.699 1.698z"/>
    <path fill="#F7F7F7" d="M233.003 52.538H104.925V181.02h128.078V52.538z"/>
    <path fill="#0675CE" d="M233.003 32.323v20.215H104.925V32.323a7.274 7.274 0 0 1 7.274-7.274h113.535a7.273 7.273 0 0 1 7.269 7.274z"/>
    <path fill="#2B4183" d="M213.156 43.63a6.026 6.026 0 1 0 0-12.051 6.026 6.026 0 0 0 0 12.052z"/>
    <path fill="#FFCB2D" d="M213.184 39.865a3.454 3.454 0 0 0 3.452-3.452v-15.6a3.46 3.46 0 0 0-3.452-3.452 3.46 3.46 0 0 0-3.458 3.452v15.6a3.456 3.456 0 0 0 3.458 3.452z"/>
    <path fill="#2B4183" d="M170.631 43.63a6.026 6.026 0 1 0 0-12.051 6.026 6.026 0 0 0 0 12.052z"/>
    <path fill="#FFCB2D" d="M170.658 39.865a3.455 3.455 0 0 0 3.453-3.452v-15.6a3.454 3.454 0 0 0-5.894-2.44 3.454 3.454 0 0 0-1.011 2.44v15.6a3.454 3.454 0 0 0 3.452 3.452z"/>
    <path fill="#2B4183" d="M128.106 43.63a6.027 6.027 0 1 0 0-12.053 6.027 6.027 0 0 0 0 12.054z"/>
    <path fill="#FFCB2D" d="M128.134 39.865a3.45 3.45 0 0 0 3.452-3.452v-15.6a3.45 3.45 0 0 0-3.452-3.452 3.45 3.45 0 0 0-3.452 3.452v15.6a3.45 3.45 0 0 0 3.452 3.452z"/>
    <path stroke="#F0E0DF" stroke-miterlimit="10" stroke-width="2.21" d="M189.728 97.534h24.351v-24.35h-24.351v24.35zM157.325 97.534h24.351v-24.35h-24.351v24.35zM124.922 97.534h24.351v-24.35h-24.351v24.35zM189.728 128.442h24.351v-24.35h-24.351v24.35zM157.325 128.442h24.351v-24.35h-24.351v24.35z"/>
    <path stroke="#F0E0DF" stroke-width="2" d="M124.922 128.442h24.351v-24.35h-24.351v24.35z"/>
    <path stroke="#F0E0DF" stroke-miterlimit="10" stroke-width="2.21" d="M189.728 159.361h24.351v-24.35h-24.351v24.35zM157.325 159.361h24.351v-24.35h-24.351v24.35zM124.922 159.361h24.351v-24.35h-24.351v24.35z"/>
    <path fill="#0866A5" d="M86.622 99.09l7.325 32.284a8.716 8.716 0 0 1-3.095 8.046l-21.86 17.093.408-15.739 10.916-8.908L68.991 98.2l17.631.89z"/>
    <path fill="#FA849B" d="M58.343 156.642l10.52-5.506-4.152-5.863-11.432 6.216 3.648 4.627 1.416.526z"/>
    <path fill="#181F42" d="M55.836 149.049s1.78 6.519 6.899 6.155l1.975 15.527-15.107-19.158 6.233-2.524z"/>
    <path fill="#fff" d="M64.716 170.713l-15.11-19.16-1.81 1.428 15.11 19.159 1.81-1.427z"/>
    <path stroke="#fff" stroke-linecap="round" stroke-linejoin="round" stroke-width="1.5" d="M62.993 157.207a9.073 9.073 0 0 0-2.943-.296M63.43 159.479a9.101 9.101 0 0 0-2.944-.297M63.866 161.75a9.3 9.3 0 0 0-2.943-.296"/>
    <path fill="#FA849B" d="M67.733 175.66l1.068-11.671-7.179-.364-1.068 12.818h5.886l1.293-.783z"/>
    <path fill="#181F42" d="M59.636 172.907s6.216 2.641 9.103-1.606l13.43 8.069H57.772l1.863-6.463z"/>
    <path fill="#fff" d="M82.157 179.37H57.756v2.305h24.401v-2.305z"/>
    <path stroke="#fff" stroke-linecap="round" stroke-linejoin="round" stroke-width="1.5" d="M70.502 172.359a9.264 9.264 0 0 0-2.054 2.126M72.55 173.422a9.215 9.215 0 0 0-2.06 2.126M74.603 174.485a9.154 9.154 0 0 0-2.053 2.126"/>
    <path fill="#0675CE" d="M62.456 98.296l-3.296 68.087H71.65l9.098-67.864-18.291-.224z"/>
    <path fill="#0675CE" d="M86.622 99.09l-7.57 11.867-1.578-12.17 9.148.303z"/>
    <path fill="#FA849B" d="M119.081 87.553l-7.459.587 1.337-7.497 7.789.66-1.667 6.25z"/>
    <path fill="#FA849B" d="M125.365 87.19a5.234 5.234 0 0 1-7.97-1.396 5.228 5.228 0 0 1 2.929-7.542 5.232 5.232 0 0 1 5.041 8.937z"/>
    <path fill="#FA849B" d="M122.231 77.99s-.951-2.187-3.167-.559c-2.216 1.628-4.179 4.935-1.074 9.187l4.241-8.627z"/>
    <path fill="#FA849B" d="M122.23 77.99l6.004-1.51a.985.985 0 0 1 1.226.593.857.857 0 0 1-.454 1.063l-6.098 2.725-.678-2.87z"/>
    <path fill="#FFCD2E" d="M90.913 67.55l9.854 15.588a5.445 5.445 0 0 1-1.774 7.218 5.445 5.445 0 0 1-7.531-1.561l-10.89-14.978a6.049 6.049 0 0 1 3.143-9.034 6.044 6.044 0 0 1 7.198 2.767z"/>
    <path fill="#F2BB19" d="M87.831 83.86l.582-8.538 2.115 12.264-2.697-3.726z"/>
    <path fill="#FFCD2E" d="M95.681 81.577l21.699-2.546-.072 9.91-20.177 2.596a5.036 5.036 0 0 1-6.02-5.154 5.035 5.035 0 0 1 4.57-4.806z"/>
    <path fill="#FA849B" d="M58.108 110.952s2.423.196 2.026-2.568c-.397-2.764-2.434-6.121-7.739-5.372l5.713 7.94z"/>
    <path fill="#FFCD2E" d="M40.606 133.125h24.351v-24.35H40.606v24.35z"/>
    <path fill="#FFCD2E" d="M41.725 133.125h24.351v-24.35h-24.35v24.35z"/>
    <path fill="#FA849B" d="M48.35 109.368a5.326 5.326 0 1 1 10.397-2.32 5.326 5.326 0 0 1-10.398 2.32z"/>
    <path fill="#FFCD2E" d="M58.752 82.925l-.24 21.822-9.569-.448-.263-21.206a5.035 5.035 0 0 1 5.853-5.287 5.036 5.036 0 0 1 4.219 5.12z"/>
    <path fill="#FFCD2E" d="M71.061 73.783l-13.2 12.869a5.444 5.444 0 0 1-7.424-.235 5.45 5.45 0 0 1-.078-7.682l12.388-13.742a6.044 6.044 0 0 1 7.593-.828 6.042 6.042 0 0 1 .721 9.618z"/>
    <path fill="#FFCD2E" d="M85.766 64.428l-18.767-1.231c-1.679-.112-4.711 2.96-4.532 4.65V98.3l24.166.789 2.456-30.913a3.553 3.553 0 0 0-3.323-3.75z"/>
    <path fill="#F2BB19" d="M62.455 82.159l5.45-5.321-5.45 14.408v-9.087z"/>
    <path fill="#E6728C" d="M82.706 51.828a2.49 2.49 0 1 0 2.697-2.334 2.54 2.54 0 0 0-2.697 2.334z"/>
    <path fill="#FA849B" d="M81.262 57.848l-.112 6.155c-.034 2.154-1.343 3.278-3.391 3.217-1.757-.05-3.665-.934-3.553-2.831l.632-9.64 6.424 3.099z"/>
    <path fill="#312725" d="M81.2 61.932s-5.002.325-6.446-5.326c-.459-1.78 6.535.62 6.535.62l-.09 4.706z"/>
    <path fill="#F8879D" d="M79.393 59.605c3.497.073 6.44-2.72 6.597-5.674l.296-6.154a6.793 6.793 0 0 0-6.054-7.213c-3.66-.324-7.526 2.412-7.834 6.189l-.173 4.817a7.699 7.699 0 0 0 7.168 8.035z"/>
    <path stroke="#312725" stroke-linecap="round" stroke-linejoin="round" stroke-width=".6" d="M82.347 51.229l.168 2.014-.868.023"/>
    <path fill="#312725" d="M78.553 47.139s1.433-.095 1.438.509c0 0 0 .408-1.259.464-1.259.056-1.578-.039-1.678-.425-.101-.386.822-.554 1.499-.548zM84.546 48.554s-1.181-.145-1.287.42c0 0-.067.38.968.487 1.035.106 1.376-.028 1.477-.336.1-.308-.599-.548-1.158-.57zM83.64 50.848a.621.621 0 1 0 1.24.073.621.621 0 0 0-1.24-.073zM78.37 50.574a.622.622 0 1 0 1.24.073.622.622 0 0 0-1.24-.073z"/>
    <path stroke="#312725" stroke-linecap="round" stroke-linejoin="round" stroke-width=".6" d="M79.823 54.133a1.986 1.986 0 0 0 2.009.66"/>
    <path fill="#312725" d="M84.843 37.549c-1.338-.56-4.762-1.209-5.517 1.818-3.408-.263-8.824-.196-9.384 2.759-.8 4.336 2.283 8.633 2.283 8.633l.862.442s2.204-1.147 1.634-6.334c0 0 7.872 1.897 11.565-.1 3.693-1.998 2.585-5.484-1.443-7.218z"/>
    <path fill="#F8879D" d="M68.997 51.369a2.518 2.518 0 0 0 2.238 2.753 2.49 2.49 0 0 0 2.669-2.311 2.518 2.518 0 0 0-2.238-2.753 2.487 2.487 0 0 0-2.67 2.31z"/>
    <path stroke="#312725" stroke-linecap="round" stroke-linejoin="round" stroke-width=".6" d="M72.236 52.253s.157-1.835-1.572-1.679"/>
    <path fill="#FA849B" d="M71.833 63.516l11.236.738s.358 3.872-4.639 3.604c-5.623-.302-6.597-4.342-6.597-4.342zM306.761 157.168l-11.073-5.164 3.995-6.222 12.041 5.847-3.531 4.929-1.432.61z"/>
    <path fill="#181F42" d="M308.976 149.217s-1.516 6.782-6.798 6.647l-1.298 16.053 14.626-20.4-6.53-2.3z"/>
    <path fill="#fff" d="M304.097 172.855l14.561-20.335-1.921-1.376-14.562 20.335 1.922 1.376z"/>
    <path stroke="#fff" stroke-linecap="round" stroke-linejoin="round" stroke-width="1.55" d="M302.01 157.963a9.425 9.425 0 0 1 3.01-.442M301.663 160.324a9.379 9.379 0 0 1 3.016-.448M301.322 162.679a9.375 9.375 0 0 1 3.011-.447"/>
    <path fill="#243B77" d="M281.056 89.74s-7.235 27.008-8.304 32.335c-1.069 5.327-3.195 15.974 1.281 19.807 4.477 3.833 21.655 13.031 21.655 13.031l6.322-11.353-10.239-6.154-10.715-47.666z"/>
    <path fill="#FA849B" d="M290.814 175.627l-2.255-12.013 7.385-.375 2.261 13.193h-6.06l-1.331-.805z"/>
    <path fill="#181F42" d="M298.569 172.795s-6.401 2.714-9.367-1.678l-13.804 8.297h25.101l-1.93-6.619z"/>
    <path fill="#fff" d="M275.394 181.815H300.5v-2.373h-25.106v2.373z"/>
    <path stroke="#fff" stroke-linecap="round" stroke-linejoin="round" stroke-width="1.55" d="M287.396 172.225a9.546 9.546 0 0 1 2.115 2.187M285.28 173.321a9.388 9.388 0 0 1 2.115 2.188M283.165 174.412a9.515 9.515 0 0 1 2.115 2.194"/>
    <path fill="#2B4183" d="M281.056 89.74l-.728 40.745c-.027 1.46.089 2.92.347 4.358l6.054 31.423h12.663l-3.531-35.44c.145-6.513 2.311-13.815 3.122-21.76 0 0 2.479-14.749-4.325-19.247l-13.602-.079z"/>
    <path fill="#FA849B" d="M272.948 84.145l-20.703-7.575-2.406 4.034 20.188 10.698a4.617 4.617 0 0 0 6.188-5.142c-.302-1.623-1.712-1.455-3.267-2.015z"/>
    <path fill="#FA849B" d="M249.693 73.514a1.534 1.534 0 0 0-1.443-.447.917.917 0 0 0-.588 1.427l.303.492c-.666.252-2.037.319-4.55-2.238a1.257 1.257 0 0 0-1.549-.23.777.777 0 0 0-.235 1.024.2.2 0 0 0 .028.05 1.124 1.124 0 0 0-1.008.107.783.783 0 0 0-.235 1.018c.026.051.056.1.09.146a1.01 1.01 0 0 0-.476.162.781.781 0 0 0-.235 1.018c.055.112.127.213.213.303l.101.095h-.045a.78.78 0 0 0-.235 1.024c.056.108.128.208.212.296.632.644 1.319 1.23 2.054 1.751h.028c.307.204.624.39.951.56 1.449.84 4.555.134 7.224.56l2.081-3.917-2.686-3.2z"/>
    <path fill="#FFCD2E" d="M242.362 87.6l10.011-22.871-22.871-10.011-10.012 22.87L242.362 87.6z"/>
    <path fill="#FA849B" d="M250.035 73.917l-2.031-2.367a.818.818 0 0 0-1.248 0 .817.817 0 0 0-.112.913l1.019 2.014a5.588 5.588 0 0 0 1.208 5.12l1.164-5.68zM282.129 84.587l-7.542 6.02a4.612 4.612 0 0 1-5.299.32c-2.333-1.438-3.76-2.798-2.076-4.935l8.281-8.393 6.636 6.988z"/>
    <path fill="#0866A5" d="M287.966 77.38s-1.001 4.947-6.949 9.434l-9.165-8.655 7.419-8.265 8.695 7.487z"/>
    <path fill="#FA849B" d="M302.279 83.916l15.942 20.109 3.609-2.389s-9.149-17.032-13.401-22.38a4.612 4.612 0 0 0-7.957 1.275c-.559 1.55.744 2.12 1.807 3.385zM318.992 108.07a1.488 1.488 0 0 0 1.024 1.058.9.9 0 0 0 .824-.155.887.887 0 0 0 .334-.768v-.56c.689.09 1.886.672 2.854 4.006a1.233 1.233 0 0 0 1.22.912.758.758 0 0 0 .677-.761v-.056a1.117 1.117 0 0 0 .912.375.752.752 0 0 0 .677-.761v-.162a.916.916 0 0 0 .476.078.754.754 0 0 0 .677-.761 1.131 1.131 0 0 0-.045-.352c0-.045 0-.084-.039-.129h.05a.752.752 0 0 0 .677-.761 1.143 1.143 0 0 0-.045-.358 14.451 14.451 0 0 0-.94-2.445v-.033a9.907 9.907 0 0 0-.559-.935c-.851-1.393-3.833-2.238-5.909-3.844l-3.609 2.389.744 4.023z"/>
    <path fill="#FA849B" d="M299.912 71.523l7.274 6.361a4.6 4.6 0 0 1 1.247 5.159c-1.007 2.551-2.064 4.19-4.476 2.915l-9.725-6.675 5.68-7.76z"/>
    <path fill="#0675CE" d="M290.562 67.08a19.32 19.32 0 0 1 11.683 5.159l-4.94 9.187-9.708-3.357 2.965-10.989z"/>
    <path fill="#0675CE" d="M282.701 67.628s-6.032 1.679-6.049 9.753c0 4.409 4.404 12.36 4.404 12.36l13.613.078s1.998-5.545 3.195-10.558c1.198-5.014-2.635-9.775-7.302-12.181l-7.861.548z"/>
    <path fill="#0866A5" d="M297.305 81.426l-5.338-3.833 4.118 7.98 1.22-4.147z"/>
    <path fill="#F8879D" d="M286.13 70.219c1.892-.28 2.557-1.544 2.278-3.435l-2.099-10.822-5.696.912 1.589 10.435a3.463 3.463 0 0 0 3.928 2.91z"/>
    <path fill="#32292A" d="M285.006 58.105s1.846 5.769-3.05 7.727l-.453-3.44 5.036-3.805"/>
    <path fill="#F8879D" d="M280.787 63.136c3.553-.342 6.194-3.184 5.892-6.362l-.985-10.39h-5.992c-2.21.207-5.249 3.139-5.064 5.114l1.046 6.45c.218 2.323 2.11 5.495 5.103 5.188z"/>
    <path fill="#F8879D" d="M275.958 54.194l-1.36 3.48a.513.513 0 0 0 .023.542.508.508 0 0 0 .497.214l2.345-.224-1.505-4.012z"/>
    <path fill="#312725" d="M277.156 52.577s-1.282.034-1.237.56c0 0 .045.358 1.158.308 1.114-.05 1.388-.174 1.455-.52.067-.348-.783-.41-1.376-.348zM277.223 55.095a.556.556 0 0 1-.453.627.56.56 0 1 1 .453-.627z"/>
    <path stroke="#312725" stroke-linecap="round" stroke-linejoin="round" stroke-width=".6" d="M276.814 59.146a1.5 1.5 0 0 0 1.304-1.04"/>
    <path fill="#F8879D" d="M286.702 66.465l3.86.615s-4.051 6.569-8.04 4.991c-4.605-1.813 1.499-5.265 1.499-5.265l2.681-.341z"/>
    <path fill="#32292A" d="M285.084 54.67a4.985 4.985 0 0 1-3.587-3.598l-7.973 1.578s-1.237-7.945 8.309-9.445c4.784-.75 7.834 1.567 9.456 3.878a7.773 7.773 0 0 1 .616 7.548 12.217 12.217 0 0 1-4.857 5.31l-.739-3.979s-.688-1.158-1.225-1.292z"/>
    <path fill="#F8879D" d="M288.912 54.094a2.543 2.543 0 0 1-2.512 2.551 2.509 2.509 0 0 1-2.457-2.574 2.483 2.483 0 0 1 3.435-2.295 2.472 2.472 0 0 1 1.345 1.344c.125.302.189.625.189.951v.023z"/>
    <path stroke="#312725" stroke-linecap="round" stroke-linejoin="round" stroke-width=".6" d="M285.571 54.692s0-1.857 1.735-1.555"/>
    <path fill="#32292A" d="M301.591 43.91a6.203 6.203 0 0 1-2.826 6.285 6.197 6.197 0 0 1-9.085-3.059 6.197 6.197 0 0 1 4.777-8.312 6.2 6.2 0 0 1 7.134 5.087z"/>
    <path stroke="#F7F7F7" stroke-miterlimit="10" stroke-width=".76" d="M356 182.005H0"/>
    <circle cx="217.028" cy="152.553" r="37.345" fill="#fff"/>
    <g fill="#D93131" clip-path="url(#a)">
        <path d="M216.644 126.553c-13.785 0-25 11.215-25 25 0 13.786 11.215 25 25 25 13.784 0 25-11.214 25-25 0-13.785-11.216-25-25-25zm0 48.077c-12.724 0-23.077-10.353-23.077-23.077 0-12.724 10.353-23.077 23.077-23.077 12.724 0 23.076 10.353 23.076 23.077 0 12.724-10.352 23.077-23.076 23.077z"/>
        <path d="M225.978 142.219a.96.96 0 0 0-1.36 0l-7.974 7.974-7.974-7.974a.96.96 0 1 0-1.36 1.36l7.974 7.974-7.974 7.974a.96.96 0 1 0 1.36 1.36l7.974-7.974 7.974 7.974a.961.961 0 1 0 1.36-1.36l-7.974-7.974 7.974-7.974a.96.96 0 0 0 0-1.36z"/>
    </g>
    <defs>
        <clipPath id="a">
            <path fill="#fff" d="M191.644 126.553h50v50h-50v-50z"/>
        </clipPath>
    </defs>
</svg>
