<svg xmlns="http://www.w3.org/2000/svg" width="50" height="50" fill="none" viewBox="0 0 50 50">
    <path fill="#D93131" d="M25 0C11.215 0 0 11.214 0 25s11.215 25 25 25 25-11.214 25-25S38.785 0 25 0zm0 48.077C12.276 48.077 1.923 37.724 1.923 25 1.923 12.276 12.276 1.923 25 1.923c12.724 0 23.077 10.353 23.077 23.077 0 12.724-10.353 23.077-23.077 23.077z"/>
    <path fill="#D93131" d="M34.334 15.666a.96.96 0 0 0-1.36 0L25 23.64l-7.974-7.974a.96.96 0 1 0-1.36 1.36L23.64 25l-7.974 7.974a.96.96 0 1 0 1.36 1.36L25 26.36l7.974 7.974a.959.959 0 0 0 1.36 0 .96.96 0 0 0 0-1.36L26.359 25l7.975-7.974a.96.96 0 0 0 0-1.36z"/>
</svg>
