<?xml version="1.0" encoding="UTF-8"?>
<svg width="28px" height="40px" viewBox="0 0 28 40" version="1.1" xmlns="http://www.w3.org/2000/svg" xmlns:xlink="http://www.w3.org/1999/xlink">
    <!-- Generator: Sketch 57.1 (83088) - https://sketch.com -->
    <title>lamp</title>
    <desc>Created with Sketch.</desc>
    <g id="Page-1" stroke="none" stroke-width="1" fill="none" fill-rule="evenodd">
        <g id="Artboard" transform="translate(-437.000000, -95.000000)" fill="#0675CE">
            <g id="lamp" transform="translate(427.000000, 91.000000)">
                <g id="vh-/-icons-/-material-/-48">
                    <polygon id="bounds" opacity="0" points="0 0 48 0 48 48 0 48"></polygon>
                    <path d="M29.71875,26.15625 C32.5937644,24.15624 34.03125,21.4375172 34.03125,18 C34.03125,15.2499862 33.0468848,12.8906348 31.078125,10.921875 C29.1093652,8.95311516 26.7500138,7.96875 24,7.96875 C21.2499862,7.96875 18.8906348,8.95311516 16.921875,10.921875 C14.9531152,12.8906348 13.96875,15.2499862 13.96875,18 C13.96875,21.4375172 15.4062356,24.15624 18.28125,26.15625 L19.96875,27.375 L19.96875,31.96875 L28.03125,31.96875 L28.03125,27.375 L29.71875,26.15625 Z M14.0625,8.15625 C16.8125138,5.40623625 20.1249806,4.03125 24,4.03125 C27.8750194,4.03125 31.1718614,5.39061141 33.890625,8.109375 C36.6093886,10.8281386 37.96875,14.1249806 37.96875,18 C37.96875,22.8750244 35.96877,26.6874862 31.96875,29.4375 L31.96875,34.03125 C31.96875,34.5937528 31.7812519,35.0624981 31.40625,35.4375 C31.03125,35.8125019 30.5625028,36 30,36 L18,36 C17.4374972,36 16.9687519,35.8125019 16.59375,35.4375 C16.2187481,35.0624981 16.03125,34.5937528 16.03125,34.03125 L16.03125,29.4375 C12.03123,26.6874862 10.03125,22.8750244 10.03125,18 C10.03125,14.1249806 11.3749866,10.8437634 14.0625,8.15625 Z M18,42 L18,40.03125 L30,40.03125 L30,42 C30,42.5625028 29.8125019,43.03125 29.4375,43.40625 C29.0624981,43.7812519 28.5937528,43.96875 28.03125,43.96875 L19.96875,43.96875 C19.4062472,43.96875 18.9375019,43.7812519 18.5625,43.40625 C18.1874981,43.03125 18,42.5625028 18,42 Z" id="î¤" fill-rule="nonzero"></path>
                </g>
            </g>
        </g>
    </g>
</svg>