<?xml version="1.0" encoding="UTF-8"?>
<svg width="40px" height="40px" viewBox="0 0 40 40" version="1.1" xmlns="http://www.w3.org/2000/svg" xmlns:xlink="http://www.w3.org/1999/xlink">
    <!-- Generator: Sketch 59 (86127) - https://sketch.com -->
    <title>outline-check_circle-24px</title>
    <desc>Created with Sketch.</desc>
    <g id="StyleGuide" stroke="none" stroke-width="1" fill="none" fill-rule="evenodd">
        <g id="VH---Style-Guide" transform="translate(-343.000000, -14058.000000)">
            <g id="Group-182" transform="translate(0.000000, 7141.000000)">
                <g id="Group-134" transform="translate(120.000000, 6669.000000)">
                    <g id="modal" transform="translate(0.000000, 196.000000)">
                        <g id="outline-check_circle-24px" transform="translate(219.000000, 48.000000)">
                            <polygon id="Path" points="0 0 48 0 48 48 0 48"></polygon>
                            <path d="M24,4 C12.96,4 4,12.96 4,24 C4,35.04 12.96,44 24,44 C35.04,44 44,35.04 44,24 C44,12.96 35.04,4 24,4 Z M24,40 C15.18,40 8,32.82 8,24 C8,15.18 15.18,8 24,8 C32.82,8 40,15.18 40,24 C40,32.82 32.82,40 24,40 Z M33.18,15.16 L20,28.34 L14.82,23.18 L12,26 L20,34 L36,18 L33.18,15.16 Z" id="Shape" fill="#41B809"></path>
                        </g>
                    </g>
                </g>
            </g>
        </g>
    </g>
</svg>