<?xml version="1.0" encoding="UTF-8"?>
<svg width="40px" height="40px" viewBox="0 0 40 40" version="1.1" xmlns="http://www.w3.org/2000/svg" xmlns:xlink="http://www.w3.org/1999/xlink">
    <!-- Generator: Sketch 57.1 (83088) - https://sketch.com -->
    <title>play</title>
    <desc>Created with Sketch.</desc>
    <g id="Page-1" stroke="none" stroke-width="1" fill="none" fill-rule="evenodd">
        <g id="Artboard" transform="translate(-289.000000, -250.000000)">
            <g id="play" transform="translate(285.000000, 246.000000)">
                <g id="vh-/-icons-/-material-/-48">
                    <polygon id="bounds" fill="#0675CE" opacity="0" points="0 0 48 0 48 48 0 48"></polygon>
                    <path d="M12.65625,35.34375 C15.8437659,38.4687656 19.6249781,40.03125 24,40.03125 C28.3750219,40.03125 32.1406092,38.4531408 35.296875,35.296875 C38.4531408,32.1406092 40.03125,28.3750219 40.03125,24 C40.03125,19.6249781 38.4531408,15.8593908 35.296875,12.703125 C32.1406092,9.54685922 28.3750219,7.96875 24,7.96875 C19.6249781,7.96875 15.8593908,9.54685922 12.703125,12.703125 C9.54685922,15.8593908 7.96875,19.6249781 7.96875,24 C7.96875,28.3750219 9.53123438,32.1562341 12.65625,35.34375 Z M9.84375,9.9375 C13.7812697,5.99998031 18.4999725,4.03125 24,4.03125 C29.5000275,4.03125 34.2031055,5.98435547 38.109375,9.890625 C42.0156445,13.7968945 43.96875,18.4999725 43.96875,24 C43.96875,29.5000275 42.0156445,34.2031055 38.109375,38.109375 C34.2031055,42.0156445 29.5000275,43.96875 24,43.96875 C18.4999725,43.96875 13.7968945,42.0156445 9.890625,38.109375 C5.98435547,34.2031055 4.03125,29.5000275 4.03125,24 C4.03125,18.4999725 5.96873063,13.8125194 9.84375,9.9375 Z M19.96875,33 L19.96875,15 L31.96875,24 L19.96875,33 Z" id="" fill="#F2F6F9" fill-rule="nonzero"></path>
                </g>
            </g>
        </g>
    </g>
</svg>