<?xml version="1.0" encoding="UTF-8"?>
<svg width="20px" height="20px" viewBox="0 0 20 20" version="1.1" xmlns="http://www.w3.org/2000/svg" xmlns:xlink="http://www.w3.org/1999/xlink">
    <!-- Generator: Sketch 57.1 (83088) - https://sketch.com -->
    <title>socia-instagram</title>
    <desc>Created with Sketch.</desc>
    <g id="Page-1" stroke="none" stroke-width="1" fill="none" fill-rule="evenodd">
        <g id="Artboard" transform="translate(-492.000000, -272.000000)" fill-rule="nonzero">
            <g id="socia-instagram" transform="translate(491.000000, 271.000000)">
                <g id="Icon" transform="translate(1.000000, 1.000000)" fill="#FFFFFF">
                    <path d="M17.6476721,0.0951871658 L2.29076567,0.0951871658 C1.08415159,0.0951871658 0.0969218888,1.08085561 0.0969218888,2.2855615 L0.0969218888,17.6181818 C0.0969218888,18.8239829 1.08415159,19.8085561 2.29076567,19.8085561 L17.6476721,19.8085561 C18.8542862,19.8085561 19.8415159,18.8239829 19.8415159,17.6181818 L19.8415159,2.2855615 C19.8415159,1.08085561 18.8542862,0.0951871658 17.6476721,0.0951871658 Z M9.95166814,16.0005904 C13.3068392,15.9999856 16.0264216,13.2842138 16.0264216,9.93434866 C16.0264216,9.5641754 15.9792539,9.20714439 15.9134386,8.85668449 L17.6476721,8.85668449 L17.6476721,16.7595551 C17.6476721,16.9605442 17.5674804,17.1532538 17.424826,17.2950659 C17.2821717,17.4368781 17.0888108,17.5161081 16.8875052,17.5152414 L3.05093254,17.5152414 C2.84962695,17.5161081 2.65626607,17.4368781 2.51361174,17.2950659 C2.37095741,17.1532538 2.29076567,16.9605442 2.29076567,16.7595551 L2.29076567,8.85668449 L3.98989767,8.85668449 C3.92298544,9.20714439 3.8758178,9.5641754 3.8758178,9.93434866 C3.8764234,13.284391 6.59631953,15.9999857 9.95166814,16.0005904 L9.95166814,16.0005904 Z M6.15522148,9.93434866 C6.15522148,7.84094492 7.85494855,6.14390588 9.95166814,6.14390588 C12.0483877,6.14390588 13.7481148,7.84094492 13.7481148,9.93434866 C13.7481148,12.0277524 12.0483877,13.7247914 9.95166814,13.7247914 C7.85494855,13.7247914 6.15522148,12.0277524 6.15522148,9.93434866 L6.15522148,9.93434866 Z M16.8875052,5.57112299 L15.1159764,5.57112299 C14.6972538,5.56991994 14.3581114,5.23131392 14.3569064,4.81325348 L14.3569064,3.04233583 C14.3569064,2.62397433 14.6969522,2.2855615 15.1148795,2.2855615 L16.8864083,2.2855615 C17.3076263,2.2855615 17.6476721,2.62397433 17.6476721,3.04233583 L17.6476721,4.81215829 C17.6476721,5.2294246 17.3076263,5.57112299 16.8875052,5.57112299 Z" id="Icon-Shape"></path>
                </g>
                <rect id="ViewBox" x="0" y="0" width="21.9384378" height="21.9037433"></rect>
            </g>
        </g>
    </g>
</svg>