<?xml version="1.0" encoding="UTF-8"?>
<svg width="20px" height="18px" viewBox="0 0 20 18" version="1.1" xmlns="http://www.w3.org/2000/svg" xmlns:xlink="http://www.w3.org/1999/xlink">
    <!-- Generator: Sketch 57.1 (83088) - https://sketch.com -->
    <title>socia-twitter</title>
    <desc>Created with Sketch.</desc>
    <g id="Page-1" stroke="none" stroke-width="1" fill="none" fill-rule="evenodd">
        <g id="Artboard" transform="translate(-414.000000, -273.000000)" fill-rule="nonzero">
            <g id="socia-twitter" transform="translate(413.000000, 271.000000)">
                <g id="Icon" transform="translate(0.000000, 2.000000)" fill="#FFFFFF">
                    <path d="M18.9942994,4.84053904 C19.0030748,5.01795936 19.0063656,5.19757005 19.0063656,5.37499037 C19.0063656,10.8399743 14.8413532,17.1394909 7.22542448,17.1394909 C4.88569009,17.1394909 2.71049399,16.4549989 0.877537511,15.2809583 C3.06714266,15.5453255 5.2722079,14.9299238 7.00713703,13.5702759 C5.23601647,13.5368496 3.68189595,12.383444 3.13939045,10.6997904 C3.76031584,10.8157219 4.39935963,10.7913981 5.00964227,10.6286032 C3.07740742,10.2374153 1.68848899,8.54156613 1.68816279,6.57312513 L1.68816279,6.52165134 C2.26316531,6.84100792 2.90625587,7.01861072 3.56389922,7.03967487 C1.74204548,5.82702773 1.18064133,3.40788151 2.28269445,1.51883636 C4.38526055,4.10240898 7.48782682,5.6729356 10.8178437,5.83934973 C10.7466069,5.53008838 10.7109093,5.2137277 10.7114422,4.89639358 C10.7114422,3.80029182 11.1476317,2.74909954 11.9240232,1.97414126 C12.7004147,1.19918298 13.7533876,0.763961894 14.8512255,0.764246907 C15.9963483,0.762387862 17.0909814,1.23468333 17.8743422,2.06862032 C18.8013867,1.88539364 19.690491,1.54616476 20.5036639,1.06542888 C20.1943869,2.02284601 19.5472935,2.83549316 18.6827736,3.35217968 C19.503555,3.25502972 20.3051464,3.03575283 21.0609003,2.7016385 C20.5057008,3.53226889 19.805746,4.25671156 18.9942994,4.84053904 L18.9942994,4.84053904 Z" id="Icon-Path"></path>
                </g>
                <rect id="ViewBox" x="0" y="0" width="21.9384378" height="21.9037433"></rect>
            </g>
        </g>
    </g>
</svg>