<?xml version="1.0" encoding="UTF-8"?>
<svg width="20px" height="20px" viewBox="0 0 20 20" version="1.1" xmlns="http://www.w3.org/2000/svg" xmlns:xlink="http://www.w3.org/1999/xlink">
    <!-- Generator: Sketch 57.1 (83088) - https://sketch.com -->
    <title>socia-facebook</title>
    <desc>Created with Sketch.</desc>
    <g id="Page-1" stroke="none" stroke-width="1" fill="none" fill-rule="evenodd">
        <g id="Artboard" transform="translate(-453.000000, -272.000000)" fill-rule="nonzero">
            <g id="socia-facebook" transform="translate(452.000000, 271.000000)">
                <g id="Icon" transform="translate(1.000000, 1.000000)" fill="#FFFFFF">
                    <path d="M17.6476721,0.0951871658 L2.29076567,0.0951871658 C1.08415159,0.0951871658 0.0969218888,1.08085561 0.0969218888,2.2855615 L0.0969218888,17.6181818 C0.0969218888,18.8239829 1.08415159,19.8085561 2.29076567,19.8085561 L9.96921889,19.8085561 L9.96921889,12.142246 L7.77537511,12.142246 L7.77537511,9.43165775 L9.96921889,9.43165775 L9.96921889,7.18652406 C9.96921889,4.81653904 11.2986882,3.15185455 14.1002267,3.15185455 L16.0779769,3.15404492 L16.0779769,6.00700749 L14.7649614,6.00700749 C13.674621,6.00700749 13.2599846,6.82401711 13.2599846,7.58188663 L13.2599846,9.43275294 L16.07688,9.43275294 L15.4538283,12.142246 L13.2599846,12.142246 L13.2599846,19.8085561 L17.6476721,19.8085561 C18.8542862,19.8085561 19.8415159,18.8239829 19.8415159,17.6181818 L19.8415159,2.2855615 C19.8415159,1.08085561 18.8542862,0.0951871658 17.6476721,0.0951871658 Z" id="Icon-Path"></path>
                </g>
                <rect id="ViewBox" x="0" y="0" width="21.9384378" height="21.9037433"></rect>
            </g>
        </g>
    </g>
</svg>