<?xml version="1.0" encoding="UTF-8"?>
<svg width="20px" height="20px" viewBox="0 0 20 20" version="1.1" xmlns="http://www.w3.org/2000/svg" xmlns:xlink="http://www.w3.org/1999/xlink">
    <!-- Generator: Sketch 57.1 (83088) - https://sketch.com -->
    <title>socia-linkedin</title>
    <desc>Created with Sketch.</desc>
    <g id="Page-1" stroke="none" stroke-width="1" fill="none" fill-rule="evenodd">
        <g id="Artboard" transform="translate(-374.000000, -271.000000)" fill-rule="nonzero">
            <g id="socia-linkedin" transform="translate(373.000000, 270.000000)">
                <g id="Icon" transform="translate(1.000000, 1.000000)" fill="#FFFFFF">
                    <path d="M4.48460944,2.2855615 C4.48460944,3.44865027 3.7057949,4.44965134 2.28966874,4.44965134 C0.95690865,4.44965134 0.0969218888,3.5056 0.0969218888,2.34251123 C0.0969218888,1.14875722 0.930582524,0.0951871658 2.29076567,0.0951871658 C3.65094881,0.0951871658 4.45828332,1.09180749 4.48460944,2.2855615 Z M0.0969218888,19.8085561 L0.0969218888,5.57112299 L4.48460944,5.57112299 L4.48460944,19.8085561 L0.0969218888,19.8085561 Z" id="Icon-Shape"></path>
                    <path d="M6.67845322,10.4381348 C6.67845322,8.74607059 6.62251021,7.33218396 6.56656719,6.11105027 L10.5089045,6.11105027 L10.7041566,7.99805775 L10.7875226,7.99805775 C11.3425651,7.10986096 12.7027482,5.80768342 14.9799581,5.80768342 C17.7573643,5.80768342 19.8415159,7.66402567 19.8415159,11.6581733 L19.8415159,19.8085561 L15.4538283,19.8085561 L15.4538283,12.294477 C15.4538283,10.5487487 14.7879967,9.21700107 13.2599846,9.21700107 C12.0950535,9.21700107 11.5114911,10.158862 11.2054499,10.9353497 C11.0935638,11.2135273 11.0661408,11.6012235 11.0661408,11.990015 L11.0661408,19.8085561 L6.67845322,19.8085561 L6.67845322,10.4381348 Z" id="Icon-Path"></path>
                </g>
                <rect id="ViewBox" x="0" y="0" width="21.9384378" height="21.9037433"></rect>
            </g>
        </g>
    </g>
</svg>