<?xml version="1.0" encoding="UTF-8"?>
<svg width="36px" height="43px" viewBox="0 0 36 43" version="1.1" xmlns="http://www.w3.org/2000/svg" xmlns:xlink="http://www.w3.org/1999/xlink">
    <!-- Generator: Sketch 57.1 (83088) - https://sketch.com -->
    <title>timer</title>
    <desc>Created with Sketch.</desc>
    <g id="Page-1" stroke="none" stroke-width="1" fill="none" fill-rule="evenodd">
        <g id="Artboard" transform="translate(-291.000000, -91.000000)" fill="#0675CE">
            <g id="timer" transform="translate(285.000000, 90.000000)">
                <g id="vh-/-icons-/-material-/-48">
                    <polygon id="bounds" opacity="0" points="0 0 48 0 48 48 0 48"></polygon>
                    <path d="M14.0625,35.90625 C16.8125138,38.6562638 20.1249806,40.03125 24,40.03125 C27.8750194,40.03125 31.1718614,38.6562638 33.890625,35.90625 C36.6093886,33.1562362 37.96875,29.8437694 37.96875,25.96875 C37.96875,22.0937306 36.6093886,18.7968886 33.890625,16.078125 C31.1718614,13.3593614 27.8750194,12 24,12 C20.1249806,12 16.8281386,13.3593614 14.109375,16.078125 C11.3906114,18.7968886 10.03125,22.0937306 10.03125,25.96875 C10.03125,29.8437694 11.3749866,33.1562362 14.0625,35.90625 Z M38.0625,14.8125 C40.6875131,18.1250166 42,21.8437294 42,25.96875 C42,30.9062747 40.2500175,35.1406073 36.75,38.671875 C33.2499825,42.2031427 29.000025,43.96875 24,43.96875 C18.999975,43.96875 14.7500175,42.2031427 11.25,38.671875 C7.7499825,35.1406073 6,30.9062747 6,25.96875 C6,21.0312253 7.7499825,16.7968927 11.25,13.265625 C14.7500175,9.73435734 18.999975,7.96875 24,7.96875 C28.0625203,7.96875 31.8124828,9.31248656 35.25,12 L38.0625,9.09375 C39.062505,9.90625406 40,10.8437447 40.875,11.90625 L38.0625,14.8125 Z M22.03125,28.03125 L22.03125,16.03125 L25.96875,16.03125 L25.96875,28.03125 L22.03125,28.03125 Z M30,1.96875 L30,6 L18,6 L18,1.96875 L30,1.96875 Z" id="î¥" fill-rule="nonzero"></path>
                </g>
            </g>
        </g>
    </g>
</svg>