<?xml version="1.0" encoding="UTF-8"?>
<svg width="40px" height="40px" viewBox="0 0 40 40" version="1.1" xmlns="http://www.w3.org/2000/svg" xmlns:xlink="http://www.w3.org/1999/xlink">
    <!-- Generator: Sketch 57.1 (83088) - https://sketch.com -->
    <title>world</title>
    <desc>Created with Sketch.</desc>
    <g id="Page-1" stroke="none" stroke-width="1" fill="none" fill-rule="evenodd">
        <g id="Artboard" transform="translate(-361.000000, -94.000000)" fill="#0675CE">
            <g id="world" transform="translate(357.000000, 90.000000)">
                <g id="vh-/-icons-/-material-/-48">
                    <polygon id="bounds" opacity="0" points="0 0 48 0 48 48 0 48"></polygon>
                    <path d="M32.71875,28.03125 L39.46875,28.03125 C39.8437519,26.2812413 40.03125,24.9375047 40.03125,24 C40.03125,23.0624953 39.8437519,21.7187587 39.46875,19.96875 L32.71875,19.96875 C32.9062509,21.2812566 33,22.6249931 33,24 C33,25.3750069 32.9062509,26.7187434 32.71875,28.03125 Z M29.15625,39.09375 C32.9687691,37.8437438 35.87499,35.4687675 37.875,31.96875 L31.96875,31.96875 C31.3437469,34.4687625 30.4062562,36.8437387 29.15625,39.09375 Z M28.6875,28.03125 C28.8750009,26.7187434 28.96875,25.3750069 28.96875,24 C28.96875,22.6249931 28.8750009,21.2812566 28.6875,19.96875 L19.3125,19.96875 C19.1249991,21.2812566 19.03125,22.6249931 19.03125,24 C19.03125,25.3750069 19.1249991,26.7187434 19.3125,28.03125 L28.6875,28.03125 Z M24,39.9375 C25.7500087,37.3749872 27.0312459,34.7187638 27.84375,31.96875 L20.15625,31.96875 C20.9687541,34.7187638 22.2499913,37.3749872 24,39.9375 Z M16.03125,16.03125 C16.6562531,13.5312375 17.5937438,11.1562613 18.84375,8.90625 C15.0312309,10.1562562 12.125,12.5312325 10.125,16.03125 L16.03125,16.03125 Z M10.125,31.96875 C12.125,35.4687675 15.0312309,37.8437438 18.84375,39.09375 C17.5937438,36.8437387 16.6562531,34.4687625 16.03125,31.96875 L10.125,31.96875 Z M8.53125,28.03125 L15.28125,28.03125 C15.0937491,26.7187434 15,25.3750069 15,24 C15,22.6249931 15.0937491,21.2812566 15.28125,19.96875 L8.53125,19.96875 C8.15624812,21.7187587 7.96875,23.0624953 7.96875,24 C7.96875,24.9375047 8.15624812,26.2812413 8.53125,28.03125 Z M24,8.0625 C22.2499913,10.6250128 20.9687541,13.2812362 20.15625,16.03125 L27.84375,16.03125 C27.0312459,13.2812362 25.7500087,10.6250128 24,8.0625 Z M37.875,16.03125 C35.87499,12.5312325 32.9687691,10.1562562 29.15625,8.90625 C30.4062562,11.1562613 31.3437469,13.5312375 31.96875,16.03125 L37.875,16.03125 Z M9.84375,9.9375 C13.7812697,5.99998031 18.4999725,4.03125 24,4.03125 C29.5000275,4.03125 34.2031055,5.98435547 38.109375,9.890625 C42.0156445,13.7968945 43.96875,18.4999725 43.96875,24 C43.96875,29.5000275 42.0156445,34.2031055 38.109375,38.109375 C34.2031055,42.0156445 29.5000275,43.96875 24,43.96875 C18.4999725,43.96875 13.7968945,42.0156445 9.890625,38.109375 C5.98435547,34.2031055 4.03125,29.5000275 4.03125,24 C4.03125,18.4999725 5.96873063,13.8125194 9.84375,9.9375 Z" id="" fill-rule="nonzero"></path>
                </g>
            </g>
        </g>
    </g>
</svg>